<svg xmlns="http://www.w3.org/2000/svg" height="280" width="930">
  <path d="M 156.00 1.00 C 155.79 2.77, 155.58 4.72, 155.47, 6.57 C 155.22 10.63, 155.44 13.70, 155.20, 17.76 C 155.09 19.61, 154.87 21.56, 154.67, 23.33 C 154.46 25.10, 154.24 27.06, 154.13, 28.90 C 154.02 30.75, 154.01 32.72, 154.00, 34.50 C 154.01 36.28, 154.02 38.25, 154.13, 40.10 C 154.38 44.15, 154.96 47.18, 155.20, 51.24 C 155.31 53.09, 155.33 55.05, 155.33, 56.83 C 155.34 58.62, 155.36 60.58, 155.47, 62.43 C 155.58 64.28, 155.79 66.23, 156.00, 68.00 C 157.46 67.20, 159.07 66.32, 160.54, 65.40 C 162.00 64.48, 163.50 63.43, 164.86, 62.46 C 165.92 61.17, 167.08 59.75, 168.09, 58.35 C 169.11 56.95, 170.10 55.41, 171.00, 54.00 C 170.80 52.55, 170.57 50.95, 170.27, 49.45 C 169.59 46.18, 168.69 43.80, 168.01, 40.52 C 167.71 39.03, 167.48 37.43, 167.28, 35.97 C 167.08 34.52, 166.85 32.92, 166.55, 31.43 C 166.24 29.93, 165.81 28.37, 165.42, 26.96 C 165.01 25.55, 164.56 24.00, 164.04, 22.57 C 162.90 19.42, 161.66 17.19, 160.52, 14.05 C 160.00 12.62, 159.55 11.06, 159.14, 9.65 C 158.73 8.24, 158.28 6.69, 157.76, 5.26 C 157.24 3.83, 156.59 2.34, 156.00, 1.00" fill="#74899e" fill-opacity="0.62745125" label="middle" layer="1" fill-hsl="210,18,54" filter="drop-shadow(0px 0px 5px #74899e)"/>
</svg>