<svg xmlns="http://www.w3.org/2000/svg" height="280" width="930">
  <path d="M 13.00 10.00 C 12.58 13.89, 12.13 18.18, 11.80, 22.23 C 11.47 26.29, 11.22 30.59, 11.00, 34.50 C 11.22 38.41, 11.47 42.71, 11.80, 46.77 C 12.13 50.82, 12.58 55.11, 13.00, 59.00 C 14.75 58.59, 16.67 58.14, 18.46, 57.61 C 22.38 56.47, 25.22 55.22, 29.15, 54.07 C 30.93 53.55, 32.86 53.09, 34.60, 52.69 C 36.35 52.28, 38.27 51.82, 40.06, 51.30 C 43.98 50.15, 46.82 48.91, 50.75, 47.76 C 52.54 47.24, 54.46 46.78, 56.21, 46.37 C 57.95 45.96, 59.87 45.51, 61.66, 44.98 C 65.59 43.84, 68.43 42.59, 72.35, 41.44 C 74.14 40.92, 76.06 40.46, 77.81, 40.06 C 79.56 39.65, 81.48 39.19, 83.27, 38.67 C 85.05 38.15, 86.92 37.50, 88.61, 36.90 C 90.33 36.41, 92.23 35.85, 93.99, 35.24 C 97.85 33.89, 100.62 32.51, 104.48, 31.16 C 106.24 30.55, 108.14 29.99, 109.86, 29.50 C 111.59 29.01, 113.48 28.45, 115.24, 27.84 C 119.11 26.49, 121.88 25.11, 125.74, 23.76 C 127.50 23.15, 129.39 22.59, 131.12, 22.10 C 132.84 21.61, 134.74 21.05, 136.50, 20.44 C 140.36 19.09, 143.13 17.71, 146.99, 16.36 C 148.75 15.75, 150.65 15.19, 152.37, 14.70 C 154.10 14.21, 155.99 13.65, 157.75, 13.04 C 159.51 12.43, 161.34 11.68, 163.00, 11.00 C 161.30 10.84, 159.42 10.68, 157.65, 10.62 C 153.76 10.49, 150.82 10.79, 146.92, 10.66 C 145.15 10.61, 143.28 10.44, 141.57, 10.29 C 139.87 10.13, 138.00 9.97, 136.22, 9.91 C 132.33 9.78, 129.39 10.08, 125.50, 9.95 C 123.72 9.89, 121.85 9.73, 120.15, 9.57 C 118.45 9.41, 116.57 9.25, 114.80, 9.19 C 110.91 9.06, 107.97 9.37, 104.07, 9.24 C 102.30 9.18, 100.42 9.01, 98.72, 8.86 C 97.02 8.70, 95.15 8.54, 93.37, 8.48 C 91.60 8.42, 89.72 8.46, 88.01, 8.50 C 86.30 8.43, 84.42 8.37, 82.65, 8.41 C 78.75 8.49, 75.83 8.94, 71.94, 9.02 C 70.17 9.06, 68.29 8.99, 66.58, 8.93 C 64.87 8.86, 62.99 8.80, 61.22, 8.84 C 57.32 8.91, 54.40 9.37, 50.51, 9.45 C 48.73 9.49, 46.85 9.42, 45.15, 9.36 C 43.44 9.29, 41.56 9.23, 39.79, 9.26 C 35.89 9.34, 32.97 9.80, 29.08, 9.88 C 27.30 9.91, 25.42 9.85, 23.72, 9.79 C 22.01 9.72, 20.13 9.66, 18.35, 9.69 C 16.58 9.73, 14.70 9.87, 13.00, 10.00" fill="#6198ac" fill-opacity="0.7401962500000001" label="middle" layer="1" fill-hsl="196,31,53" filter="drop-shadow(0px 0px 5px #6198ac)"/>
</svg>