<svg xmlns="http://www.w3.org/2000/svg" height="280" width="930">
  <path d="M 204.00 1.00 C 203.90 3.13, 203.80 5.48, 203.80, 7.70 C 203.80 12.57, 204.20 16.23, 204.20, 21.10 C 204.20 23.32, 204.10 25.67, 204.00, 27.80 C 203.90 29.93, 203.80 32.28, 203.80, 34.50 C 203.80 39.37, 204.20 43.03, 204.20, 47.90 C 204.20 50.12, 204.10 52.47, 204.00, 54.60 C 203.90 56.73, 203.80 59.08, 203.80, 61.30 C 203.80 63.52, 203.90 65.87, 204.00, 68.00 C 206.03 66.32, 208.26 64.47, 210.30, 62.65 C 214.78 58.65, 217.89 55.35, 222.37, 51.35 C 224.41 49.53, 226.64 47.68, 228.67, 46.00 C 230.70 44.32, 232.92 42.47, 234.97, 40.65 C 237.01 38.83, 239.10 36.83, 241.00, 35.00 C 239.89 33.84, 238.66 32.58, 237.44, 31.45 C 234.75 28.98, 232.45 27.42, 229.76, 24.95 C 228.54 23.82, 227.31 22.56, 226.20, 21.40 C 225.09 20.24, 223.86 18.98, 222.64, 17.85 C 219.95 15.38, 217.65 13.82, 214.96, 11.35 C 213.74 10.22, 212.51 8.96, 211.40, 7.80 C 210.29 6.64, 209.06 5.38, 207.84, 4.25 C 206.61 3.13, 205.25 2.01, 204.00, 1.00" fill="#6190ac" fill-opacity="1.282353" label="outline" layer="0" fill-hsl="202,31,53" filter="drop-shadow(0px 0px 5px #6190ac)"/>
</svg>