<svg xmlns="http://www.w3.org/2000/svg" height="280" width="930">
  <path d="M 231.41 0.00 C 232.37 2.77, 233.41 5.83, 234.31, 8.75 C 235.21 11.66, 236.06 14.78, 236.83, 17.61 C 237.17 20.52, 237.52 23.73, 237.77, 26.77 C 238.01 29.81, 238.17 33.04, 238.31, 35.97 C 238.17 38.67, 238.01 41.65, 237.76, 44.45 C 237.52 47.26, 237.16 50.21, 236.82, 52.90 C 236.05 55.49, 235.20 58.35, 234.30, 61.01 C 233.41 63.68, 232.37 66.47, 231.41, 69.00 C 230.62 66.44, 229.77 63.62, 229.05, 60.94 C 228.33 58.25, 227.66 55.38, 227.07, 52.77 C 226.91 50.10, 226.74 47.16, 226.68, 44.37 C 226.62 41.59, 226.65 38.65, 226.69, 35.97 C 226.65 33.06, 226.62 29.87, 226.68, 26.85 C 226.74 23.83, 226.91 20.63, 227.07, 17.73 C 227.66 14.88, 228.33 11.75, 229.05, 8.82 C 229.76 5.88, 230.62 2.80, 231.41, 0.00" fill="#5b93a4" fill-opacity="0.92156875" label="middle" layer="1" fill-hsl="194,29,50" filter="drop-shadow(0px 0px 5px #5b93a4)"/>
</svg>