<svg xmlns="http://www.w3.org/2000/svg" height="280" width="930">
  <path d="M 7.35 20.28 C 9.26 20.47, 11.37 20.66, 13.36, 20.75 C 17.73 20.95, 21.04 20.69, 25.42, 20.89 C 27.41 20.98, 29.52 21.17, 31.43, 21.36 C 33.34 21.54, 35.44 21.74, 37.44, 21.83 C 41.81 22.02, 45.12 21.77, 49.50, 21.96 C 51.49 22.05, 53.60 22.25, 55.51, 22.43 C 57.42 22.62, 59.52 22.81, 61.52, 22.90 C 65.89 23.10, 69.20 22.84, 73.58, 23.04 C 75.57 23.13, 77.67 23.32, 79.59, 23.51 C 81.50 23.69, 83.60 23.89, 85.60, 23.98 C 89.97 24.17, 93.28 23.92, 97.65, 24.11 C 99.65 24.20, 101.75 24.40, 103.67, 24.58 C 105.58 24.77, 107.68 24.96, 109.68, 25.05 C 114.05 25.25, 117.36 24.99, 121.73, 25.19 C 123.73 25.28, 125.83 25.47, 127.74, 25.66 C 129.66 25.84, 131.76 26.04, 133.76, 26.13 C 138.13 26.32, 141.44 26.07, 145.81, 26.26 C 147.81 26.35, 149.91 26.55, 151.82, 26.73 C 153.74 26.92, 155.84 27.11, 157.83, 27.20 C 162.21 27.40, 165.52 27.14, 169.89, 27.34 C 171.89 27.43, 173.99 27.62, 175.90, 27.81 C 177.81 27.99, 179.92 28.19, 181.91, 28.28 C 186.29 28.47, 189.60 28.22, 193.97, 28.41 C 195.97 28.50, 198.07 28.70, 199.98, 28.88 C 201.89 29.07, 204.00 29.26, 205.99, 29.35 C 210.37 29.55, 213.68 29.29, 218.05, 29.49 C 220.04 29.58, 222.15 29.77, 224.06, 29.96 C 225.97 30.14, 228.08 30.34, 230.07, 30.43 C 232.07 30.52, 234.18 30.51, 236.10, 30.50 C 236.31 29.00, 236.53 27.36, 236.64, 25.80 C 236.89 22.37, 236.68 19.76, 236.92, 16.34 C 237.04 14.78, 237.26 13.13, 237.46, 11.64 C 237.67 10.14, 237.89 8.50, 238.01, 6.94 C 238.12 5.38, 238.14 3.72, 238.15, 2.21 C 236.21 2.09, 234.07 1.98, 232.05, 1.96 C 227.61 1.93, 224.28 2.31, 219.84, 2.28 C 217.82 2.26, 215.68 2.15, 213.74, 2.03 C 211.80 1.92, 209.66 1.80, 207.64, 1.79 C 203.21 1.76, 199.87 2.13, 195.43, 2.10 C 193.41 2.09, 191.28 1.97, 189.33, 1.86 C 187.39 1.75, 185.26 1.63, 183.23, 1.62 C 178.80 1.58, 175.46 1.96, 171.03, 1.93 C 169.01 1.91, 166.87 1.80, 164.93, 1.69 C 162.99 1.57, 160.85 1.46, 158.83, 1.44 C 154.39 1.41, 151.06 1.79, 146.62, 1.75 C 144.60 1.74, 142.46 1.63, 140.52, 1.51 C 138.58 1.40, 136.44 1.28, 134.42, 1.27 C 129.99 1.24, 126.65 1.61, 122.22, 1.58 C 120.20 1.57, 118.06 1.45, 116.12, 1.34 C 114.18 1.22, 112.04 1.11, 110.02, 1.09 C 105.58 1.06, 102.25 1.44, 97.81, 1.41 C 95.79 1.39, 93.65 1.28, 91.71, 1.16 C 89.77 1.05, 87.63 0.93, 85.61, 0.92 C 81.18 0.89, 77.84 1.26, 73.40, 1.23 C 71.38 1.22, 69.25 1.10, 67.30, 0.99 C 65.36 0.88, 63.23 0.76, 61.20, 0.75 C 56.77 0.71, 53.43 1.09, 49.00, 1.06 C 46.98 1.04, 44.84 0.93, 42.90, 0.82 C 40.96 0.70, 38.82 0.59, 36.80, 0.57 C 34.78 0.56, 32.64 0.64, 30.70, 0.73 C 29.39 1.69, 27.96 2.75, 26.68, 3.83 C 23.85 6.20, 21.98 8.29, 19.15, 10.66 C 17.86 11.74, 16.43 12.80, 15.13, 13.76 C 13.83 14.73, 12.40 15.79, 11.11, 16.87 C 9.82 17.95, 8.52 19.17, 7.35, 20.28" fill="#5e8ca7" fill-opacity="1.258824" label="outline" layer="0" fill-hsl="202,29,51" filter="drop-shadow(0px 0px 5px #5e8ca7)"/>
</svg>