<svg xmlns="http://www.w3.org/2000/svg" height="280" width="930">
  <path d="M 234.67 62.88 C 235.14 59.19, 235.64 55.13, 236.02, 51.28 C 236.41 47.44, 236.71 43.36, 236.98, 39.65 C 236.81 35.94, 236.61 31.85, 236.33, 28.00 C 236.05 24.14, 235.66 20.07, 235.29, 16.37 C 232.45 15.47, 229.31 14.49, 226.32, 13.65 C 223.34 12.81, 220.15 12.02, 217.25, 11.31 C 214.28 11.03, 211.01 10.74, 207.91, 10.55 C 204.82 10.36, 201.53 10.27, 198.55, 10.19 C 196.74 10.15, 194.75 10.12, 192.87, 10.19 C 188.74 10.33, 185.65 10.84, 181.52, 10.98 C 179.64 11.04, 177.65 11.01, 175.84, 10.98 C 174.03 10.94, 172.03 10.91, 170.15, 10.97 C 166.03 11.12, 162.94 11.62, 158.81, 11.76 C 156.93 11.83, 154.94 11.80, 153.13, 11.76 C 151.32 11.72, 149.32 11.69, 147.44, 11.76 C 143.32 11.90, 140.23 12.41, 136.10, 12.55 C 134.22 12.62, 132.23 12.58, 130.42, 12.55 C 128.60 12.51, 126.61 12.48, 124.73, 12.54 C 122.85 12.61, 120.86 12.78, 119.06, 12.94 C 117.25 12.99, 115.26 13.06, 113.38, 13.22 C 109.27 13.57, 106.21 14.23, 102.09, 14.58 C 100.22 14.74, 98.23 14.81, 96.42, 14.87 C 94.61 14.92, 92.61 14.99, 90.74, 15.15 C 86.63 15.50, 83.57 16.16, 79.45, 16.51 C 77.58 16.67, 75.58 16.74, 73.77, 16.79 C 71.96 16.85, 69.97 16.91, 68.10, 17.07 C 63.98 17.42, 60.92 18.09, 56.81, 18.43 C 54.93 18.59, 52.94 18.66, 51.13, 18.72 C 49.32 18.77, 47.33 18.84, 45.45, 19.00 C 43.58 19.16, 41.60 19.43, 39.81, 19.68 C 41.99 20.31, 44.40 21.00, 46.69, 21.56 C 51.73 22.78, 55.61 23.31, 60.64, 24.53 C 62.94 25.09, 65.34 25.78, 67.52, 26.41 C 69.71 27.04, 72.11 27.73, 74.41, 28.29 C 79.44 29.51, 83.32 30.04, 88.36, 31.26 C 90.65 31.82, 93.06 32.50, 95.24, 33.14 C 97.42 33.77, 99.83 34.46, 102.12, 35.01 C 107.16 36.24, 111.04 36.77, 116.07, 37.99 C 118.37 38.55, 120.77 39.23, 122.95, 39.87 C 125.13 40.50, 127.54 41.19, 129.83, 41.74 C 132.13 42.30, 134.58 42.79, 136.81, 43.23 C 139.02 43.77, 141.45 44.36, 143.76, 44.83 C 148.84 45.85, 152.74 46.22, 157.82, 47.24 C 160.13 47.71, 162.56 48.30, 164.77, 48.84 C 166.98 49.39, 169.41 49.98, 171.72, 50.44 C 176.80 51.46, 180.70 51.84, 185.78, 52.86 C 188.09 53.32, 190.52 53.91, 192.73, 54.46 C 194.94 55.00, 197.37 55.59, 199.68, 56.06 C 204.76 57.08, 208.66 57.45, 213.74, 58.47 C 216.05 58.94, 218.48 59.53, 220.69, 60.07 C 222.90 60.62, 225.33 61.21, 227.64, 61.67 C 229.96 62.14, 232.43 62.53, 234.67, 62.88" fill="#628eab" fill-opacity="0.838235" label="middle" layer="1" fill-hsl="204,30,53" filter="drop-shadow(0px 0px 5px #628eab)"/>
</svg>