<svg xmlns="http://www.w3.org/2000/svg" height="280" width="930">
  <path d="M 33.67 65.51 C 35.89 65.81, 38.34 66.13, 40.67, 66.33 C 45.77 66.79, 49.64 66.73, 54.74, 67.18 C 57.06 67.39, 59.51 67.71, 61.74, 68.00 C 63.96 68.30, 66.41 68.62, 68.74, 68.83 C 71.06 69.03, 73.53 69.15, 75.77, 69.25 C 78.01 69.34, 80.48 69.42, 82.81, 69.41 C 87.93 69.38, 91.78 68.96, 96.90, 68.93 C 99.23 68.91, 101.70 69.00, 103.94, 69.08 C 106.19 69.17, 108.65 69.26, 110.99, 69.24 C 113.32 69.23, 115.79 69.11, 118.03, 69.00 C 116.92 67.56, 115.68 65.99, 114.45, 64.56 C 113.21 63.13, 111.82 61.69, 110.56, 60.38 C 109.02 59.41, 107.32 58.36, 105.66, 57.44 C 104.01 56.53, 102.21 55.65, 100.57, 54.86 C 98.67 54.62, 96.59 54.38, 94.61, 54.24 C 90.26 53.93, 86.97 54.09, 82.62, 53.78 C 80.64 53.64, 78.55 53.40, 76.66, 53.16 C 74.76 52.92, 72.67 52.68, 70.69, 52.54 C 68.71 52.39, 66.61 52.35, 64.70, 52.31 C 62.79 52.29, 60.69 52.27, 58.70, 52.35 C 54.35 52.53, 51.10 53.06, 46.74, 53.23 C 44.76 53.31, 42.66 53.30, 40.75, 53.28 C 38.84 53.25, 36.73 53.24, 34.75, 53.32 C 32.77 53.40, 30.67 53.58, 28.77, 53.76 C 28.77 54.83, 28.77 56.00, 28.87, 57.10 C 28.97 58.20, 29.17 59.35, 29.37, 60.40 C 29.98 61.28, 30.65 62.24, 31.37, 63.08 C 32.08 63.93, 32.91 64.76, 33.67, 65.51" fill="#456c7b" fill-opacity="0.50980375" label="middle" layer="1" fill-hsl="197,28,38" filter="drop-shadow(0px 0px 5px #456c7b)"/>
</svg>