<svg xmlns="http://www.w3.org/2000/svg" height="280" width="930">
  <path d="M 117.51 67.35 C 117.83 65.86, 118.18 64.22, 118.41, 62.65 C 118.93 59.22, 118.91 56.58, 119.43, 53.14 C 119.66 51.57, 120.01 49.93, 120.33, 48.44 C 120.65 46.95, 121.00 45.31, 121.23, 43.75 C 121.47 42.18, 121.61 40.51, 121.74, 38.99 C 121.85 37.47, 121.97 35.80, 121.98, 34.21 C 122.01 30.74, 121.63 28.13, 121.66, 24.65 C 121.67 23.07, 121.79 21.40, 121.90, 19.88 C 122.01 18.36, 122.13 16.68, 122.14, 15.10 C 122.15 13.52, 122.07 11.84, 121.98, 10.32 C 120.96 9.16, 119.84 7.89, 118.71, 6.76 C 117.58 5.63, 116.31 4.51, 115.15, 3.49 C 113.75 2.84, 112.21 2.14, 110.72, 1.56 C 109.23 0.98, 107.61 0.46, 106.14, 0.00 C 105.89 1.82, 105.63 3.82, 105.47, 5.73 C 105.13 9.90, 105.28 13.07, 104.94, 17.24 C 104.78 19.14, 104.52 21.15, 104.27, 22.97 C 104.03 24.79, 103.76 26.79, 103.61, 28.69 C 103.45 30.59, 103.39 32.61, 103.34, 34.45 C 103.30 36.29, 103.27 38.31, 103.34, 40.22 C 103.48 44.40, 103.99 47.53, 104.13, 51.72 C 104.20 53.63, 104.17 55.65, 104.13, 57.48 C 104.10 59.32, 104.07 61.34, 104.13, 63.25 C 104.20 65.16, 104.37 67.17, 104.53, 69.00 C 105.59 69.28, 106.75 69.58, 107.87, 69.78 C 108.98 69.97, 110.18 70.07, 111.27, 70.16 C 112.30 69.80, 113.44 69.40, 114.47, 68.94 C 115.51 68.47, 116.56 67.89, 117.51, 67.35" fill="#6875b2" fill-opacity="0.7058825000000001" label="middle" layer="1" fill-hsl="229,32,55" filter="drop-shadow(0px 0px 5px #6875b2)"/>
</svg>