<svg xmlns="http://www.w3.org/2000/svg" height="280" width="930">
  <path d="M 15.00 12.00 C 14.58 15.57, 14.13 19.51, 13.80, 23.23 C 13.47 26.96, 13.22 30.91, 13.00, 34.50 C 13.22 38.09, 13.47 42.04, 13.80, 45.77 C 14.13 49.49, 14.58 53.43, 15.00, 57.00 C 17.07 57.16, 19.34 57.33, 21.49, 57.40 C 26.22 57.55, 29.78 57.25, 34.51, 57.40 C 36.66 57.47, 38.93 57.64, 41.00, 57.80 C 43.07 57.96, 45.34 58.13, 47.49, 58.20 C 52.22 58.35, 55.78 58.05, 60.51, 58.20 C 62.66 58.27, 64.93 58.44, 67.00, 58.60 C 69.07 58.76, 71.34 58.93, 73.49, 59.00 C 75.65 59.07, 77.93 59.04, 80.00, 59.00 C 82.07 59.04, 84.35 59.07, 86.51, 59.00 C 91.23 58.85, 94.77 58.35, 99.49, 58.20 C 101.65 58.13, 103.93 58.16, 106.00, 58.20 C 108.07 58.24, 110.35 58.27, 112.51, 58.20 C 117.23 58.05, 120.77 57.55, 125.49, 57.40 C 127.65 57.33, 129.93 57.36, 132.00, 57.40 C 134.07 57.44, 136.35 57.47, 138.51, 57.40 C 140.66 57.33, 142.93 57.16, 145.00, 57.00 C 142.99 56.13, 140.77 55.18, 138.64, 54.37 C 133.96 52.60, 130.30 51.64, 125.62, 49.87 C 123.49 49.06, 121.27 48.11, 119.26, 47.24 C 117.25 46.37, 115.03 45.43, 112.90, 44.62 C 108.22 42.85, 104.56 41.89, 99.88, 40.11 C 97.75 39.31, 95.53 38.36, 93.52, 37.49 C 91.51 36.62, 89.29 35.67, 87.16, 34.86 C 85.02 34.05, 82.73 33.29, 80.65, 32.61 C 78.59 31.86, 76.32 31.04, 74.14, 30.36 C 69.37 28.86, 65.67 28.12, 60.90, 26.62 C 58.72 25.94, 56.45 25.12, 54.39, 24.37 C 52.33 23.61, 50.06 22.80, 47.88, 22.11 C 43.11 20.62, 39.41 19.87, 34.64, 18.37 C 32.46 17.69, 30.19 16.87, 28.13, 16.12 C 26.07 15.37, 23.80 14.55, 21.62, 13.87 C 19.45 13.19, 17.12 12.56, 15.00, 12.00" fill="#6199aa" fill-opacity="0.59803875" label="middle" layer="1" fill-hsl="194,30,52" filter="drop-shadow(0px 0px 5px #6199aa)"/>
</svg>