<svg xmlns="http://www.w3.org/2000/svg" height="280" width="930">
  <path d="M 164.86 57.38 C 166.46 56.57, 168.23 55.67, 169.84, 54.74 C 173.39 52.70, 175.86 50.81, 179.41, 48.77 C 181.03 47.84, 182.79 46.94, 184.39, 46.13 C 186.00 45.33, 187.76 44.43, 189.38, 43.50 C 192.93 41.45, 195.40 39.57, 198.95, 37.53 C 200.56 36.60, 202.33 35.70, 203.93, 34.89 C 205.53 34.08, 207.30 33.19, 208.91, 32.25 C 212.46 30.21, 214.93 28.33, 218.48, 26.29 C 220.10 25.36, 221.86 24.46, 223.47, 23.65 C 225.07 22.84, 226.83 21.94, 228.45, 21.01 C 230.07 20.08, 231.73 19.01, 233.23, 18.03 C 231.33 17.94, 229.23 17.85, 227.25, 17.86 C 222.91 17.88, 219.64 18.30, 215.30, 18.32 C 213.31 18.34, 211.22 18.25, 209.31, 18.16 C 207.41 18.07, 205.31 17.98, 203.33, 17.99 C 198.99 18.01, 195.72 18.43, 191.38, 18.45 C 189.40 18.46, 187.30 18.37, 185.40, 18.28 C 183.49 18.19, 181.40 18.11, 179.41, 18.12 C 175.07 18.14, 171.80 18.56, 167.46, 18.58 C 165.48 18.59, 163.38 18.50, 161.48, 18.41 C 159.57 18.32, 157.48 18.23, 155.50, 18.24 C 151.15 18.27, 147.88 18.68, 143.54, 18.71 C 141.56 18.72, 139.46 18.63, 137.56, 18.54 C 135.65 18.45, 133.56 18.36, 131.58, 18.37 C 127.23 18.39, 123.97 18.81, 119.62, 18.83 C 117.64 18.85, 115.54 18.76, 113.64, 18.67 C 111.74 18.58, 109.64 18.49, 107.66, 18.50 C 103.31 18.52, 100.05 18.94, 95.70, 18.96 C 93.72 18.97, 91.62 18.88, 89.72, 18.79 C 87.82 18.70, 85.72 18.62, 83.74, 18.63 C 79.39 18.65, 76.13 19.07, 71.78, 19.09 C 69.80 19.10, 67.71 19.01, 65.80, 18.92 C 63.90 18.83, 61.80 18.74, 59.82, 18.75 C 55.48 18.78, 52.21 19.19, 47.86, 19.22 C 45.88 19.23, 43.79 19.14, 41.88, 19.05 C 39.98 18.96, 37.88 18.87, 35.90, 18.88 C 33.92 18.89, 31.83 19.00, 29.92, 19.11 C 27.39 21.63, 24.61 24.41, 22.05, 27.10 C 19.48 29.79, 16.85 32.71, 14.46, 35.36 C 16.28 35.73, 18.30 36.13, 20.21, 36.41 C 24.42 37.02, 27.63 37.09, 31.84, 37.71 C 33.76 37.99, 35.77 38.38, 37.59, 38.75 C 39.42 39.12, 41.43 39.51, 43.35, 39.79 C 47.55 40.41, 50.77 40.48, 54.98, 41.09 C 56.89 41.37, 58.91 41.77, 60.73, 42.14 C 62.56 42.50, 64.57 42.90, 66.49, 43.18 C 70.69 43.80, 73.91 43.86, 78.12, 44.48 C 80.03 44.76, 82.05 45.15, 83.87, 45.52 C 85.70 45.89, 87.71 46.29, 89.63, 46.57 C 93.83 47.18, 97.05 47.25, 101.26, 47.86 C 103.17 48.15, 105.19 48.54, 107.01, 48.91 C 108.84 49.28, 110.85 49.67, 112.77, 49.95 C 116.97 50.57, 120.19 50.64, 124.40, 51.25 C 126.31 51.53, 128.32 51.93, 130.15, 52.30 C 131.98 52.66, 133.99 53.06, 135.91, 53.34 C 140.11 53.96, 143.33 54.02, 147.53, 54.64 C 149.45 54.92, 151.46 55.31, 153.29, 55.68 C 155.12 56.05, 157.13 56.45, 159.05, 56.73 C 160.96 57.01, 163.00 57.20, 164.86, 57.38" fill="#618faa" fill-opacity="1.5" label="outline" layer="0" fill-hsl="202,30,52" filter="drop-shadow(0px 0px 5px #618faa)"/>
</svg>