<svg xmlns="http://www.w3.org/2000/svg" height="280" width="930">
  <path d="M 233.84 30.85 C 231.95 30.93, 229.86 31.03, 227.91, 31.22 C 223.61 31.63, 220.42 32.34, 216.13, 32.76 C 214.17 32.95, 212.09 33.05, 210.20, 33.13 C 208.31 33.21, 206.23 33.31, 204.27, 33.50 C 199.98 33.92, 196.79 34.63, 192.49, 35.04 C 190.54 35.23, 188.46 35.33, 186.57, 35.42 C 184.67 35.50, 182.59 35.60, 180.64, 35.79 C 176.34 36.20, 173.15 36.91, 168.86, 37.33 C 166.90 37.52, 164.82 37.62, 162.93, 37.70 C 161.04 37.78, 158.96 37.88, 157.00, 38.07 C 152.71 38.49, 149.52 39.20, 145.22, 39.61 C 143.27 39.80, 141.18 39.90, 139.29, 39.99 C 137.40 40.07, 135.32 40.17, 133.37, 40.36 C 129.07 40.77, 125.88 41.48, 121.59, 41.90 C 119.63 42.09, 117.55 42.19, 115.66, 42.27 C 113.77 42.35, 111.69 42.46, 109.73, 42.64 C 105.44 43.06, 102.25 43.77, 97.95, 44.18 C 95.99 44.37, 93.91 44.47, 92.02, 44.56 C 90.13 44.64, 88.05 44.74, 86.10, 44.93 C 81.80 45.34, 78.61 46.05, 74.32, 46.47 C 72.36 46.66, 70.28 46.76, 68.39, 46.84 C 66.50 46.92, 64.42 47.03, 62.46, 47.21 C 58.17 47.63, 54.98 48.34, 50.68, 48.76 C 48.72 48.94, 46.64 49.05, 44.75, 49.13 C 42.86 49.21, 40.78 49.31, 38.82, 49.50 C 34.53 49.91, 31.34 50.63, 27.05, 51.04 C 25.09 51.23, 23.01 51.33, 21.12, 51.41 C 19.23 51.49, 17.15 51.60, 15.19, 51.78 C 13.23 51.97, 11.17 52.27, 9.30, 52.55 C 10.47 53.24, 11.77 53.98, 13.04, 54.60 C 15.82 55.96, 18.08 56.62, 20.86, 57.98 C 22.13 58.60, 23.42 59.34, 24.60, 60.03 C 25.77 60.71, 27.07 61.46, 28.33, 62.08 C 29.60 62.70, 30.99 63.26, 32.25, 63.77 C 34.14 63.91, 36.22 64.07, 38.19, 64.12 C 42.50 64.23, 45.76 63.92, 50.08, 64.03 C 52.05 64.08, 54.13 64.23, 56.02, 64.38 C 57.91 64.53, 59.99 64.68, 61.96, 64.74 C 66.28 64.85, 69.54 64.53, 73.86, 64.64 C 75.82 64.69, 77.90 64.85, 79.79, 65.00 C 81.68 65.15, 83.76 65.30, 85.73, 65.35 C 90.05 65.46, 93.31 65.15, 97.63, 65.26 C 99.60 65.31, 101.68 65.46, 103.57, 65.61 C 105.46 65.76, 107.54 65.92, 109.50, 65.97 C 113.82 66.08, 117.08 65.76, 121.40, 65.88 C 123.37 65.93, 125.45 66.08, 127.34, 66.23 C 129.23 66.38, 131.31 66.53, 133.28, 66.58 C 137.60 66.69, 140.85 66.38, 145.17, 66.49 C 147.14 66.54, 149.22 66.70, 151.11, 66.84 C 153.00 66.99, 155.08 67.15, 157.05, 67.20 C 161.37 67.31, 164.63 66.99, 168.95, 67.11 C 170.92 67.16, 173.00 67.31, 174.89, 67.46 C 176.77 67.61, 178.85 67.76, 180.82, 67.81 C 185.14 67.93, 188.40 67.61, 192.72, 67.72 C 194.69 67.77, 196.77 67.93, 198.66, 68.08 C 200.55 68.23, 202.63 68.38, 204.60, 68.43 C 208.92 68.54, 212.17 68.23, 216.49, 68.34 C 218.46 68.39, 220.54 68.54, 222.43, 68.69 C 224.32 68.84, 226.40 69.00, 228.37, 69.05 C 230.34 69.10, 232.42 69.05, 234.32, 69.00 C 234.39 66.97, 234.46 64.74, 234.44, 62.64 C 234.38 58.02, 233.94 54.55, 233.88, 49.93 C 233.85 47.82, 233.92 45.59, 234.00, 43.56 C 234.07 41.54, 234.14 39.31, 234.12, 37.20 C 234.09 35.10, 233.96 32.87, 233.84, 30.85" fill="#5f8ca8" fill-opacity="1.394118" label="outline" layer="0" fill-hsl="203,30,52" filter="drop-shadow(0px 0px 5px #5f8ca8)"/>
</svg>