<svg xmlns="http://www.w3.org/2000/svg" height="280" width="930">
  <path d="M 214.83 69.00 C 213.05 69.21, 211.09 69.42, 209.23, 69.53 C 205.16 69.78, 202.07 69.56, 197.99, 69.80 C 196.14 69.91, 194.18 70.13, 192.40, 70.33 C 190.62 70.54, 188.66 70.76, 186.80, 70.87 C 184.94 70.98, 182.97 70.99, 181.18, 71.00 C 179.39 70.99, 177.42 70.98, 175.56, 70.87 C 171.48 70.62, 168.44 70.04, 164.37, 69.80 C 162.51 69.69, 160.54 69.67, 158.75, 69.67 C 156.96 69.66, 154.98 69.64, 153.13, 69.53 C 151.27 69.42, 149.31 69.21, 147.53, 69.00 C 148.03 67.13, 148.58 65.07, 149.20, 63.15 C 150.55 58.94, 151.94 55.90, 153.30, 51.70 C 153.91 49.78, 154.47 47.72, 154.96, 45.85 C 155.46 43.97, 156.02 41.91, 156.63, 40.00 C 157.25 38.08, 157.99 36.08, 158.68, 34.27 C 159.38 32.46, 160.15 30.48, 160.98, 28.64 C 162.78 24.60, 164.50 21.74, 166.30, 17.70 C 167.12 15.86, 167.90 13.88, 168.59, 12.07 C 169.29 10.26, 170.07 8.28, 170.89, 6.44 C 171.71 4.60, 172.67 2.70, 173.55, 0.97 C 175.15 0.76, 176.92 0.55, 178.59, 0.44 C 182.26 0.19, 185.05 0.41, 188.72, 0.17 C 190.40 0.06, 192.16 -0.16, 193.76, -0.36 C 195.37 -0.57, 197.13 -0.79, 198.80, -0.90 C 200.48 -1.01, 202.25 -1.02, 203.87, -1.03 C 205.49 -1.02, 207.26 -1.01, 208.94, -0.90 C 212.61 -0.65, 215.34 -0.07, 219.02, 0.17 C 220.69 0.28, 222.47 0.30, 224.08, 0.30 C 225.70 0.31, 227.48 0.33, 229.15, 0.44 C 230.82 0.55, 232.59 0.76, 234.19, 0.97 C 233.88 2.83, 233.52 4.87, 233.09, 6.77 C 232.15 10.96, 231.05 14.02, 230.11, 18.21 C 229.69 20.11, 229.33 22.15, 229.02, 24.01 C 228.70 25.87, 228.35 27.91, 227.92, 29.81 C 227.49 31.72, 226.94 33.72, 226.43, 35.53 C 225.91 37.34, 225.33 39.33, 224.69, 41.17 C 223.28 45.23, 221.85 48.15, 220.44, 52.20 C 219.80 54.05, 219.22 56.03, 218.70, 57.84 C 218.18 59.65, 217.59 61.64, 216.95, 63.49 C 216.31 65.33, 215.54 67.26, 214.83, 69.00" fill="#6382a9" fill-opacity="0.45098" label="middle" layer="1" fill-hsl="213,29,53" filter="drop-shadow(0px 0px 5px #6382a9)"/>
</svg>