<svg xmlns="http://www.w3.org/2000/svg" height="280" width="930">
  <path d="M 220.75 48.95 C 221.32 47.73, 221.93 46.39, 222.42, 45.09 C 223.50 42.23, 223.93 39.94, 225.01, 37.08 C 225.50 35.78, 226.12 34.43, 226.68, 33.22 C 227.25 32.00, 227.86 30.66, 228.35, 29.35 C 228.85 28.05, 229.27 26.64, 229.65, 25.35 C 230.02 24.06, 230.41 22.64, 230.69, 21.27 C 231.30 18.28, 231.37 15.95, 231.98, 12.96 C 232.26 11.60, 232.65 10.17, 233.02, 8.88 C 233.38 7.59, 233.78 6.17, 234.05, 4.81 C 234.33 3.44, 234.53 1.98, 234.70, 0.65 C 233.64 0.19, 232.46 -0.32, 231.32, -0.70 C 230.18 -1.08, 228.95 -1.40, 227.82, -1.67 C 226.67 -1.50, 225.41 -1.31, 224.24, -1.03 C 223.07 -0.75, 221.85 -0.36, 220.75, 0.00 C 220.42 -0.05, 220.05 -0.09, 219.72, -0.04 C 219.39 0.02, 219.05 0.17, 218.75, 0.32 C 219.05 0.47, 219.39 0.63, 219.72, 0.68 C 220.05 0.74, 220.42 0.70, 220.75, 0.65 C 220.33 4.49, 219.88 8.71, 219.55, 12.71 C 219.22 16.71, 218.97 20.95, 218.75, 24.80 C 218.97 28.65, 219.22 32.89, 219.55, 36.89 C 219.88 40.89, 220.33 45.11, 220.75, 48.95" fill="#5ba8b3" fill-opacity="0.3431375" label="middle" layer="1" fill-hsl="188,37,53" filter="drop-shadow(0px 0px 5px #5ba8b3)"/>
</svg>