<svg xmlns="http://www.w3.org/2000/svg" height="280" width="930">
  <path d="M 92.06 14.76 C 93.26 16.07, 94.57 17.53, 95.74, 18.96 C 98.31 22.10, 99.93 24.72, 102.49, 27.86 C 103.66 29.29, 104.97 30.75, 106.17, 32.06 C 107.37 33.37, 108.69 34.83, 109.86, 36.26 C 111.03 37.69, 112.18 39.27, 113.23, 40.71 C 114.27 42.16, 115.40 43.76, 116.39, 45.32 C 118.56 48.74, 119.85 51.54, 122.03, 54.96 C 123.02 56.52, 124.15 58.12, 125.18, 59.57 C 126.22 61.02, 127.35 62.62, 128.34, 64.18 C 129.33 65.74, 130.29 67.45, 131.16, 69.00 C 129.56 69.16, 127.79 69.33, 126.12, 69.40 C 122.45 69.55, 119.68 69.25, 116.01, 69.40 C 114.34 69.47, 112.57 69.64, 110.97, 69.80 C 109.37 69.96, 107.60 70.13, 105.93, 70.20 C 102.26 70.35, 99.48 70.05, 95.82, 70.20 C 94.14 70.27, 92.38 70.44, 90.78, 70.60 C 89.17 70.76, 87.41 70.93, 85.74, 71.00 C 84.06 71.07, 82.29 71.04, 80.68, 71.00 C 79.07 71.04, 77.30 71.07, 75.62, 71.00 C 71.96 70.85, 69.21 70.35, 65.54, 70.20 C 63.87 70.13, 62.10 70.16, 60.49, 70.20 C 58.88 70.24, 57.10 70.27, 55.43, 70.20 C 51.76 70.05, 49.02 69.55, 45.35, 69.40 C 43.68 69.33, 41.91 69.36, 40.30, 69.40 C 38.69 69.44, 36.91 69.47, 35.24, 69.40 C 33.57 69.33, 31.80 69.16, 30.20, 69.00 C 29.68 67.21, 29.12 65.24, 28.68, 63.35 C 27.71 59.21, 27.38 56.01, 26.41, 51.87 C 25.97 49.99, 25.41 48.02, 24.89, 46.23 C 24.37 44.44, 23.80 42.46, 23.36, 40.58 C 22.92 38.69, 22.56 36.67, 22.23, 34.84 C 21.92 33.00, 21.58 30.98, 21.36, 29.06 C 20.87 24.84, 20.91 21.62, 20.42, 17.40 C 20.20 15.47, 19.86 13.45, 19.55, 11.61 C 19.24 9.78, 18.90 7.75, 18.68, 5.83 C 18.46 3.91, 18.32 1.86, 18.21, 0.00 C 20.20 0.19, 22.40 0.41, 24.46, 0.71 C 28.98 1.36, 32.32 2.25, 36.84, 2.91 C 38.90 3.21, 41.10 3.42, 43.09, 3.61 C 45.08 3.80, 47.28 4.02, 49.34, 4.32 C 51.40 4.62, 53.56 5.03, 55.53, 5.42 C 57.49 5.82, 59.65 6.27, 61.67, 6.78 C 66.09 7.91, 69.32 9.15, 73.75, 10.28 C 75.76 10.80, 77.92 11.25, 79.88, 11.65 C 81.85 12.05, 84.00 12.49, 86.02, 13.01 C 88.04 13.53, 90.15 14.17, 92.06, 14.76" fill="#5a8fa2" fill-opacity="0.7009799999999999" label="middle" layer="1" fill-hsl="196,29,49" filter="drop-shadow(0px 0px 5px #5a8fa2)"/>
</svg>