<svg xmlns="http://www.w3.org/2000/svg" height="280" width="930">
  <path d="M 11.98 0.00 C 11.88 2.01, 11.78 4.21, 11.78, 6.30 C 11.78 10.88, 12.18 14.32, 12.18, 18.90 C 12.18 20.99, 12.08 23.19, 11.98, 25.20 C 11.88 27.21, 11.78 29.41, 11.78, 31.50 C 11.78 36.08, 12.18 39.52, 12.18, 44.10 C 12.18 46.19, 12.08 48.39, 11.98, 50.40 C 11.88 52.41, 11.78 54.61, 11.78, 56.70 C 11.78 58.79, 11.88 60.99, 11.98, 63.00 C 11.88 63.95, 11.78 65.01, 11.78, 66.00 C 11.78 66.99, 11.88 68.05, 11.98, 69.00 C 14.13 69.01, 16.50 69.02, 18.73, 68.93 C 23.62 68.73, 27.29 68.18, 32.18, 67.98 C 34.41 67.89, 36.78 67.90, 38.92, 67.91 C 41.07 67.92, 43.44 67.93, 45.67, 67.84 C 50.56 67.64, 54.23 67.09, 59.12, 66.89 C 61.35 66.80, 63.72 66.81, 65.87, 66.82 C 68.01 66.83, 70.38 66.84, 72.61, 66.75 C 77.50 66.55, 81.17 66.00, 86.06, 65.80 C 88.29 65.71, 90.66 65.71, 92.81, 65.73 C 94.96 65.74, 97.32 65.74, 99.55, 65.65 C 104.45 65.46, 108.11 64.91, 113.01, 64.71 C 115.24 64.62, 117.60 64.62, 119.75, 64.64 C 121.90 64.65, 124.26 64.65, 126.49, 64.56 C 131.39 64.37, 135.05 63.82, 139.95, 63.62 C 142.18 63.53, 144.54 63.53, 146.69, 63.55 C 148.84 63.56, 151.20 63.56, 153.43, 63.47 C 155.66 63.38, 158.02 63.19, 160.16, 63.00 C 158.39 62.14, 156.43 61.20, 154.54, 60.39 C 150.40 58.63, 147.13 57.68, 142.98, 55.91 C 141.10 55.11, 139.14 54.17, 137.36, 53.31 C 135.59 52.44, 133.63 51.50, 131.74, 50.70 C 127.60 48.94, 124.33 47.98, 120.19, 46.22 C 118.30 45.42, 116.34 44.48, 114.57, 43.62 C 112.79 42.75, 110.83 41.81, 108.95, 41.01 C 104.80 39.25, 101.53 38.29, 97.39, 36.53 C 95.50 35.73, 93.55 34.79, 91.77, 33.92 C 90.00 33.06, 88.04 32.12, 86.15, 31.32 C 82.01 29.55, 78.74 28.60, 74.60, 26.84 C 72.71 26.04, 70.75 25.09, 68.97, 24.23 C 67.20 23.37, 65.24 22.43, 63.35, 21.62 C 59.21 19.86, 55.94 18.91, 51.80, 17.15 C 49.91 16.34, 47.95 15.40, 46.18, 14.54 C 44.40 13.68, 42.44 12.73, 40.56, 11.93 C 36.42 10.17, 33.14 9.21, 29.00, 7.45 C 27.11 6.65, 25.16 5.71, 23.38, 4.85 C 21.61 3.98, 19.65 3.04, 17.76, 2.24 C 15.87 1.44, 13.84 0.68, 11.98, 0.00" fill="#598c9f" fill-opacity="1.3235295" label="outline" layer="0" fill-hsl="196,28,49" filter="drop-shadow(0px 0px 5px #598c9f)"/>
</svg>