<svg xmlns="http://www.w3.org/2000/svg" height="280" width="930">
  <path d="M 123.93 1.31 C 124.10 3.21, 124.28 5.30, 124.35, 7.28 C 124.51 11.63, 124.24 14.92, 124.40, 19.27 C 124.47 21.25, 124.65 23.35, 124.82, 25.25 C 125.00 27.15, 125.17 29.24, 125.25, 31.23 C 125.41 35.58, 125.13 38.86, 125.30, 43.21 C 125.37 45.20, 125.55 47.29, 125.72, 49.19 C 125.89 51.09, 126.07 53.19, 126.15, 55.17 C 126.22 57.15, 126.20 59.25, 126.17, 61.16 C 125.27 61.62, 124.28 62.11, 123.31, 62.48 C 122.34 62.86, 121.27 63.16, 120.30, 63.43 C 120.21 61.49, 120.12 59.35, 120.12, 57.33 C 120.14 52.90, 120.55 49.57, 120.57, 45.15 C 120.57 43.13, 120.48 40.99, 120.39, 39.05 C 120.30 37.11, 120.20 34.98, 120.21, 32.96 C 120.23 28.53, 120.64 25.20, 120.66, 20.77 C 120.66 18.75, 120.57 16.62, 120.48, 14.68 C 120.38 12.74, 120.29 10.60, 120.30, 8.58 C 120.31 6.56, 120.41 4.43, 120.52, 2.49 C 121.03 2.21, 121.59 1.91, 122.16, 1.71 C 122.72 1.51, 123.35 1.40, 123.93, 1.31" fill="#6974b6" fill-opacity="0.44999999999999996" label="middle" layer="1" fill-hsl="231,35,56" filter="drop-shadow(0px 0px 5px #6974b6)"/>
</svg>