<svg xmlns="http://www.w3.org/2000/svg" height="280" width="930">
  <path d="M 74.00 10.00 C 73.90 12.60, 73.80 15.46, 73.80, 18.17 C 73.80 24.10, 74.20 28.56, 74.20, 34.50 C 74.20 37.20, 74.10 40.07, 74.00, 42.67 C 73.90 45.27, 73.80 48.13, 73.80, 50.83 C 73.80 53.54, 73.90 56.40, 74.00, 59.00 C 74.52 57.65, 75.08 56.16, 75.52, 54.73 C 76.49 51.58, 76.84 49.09, 77.81, 45.94 C 78.25 44.51, 78.81 43.02, 79.33, 41.67 C 79.85 40.32, 80.42 38.83, 80.86, 37.39 C 81.30 35.96, 81.67 34.41, 82.00, 33.00 C 80.82 29.31, 79.51 25.24, 78.19, 21.43 C 76.86 17.63, 75.37 13.63, 74.00, 10.00" fill="#6d75b9" fill-opacity="0.37647074999999997" label="middle" layer="1" fill-hsl="234,35,58" filter="drop-shadow(0px 0px 5px #6d75b9)"/>
</svg>