<svg xmlns="http://www.w3.org/2000/svg" height="280" width="930">
  <path d="M 164.53 6.07 C 164.43 9.84, 164.33 14.00, 164.33, 17.93 C 164.33 21.86, 164.43 26.02, 164.53, 29.79 C 164.43 31.63, 164.33 33.65, 164.33, 35.56 C 164.33 39.74, 164.73 42.89, 164.73, 47.08 C 164.73 48.99, 164.63 51.01, 164.53, 52.84 C 164.43 54.68, 164.33 56.70, 164.33, 58.60 C 164.33 60.51, 164.43 62.53, 164.53, 64.37 C 165.48 62.57, 166.52 60.60, 167.42, 58.69 C 169.39 54.50, 170.51 51.18, 172.48, 47.00 C 173.38 45.09, 174.42 43.11, 175.38, 41.32 C 176.33 39.53, 177.37 37.55, 178.27, 35.64 C 179.17 33.73, 180.03 31.67, 180.80, 29.79 C 180.02 28.48, 179.15 27.04, 178.25, 25.73 C 176.28 22.85, 174.47 20.92, 172.50, 18.04 C 171.60 16.73, 170.73 15.29, 169.95, 13.98 C 169.17 12.66, 168.30 11.22, 167.41, 9.91 C 166.51 8.60, 165.48 7.27, 164.53, 6.07" fill="#5a5182" fill-opacity="0.26764725" label="middle" layer="1" fill-hsl="251,23,41" filter="drop-shadow(0px 0px 5px #5a5182)"/>
</svg>