<svg xmlns="http://www.w3.org/2000/svg" height="280" width="930">
  <path d="M 70.48 26.28 C 72.50 26.47, 74.73 26.69, 76.81, 26.99 C 81.39 27.64, 84.78 28.53, 89.36, 29.19 C 91.45 29.48, 93.67 29.70, 95.69, 29.89 C 97.71 30.08, 99.93 30.29, 102.02, 30.59 C 106.60 31.25, 109.99 32.14, 114.57, 32.79 C 116.66 33.09, 118.88 33.31, 120.90, 33.49 C 122.92 33.68, 125.14 33.90, 127.23, 34.20 C 129.32 34.50, 131.51 34.91, 133.50, 35.30 C 131.51 35.65, 129.31 36.04, 127.23, 36.31 C 122.65 36.90, 119.15 36.95, 114.57, 37.54 C 112.48 37.81, 110.29 38.19, 108.30, 38.55 C 106.30 38.91, 104.11 39.29, 102.02, 39.56 C 97.44 40.15, 93.94 40.20, 89.36, 40.79 C 87.28 41.06, 85.08 41.44, 83.09, 41.80 C 81.09 42.16, 78.90 42.54, 76.81, 42.81 C 74.72 43.08, 72.50 43.26, 70.48, 43.42 C 68.79 43.09, 66.92 42.71, 65.18, 42.26 C 61.37 41.28, 58.60 40.15, 54.78, 39.17 C 53.04 38.72, 51.17 38.34, 49.48, 38.01 C 47.78 37.67, 45.92 37.29, 44.18, 36.84 C 42.44 36.40, 40.62 35.82, 38.97, 35.30 C 40.62 34.72, 42.43 34.10, 44.17, 33.60 C 47.99 32.51, 50.97 32.07, 54.78, 30.98 C 56.52 30.48, 58.34 29.86, 59.98, 29.29 C 61.63 28.71, 63.44 28.09, 65.18, 27.59 C 66.92 27.10, 68.79 26.67, 70.48, 26.28" fill="#7576bb" fill-opacity="0.2607845" label="outline" layer="0" fill-hsl="239,34,60" filter="drop-shadow(0px 0px 5px #7576bb)"/>
</svg>