<svg xmlns="http://www.w3.org/2000/svg" height="280" width="930">
  <path d="M 195.13 6.58 C 197.18 7.97, 199.43 9.52, 201.50, 11.05 C 206.03 14.41, 209.21 17.26, 213.75, 20.62 C 215.82 22.15, 218.07 23.70, 220.11, 25.09 C 222.16 26.48, 224.41 28.02, 226.48, 29.55 C 228.55 31.09, 230.68 32.79, 232.61, 34.34 C 231.24 35.52, 229.73 36.82, 228.24, 37.97 C 224.98 40.48, 222.29 42.06, 219.02, 44.58 C 217.54 45.73, 216.03 47.02, 214.66, 48.20 C 213.29 49.39, 211.78 50.68, 210.30, 51.83 C 207.04 54.35, 204.34 55.93, 201.08, 58.44 C 199.59 59.59, 198.08 60.89, 196.72, 62.07 C 195.35 63.25, 193.84 64.54, 192.35, 65.69 C 190.87 66.84, 189.23 67.98, 187.74, 69.00 C 186.00 67.22, 184.09 65.26, 182.35, 63.34 C 178.54 59.13, 175.97 55.69, 172.16, 51.48 C 170.42 49.56, 168.51 47.60, 166.77, 45.82 C 165.03 44.04, 163.11 42.08, 161.38, 40.16 C 159.64 38.24, 157.88 36.14, 156.28, 34.23 C 158.28 32.68, 160.50 30.98, 162.64, 29.46 C 167.35 26.11, 171.12 23.92, 175.82, 20.57 C 177.97 19.04, 180.18 17.35, 182.18, 15.80 C 184.18 14.25, 186.40 12.55, 188.54, 11.03 C 190.68 9.50, 193.01 7.97, 195.13, 6.58" fill="#7b74b9" fill-opacity="0.252941" label="outline" layer="0" fill-hsl="246,33,59" filter="drop-shadow(0px 0px 5px #7b74b9)"/>
</svg>