<svg xmlns="http://www.w3.org/2000/svg" height="280" width="930">
  <path d="M 22.17 26.63 C 23.88 26.76, 25.77 26.92, 27.54, 27.16 C 31.43 27.69, 34.29 28.48, 38.18, 29.01 C 39.95 29.25, 41.84 29.41, 43.55, 29.54 C 45.26 29.67, 47.15 29.83, 48.92, 30.07 C 52.81 30.60, 55.67 31.39, 59.56, 31.92 C 61.33 32.16, 63.21 32.32, 64.93, 32.45 C 66.64 32.58, 68.53 32.74, 70.30, 32.98 C 72.07 33.22, 73.93 33.57, 75.62, 33.90 C 73.93 34.23, 72.07 34.59, 70.30, 34.83 C 66.42 35.36, 63.44 35.36, 59.56, 35.89 C 57.79 36.13, 55.93 36.48, 54.24, 36.81 C 52.55 37.15, 50.69 37.50, 48.92, 37.74 C 45.04 38.27, 42.06 38.27, 38.18, 38.80 C 36.41 39.04, 34.55 39.40, 32.86, 39.73 C 31.17 40.06, 29.31 40.41, 27.54, 40.65 C 25.77 40.89, 23.88 41.05, 22.17, 41.18 C 20.26 40.11, 18.17 38.92, 16.24, 37.71 C 14.30 36.51, 12.31 35.15, 10.51, 33.90 C 12.32 32.66, 14.30 31.30, 16.24, 30.10 C 18.17 28.89, 20.26 27.70, 22.17, 26.63" fill="#817cc5" fill-opacity="0.22647075" label="middle" layer="1" fill-hsl="244,39,63" filter="drop-shadow(0px 0px 5px #817cc5)"/>
</svg>