<svg xmlns="http://www.w3.org/2000/svg" height="280" width="930">
  <path d="M 121.38 11.64 C 123.34 11.89, 125.48 12.18, 127.49, 12.55 C 131.91 13.35, 135.15 14.35, 139.57, 15.16 C 141.58 15.53, 143.73 15.82, 145.68, 16.07 C 147.63 16.33, 149.78 16.62, 151.79, 16.98 C 156.20 17.79, 159.45 18.79, 163.86, 19.59 C 165.87 19.96, 168.02 20.25, 169.97, 20.51 C 171.92 20.76, 174.07 21.05, 176.08, 21.42 C 180.49 22.22, 183.74 23.22, 188.16, 24.03 C 190.17 24.40, 192.31 24.69, 194.27, 24.94 C 196.22 25.20, 198.36 25.49, 200.37, 25.85 C 204.79 26.66, 208.04 27.66, 212.45, 28.46 C 214.46 28.83, 216.61 29.12, 218.56, 29.38 C 220.51 29.63, 222.66 29.92, 224.67, 30.29 C 229.08 31.09, 232.33 32.09, 236.74, 32.90 C 238.76 33.27, 240.90 33.56, 242.85, 33.81 C 244.80 34.07, 246.95 34.36, 248.96, 34.72 C 250.97 35.09, 253.08 35.58, 255.00, 36.03 C 253.08 36.41, 250.97 36.82, 248.96, 37.11 C 244.54 37.76, 241.16 37.85, 236.75, 38.49 C 234.74 38.79, 232.62 39.20, 230.71, 39.58 C 228.79 39.96, 226.67 40.37, 224.66, 40.66 C 220.25 41.31, 216.87 41.40, 212.46, 42.04 C 210.45 42.34, 208.33 42.75, 206.41, 43.13 C 204.49 43.51, 202.38 43.92, 200.37, 44.21 C 195.95 44.86, 192.58 44.95, 188.16, 45.59 C 186.15 45.89, 184.04 46.30, 182.12, 46.68 C 180.20 47.06, 178.09 47.47, 176.07, 47.76 C 171.66 48.41, 168.28 48.50, 163.87, 49.14 C 161.86 49.44, 159.74 49.85, 157.82, 50.23 C 155.91 50.61, 153.79 51.02, 151.78, 51.31 C 147.37 51.96, 143.99 52.05, 139.58, 52.69 C 137.56 52.98, 135.45 53.39, 133.53, 53.78 C 131.61 54.16, 129.50 54.57, 127.49, 54.86 C 125.47 55.15, 123.33 55.37, 121.38, 55.55 C 119.40 55.30, 117.22 55.02, 115.18, 54.66 C 110.69 53.87, 107.38 52.89, 102.90, 52.10 C 100.85 51.74, 98.67 51.46, 96.69, 51.21 C 94.71 50.97, 92.52 50.68, 90.48, 50.32 C 85.99 49.54, 82.69 48.55, 78.20, 47.76 C 76.16 47.40, 73.97 47.12, 71.99, 46.87 C 70.01 46.63, 67.83 46.35, 65.78, 45.99 C 61.30 45.20, 57.99 44.21, 53.50, 43.42 C 51.46 43.06, 49.28 42.78, 47.30, 42.54 C 45.31 42.29, 43.13 42.01, 41.09, 41.65 C 36.60 40.86, 33.30 39.87, 28.81, 39.09 C 26.76 38.73, 24.58 38.45, 22.60, 38.20 C 20.62 37.95, 18.44 37.67, 16.39, 37.31 C 14.35 36.95, 12.20 36.47, 10.25, 36.03 C 12.20 35.50, 14.34 34.93, 16.38, 34.48 C 20.87 33.49, 24.33 33.14, 28.82, 32.16 C 30.86 31.71, 33.00 31.14, 34.95, 30.61 C 36.89 30.08, 39.03 29.51, 41.08, 29.06 C 45.57 28.07, 49.03 27.72, 53.51, 26.74 C 55.56 26.29, 57.70 25.72, 59.64, 25.19 C 61.59 24.66, 63.73 24.09, 65.77, 23.64 C 70.26 22.65, 73.72 22.30, 78.21, 21.32 C 80.25 20.87, 82.40 20.30, 84.34, 19.77 C 86.28 19.24, 88.43 18.67, 90.47, 18.22 C 94.96 17.23, 98.42 16.88, 102.90, 15.90 C 104.95 15.45, 107.09 14.87, 109.04, 14.35 C 110.98 13.82, 113.12 13.24, 115.17, 12.80 C 117.21 12.35, 119.40 11.97, 121.38, 11.64" fill="#6d6aa8" fill-opacity="0.2960785" label="outline" layer="0" fill-hsl="243,26,54" filter="drop-shadow(0px 0px 5px #6d6aa8)"/>
</svg>