<svg xmlns="http://www.w3.org/2000/svg" height="280" width="930">
  <path d="M 196.83 5.77 C 197.93 7.26, 199.14 8.89, 200.21, 10.49 C 202.55 14.00, 203.97 16.86, 206.31, 20.37 C 207.38 21.97, 208.59 23.60, 209.70, 25.08 C 210.80 26.56, 212.01 28.20, 213.08, 29.80 C 214.14 31.40, 215.19 33.14, 216.13, 34.74 C 215.19 36.31, 214.14 38.04, 213.08, 39.62 C 210.74 43.08, 208.65 45.46, 206.31, 48.93 C 205.25 50.51, 204.20 52.23, 203.26, 53.81 C 202.32 55.38, 201.27 57.11, 200.21, 58.69 C 199.14 60.27, 197.93 61.88, 196.83, 63.34 C 196.65 61.83, 196.47 60.16, 196.39, 58.58 C 196.22 55.12, 196.50 52.49, 196.33, 49.03 C 196.25 47.45, 196.07 45.78, 195.90, 44.27 C 195.72 42.76, 195.54 41.09, 195.46, 39.51 C 195.39 37.93, 195.41 36.26, 195.43, 34.74 C 195.41 33.20, 195.39 31.50, 195.46, 29.90 C 195.63 26.39, 196.16 23.77, 196.33, 20.27 C 196.40 18.67, 196.39 16.97, 196.36, 15.43 C 196.33 13.89, 196.32 12.19, 196.39, 10.59 C 196.47 8.99, 196.65 7.31, 196.83, 5.77" fill="#6b6faf" fill-opacity="0.3568625" label="outline" layer="0" fill-hsl="236,30,55" filter="drop-shadow(0px 0px 5px #6b6faf)"/>
</svg>