<svg xmlns="http://www.w3.org/2000/svg" height="280" width="930">
  <path d="M 185.45 0.00 C 185.99 1.97, 186.57 4.15, 187.02, 6.22 C 188.03 10.78, 188.39 14.29, 189.39, 18.84 C 189.85 20.92, 190.43 23.09, 190.96, 25.06 C 191.50 27.04, 192.08 29.21, 192.54, 31.29 C 192.99 33.36, 193.38 35.58, 193.72, 37.60 C 192.49 40.69, 191.14 44.09, 189.77, 47.27 C 188.40 50.45, 186.86 53.77, 185.45, 56.79 C 184.25 53.77, 182.93 50.44, 181.78, 47.26 C 180.62 44.08, 179.49 40.69, 178.48, 37.60 C 178.75 35.58, 179.06 33.37, 179.44, 31.29 C 180.29 26.74, 181.32 23.39, 182.16, 18.83 C 182.55 16.76, 182.86 14.55, 183.13, 12.53 C 183.40 10.52, 183.71 8.31, 184.09, 6.23 C 184.48 4.15, 184.98 1.98, 185.45, 0.00" fill="#7977bc" fill-opacity="0.3794115" label="middle" layer="1" fill-hsl="242,34,60" filter="drop-shadow(0px 0px 5px #7977bc)"/>
</svg>