<svg xmlns="http://www.w3.org/2000/svg" height="280" width="930">
  <path d="M 165.73 8.31 C 167.94 8.94, 170.36 9.64, 172.63, 10.39 C 177.59 12.04, 181.20 13.66, 186.17, 15.31 C 188.43 16.07, 190.86 16.77, 193.06, 17.40 C 195.27 18.02, 197.70 18.73, 199.96, 19.48 C 202.22 20.23, 204.59 21.12, 206.73, 21.94 C 208.87 22.77, 211.22 23.69, 213.41, 24.65 C 218.20 26.75, 221.65 28.70, 226.44, 30.80 C 228.62 31.76, 230.98 32.68, 233.12, 33.51 C 235.26 34.34, 237.61 35.27, 239.79, 36.22 C 241.98 37.18, 244.25 38.29, 246.31, 39.30 C 244.20 39.72, 241.87 40.18, 239.66, 40.52 C 234.80 41.26, 231.09 41.42, 226.23, 42.16 C 224.02 42.49, 221.70 42.95, 219.58, 43.37 C 217.47 43.80, 215.14 44.25, 212.93, 44.59 C 210.72 44.93, 208.36 45.18, 206.22, 45.41 C 204.08 45.62, 201.72 45.85, 199.48, 45.96 C 194.58 46.22, 190.87 46.02, 185.96, 46.28 C 183.73 46.39, 181.37 46.62, 179.23, 46.83 C 177.08 47.04, 174.72 47.27, 172.49, 47.38 C 170.25 47.50, 167.88 47.53, 165.73, 47.54 C 162.50 47.30, 158.95 47.02, 155.61, 46.66 C 152.26 46.30, 148.73 45.82, 145.53, 45.38 C 142.42 44.51, 138.99 43.54, 135.78, 42.53 C 132.57 41.52, 129.20 40.36, 126.15, 39.30 C 127.07 38.32, 128.08 37.25, 129.11, 36.31 C 131.36 34.24, 133.32 32.98, 135.57, 30.91 C 136.59 29.97, 137.61 28.90, 138.52, 27.92 C 139.44 26.94, 140.46 25.87, 141.48, 24.93 C 142.51 23.99, 143.66 23.06, 144.71, 22.23 C 145.77 21.41, 146.94 20.51, 148.10, 19.74 C 150.65 18.06, 152.78 17.12, 155.33, 15.44 C 156.49 14.67, 157.66 13.77, 158.72, 12.95 C 159.78 12.13, 160.96 11.23, 162.12, 10.46 C 163.28 9.69, 164.56 8.97, 165.73, 8.31" fill="#7275b2" fill-opacity="0.431373" label="middle" layer="1" fill-hsl="237,29,57" filter="drop-shadow(0px 0px 5px #7275b2)"/>
</svg>