<svg xmlns="http://www.w3.org/2000/svg" height="280" width="930">
  <path d="M 230.85 21.35 C 232.21 22.23, 233.71 23.21, 235.06, 24.21 C 236.42 25.22, 237.80 26.36, 239.04, 27.40 C 239.96 28.74, 240.96 30.22, 241.83, 31.66 C 242.69 33.11, 243.52 34.69, 244.27, 36.13 C 243.40 36.98, 242.43 37.90, 241.45, 38.70 C 240.48 39.50, 239.38 40.27, 238.38, 40.96 C 237.20 41.25, 235.89 41.55, 234.65, 41.74 C 233.40 41.94, 232.06 42.04, 230.85, 42.13 C 230.05 41.99, 229.17 41.83, 228.37, 41.59 C 227.57 41.34, 226.75 40.99, 226.01, 40.66 C 225.56 39.98, 225.08 39.23, 224.70, 38.48 C 224.33 37.73, 224.02 36.90, 223.75, 36.13 C 223.93 34.79, 224.14 33.33, 224.43, 31.96 C 224.72 30.59, 225.12 29.16, 225.50, 27.87 C 226.27 26.77, 227.13 25.56, 228.02, 24.48 C 228.91 23.40, 229.92 22.32, 230.85, 21.35" fill="#557099" fill-opacity="0.756863" label="middle" layer="1" fill-hsl="216,29,47" filter="drop-shadow(0px 0px 5px #557099)"/>
</svg>