<svg xmlns="http://www.w3.org/2000/svg" height="280" width="930">
  <path d="M 96.39 0.00 C 97.48 3.06, 98.66 6.42, 99.70, 9.63 C 100.73 12.84, 101.72 16.27, 102.62, 19.39 C 103.09 22.60, 103.60 26.13, 103.98, 29.48 C 104.37 32.83, 104.68 36.39, 104.95, 39.62 C 104.67 42.06, 104.36 44.75, 103.97, 47.28 C 103.58 49.80, 103.06 52.46, 102.59, 54.87 C 101.69 57.16, 100.70 59.68, 99.67, 62.02 C 98.65 64.36, 97.47 66.79, 96.39, 69.00 C 95.82 66.70, 95.19 64.17, 94.70, 61.77 C 94.20 59.36, 93.78 56.79, 93.40, 54.45 C 93.46 52.08, 93.53 49.48, 93.70, 47.02 C 93.86 44.57, 94.13 41.97, 94.39, 39.62 C 94.13 36.46, 93.86 32.97, 93.69, 29.68 C 93.52 26.38, 93.45 22.88, 93.39, 19.71 C 93.77 16.56, 94.20 13.09, 94.69, 9.82 C 95.19 6.56, 95.81 3.12, 96.39, 0.00" fill="#676ba5" fill-opacity="0.576471" label="middle" layer="1" fill-hsl="236,26,53" filter="drop-shadow(0px 0px 5px #676ba5)"/>
</svg>