<svg xmlns="http://www.w3.org/2000/svg" height="280" width="930">
  <path d="M 101.60 55.71 C 101.60 54.06, 101.59 52.25, 101.49, 50.54 C 101.26 46.78, 100.69 43.99, 100.47, 40.23 C 100.36 38.52, 100.35 36.71, 100.35, 35.06 C 100.35 33.41, 100.34 31.59, 100.24, 29.88 C 100.01 26.13, 99.45 23.33, 99.22, 19.58 C 99.12 17.87, 99.11 16.05, 99.11, 14.40 C 99.11 12.75, 99.10 10.93, 98.99, 9.22 C 98.89 7.51, 98.68 5.71, 98.48, 4.07 C 96.47 4.76, 94.25 5.52, 92.20, 6.33 C 87.68 8.11, 84.43 9.82, 79.91, 11.60 C 77.86 12.41, 75.64 13.17, 73.63, 13.86 C 71.61 14.54, 69.40 15.31, 67.34, 16.12 C 62.82 17.90, 59.57 19.61, 55.06, 21.38 C 53.00 22.19, 50.79 22.96, 48.77, 23.64 C 46.76 24.33, 44.54 25.09, 42.48, 25.90 C 37.97 27.68, 34.72 29.39, 30.20, 31.17 C 28.14 31.98, 25.93 32.75, 23.91, 33.43 C 21.90 34.12, 19.68 34.88, 17.63, 35.69 C 15.57 36.50, 13.43 37.45, 11.49, 38.32 C 11.12 39.62, 10.73 41.06, 10.46, 42.43 C 10.18 43.80, 9.99 45.27, 9.82, 46.61 C 11.90 46.92, 14.19 47.24, 16.36, 47.46 C 21.12 47.93, 24.75 47.89, 29.51, 48.36 C 31.68 48.58, 33.97 48.90, 36.05, 49.21 C 38.12 49.52, 40.41 49.84, 42.58, 50.06 C 47.35 50.53, 50.97 50.49, 55.73, 50.96 C 57.90 51.18, 60.19 51.51, 62.27, 51.81 C 64.34 52.12, 66.63 52.45, 68.80, 52.66 C 73.57 53.13, 77.19 53.09, 81.95, 53.56 C 84.12 53.78, 86.41 54.11, 88.49, 54.41 C 90.57 54.72, 92.85 55.05, 95.03, 55.26 C 97.20 55.48, 99.50 55.61, 101.60, 55.71" fill="#7777b7" fill-opacity="0.541176" label="outline" layer="0" fill-hsl="240,31,59" filter="drop-shadow(0px 0px 5px #7777b7)"/>
</svg>