<svg xmlns="http://www.w3.org/2000/svg" height="280" width="930">
  <path d="M 255.00 28.20 C 253.25 27.86, 251.32 27.50, 249.48, 27.24 C 245.44 26.69, 242.36 26.67, 238.32, 26.12 C 236.49 25.87, 234.56 25.50, 232.80, 25.16 C 231.05 24.82, 229.12 24.46, 227.28, 24.20 C 223.25 23.65, 220.16 23.63, 216.13, 23.08 C 214.29 22.83, 212.36 22.46, 210.61, 22.12 C 208.85 21.78, 206.92 21.42, 205.08, 21.17 C 201.05 20.61, 197.96 20.59, 193.93, 20.04 C 192.09 19.79, 190.16 19.43, 188.41, 19.08 C 186.65 18.74, 184.72 18.38, 182.89, 18.13 C 178.85 17.57, 175.77 17.56, 171.73, 17.00 C 169.89 16.75, 167.96 16.39, 166.21, 16.05 C 164.46 15.70, 162.53 15.34, 160.69, 15.09 C 158.85 14.84, 156.89 14.67, 155.11, 14.53 C 153.00 14.79, 150.68 15.10, 148.50, 15.48 C 143.71 16.31, 140.19 17.34, 135.41, 18.17 C 133.23 18.55, 130.90 18.86, 128.79, 19.13 C 126.68 19.39, 124.36 19.70, 122.18, 20.08 C 117.39 20.91, 113.87 21.94, 109.09, 22.77 C 106.91 23.15, 104.58 23.46, 102.47, 23.73 C 100.36 23.99, 98.04 24.30, 95.86, 24.68 C 91.07 25.51, 87.55 26.54, 82.76, 27.37 C 80.59 27.75, 78.26 28.06, 76.15, 28.33 C 74.04 28.59, 71.71 28.90, 69.54, 29.28 C 64.75 30.11, 61.23 31.14, 56.44, 31.97 C 54.26 32.35, 51.94 32.66, 49.83, 32.93 C 47.72 33.19, 45.39 33.50, 43.21, 33.88 C 38.43 34.71, 34.91 35.74, 30.12, 36.57 C 27.94 36.95, 25.62 37.26, 23.51, 37.53 C 21.40 37.79, 19.07 38.10, 16.89, 38.48 C 14.72 38.86, 12.43 39.36, 10.35, 39.83 C 12.29 40.10, 14.43 40.40, 16.45, 40.58 C 20.90 40.99, 24.29 40.90, 28.74, 41.30 C 30.77 41.49, 32.90 41.78, 34.84, 42.06 C 36.78 42.34, 38.92 42.63, 40.95, 42.82 C 45.40 43.22, 48.78 43.13, 53.23, 43.53 C 55.26 43.72, 57.40 44.01, 59.34, 44.29 C 61.28 44.57, 63.41 44.86, 65.44, 45.05 C 69.89 45.45, 73.27 45.36, 77.72, 45.77 C 79.75 45.95, 81.89 46.25, 83.83, 46.52 C 85.77 46.80, 87.91 47.10, 89.94, 47.28 C 94.39 47.69, 97.77 47.59, 102.22, 48.00 C 104.25 48.18, 106.38 48.48, 108.32, 48.76 C 110.26 49.03, 112.40 49.33, 114.43, 49.51 C 118.88 49.92, 122.26 49.83, 126.71, 50.23 C 128.74 50.42, 130.88 50.71, 132.82, 50.99 C 134.76 51.27, 136.90 51.56, 138.92, 51.75 C 143.37 52.15, 146.76 52.06, 151.21, 52.47 C 153.23 52.65, 155.37 52.95, 157.31, 53.22 C 159.25 53.50, 161.39 53.80, 163.42, 53.98 C 167.87 54.39, 171.25 54.29, 175.70, 54.70 C 177.73 54.88, 179.87 55.18, 181.81, 55.46 C 183.75 55.73, 185.88 56.03, 187.91, 56.21 C 189.94 56.40, 192.09 56.49, 194.05, 56.57 C 196.03 55.76, 198.21 54.86, 200.23, 53.92 C 204.66 51.85, 207.82 49.94, 212.25, 47.88 C 214.27 46.94, 216.45 46.04, 218.43, 45.22 C 220.41 44.41, 222.59 43.51, 224.61, 42.57 C 229.04 40.51, 232.20 38.59, 236.63, 36.53 C 238.65 35.59, 240.83 34.69, 242.81, 33.88 C 244.79 33.06, 246.97 32.16, 248.99, 31.22 C 251.01 30.28, 253.10 29.20, 255.00, 28.20" fill="#6e73ae" fill-opacity="0.945098" label="outline" layer="0" fill-hsl="235,28,56" filter="drop-shadow(0px 0px 5px #6e73ae)"/>
</svg>