<svg xmlns="http://www.w3.org/2000/svg" height="280" width="930">
  <path d="M 132.50 2.04 C 134.28 2.10, 136.24 2.17, 138.09, 2.34 C 142.13 2.71, 145.14 3.38, 149.19, 3.75 C 151.03 3.91, 152.99 3.99, 154.78, 4.05 C 156.56 4.11, 158.52 4.19, 160.36, 4.36 C 164.41 4.72, 167.42 5.40, 171.46, 5.76 C 173.31 5.93, 175.27 6.01, 177.05, 6.07 C 178.83 6.13, 180.79 6.21, 182.64, 6.37 C 186.69 6.74, 189.69 7.41, 193.74, 7.78 C 195.58 7.95, 197.54 8.02, 199.33, 8.08 C 201.11 8.14, 203.07 8.22, 204.91, 8.39 C 206.76 8.56, 208.70 8.83, 210.46, 9.09 C 211.74 10.25, 213.15 11.53, 214.40, 12.81 C 217.16 15.61, 218.95 18.00, 221.71, 20.80 C 222.97 22.08, 224.37 23.36, 225.65, 24.52 C 226.93 25.67, 228.33 26.96, 229.59, 28.23 C 232.35 31.04, 234.14 33.42, 236.90, 36.23 C 238.15 37.50, 239.56 38.78, 240.83, 39.94 C 242.11 41.10, 243.52 42.38, 244.77, 43.66 C 246.03 44.94, 247.29 46.36, 248.43, 47.66 C 246.36 48.13, 244.08 48.64, 241.91, 49.04 C 237.14 49.90, 233.49 50.15, 228.72, 51.02 C 226.55 51.41, 224.27 51.92, 222.20, 52.40 C 220.13 52.87, 217.85 53.39, 215.68, 53.78 C 210.92 54.64, 207.26 54.90, 202.50, 55.76 C 200.33 56.15, 198.05 56.67, 195.98, 57.14 C 193.91 57.62, 191.63 58.13, 189.46, 58.52 C 184.70 59.39, 181.04 59.64, 176.28, 60.50 C 174.11 60.90, 171.83 61.41, 169.76, 61.89 C 167.69 62.36, 165.41 62.87, 163.24, 63.27 C 158.47 64.13, 154.82 64.38, 150.05, 65.25 C 147.88 65.64, 145.60 66.15, 143.53, 66.63 C 141.46 67.10, 139.18 67.62, 137.01, 68.01 C 134.84 68.40, 132.53 68.72, 130.42, 69.00 C 130.39 66.87, 130.36 64.52, 130.43, 62.30 C 130.58 57.43, 131.09 53.78, 131.24, 48.92 C 131.31 46.70, 131.29 44.35, 131.25, 42.21 C 131.22 40.08, 131.19 37.73, 131.26, 35.51 C 131.41 30.65, 131.92 27.00, 132.08, 22.13 C 132.14 19.91, 132.12 17.56, 132.08, 15.43 C 132.05 13.29, 132.02 10.94, 132.09, 8.73 C 132.16 6.51, 132.33 4.17, 132.50, 2.04" fill="#6e73ad" fill-opacity="0.580392" label="outline" layer="0" fill-hsl="235,28,55" filter="drop-shadow(0px 0px 5px #6e73ad)"/>
</svg>