<svg xmlns="http://www.w3.org/2000/svg" height="280" width="930">
  <path d="M 78.10 3.46 C 79.94 4.02, 81.97 4.65, 83.85, 5.33 C 87.98 6.83, 90.96 8.33, 95.09, 9.82 C 96.97 10.50, 99.00 11.13, 100.84, 11.69 C 102.69 12.25, 104.71 12.88, 106.60, 13.56 C 110.73 15.05, 113.70 16.55, 117.83, 18.05 C 119.71 18.73, 121.74 19.35, 123.59, 19.91 C 125.43 20.47, 127.46 21.10, 129.34, 21.78 C 133.47 23.28, 136.44 24.78, 140.57, 26.27 C 142.46 26.95, 144.48 27.58, 146.33, 28.14 C 148.17 28.70, 150.20 29.32, 152.08, 30.01 C 153.97 30.69, 155.92 31.50, 157.70, 32.25 C 155.93 33.18, 153.98 34.19, 152.10, 35.06 C 147.97 36.96, 144.69 38.04, 140.56, 39.94 C 138.68 40.81, 136.72 41.82, 134.96, 42.75 C 133.19 43.68, 131.24 44.69, 129.35, 45.56 C 125.22 47.46, 121.95 48.54, 117.82, 50.44 C 115.93 51.31, 113.98 52.32, 112.21, 53.25 C 110.45 54.18, 108.49 55.19, 106.61, 56.06 C 102.48 57.96, 99.20 59.04, 95.07, 60.94 C 93.19 61.81, 91.24 62.82, 89.47, 63.75 C 87.70 64.68, 85.75 65.69, 83.87, 66.56 C 81.98 67.43, 79.95 68.26, 78.10, 69.00 C 76.28 68.25, 74.28 67.43, 72.43, 66.56 C 68.38 64.65, 65.50 62.85, 61.45, 60.94 C 59.60 60.07, 57.60 59.24, 55.78, 58.50 C 53.97 57.75, 51.97 56.93, 50.12, 56.06 C 46.07 54.15, 43.19 52.35, 39.13, 50.44 C 37.29 49.57, 35.29 48.74, 33.47, 48.00 C 31.65 47.25, 29.65 46.43, 27.81, 45.56 C 23.75 43.65, 20.87 41.85, 16.82, 39.94 C 14.97 39.07, 12.98 38.24, 11.16, 37.50 C 9.34 36.75, 7.34 35.93, 5.49, 35.06 C 3.65 34.19, 1.73 33.18, 0.00, 32.25 C 1.74 31.50, 3.66 30.69, 5.51, 30.01 C 9.56 28.51, 12.75 27.76, 16.80, 26.27 C 18.65 25.59, 20.57 24.77, 22.31, 24.03 C 24.05 23.28, 25.98 22.46, 27.82, 21.78 C 31.88 20.29, 35.06 19.54, 39.12, 18.04 C 40.97 17.36, 42.89 16.55, 44.63, 15.80 C 46.37 15.05, 48.29 14.24, 50.14, 13.56 C 54.19 12.06, 57.38 11.31, 61.43, 9.82 C 63.28 9.14, 65.20 8.32, 66.94, 7.58 C 68.68 6.83, 70.60 6.01, 72.45, 5.33 C 74.30 4.65, 76.29 4.03, 78.10, 3.46" fill="#686da7" fill-opacity="0.745098" label="outline" layer="0" fill-hsl="235,26,53" filter="drop-shadow(0px 0px 5px #686da7)"/>
</svg>