<svg xmlns="http://www.w3.org/2000/svg" height="280" width="930">
  <path d="M 180.00 0.00 C 179.79 1.82, 179.58 3.83, 179.47, 5.74 C 179.22 9.92, 179.44 13.08, 179.20, 17.26 C 179.09 19.17, 178.87 21.18, 178.67, 23.00 C 178.46 24.82, 178.24 26.83, 178.13, 28.74 C 178.02 30.64, 178.01 32.66, 178.00, 34.50 C 178.01 36.34, 178.02 38.36, 178.13, 40.26 C 178.38 44.44, 178.96 47.56, 179.20, 51.74 C 179.31 53.64, 179.33 55.66, 179.33, 57.50 C 179.34 59.34, 179.36 61.36, 179.47, 63.26 C 179.58 65.17, 179.79 67.18, 180.00, 69.00 C 181.99 67.12, 184.18 65.04, 186.18, 63.01 C 188.18 60.97, 190.23 58.75, 192.08, 56.73 C 193.59 54.44, 195.23 51.91, 196.71, 49.47 C 198.19 47.03, 199.67 44.40, 201.00, 42.00 C 199.71 38.48, 198.27 34.61, 196.83, 30.98 C 195.39 27.36, 193.77 23.56, 192.29, 20.11 C 190.42 16.86, 188.35 13.28, 186.32, 9.95 C 184.28 6.62, 182.04 3.15, 180.00, 0.00" fill="#7767aa" fill-opacity="0.411765" label="middle" layer="1" fill-hsl="254,28,54" filter="drop-shadow(0px 0px 5px #7767aa)"/>
</svg>