<svg xmlns="http://www.w3.org/2000/svg" height="280" width="930">
  <path d="M 125.39 12.02 C 126.66 13.26, 128.04 14.64, 129.28, 16.01 C 130.52 17.37, 131.76 18.88, 132.88, 20.26 C 133.62 21.87, 134.43 23.65, 135.11, 25.36 C 135.79 27.08, 136.41 28.93, 136.97, 30.61 C 136.44 33.06, 135.85 35.75, 135.20, 38.27 C 134.55 40.79, 133.76 43.43, 133.04, 45.83 C 131.91 48.06, 130.66 50.52, 129.39, 52.79 C 128.12 55.07, 126.69 57.42, 125.39, 59.56 C 124.64 57.33, 123.83 54.87, 123.15, 52.52 C 122.48 50.17, 121.85 47.66, 121.30, 45.37 C 121.18 43.02, 121.06 40.44, 121.04, 37.99 C 121.01 35.55, 121.09 32.96, 121.17, 30.61 C 121.10 29.06, 121.02 27.35, 121.05, 25.74 C 121.08 24.12, 121.20 22.42, 121.33, 20.87 C 121.89 19.42, 122.51 17.83, 123.18, 16.36 C 123.85 14.90, 124.65 13.39, 125.39, 12.02" fill="#4d5c84" fill-opacity="0.458824" label="middle" layer="1" fill-hsl="224,26,41" filter="drop-shadow(0px 0px 5px #4d5c84)"/>
</svg>