<svg xmlns="http://www.w3.org/2000/svg" height="280" width="930">
  <path d="M 214.87 0.00 C 215.96 3.04, 217.14 6.39, 218.17, 9.58 C 219.20 12.78, 220.20 16.19, 221.09, 19.29 C 221.56 22.48, 222.06 26.00, 222.44, 29.34 C 222.83 32.67, 223.13 36.21, 223.40, 39.43 C 223.05 40.44, 222.66 41.56, 222.20, 42.57 C 221.74 43.58, 221.16 44.61, 220.63, 45.54 C 219.76 46.17, 218.81 46.87, 217.85, 47.44 C 216.90 48.01, 215.84 48.53, 214.87, 48.99 C 214.32 48.35, 213.71 47.64, 213.22, 46.92 C 212.73 46.19, 212.30 45.37, 211.91, 44.62 C 211.96 43.78, 212.03 42.85, 212.19, 41.99 C 212.35 41.13, 212.62 40.24, 212.87, 39.43 C 212.61 36.28, 212.34 32.81, 212.17, 29.53 C 212.00 26.25, 211.93 22.77, 211.87, 19.61 C 212.25 16.47, 212.68 13.02, 213.17, 9.77 C 213.67 6.53, 214.29 3.11, 214.87, 0.00" fill="#6c5d94" fill-opacity="0.501961" label="middle" layer="1" fill-hsl="256,23,47" filter="drop-shadow(0px 0px 5px #6c5d94)"/>
</svg>