<svg xmlns="http://www.w3.org/2000/svg" height="280" width="930">
  <path d="M 12.34 42.49 C 14.64 42.36, 17.17 42.20, 19.55, 41.96 C 21.93 41.72, 24.44 41.37, 26.72, 41.04 C 28.89 40.28, 31.28 39.44, 33.51, 38.56 C 35.73 37.68, 38.05 36.65, 40.15, 35.71 C 38.15 34.14, 35.94 32.42, 33.79, 30.88 C 31.65 29.33, 29.32 27.78, 27.20, 26.37 C 24.87 25.35, 22.30 24.23, 19.84, 23.26 C 17.38 22.30, 14.74 21.37, 12.34, 20.53 C 11.92 21.71, 11.48 23.02, 11.15, 24.27 C 10.82 25.53, 10.56 26.89, 10.34, 28.12 C 10.56 29.35, 10.82 30.71, 11.15, 31.97 C 11.48 33.22, 11.92 34.53, 12.34, 35.71 C 11.94 36.20, 11.50 36.74, 11.17, 37.30 C 10.84 37.86, 10.57 38.51, 10.34, 39.10 C 10.57 39.69, 10.84 40.34, 11.17, 40.90 C 11.50 41.46, 11.94 42.00, 12.34, 42.49" fill="#5c86ad" fill-opacity="0.474510" label="middle" layer="1" fill-hsl="209,33,52" filter="drop-shadow(0px 0px 5px #5c86ad)"/>
</svg>