<svg xmlns="http://www.w3.org/2000/svg" height="280" width="930">
  <path d="M 42.00 7.00 C 41.79 8.45, 41.58 10.05, 41.47, 11.57 C 41.22 14.90, 41.44 17.43, 41.20, 20.76 C 41.09 22.28, 40.87 23.88, 40.67, 25.33 C 40.46 26.79, 40.24 28.38, 40.13, 29.90 C 40.02 31.42, 40.01 33.03, 40.00, 34.50 C 40.01 35.97, 40.02 37.58, 40.13, 39.10 C 40.38 42.43, 40.96 44.90, 41.20, 48.24 C 41.31 49.75, 41.33 51.37, 41.33, 52.83 C 41.34 54.30, 41.36 55.91, 41.47, 57.43 C 41.58 58.95, 41.79 60.55, 42.00, 62.00 C 43.52 61.16, 45.19 60.23, 46.72, 59.27 C 50.07 57.17, 52.38 55.25, 55.73, 53.15 C 57.26 52.19, 58.93 51.26, 60.45, 50.42 C 61.97 49.58, 63.64 48.65, 65.16, 47.69 C 66.69 46.74, 68.26 45.64, 69.67, 44.63 C 71.08 43.61, 72.62 42.49, 74.02, 41.35 C 77.09 38.85, 79.14 36.66, 82.21, 34.16 C 83.61 33.02, 85.15 31.89, 86.56, 30.88 C 87.96 29.86, 89.51 28.73, 90.90, 27.59 C 92.30 26.45, 93.72 25.17, 95.00, 24.00 C 93.66 23.36, 92.19 22.66, 90.76, 22.08 C 87.62 20.82, 85.12 20.25, 81.98, 18.99 C 80.55 18.41, 79.08 17.71, 77.74, 17.07 C 76.40 16.42, 74.93 15.72, 73.50, 15.15 C 72.07 14.57, 70.52 14.06, 69.11, 13.60 C 67.70 13.15, 66.14 12.67, 64.64, 12.31 C 61.36 11.51, 58.79 11.29, 55.51, 10.49 C 54.01 10.13, 52.45 9.65, 51.04, 9.20 C 49.62 8.75, 48.06 8.27, 46.57, 7.91 C 45.07 7.54, 43.46 7.25, 42.00, 7.00" fill="#7173b6" fill-opacity="0.494118" label="middle" layer="1" fill-hsl="238,32,58" filter="drop-shadow(0px 0px 5px #7173b6)"/>
</svg>