<svg xmlns="http://www.w3.org/2000/svg" height="280" width="930">
  <path d="M 51.11 0.00 C 53.06 1.70, 55.21 3.57, 57.17, 5.41 C 59.13 7.26, 61.13 9.28, 62.95, 11.12 C 64.43 13.24, 66.04 15.59, 67.49, 17.85 C 68.94 20.12, 70.39 22.57, 71.70, 24.80 C 70.44 28.49, 69.05 32.54, 67.65, 36.34 C 66.24 40.15, 64.66 44.13, 63.22, 47.75 C 61.38 51.18, 59.34 54.95, 57.34, 58.47 C 55.33 61.99, 53.12 65.67, 51.11, 69.00 C 50.02 65.57, 48.84 61.79, 47.81, 58.20 C 46.78 54.60, 45.78 50.76, 44.89, 47.28 C 44.43 43.71, 43.93 39.78, 43.55, 36.06 C 43.17 32.34, 42.86 28.39, 42.60, 24.80 C 42.88 22.71, 43.19 20.40, 43.58, 18.24 C 43.97 16.08, 44.49 13.81, 44.96, 11.75 C 45.85 9.83, 46.84 7.73, 47.86, 5.78 C 48.88 3.84, 50.04 1.82, 51.11, 0.00" fill="#58669c" fill-opacity="0.243137" label="middle" layer="1" fill-hsl="228,28,48" filter="drop-shadow(0px 0px 5px #58669c)"/>
</svg>