<svg xmlns="http://www.w3.org/2000/svg" height="280" width="930">
  <path d="M 130.55 9.92 C 132.27 10.92, 134.16 12.03, 135.90, 13.16 C 139.70 15.64, 142.35 17.84, 146.16, 20.32 C 147.89 21.45, 149.78 22.56, 151.50, 23.56 C 153.23 24.56, 155.12 25.67, 156.85, 26.80 C 158.59 27.93, 160.37 29.21, 161.98, 30.38 C 163.58 31.56, 165.35 32.87, 166.95, 34.18 C 170.47 37.05, 172.86 39.51, 176.38, 42.38 C 177.99 43.69, 179.75 45.00, 181.35, 46.18 C 182.96 47.36, 184.72 48.67, 186.32, 49.98 C 187.93 51.28, 189.56 52.75, 191.04, 54.08 C 189.46 54.41, 187.71 54.76, 186.05, 54.99 C 182.41 55.51, 179.61 55.51, 175.97, 56.03 C 174.31 56.26, 172.56 56.61, 170.98, 56.94 C 169.40 57.27, 167.65 57.62, 165.99, 57.85 C 164.33 58.09, 162.56 58.24, 160.95, 58.37 C 159.34 58.49, 157.56 58.60, 155.89, 58.62 C 152.20 58.66, 149.43 58.28, 145.75, 58.32 C 144.07 58.34, 142.30 58.45, 140.68, 58.57 C 139.07 58.69, 137.30 58.80, 135.62, 58.82 C 133.94 58.84, 132.16 58.75, 130.55, 58.67 C 130.15 58.38, 129.72 58.04, 129.39, 57.67 C 129.05 57.29, 128.77 56.83, 128.52, 56.40 C 128.76 55.97, 129.03 55.49, 129.36, 55.11 C 129.69 54.73, 130.11 54.38, 130.50, 54.08 C 130.09 50.57, 129.64 46.71, 129.31, 43.06 C 128.98 39.40, 128.74 35.52, 128.52, 32.00 C 128.74 28.48, 129.00 24.60, 129.34, 20.94 C 129.67 17.29, 130.13 13.42, 130.55, 9.92" fill="#657bb3" fill-opacity="0.580392" label="middle" layer="1" fill-hsl="223,34,55" filter="drop-shadow(0px 0px 5px #657bb3)"/>
</svg>