<svg xmlns="http://www.w3.org/2000/svg" height="280" width="930">
  <path d="M 217.99 62.71 C 218.05 60.36, 218.09 57.78, 218.04, 55.34 C 217.93 49.98, 217.45 45.96, 217.34, 40.61 C 217.29 38.17, 217.33 35.58, 217.38, 33.23 C 217.43 30.89, 217.48 28.30, 217.43, 25.86 C 217.38 23.42, 217.23 20.84, 217.08, 18.49 C 215.07 18.08, 212.85 17.64, 210.74, 17.31 C 206.12 16.60, 202.58 16.45, 197.95, 15.74 C 195.84 15.41, 193.63 14.97, 191.61, 14.56 C 189.60 14.14, 187.39 13.70, 185.28, 13.37 C 180.65 12.66, 177.11 12.51, 172.49, 11.80 C 170.38 11.47, 168.16 11.03, 166.15, 10.62 C 164.14 10.20, 161.92 9.76, 159.82, 9.43 C 155.19 8.72, 151.65 8.58, 147.02, 7.86 C 144.91 7.53, 142.70 7.09, 140.69, 6.68 C 138.68 6.26, 136.46 5.82, 134.35, 5.49 C 132.24 5.17, 130.00 4.92, 127.96, 4.71 C 127.95 6.49, 127.95 8.46, 128.05, 10.31 C 128.27 14.38, 128.83 17.42, 129.04, 21.48 C 129.14 23.34, 129.15 25.30, 129.14, 27.09 C 129.13 28.88, 129.14 30.84, 129.24, 32.70 C 129.45 36.76, 130.01 39.80, 130.23, 43.87 C 130.33 45.72, 130.33 47.69, 130.32, 49.47 C 130.32 51.26, 130.32 53.23, 130.42, 55.08 C 130.52 56.93, 130.72 58.89, 130.92, 60.67 C 132.89 60.81, 135.07 60.96, 137.13, 61.01 C 141.65 61.12, 145.06 60.80, 149.58, 60.90 C 151.64 60.95, 153.82 61.10, 155.80, 61.25 C 157.77 61.40, 159.95 61.55, 162.01, 61.60 C 166.53 61.70, 169.94 61.38, 174.46, 61.49 C 176.52 61.54, 178.70 61.69, 180.68, 61.83 C 182.65 61.98, 184.83 62.13, 186.89, 62.18 C 191.41 62.29, 194.82 61.97, 199.34, 62.07 C 201.40 62.12, 203.58 62.27, 205.55, 62.42 C 207.53 62.56, 209.71 62.72, 211.77, 62.76 C 213.83 62.81, 216.01 62.76, 217.99, 62.71" fill="#7375b0" fill-opacity="0.349020" label="outline" layer="0" fill-hsl="238,28,57" filter="drop-shadow(0px 0px 5px #7375b0)"/>
</svg>