<svg xmlns="http://www.w3.org/2000/svg" height="280" width="930">
  <path d="M 111.33 61.79 L 128.82 58.87 L 130.68 58.71 L 144.25 56.32 L 144.73 55.76 L 161.52 52.38 L 163.50 52.33 L 175.87 49.92 L 179.38 49.49 L 186.71 48.20 L 193.84 47.10 L 198.03 46.49 L 199.80 45.45 L 207.42 44.70 L 214.47 43.22 L 229.61 40.51 L 229.61 40.51 L 244.35 27.71 L 250.49 22.26 L 250.49 22.26 L 242.39 21.04 L 230.70 20.05 L 230.01 19.98 L 226.49 20.13 L 215.14 18.85 L 209.63 18.56 L 203.25 17.40 L 194.93 16.68 L 186.05 16.00 L 176.09 14.97 L 168.91 13.93 L 159.48 12.69 L 159.37 13.31 L 157.41 12.50 L 155.58 12.92 L 142.09 11.25 L 135.88 10.99 L 124.62 10.09 L 110.97 8.32 L 110.97 8.32 L 110.77 25.00 L 111.49 26.72 L 110.97 30.99 L 110.91 40.39 L 110.84 41.27 L 111.72 56.74 L 111.33 61.79 " fill="#7275ab" fill-opacity="0.258824" label="outline" layer="0" fill-hsl="237,25,56" filter="drop-shadow(0px 0px 5px #7275ab)"/>
</svg>