<svg xmlns="http://www.w3.org/2000/svg" height="280" width="930">
  <path d="M 48.00 8.00 L 47.54 25.51 L 47.82 26.05 L 48.35 29.44 L 47.82 36.77 L 48.17 48.89 L 48.00 61.00 L 48.00 61.00 L 50.43 60.99 L 67.36 58.11 L 67.47 58.85 L 68.51 58.63 L 83.28 56.72 L 84.27 55.89 L 94.60 54.28 L 101.35 54.32 L 110.82 52.16 L 113.24 52.24 L 119.05 51.76 L 127.16 50.08 L 138.38 49.25 L 143.77 48.52 L 145.09 47.67 L 147.15 47.79 L 154.86 46.70 L 165.20 45.11 L 169.83 44.21 L 181.90 42.87 L 187.37 42.13 L 200.07 40.63 L 202.75 39.74 L 216.79 38.01 L 219.15 37.94 L 236.12 35.23 L 249.00 34.00 L 249.00 34.00 L 240.62 32.65 L 234.01 32.16 L 224.57 30.78 L 223.13 30.97 L 208.32 28.55 L 203.75 27.65 L 192.30 26.59 L 184.77 25.41 L 177.10 24.38 L 167.06 22.98 L 162.11 22.62 L 157.54 22.65 L 152.46 21.35 L 149.61 21.29 L 132.74 19.18 L 131.02 18.82 L 120.34 17.61 L 115.97 16.51 L 105.15 15.88 L 103.48 15.64 L 96.61 13.84 L 89.30 13.40 L 87.06 13.38 L 76.06 11.61 L 72.90 11.27 L 61.72 9.47 L 48.00 8.00 " fill="#7972af" fill-opacity="0.741176" label="outline" layer="0" fill-hsl="247,28,57" filter="drop-shadow(0px 0px 5px #7972af)"/>
</svg>