<svg xmlns="http://www.w3.org/2000/svg" height="280" width="930">
  <path d="M 156.00 0.00 L 155.56 15.17 L 156.13 18.29 L 155.73 33.93 L 155.84 35.18 L 156.18 39.13 L 155.86 50.66 L 156.00 69.00 L 156.00 69.00 L 159.36 67.78 L 165.90 65.92 L 167.96 64.85 L 170.41 63.37 L 171.22 63.38 L 178.82 60.89 L 179.13 60.39 L 185.12 58.15 L 191.79 55.47 L 192.67 55.15 L 209.02 50.17 L 209.61 49.89 L 219.36 46.27 L 219.89 45.66 L 237.17 40.01 L 255.00 33.00 L 255.00 33.00 L 249.93 31.17 L 241.12 28.74 L 232.51 25.11 L 227.00 23.30 L 226.05 23.01 L 210.10 18.10 L 208.25 16.95 L 203.85 16.28 L 191.95 12.02 L 186.59 10.19 L 179.01 7.20 L 176.74 7.37 L 163.76 2.39 L 156.00 0.00 " fill="#7c77b7" fill-opacity="0.639216" label="outline" layer="0" fill-hsl="245,31,59" filter="drop-shadow(0px 0px 5px #7c77b7)"/>
</svg>