<svg xmlns="http://www.w3.org/2000/svg" height="280" width="930">
  <path d="M 11.32 40.87 L 21.69 41.48 L 24.17 41.18 L 31.16 41.86 L 41.11 41.86 L 50.08 42.86 L 55.52 42.32 L 67.23 43.24 L 74.20 43.35 L 81.10 43.53 L 90.24 43.85 L 103.11 44.51 L 103.11 44.51 L 106.02 44.51 L 112.01 44.80 L 119.30 44.35 L 121.53 44.24 L 122.50 44.42 L 133.75 44.60 L 136.78 44.32 L 152.39 44.50 L 155.60 44.18 L 161.94 44.47 L 167.08 44.37 L 180.13 44.66 L 194.97 44.15 L 194.97 44.15 L 180.22 38.05 L 168.22 33.10 L 168.22 33.10 L 155.98 29.51 L 140.21 25.84 L 140.21 25.84 L 139.64 25.56 L 129.43 25.94 L 127.76 25.98 L 125.28 25.49 L 111.20 25.38 L 108.07 25.10 L 93.88 25.41 L 76.55 25.03 L 76.55 25.03 L 65.57 25.33 L 59.36 25.52 L 52.88 26.13 L 39.69 26.97 L 37.30 27.16 L 36.73 27.53 L 28.00 27.93 L 12.96 28.22 L 12.96 28.22 L 10.16 34.29 L 10.16 34.29 L 11.32 40.87 " fill="#7775af" fill-opacity="0.752941" label="middle" layer="1" fill-hsl="242,27,57" filter="drop-shadow(0px 0px 5px #7775af)"/>
</svg>