<svg xmlns="http://www.w3.org/2000/svg" height="280" width="930">
  <path d="M 10.76 46.16 L 11.53 37.89 L 12.09 19.15 L 12.09 19.15 L 21.69 19.86 L 26.88 19.86 L 37.55 20.60 L 45.84 21.99 L 53.97 22.38 L 57.07 22.83 L 58.12 22.10 L 74.94 23.51 L 77.20 23.41 L 82.59 23.83 L 84.43 23.97 L 98.99 25.34 L 102.14 25.52 L 111.73 26.29 L 120.71 27.32 L 120.75 27.08 L 137.97 28.51 L 139.41 28.65 L 155.30 29.46 L 157.57 29.98 L 173.08 30.39 L 175.03 30.59 L 185.01 31.39 L 190.55 31.97 L 198.06 32.89 L 207.74 33.10 L 212.62 33.13 L 218.91 34.48 L 222.30 34.21 L 231.79 34.62 L 246.03 35.94 L 246.03 35.94 L 239.47 42.53 L 229.23 52.92 L 229.23 52.92 L 222.48 52.51 L 214.89 52.20 L 211.51 52.16 L 195.18 51.67 L 194.24 52.19 L 191.63 51.38 L 174.40 51.12 L 173.66 51.48 L 171.12 51.03 L 155.95 50.16 L 155.78 50.53 L 142.18 50.48 L 139.80 49.68 L 133.55 49.69 L 133.53 49.75 L 130.01 50.23 L 123.81 49.70 L 111.02 48.96 L 104.10 48.91 L 101.13 49.00 L 91.33 48.27 L 81.50 48.32 L 80.03 48.05 L 73.16 48.28 L 66.04 48.31 L 58.47 47.39 L 48.18 46.87 L 45.51 46.83 L 42.31 46.70 L 34.19 47.27 L 32.07 46.90 L 26.64 46.24 L 10.76 46.16 " fill="#6f6ea5" fill-opacity="0.831373" label="outline" layer="0" fill-hsl="241,23,54" filter="drop-shadow(0px 0px 5px #6f6ea5)"/>
</svg>