<?xml version="1.0" encoding="UTF-8" standalone="yes"?>
<svg xmlns="http://www.w3.org/2000/svg" height="280" preserveAspectRatio="none" version="1.1" width="930">
  <rect fill="none" height="280" width="1024" x="0" y="0"/>
  <g transform="scale(4.0000) translate(-11.13636363636364, 0.5)">
    <path d="M 80.00 6.00 L 79.53 21.02 L 79.89 23.36 L 80.67 32.05 L 79.77 42.67 L 79.45 46.81 L 80.00 63.00 L 80.00 63.00 L 88.89 60.28 L 90.23 59.05 L 97.68 57.56 L 108.37 54.10 L 111.27 52.19 L 118.01 50.80 L 127.61 46.71 L 134.54 44.49 L 140.83 43.61 L 149.68 39.48 L 158.37 37.03 L 165.28 35.08 L 169.80 33.93 L 183.49 29.16 L 188.06 26.84 L 201.26 23.46 L 220.00 17.00 L 220.00 17.00 L 213.83 16.35 L 205.01 16.09 L 195.47 15.63 L 189.64 14.46 L 182.86 13.47 L 173.93 13.63 L 170.29 13.12 L 164.83 13.18 L 158.99 11.62 L 158.31 11.69 L 139.99 10.50 L 139.40 10.78 L 126.95 9.16 L 124.31 9.45 L 121.22 9.69 L 113.43 9.10 L 111.36 8.05 L 108.93 7.78 L 106.94 7.89 L 101.79 7.15 L 98.79 7.65 L 80.00 6.00 " fill="#6498a3" fill-opacity="0.396078" label="outline" layer="0" filter="drop-shadow(0px 0px 5px #6498a3)"/>
  </g>
</svg>