<?xml version="1.0" encoding="UTF-8" standalone="yes"?>
<svg xmlns="http://www.w3.org/2000/svg" height="280" preserveAspectRatio="none" version="1.1" width="930">
  <rect fill="none" height="280" width="1024" x="0" y="0"/>
  <g transform="scale(4.0000) translate(-11.13636363636364, 0.5)">
    <path d="M 244.26 47.43 L 244.23 36.85 L 243.49 21.06 L 243.49 21.06 L 226.48 20.90 L 223.94 21.98 L 214.76 21.86 L 206.19 21.75 L 196.62 22.23 L 186.56 22.26 L 184.04 22.86 L 175.70 23.40 L 170.61 23.75 L 155.74 23.45 L 155.42 23.38 L 146.73 23.96 L 143.87 23.63 L 129.75 24.29 L 127.63 25.14 L 119.14 24.25 L 110.83 24.81 L 103.38 26.05 L 100.27 25.61 L 83.88 25.46 L 80.69 26.03 L 66.08 27.17 L 61.03 26.05 L 57.93 26.25 L 52.78 26.61 L 51.51 27.05 L 45.44 27.13 L 38.20 27.83 L 30.40 27.16 L 22.33 27.84 L 18.08 27.67 L 0.00 28.61 L 0.00 28.61 L 2.69 30.33 L 12.00 33.43 L 13.80 34.18 L 22.68 38.28 L 23.62 38.14 L 36.92 44.47 L 48.77 49.66 L 48.77 49.66 L 52.65 49.86 L 65.10 49.44 L 69.79 50.00 L 81.96 49.12 L 82.47 49.45 L 89.83 49.34 L 93.02 49.20 L 105.16 49.03 L 105.62 49.59 L 113.12 48.88 L 125.35 48.52 L 131.17 48.47 L 144.61 48.40 L 146.02 47.97 L 157.46 47.82 L 158.62 48.11 L 171.42 47.80 L 176.28 48.54 L 191.20 48.20 L 193.88 47.40 L 196.22 47.75 L 199.60 48.01 L 208.21 47.64 L 210.59 47.58 L 224.45 47.45 L 244.26 47.43 " fill="#5b8f9d" fill-opacity="0.913725" label="outline" layer="0" filter="drop-shadow(0px 0px 5px #5b8f9d)"/>
  </g>
</svg>