<?xml version="1.0" encoding="UTF-8" standalone="yes"?>
<svg xmlns="http://www.w3.org/2000/svg" height="280" preserveAspectRatio="none" version="1.1" width="930">
  <rect fill="none" height="280" width="1024" x="0" y="0"/>
  <g transform="scale(4.0000) translate(-11.13636363636364, 0.5)">
    <path d="M 150.00 16.00 L 152.00 34.50 L 152.00 34.50 L 150.00 53.00 L 150.00 53.00 L 163.96 52.70 L 168.86 52.53 L 176.81 50.87 L 180.41 51.55 L 199.96 50.00 L 199.96 50.00 L 211.14 50.72 L 218.20 50.26 L 231.02 50.20 L 250.00 51.00 L 250.00 51.00 L 243.52 48.35 L 232.12 44.96 L 231.54 45.73 L 227.99 44.64 L 221.98 42.50 L 219.54 42.20 L 218.65 40.85 L 211.15 38.91 L 199.34 35.39 L 199.34 35.39 L 192.15 32.26 L 189.55 32.20 L 182.73 28.92 L 177.70 27.51 L 166.35 22.81 L 150.00 16.00 " fill="#5d91a6" fill-opacity="0.337255" label="middle" layer="1" filter="drop-shadow(0px 0px 5px #5d91a6)"/>
  </g>
</svg>