<svg xmlns="http://www.w3.org/2000/svg" height="280" width="930">
  <path d="M 200.23 0.00 C 201.68 1.70, 203.27 3.57, 204.70, 5.40 C 207.83 9.41, 209.87 12.67, 213.00, 16.68 C 214.43 18.51, 216.02 20.39, 217.47, 22.08 C 218.92 23.78, 220.51 25.65, 221.94, 27.48 C 225.08 31.49, 227.12 34.75, 230.25, 38.77 C 231.68 40.60, 233.27 42.47, 234.72, 44.16 C 236.17 45.86, 237.76 47.73, 239.19, 49.56 C 240.62 51.39, 242.05 53.39, 243.35, 55.21 C 241.09 56.03, 238.60 56.93, 236.22, 57.69 C 231.00 59.37, 226.95 60.24, 221.72, 61.91 C 219.34 62.67, 216.86 63.57, 214.60, 64.40 C 212.34 65.23, 209.85 66.13, 207.47, 66.89 C 205.09 67.65, 202.54 68.36, 200.23, 69.00 C 197.26 66.88, 193.99 64.55, 190.97, 62.26 C 187.94 59.98, 184.80 57.48, 181.95, 55.21 C 182.44 53.42, 182.98 51.45, 183.59, 49.62 C 184.91 45.61, 186.29 42.72, 187.62, 38.71 C 188.23 36.88, 188.77 34.91, 189.26, 33.12 C 189.75 31.33, 190.29 29.37, 190.90, 27.54 C 192.23 23.53, 193.60 20.64, 194.93, 16.62 C 195.54 14.80, 196.08 12.83, 196.57, 11.04 C 197.06 9.25, 197.60 7.29, 198.21, 5.46 C 198.81 3.63, 199.55 1.73, 200.23, 0.00" fill="#9d5a92" fill-opacity="0.572549" label="outline" layer="0" fill-hsl="310,27,48" filter="drop-shadow(0px 0px 5px #9d5a92)"/>
</svg>