<svg xmlns="http://www.w3.org/2000/svg" height="280" width="930">
  <path d="M 98.44 4.33 C 100.36 4.34, 102.47 4.36, 104.47, 4.47 C 108.85 4.72, 112.11 5.30, 116.49, 5.55 C 118.48 5.66, 120.60 5.68, 122.52, 5.68 C 124.45 5.69, 126.56 5.71, 128.56, 5.82 C 132.93 6.06, 136.20 6.65, 140.58, 6.89 C 142.57 7.00, 144.69 7.02, 146.61, 7.03 C 148.53 7.04, 150.65 7.06, 152.64, 7.17 C 157.02 7.41, 160.29 8.00, 164.66, 8.24 C 166.66 8.35, 168.77 8.37, 170.70, 8.38 C 172.62 8.39, 174.73 8.40, 176.73, 8.52 C 181.11 8.76, 184.37 9.34, 188.75, 9.59 C 190.74 9.70, 192.86 9.72, 194.78, 9.73 C 196.71 9.73, 198.82 9.75, 200.82, 9.86 C 205.19 10.11, 208.46 10.69, 212.84, 10.94 C 214.83 11.05, 216.95 11.07, 218.87, 11.07 C 220.79 11.08, 222.91 11.10, 224.90, 11.21 C 229.28 11.46, 232.55 12.04, 236.92, 12.28 C 238.92 12.40, 241.03 12.41, 242.96, 12.42 C 244.88 12.43, 247.00 12.45, 248.99, 12.56 C 250.98 12.67, 253.09 12.89, 255.00, 13.10 C 253.11 13.63, 251.02 14.21, 249.02, 14.66 C 244.65 15.66, 241.27 16.01, 236.89, 17.01 C 234.90 17.46, 232.81 18.04, 230.91, 18.57 C 229.02 19.11, 226.93 19.68, 224.94, 20.14 C 220.56 21.13, 217.18 21.49, 212.80, 22.49 C 210.81 22.94, 208.72 23.52, 206.83, 24.05 C 204.93 24.58, 202.84 25.16, 200.85, 25.62 C 196.47 26.61, 193.09 26.97, 188.72, 27.96 C 186.72 28.42, 184.63 29.00, 182.74, 29.53 C 180.85 30.06, 178.76 30.64, 176.76, 31.09 C 172.39 32.09, 169.01 32.45, 164.63, 33.44 C 162.64 33.90, 160.55 34.47, 158.65, 35.01 C 156.76 35.54, 154.67 36.12, 152.68, 36.57 C 148.30 37.57, 144.92 37.92, 140.54, 38.92 C 138.55 39.37, 136.46 39.95, 134.57, 40.48 C 132.67 41.02, 130.58 41.59, 128.59, 42.05 C 124.21 43.04, 120.83 43.40, 116.46, 44.40 C 114.46 44.85, 112.37 45.43, 110.48, 45.96 C 108.58 46.49, 106.50 47.07, 104.50, 47.53 C 102.51 47.98, 100.38 48.36, 98.44, 48.70 C 96.45 47.98, 94.27 47.18, 92.25, 46.34 C 87.81 44.49, 84.62 42.73, 80.18, 40.89 C 78.15 40.04, 75.97 39.24, 73.99, 38.53 C 72.00 37.81, 69.82 37.01, 67.80, 36.17 C 63.36 34.32, 60.17 32.56, 55.73, 30.71 C 53.71 29.87, 51.52 29.07, 49.54, 28.35 C 47.56 27.64, 45.38 26.84, 43.35, 26.00 C 38.91 24.15, 35.72 22.39, 31.28, 20.54 C 29.26 19.70, 27.08 18.90, 25.09, 18.18 C 23.11 17.47, 20.93 16.67, 18.90, 15.82 C 16.88 14.98, 14.78 14.00, 12.87, 13.10 C 14.80 12.80, 16.94 12.48, 18.96, 12.27 C 23.40 11.82, 26.78 11.87, 31.23, 11.42 C 33.25 11.21, 35.38 10.89, 37.32, 10.59 C 39.25 10.29, 41.38 9.98, 43.41, 9.77 C 47.85 9.31, 51.23 9.37, 55.67, 8.91 C 57.70 8.71, 59.83 8.39, 61.76, 8.09 C 63.70 7.79, 65.83 7.47, 67.86, 7.26 C 72.30 6.81, 75.68 6.87, 80.12, 6.41 C 82.15 6.20, 84.28 5.89, 86.21, 5.59 C 88.15 5.29, 90.28 4.97, 92.30, 4.76 C 94.33 4.55, 96.48 4.43, 98.44, 4.33" fill="#8d5b96" fill-opacity="0.600000" label="outline" layer="0" fill-hsl="291,24,47" filter="drop-shadow(0px 0px 5px #8d5b96)"/>
</svg>