<svg xmlns="http://www.w3.org/2000/svg" height="280" width="930">
  <path d="M 240.15 7.40 C 238.31 6.48, 236.27 5.47, 234.31, 4.61 C 232.35 3.75, 230.23 2.93, 228.31, 2.19 C 226.27 1.88, 224.03 1.54, 221.90, 1.32 C 219.77 1.10, 217.51 0.96, 215.45, 0.85 C 215.16 2.60, 214.86 4.54, 214.67, 6.37 C 214.24 10.40, 214.32 13.48, 213.89, 17.51 C 213.70 19.34, 213.40 21.28, 213.11, 23.03 C 212.82 24.78, 212.52 26.72, 212.33, 28.55 C 212.13 30.39, 212.03 32.34, 211.94, 34.12 C 211.87 35.90, 211.79 37.85, 211.82, 39.70 C 211.88 43.75, 212.33 46.79, 212.38, 50.84 C 212.41 52.68, 212.34 54.64, 212.27, 56.41 C 212.19 58.19, 212.12 60.14, 212.15, 61.99 C 212.18 63.84, 212.30 65.79, 212.43, 67.56 C 213.91 68.19, 215.53 68.87, 217.10, 69.43 C 218.67 69.98, 220.37 70.48, 221.91, 70.92 C 223.51 70.92, 225.27 70.91, 226.93, 70.81 C 228.59 70.71, 230.34 70.50, 231.93, 70.30 C 232.35 68.66, 232.81 66.86, 233.14, 65.14 C 233.88 61.36, 234.04 58.44, 234.78, 54.67 C 235.11 52.94, 235.57 51.14, 235.99, 49.51 C 236.41 47.87, 236.87 46.07, 237.20, 44.35 C 237.54 42.62, 237.80 40.78, 238.02, 39.11 C 238.23 37.43, 238.46 35.59, 238.57, 33.84 C 238.83 30.00, 238.63 27.08, 238.89, 23.24 C 239.00 21.49, 239.23 19.65, 239.44, 17.97 C 239.65 16.29, 239.88 14.45, 239.99, 12.70 C 240.11 10.95, 240.14 9.09, 240.15, 7.40" fill="#af5786" fill-opacity="0.290196" label="middle" layer="1" fill-hsl="328,35,51" filter="drop-shadow(0px 0px 5px #af5786)"/>
</svg>