<svg xmlns="http://www.w3.org/2000/svg" height="280" width="930">
  <path d="M 177.27 0.00 C 179.08 0.72, 181.07 1.52, 182.91, 2.36 C 186.94 4.21, 189.81 5.96, 193.84, 7.81 C 195.68 8.65, 197.67 9.45, 199.48, 10.17 C 201.29 10.89, 203.28 11.69, 205.11, 12.53 C 209.15 14.38, 212.02 16.13, 216.05, 17.98 C 217.89 18.82, 219.88 19.63, 221.69, 20.34 C 223.50 21.06, 225.48 21.86, 227.32, 22.70 C 231.36 24.55, 234.23 26.31, 238.26, 28.15 C 240.10 29.00, 242.09 29.80, 243.90, 30.52 C 245.70 31.23, 247.69 32.03, 249.53, 32.88 C 251.37 33.72, 253.27 34.70, 255.00, 35.60 C 253.27 36.45, 251.37 37.38, 249.53, 38.17 C 245.49 39.90, 242.30 40.84, 238.26, 42.57 C 236.43 43.36, 234.52 44.29, 232.79, 45.14 C 231.06 46.00, 229.16 46.92, 227.32, 47.71 C 223.28 49.45, 220.09 50.38, 216.06, 52.12 C 214.22 52.91, 212.31 53.84, 210.58, 54.69 C 208.86 55.54, 206.95 56.47, 205.11, 57.26 C 201.08 58.99, 197.88 59.93, 193.85, 61.66 C 192.01 62.45, 190.10 63.38, 188.38, 64.23 C 186.65 65.08, 184.74 66.01, 182.90, 66.80 C 181.06 67.59, 179.08 68.33, 177.27, 69.00 C 175.69 68.33, 173.95 67.58, 172.35, 66.79 C 168.84 65.06, 166.38 63.40, 162.86, 61.66 C 161.26 60.87, 159.52 60.13, 157.94, 59.46 C 156.36 58.79, 154.62 58.04, 153.02, 57.25 C 149.51 55.52, 147.05 53.86, 143.53, 52.12 C 141.93 51.33, 140.20 50.58, 138.61, 49.92 C 137.03 49.25, 135.29 48.50, 133.69, 47.71 C 130.18 45.97, 127.72 44.31, 124.21, 42.58 C 122.60 41.79, 120.87 41.04, 119.28, 40.37 C 117.70 39.70, 115.96 38.96, 114.36, 38.17 C 112.76 37.38, 111.11 36.45, 109.62, 35.60 C 111.11 34.70, 112.76 33.72, 114.36, 32.88 C 117.87 31.03, 120.70 30.00, 124.21, 28.15 C 125.81 27.31, 127.46 26.33, 128.95, 25.43 C 130.44 24.53, 132.09 23.55, 133.69, 22.71 C 137.20 20.86, 140.03 19.83, 143.54, 17.98 C 145.14 17.14, 146.79 16.16, 148.28, 15.26 C 149.77 14.36, 151.42 13.38, 153.02, 12.54 C 156.53 10.69, 159.36 9.65, 162.87, 7.81 C 164.47 6.96, 166.12 5.98, 167.61, 5.09 C 169.10 4.19, 170.75 3.21, 172.35, 2.37 C 173.95 1.52, 175.69 0.72, 177.27, 0.00" fill="#91629f" fill-opacity="0.827451" label="outline" layer="0" fill-hsl="286,24,50" filter="drop-shadow(0px 0px 5px #91629f)"/>
</svg>