<svg xmlns="http://www.w3.org/2000/svg" height="280" width="930">
  <path d="M 69.06 9.42 C 70.49 11.14, 72.08 13.03, 73.65, 14.76 C 77.09 18.54, 79.97 21.11, 83.41, 24.89 C 84.98 26.61, 86.56 28.50, 87.99, 30.23 C 89.43 31.95, 91.01 33.84, 92.58, 35.56 C 94.15 37.29, 95.88 39.04, 97.46, 40.63 C 99.05 42.21, 100.81 43.94, 102.53, 45.51 C 106.32 48.94, 109.43 51.23, 113.21, 54.67 C 114.94 56.23, 116.70 57.96, 118.29, 59.54 C 119.88 61.12, 121.63 62.85, 123.36, 64.42 C 125.08 65.99, 126.98 67.57, 128.70, 69.00 C 129.37 67.71, 130.10 66.28, 130.71, 64.89 C 131.31 63.51, 131.86 62.00, 132.35, 60.63 C 132.41 59.18, 132.46 57.57, 132.41, 56.06 C 132.37 54.55, 132.22 52.96, 132.08, 51.51 C 132.48 48.47, 132.90 45.12, 133.21, 41.95 C 133.52 38.78, 133.74 35.41, 133.94, 32.35 C 133.70 29.29, 133.42 25.93, 133.07, 22.76 C 132.71 19.59, 132.24 16.25, 131.80, 13.22 C 130.15 12.91, 128.34 12.59, 126.62, 12.37 C 122.83 11.90, 119.94 11.94, 116.15, 11.47 C 114.43 11.26, 112.61 10.93, 110.97, 10.63 C 109.32 10.32, 107.51 9.99, 105.78, 9.78 C 104.06 9.57, 102.22 9.44, 100.55, 9.33 C 98.88 9.23, 97.04 9.14, 95.30, 9.15 C 91.49 9.16, 88.62 9.56, 84.81, 9.57 C 83.07 9.58, 81.23 9.49, 79.56, 9.39 C 77.89 9.29, 76.05 9.20, 74.31, 9.21 C 72.57 9.21, 70.73 9.32, 69.06, 9.42" fill="#9f5b98" fill-opacity="0.486275" label="middle" layer="1" fill-hsl="306,27,49" filter="drop-shadow(0px 0px 5px #9f5b98)"/>
</svg>