<svg xmlns="http://www.w3.org/2000/svg" height="280" width="930">
  <path d="M 12.23 6.86 C 14.09 7.36, 16.13 7.92, 18.03, 8.54 C 22.20 9.90, 25.22 11.30, 29.39, 12.66 C 31.29 13.28, 33.33 13.84, 35.19, 14.34 C 37.05 14.84, 39.09 15.40, 40.99, 16.02 C 45.16 17.38, 48.18 18.79, 52.35, 20.15 C 54.25 20.77, 56.29 21.33, 58.15, 21.83 C 60.01 22.33, 62.05 22.89, 63.95, 23.51 C 68.13 24.87, 71.14 26.27, 75.31, 27.63 C 77.21 28.25, 79.25 28.81, 81.11, 29.31 C 82.97 29.81, 85.01 30.37, 86.91, 30.99 C 91.09 32.35, 94.10 33.76, 98.27, 35.12 C 100.17 35.74, 102.22 36.30, 104.07, 36.80 C 105.93 37.30, 107.97 37.86, 109.88, 38.48 C 114.05 39.84, 117.06 41.24, 121.23, 42.60 C 123.13 43.22, 125.18 43.78, 127.03, 44.29 C 128.89 44.79, 130.93 45.35, 132.84, 45.97 C 137.01 47.33, 140.02 48.73, 144.19, 50.09 C 146.09 50.71, 148.14 51.27, 149.99, 51.77 C 151.85 52.27, 153.90 52.83, 155.80, 53.45 C 159.97 54.81, 162.98 56.22, 167.15, 57.58 C 169.05 58.20, 171.10 58.76, 172.96, 59.26 C 174.81 59.76, 176.86 60.32, 178.76, 60.94 C 180.66 61.56, 182.64 62.31, 184.44, 63.00 C 182.33 63.13, 180.01 63.26, 177.82, 63.28 C 173.00 63.34, 169.38 62.99, 164.56, 63.05 C 162.37 63.08, 160.05 63.20, 157.94, 63.33 C 155.84 63.46, 153.52 63.59, 151.32, 63.61 C 146.51 63.67, 142.88 63.32, 138.07, 63.38 C 135.88 63.41, 133.56 63.54, 131.45, 63.66 C 129.34 63.79, 127.02 63.92, 124.83, 63.94 C 120.02 64.00, 116.39 63.65, 111.58, 63.71 C 109.38 63.74, 107.06 63.87, 104.96, 63.99 C 102.85 64.12, 100.53 64.25, 98.34, 64.28 C 93.52 64.34, 89.90 63.98, 85.08, 64.04 C 82.89 64.07, 80.57 64.20, 78.46, 64.32 C 76.36 64.45, 74.04 64.58, 71.84, 64.61 C 67.03 64.67, 63.40 64.31, 58.59, 64.37 C 56.40 64.40, 54.08 64.53, 51.97, 64.65 C 49.86 64.78, 47.54 64.91, 45.35, 64.94 C 40.54 65.00, 36.91 64.64, 32.10, 64.70 C 29.90 64.73, 27.58 64.86, 25.48, 64.99 C 23.37 65.11, 21.05 65.24, 18.86, 65.27 C 16.66 65.30, 14.34 65.22, 12.23, 65.15 C 12.08 64.82, 11.93 64.46, 11.88, 64.10 C 11.83 63.75, 11.88 63.36, 11.93, 63.00 C 11.84 61.21, 11.75 59.24, 11.76, 57.38 C 11.78 53.30, 12.20 50.24, 12.22, 46.16 C 12.23 44.30, 12.14 42.33, 12.05, 40.54 C 11.96 38.75, 11.87 36.79, 11.88, 34.93 C 11.90 30.85, 12.32 27.78, 12.34, 23.70 C 12.35 21.84, 12.26 19.87, 12.17, 18.08 C 12.08 16.30, 11.99 14.33, 12.00, 12.47 C 12.01 10.61, 12.12 8.64, 12.23, 6.86" fill="#905b96" fill-opacity="0.678431" label="outline" layer="0" fill-hsl="294,24,47" filter="drop-shadow(0px 0px 5px #905b96)"/>
</svg>