<svg xmlns="http://www.w3.org/2000/svg" height="280" width="930">
  <path d="M 22.00 8.00 C 21.90 9.69, 21.80 11.54, 21.80, 13.30 C 21.80 17.15, 22.20 20.05, 22.20, 23.90 C 22.20 25.66, 22.10 27.51, 22.00, 29.20 C 21.90 30.89, 21.80 32.74, 21.80, 34.50 C 21.80 38.35, 22.20 41.25, 22.20, 45.10 C 22.20 46.86, 22.10 48.71, 22.00, 50.40 C 21.90 52.09, 21.80 53.94, 21.80, 55.70 C 21.80 57.46, 21.90 59.31, 22.00, 61.00 C 23.89 60.85, 25.96 60.67, 27.91, 60.40 C 32.18 59.83, 35.35 59.00, 39.62, 58.42 C 41.57 58.16, 43.64 57.98, 45.53, 57.82 C 47.42 57.67, 49.49 57.49, 51.44, 57.23 C 55.71 56.65, 58.87 55.82, 63.15, 55.24 C 65.10 54.98, 67.17 54.80, 69.06, 54.65 C 70.94 54.49, 73.02 54.31, 74.97, 54.05 C 79.24 53.47, 82.40 52.64, 86.68, 52.07 C 88.63 51.80, 90.70 51.62, 92.59, 51.47 C 94.47 51.32, 96.55 51.14, 98.50, 50.87 C 102.77 50.30, 105.93 49.47, 110.21, 48.89 C 112.16 48.63, 114.23 48.45, 116.12, 48.29 C 118.00 48.14, 120.08 47.96, 122.03, 47.70 C 126.30 47.12, 129.46 46.29, 133.74, 45.71 C 135.69 45.45, 137.76 45.27, 139.65, 45.12 C 141.53 44.96, 143.61 44.78, 145.56, 44.52 C 149.83 43.94, 152.99 43.11, 157.27, 42.54 C 159.22 42.27, 161.29 42.09, 163.18, 41.94 C 165.06 41.79, 167.14 41.61, 169.09, 41.35 C 173.36 40.77, 176.52 39.94, 180.80, 39.36 C 182.75 39.10, 184.82 38.92, 186.71, 38.76 C 188.59 38.61, 190.67 38.43, 192.61, 38.17 C 196.89 37.59, 200.05 36.76, 204.33, 36.18 C 206.27 35.92, 208.35 35.74, 210.24, 35.59 C 212.12 35.43, 214.20 35.26, 216.14, 34.99 C 218.09 34.73, 220.14 34.35, 222.00, 34.00 C 220.14 33.66, 218.09 33.29, 216.14, 33.04 C 211.87 32.48, 208.60 32.46, 204.33, 31.90 C 202.38 31.65, 200.33 31.28, 198.47, 30.94 C 196.61 30.60, 194.56 30.23, 192.61, 29.98 C 188.34 29.42, 185.07 29.40, 180.80, 28.85 C 178.85 28.59, 176.80 28.22, 174.94, 27.88 C 173.08 27.54, 171.03 27.17, 169.08, 26.92 C 164.81 26.36, 161.54 26.34, 157.27, 25.79 C 155.32 25.53, 153.27 25.17, 151.41, 24.82 C 149.55 24.48, 147.50 24.11, 145.56, 23.86 C 141.28 23.30, 138.01 23.28, 133.74, 22.73 C 131.79 22.47, 129.74 22.11, 127.88, 21.76 C 126.02 21.42, 123.97 21.05, 122.03, 20.80 C 117.75 20.25, 114.48 20.22, 110.21, 19.67 C 108.26 19.42, 106.21 19.05, 104.35, 18.71 C 102.49 18.36, 100.44 18.00, 98.50, 17.74 C 94.22 17.19, 90.96 17.17, 86.68, 16.61 C 84.73 16.36, 82.68 15.99, 80.82, 15.65 C 78.96 15.30, 76.92 14.94, 74.97, 14.68 C 70.69 14.13, 67.43 14.11, 63.15, 13.55 C 61.20 13.30, 59.15 12.93, 57.29, 12.59 C 55.43 12.25, 53.39 11.88, 51.44, 11.63 C 47.16 11.07, 43.90 11.05, 39.62, 10.49 C 37.67 10.24, 35.62 9.87, 33.76, 9.53 C 31.91 9.19, 29.86 8.82, 27.91, 8.57 C 25.96 8.31, 23.89 8.14, 22.00, 8.00" fill="#bb78c6" fill-opacity="0.768627" label="outline" layer="0" fill-hsl="292,41,62" filter="drop-shadow(0px 0px 5px #bb78c6)"/>
</svg>