<svg xmlns="http://www.w3.org/2000/svg" height="280" width="930">
  <path d="M 208.41 0.01 C 209.18 2.77, 210.03 5.82, 210.73, 8.72 C 211.43 11.62, 212.08 14.72, 212.66, 17.53 C 212.81 20.40, 212.96 23.56, 213.00, 26.54 C 213.05 29.53, 213.00 32.69, 212.95, 35.56 C 212.21 38.32, 211.39 41.36, 210.52, 44.21 C 209.65 47.05, 208.64 50.03, 207.71, 52.74 C 206.38 55.27, 204.90 58.06, 203.43, 60.64 C 201.95 63.22, 200.30 65.91, 198.80, 68.34 C 198.61 65.58, 198.40 62.55, 198.31, 59.67 C 198.21 56.80, 198.20 53.75, 198.21, 50.99 C 198.65 48.26, 199.15 45.26, 199.71, 42.44 C 200.28 39.62, 200.97 36.66, 201.61, 33.97 C 201.74 31.20, 201.89 28.15, 202.13, 25.27 C 202.37 22.39, 202.72 19.36, 203.05, 16.60 C 203.81 13.93, 204.65 10.99, 205.54, 8.24 C 206.43 5.50, 207.46 2.62, 208.41, 0.01" fill="#995b98" fill-opacity="0.552941" label="middle" layer="1" fill-hsl="301,25,48" filter="drop-shadow(0px 0px 5px #995b98)"/>
</svg>