<svg xmlns="http://www.w3.org/2000/svg" height="280" width="930">
  <path d="M 12.43 0.00 C 12.25 1.83, 12.06 3.84, 11.97, 5.75 C 11.78 9.93, 12.04 13.09, 11.85, 17.27 C 11.76 19.18, 11.57 21.19, 11.39, 23.02 C 11.21 24.85, 11.02 26.86, 10.93, 28.77 C 10.84 30.67, 10.85 32.69, 10.87, 34.53 C 10.90 36.37, 10.94 38.39, 11.08, 40.29 C 11.37 44.46, 11.99 47.58, 12.28, 51.75 C 12.42 53.65, 12.46 55.67, 12.49, 57.51 C 12.52 59.35, 12.56 61.37, 12.70, 63.27 C 12.83 65.17, 13.07 67.18, 13.30, 69.00 C 14.92 69.16, 16.71 69.33, 18.41, 69.40 C 22.12 69.55, 24.93 69.25, 28.65, 69.40 C 30.34 69.47, 32.13 69.64, 33.76, 69.80 C 35.38 69.96, 37.17 70.13, 38.86, 70.20 C 42.58 70.35, 45.39 70.05, 49.11, 70.20 C 50.80 70.27, 52.59 70.44, 54.21, 70.60 C 55.84 70.76, 57.62 70.93, 59.32, 71.00 C 61.01 71.07, 62.81 71.04, 64.44, 71.00 C 66.07 71.04, 67.87 71.07, 69.56, 71.00 C 73.28 70.85, 76.06 70.35, 79.77, 70.20 C 81.46 70.13, 83.26 70.16, 84.89, 70.20 C 86.52 70.24, 88.32 70.27, 90.01, 70.20 C 93.73 70.05, 96.51 69.55, 100.22, 69.40 C 101.92 69.33, 103.71 69.36, 105.34, 69.40 C 106.98 69.44, 108.77 69.47, 110.46, 69.40 C 112.16 69.33, 113.95 69.16, 115.57, 69.00 C 114.30 67.11, 112.90 65.03, 111.49, 63.12 C 108.42 58.94, 105.78 56.03, 102.70, 51.84 C 101.30 49.94, 99.89 47.86, 98.62, 45.97 C 97.36 44.07, 95.95 42.00, 94.55, 40.09 C 93.14 38.18, 91.58 36.22, 90.15, 34.45 C 88.71 32.68, 87.12 30.75, 85.54, 28.98 C 82.09 25.10, 79.19 22.45, 75.74, 18.57 C 74.16 16.80, 72.57 14.86, 71.13, 13.10 C 69.69 11.33, 68.10 9.39, 66.52, 7.63 C 64.95 5.86, 63.21 4.05, 61.62, 2.42 C 57.74 1.81, 53.46 1.15, 49.40, 0.62 C 45.35 0.09, 41.04 -0.38, 37.13, -0.79 C 33.20 -0.76, 28.86 -0.73, 24.77, -0.59 C 20.68 -0.46, 16.36 -0.23, 12.43, -0.00" fill="#875388" fill-opacity="0.239216" label="middle" layer="1" fill-hsl="299,24,43" filter="drop-shadow(0px 0px 5px #875388)"/>
</svg>