<svg xmlns="http://www.w3.org/2000/svg" height="280" width="930">
  <path d="M 168.55 16.50 C 168.38 17.93, 168.18 19.50, 167.90, 20.97 C 167.29 24.18, 166.44 26.53, 165.82, 29.75 C 165.54 31.21, 165.35 32.79, 165.18, 34.21 C 165.01 35.64, 164.81 37.21, 164.53, 38.68 C 164.25 40.15, 163.86 41.68, 163.49, 43.07 C 163.11 44.46, 162.68 45.98, 162.19, 47.39 C 161.11 50.49, 159.92 52.68, 158.84, 55.78 C 158.35 57.19, 157.92 58.71, 157.54, 60.10 C 157.16 61.49, 156.74 63.02, 156.25, 64.43 C 155.75 65.84, 155.14 67.30, 154.57, 68.62 C 154.34 68.97, 154.08 69.35, 153.77, 69.65 C 153.46 69.94, 153.07 70.17, 152.70, 70.38 C 152.41 70.08, 152.09 69.74, 151.87, 69.38 C 151.66 69.01, 151.51 68.57, 151.39, 68.17 C 151.45 66.33, 151.52 64.32, 151.69, 62.41 C 152.05 58.24, 152.71 55.14, 153.07, 50.97 C 153.24 49.07, 153.31 47.05, 153.37, 45.22 C 153.43 43.38, 153.50 41.36, 153.67, 39.46 C 153.83 37.56, 154.10 35.56, 154.36, 33.74 C 154.63 31.92, 154.94 29.93, 155.32, 28.06 C 156.16 23.96, 157.18 20.95, 158.02, 16.85 C 158.40 14.98, 158.71 12.98, 158.98, 11.17 C 159.25 9.35, 159.56 7.35, 159.94, 5.48 C 160.32 3.61, 160.82 1.66, 161.29, -0.12 C 162.24 1.02, 163.28 2.27, 164.19, 3.52 C 165.09 4.76, 165.97 6.14, 166.76, 7.39 C 167.14 8.82, 167.55 10.40, 167.85, 11.91 C 168.15 13.42, 168.36 15.03, 168.55, 16.50" fill="#565e96" fill-opacity="0.400000" label="middle" layer="1" fill-hsl="233,27,46" filter="drop-shadow(0px 0px 5px #565e96)"/>
</svg>