<svg xmlns="http://www.w3.org/2000/svg" height="280" width="930">
  <path d="M 171.61 0.00 C 172.03 1.30, 172.48 2.73, 172.81, 4.11 C 173.55 7.13, 173.71 9.50, 174.45, 12.52 C 174.78 13.89, 175.23 15.33, 175.65, 16.63 C 176.07 17.93, 176.52 19.36, 176.85, 20.74 C 177.19 22.11, 177.45 23.59, 177.67, 24.94 C 177.88 26.29, 178.11 27.77, 178.22, 29.19 C 178.48 32.29, 178.28 34.65, 178.54, 37.75 C 178.65 39.16, 178.88 40.64, 179.09, 41.99 C 179.30 43.34, 179.53 44.83, 179.64, 46.24 C 179.76 47.65, 179.79 49.15, 179.80, 50.52 C 178.69 52.22, 177.46 54.09, 176.22, 55.80 C 174.98 57.51, 173.59 59.26, 172.32, 60.84 C 170.74 62.11, 168.99 63.50, 167.28, 64.74 C 165.57 65.98, 163.70 67.21, 162.00, 68.32 C 161.29 66.75, 160.51 65.03, 159.87, 63.36 C 159.22 61.70, 158.64 59.90, 158.11, 58.26 C 158.02 56.54, 157.92 54.65, 157.93, 52.87 C 157.94 51.08, 158.04 49.20, 158.15, 47.48 C 158.82 43.60, 159.56 39.32, 160.35, 35.30 C 161.15 31.28, 162.09 27.04, 162.95, 23.20 C 164.23 19.47, 165.66 15.37, 167.09, 11.53 C 168.53 7.69, 170.14 3.66, 171.61, 0.00" fill="#6267a4" fill-opacity="0.517647" label="middle" layer="1" fill-hsl="235,27,51" filter="drop-shadow(0px 0px 5px #6267a4)"/>
</svg>