<svg xmlns="http://www.w3.org/2000/svg" height="280" width="930">
  <path d="M 85.14 16.04 C 86.92 15.90, 88.87 15.76, 90.73, 15.72 C 94.79 15.64, 97.85 15.97, 101.91, 15.89 C 103.77 15.85, 105.72 15.71, 107.50, 15.57 C 109.28 15.43, 111.23 15.29, 113.09, 15.25 C 117.15 15.17, 120.21 15.50, 124.27, 15.41 C 126.13 15.38, 128.08 15.23, 129.86, 15.10 C 131.64 14.96, 133.59 14.82, 135.45, 14.78 C 139.51 14.69, 142.57 15.03, 146.63, 14.94 C 148.49 14.90, 150.44 14.76, 152.22, 14.63 C 154.00 14.49, 155.95 14.35, 157.81, 14.31 C 159.66 14.27, 161.62 14.33, 163.40, 14.39 C 165.18 14.34, 167.14 14.30, 168.99, 14.36 C 173.06 14.48, 176.10 14.97, 180.16, 15.10 C 182.01 15.15, 183.97 15.11, 185.75, 15.06 C 187.54 15.02, 189.50 14.98, 191.35, 15.03 C 195.41 15.16, 198.45 15.65, 202.51, 15.77 C 204.36 15.83, 206.33 15.78, 208.11, 15.74 C 209.89 15.69, 211.85 15.65, 213.70, 15.71 C 217.76 15.83, 220.81 16.32, 224.87, 16.44 C 226.72 16.50, 228.68 16.46, 230.46, 16.41 C 232.24 16.37, 234.21 16.33, 236.06, 16.38 C 237.91 16.44, 239.86 16.60, 241.64, 16.75 C 241.13 18.95, 240.56 21.37, 239.92, 23.62 C 239.29 25.88, 238.52 28.25, 237.82, 30.39 C 236.71 32.36, 235.49 34.52, 234.25, 36.51 C 233.01 38.50, 231.62 40.56, 230.34, 42.42 C 228.13 42.89, 225.70 43.40, 223.39, 43.79 C 218.31 44.65, 214.43 44.90, 209.35, 45.75 C 207.03 46.14, 204.60 46.65, 202.40, 47.13 C 200.19 47.60, 197.76 48.11, 195.44, 48.50 C 190.37 49.36, 186.48 49.61, 181.40, 50.46 C 179.09 50.85, 176.66 51.36, 174.45, 51.84 C 172.24 52.31, 169.81 52.82, 167.50, 53.21 C 165.19 53.60, 162.72 53.91, 160.48, 54.19 C 158.25 54.54, 155.79 54.91, 153.46, 55.17 C 148.34 55.74, 144.45 55.77, 139.33, 56.33 C 137.00 56.59, 134.55 56.97, 132.32, 57.31 C 130.09 57.66, 127.63 58.04, 125.30, 58.29 C 120.18 58.86, 116.29 58.89, 111.17, 59.46 C 108.84 59.72, 106.38 60.09, 104.15, 60.44 C 101.92 60.79, 99.47 61.16, 97.13, 61.42 C 94.80 61.68, 92.32 61.85, 90.07, 62.00 C 89.26 58.40, 88.39 54.42, 87.65, 50.65 C 86.91 46.88, 86.23 42.87, 85.62, 39.23 C 85.44 35.54, 85.26 31.48, 85.18, 27.64 C 85.10 23.80, 85.12 19.73, 85.14, 16.04" fill="#9462a0" fill-opacity="0.643137" label="middle" layer="1" fill-hsl="288,25,51" filter="drop-shadow(0px 0px 5px #9462a0)"/>
</svg>