<svg xmlns="http://www.w3.org/2000/svg" height="280" width="930">
  <path d="M 91.77 68.49 C 92.41 69.00, 93.12 69.54, 93.85, 69.98 C 94.57 70.42, 95.38 70.80, 96.13, 71.13 C 96.94 71.01, 97.82 70.88, 98.63, 70.66 C 99.44 70.44, 100.28 70.11, 101.03, 69.80 C 101.33 67.98, 101.65 65.98, 101.86, 64.07 C 102.32 59.90, 102.27 56.71, 102.73, 52.53 C 102.94 50.63, 103.26 48.63, 103.56, 46.81 C 103.86 44.99, 104.18 42.98, 104.39, 41.08 C 104.60 39.18, 104.72 37.15, 104.82, 35.31 C 104.91 33.47, 104.99 31.44, 104.98, 29.53 C 104.95 25.33, 104.53 22.17, 104.51, 17.97 C 104.49 16.05, 104.58 14.02, 104.67, 12.18 C 104.75 10.34, 104.84 8.32, 104.83, 6.40 C 104.82 4.49, 104.70 2.46, 104.59, 0.62 C 103.09 2.48, 101.46 4.53, 99.98, 6.52 C 98.51 8.52, 97.03 10.68, 95.70, 12.66 C 94.75 14.85, 93.71 17.26, 92.81, 19.57 C 91.92 21.89, 91.07 24.37, 90.30, 26.63 C 90.00 29.97, 89.68 33.64, 89.47, 37.12 C 89.26 40.60, 89.14 44.28, 89.04, 47.63 C 89.38 50.96, 89.75 54.63, 90.21, 58.09 C 90.66 61.54, 91.24 65.18, 91.77, 68.49" fill="#8363a2" fill-opacity="0.498039" label="middle" layer="1" fill-hsl="270,25,51" filter="drop-shadow(0px 0px 5px #8363a2)"/>
</svg>