<svg xmlns="http://www.w3.org/2000/svg" height="280" width="930">
  <path d="M 13.54 16.51 C 15.51 16.65, 17.68 16.81, 19.72, 17.06 C 24.19 17.60, 27.50 18.41, 31.97, 18.96 C 34.01 19.20, 36.18 19.37, 38.15, 19.51 C 40.12 19.65, 42.29 19.81, 44.32, 20.06 C 48.80 20.60, 52.11 21.41, 56.58, 21.95 C 58.62 22.20, 60.79 22.36, 62.76, 22.50 C 64.73 22.64, 66.89 22.80, 68.93, 23.05 C 70.97 23.30, 73.11 23.66, 75.06, 24.00 C 77.02 24.27, 79.17 24.57, 81.19, 24.95 C 85.62 25.78, 88.87 26.79, 93.30, 27.63 C 95.32 28.00, 97.47 28.31, 99.43, 28.57 C 101.39 28.84, 103.54 29.14, 105.56, 29.52 C 109.98 30.35, 113.24 31.37, 117.67, 32.20 C 119.68 32.58, 121.84 32.88, 123.80, 33.14 C 125.75 33.41, 127.91 33.71, 129.92, 34.09 C 131.94 34.47, 134.06 34.97, 135.98, 35.43 C 134.06 35.88, 131.94 36.37, 129.92, 36.74 C 125.49 37.54, 122.09 37.75, 117.67, 38.56 C 115.65 38.93, 113.53 39.41, 111.61, 39.87 C 109.69 40.32, 107.57 40.80, 105.55, 41.17 C 101.12 41.98, 97.72 42.19, 93.29, 43.00 C 91.28 43.36, 89.16 43.85, 87.24, 44.30 C 85.31 44.75, 83.20 45.24, 81.18, 45.61 C 79.16 45.98, 77.01 46.27, 75.05, 46.52 C 73.10 46.85, 70.96 47.19, 68.92, 47.43 C 64.45 47.95, 61.04 47.94, 56.57, 48.46 C 54.54 48.69, 52.39 49.04, 50.45, 49.37 C 48.50 49.69, 46.36 50.04, 44.32, 50.28 C 39.85 50.80, 36.44 50.79, 31.97, 51.31 C 29.93 51.54, 27.79 51.89, 25.84, 52.22 C 23.90 52.54, 21.75 52.89, 19.71, 53.13 C 17.68 53.36, 15.51 53.51, 13.54, 53.64 C 12.97 52.26, 12.35 50.73, 11.86, 49.26 C 11.36 47.79, 10.93 46.21, 10.55, 44.76 C 10.61 43.26, 10.68 41.62, 10.85, 40.07 C 11.01 38.53, 11.28 36.90, 11.54, 35.43 C 11.28 33.90, 11.01 32.22, 10.85, 30.62 C 10.68 29.01, 10.61 27.31, 10.55, 25.76 C 10.93 24.26, 11.36 22.61, 11.85, 21.07 C 12.35 19.54, 12.97 17.95, 13.54, 16.51" fill="#9a609f" fill-opacity="0.811765" label="middle" layer="1" fill-hsl="295,25,50" filter="drop-shadow(0px 0px 5px #9a609f)"/>
</svg>