<svg xmlns="http://www.w3.org/2000/svg" height="280" width="930">
  <path d="M 231.20 12.41 C 232.16 13.57, 233.21 14.86, 234.13, 16.13 C 235.04 17.40, 235.93 18.80, 236.73, 20.08 C 237.12 21.54, 237.54 23.14, 237.85, 24.68 C 238.16 26.21, 238.38 27.86, 238.58, 29.35 C 237.76 32.60, 236.85 36.17, 235.89, 39.52 C 234.94 42.88, 233.83 46.40, 232.82, 49.59 C 231.40 52.62, 229.83 55.96, 228.25, 59.07 C 226.68 62.18, 224.93 65.43, 223.33, 68.37 C 223.19 65.11, 223.04 61.51, 223.00, 58.12 C 222.96 54.72, 223.01 51.13, 223.07, 47.86 C 223.56 44.63, 224.11 41.08, 224.73, 37.74 C 225.34 34.40, 226.09 30.88, 226.78, 27.69 C 226.73 26.38, 226.68 24.94, 226.73, 23.58 C 226.77 22.22, 226.92 20.79, 227.07, 19.49 C 227.64 18.31, 228.28 17.02, 228.96, 15.85 C 229.65 14.68, 230.46 13.49, 231.20, 12.41" fill="#9d64a4" fill-opacity="0.462745" label="middle" layer="1" fill-hsl="293,26,52" filter="drop-shadow(0px 0px 5px #9d64a4)"/>
</svg>