<svg xmlns="http://www.w3.org/2000/svg" height="280" width="930">
  <path d="M 117.82 0.00 C 115.92 0.40, 113.82 0.85, 111.88, 1.40 C 107.61 2.61, 104.55 4.05, 100.28, 5.26 C 98.34 5.81, 96.24 6.26, 94.34, 6.66 C 92.43 7.05, 90.33 7.50, 88.39, 8.06 C 84.12 9.27, 81.06 10.70, 76.79, 11.91 C 74.85 12.46, 72.75 12.92, 70.85, 13.31 C 68.94 13.71, 66.85 14.16, 64.90, 14.71 C 60.63 15.92, 57.58 17.36, 53.31, 18.57 C 51.36 19.12, 49.27 19.57, 47.36, 19.97 C 45.45 20.37, 43.36 20.82, 41.41, 21.37 C 37.15 22.58, 34.09 24.02, 29.82, 25.23 C 27.88 25.78, 25.78 26.23, 23.87, 26.63 C 21.97 27.02, 19.87 27.47, 17.93, 28.02 C 15.98 28.58, 13.96 29.29, 12.13, 29.95 C 11.88 31.46, 11.61 33.12, 11.49, 34.70 C 11.37 36.28, 11.38 37.96, 11.40, 39.49 C 13.25 40.14, 15.28 40.85, 17.23, 41.39 C 21.53 42.58, 24.90 42.95, 29.19, 44.14 C 31.15 44.69, 33.18 45.39, 35.02, 46.05 C 36.87 46.70, 38.90 47.41, 40.86, 47.95 C 45.15 49.14, 48.52 49.51, 52.81, 50.70 C 54.77 51.24, 56.80 51.95, 58.64, 52.60 C 60.49 53.26, 62.52 53.97, 64.48, 54.51 C 68.77 55.70, 72.14 56.07, 76.43, 57.26 C 78.39 57.80, 80.42 58.51, 82.26, 59.16 C 84.11 59.82, 86.14 60.52, 88.10, 61.07 C 92.39 62.26, 95.76 62.62, 100.05, 63.82 C 102.01 64.36, 104.04 65.07, 105.89, 65.72 C 107.73 66.38, 109.76 67.08, 111.72, 67.63 C 113.67 68.17, 115.78 68.61, 117.70, 69.00 C 117.84 66.80, 117.98 64.39, 117.98, 62.10 C 117.99 57.09, 117.45 53.31, 117.46, 48.30 C 117.46 46.01, 117.60 43.60, 117.75, 41.40 C 117.89 39.20, 118.03 36.79, 118.03, 34.50 C 118.04 29.49, 117.50 25.71, 117.51, 20.70 C 117.51 18.41, 117.66 16.00, 117.80, 13.80 C 117.94 11.60, 118.08 9.19, 118.08, 6.90 C 118.09 4.62, 117.96 2.20, 117.82, 0.00" fill="#89a773" fill-opacity="0.490196" label="outline" layer="0" fill-hsl="95,23,55" filter="drop-shadow(0px 0px 5px #89a773)"/>
</svg>