<svg xmlns="http://www.w3.org/2000/svg" height="280" width="930">
  <path d="M 20.91 28.94 C 23.32 29.18, 25.98 29.45, 28.46, 29.84 C 33.92 30.68, 37.94 31.86, 43.40, 32.71 C 45.89 33.09, 48.54 33.36, 50.95, 33.60 C 53.37 33.83, 56.02 34.11, 58.51, 34.49 C 60.99 34.88, 63.61 35.42, 65.98, 35.93 C 63.60 36.38, 60.99 36.87, 58.50, 37.20 C 53.04 37.93, 48.87 37.93, 43.41, 38.65 C 40.92 38.99, 38.30 39.47, 35.93, 39.93 C 33.56 40.38, 30.95 40.87, 28.46, 41.20 C 25.97 41.53, 23.32 41.74, 20.91, 41.93 C 19.05 41.09, 17.00 40.16, 15.13, 39.17 C 13.26 38.18, 11.35 37.00, 9.61, 35.93 C 11.34 34.70, 13.25 33.36, 15.12, 32.20 C 16.99 31.05, 19.04 29.94, 20.91, 28.94" fill="#b1c26f" fill-opacity="0.729412" label="middle" layer="1" fill-hsl="72,40,60" filter="drop-shadow(0px 0px 5px #b1c26f)"/>
</svg>