<svg xmlns="http://www.w3.org/2000/svg" height="280" width="930">
  <path d="M 84.63 0.00 C 85.19 1.81, 85.79 3.80, 86.23, 5.72 C 87.19 9.92, 87.38 13.20, 88.35, 17.40 C 88.79 19.31, 89.39 21.31, 89.95, 23.11 C 90.50 24.92, 91.10 26.92, 91.54, 28.83 C 91.98 30.75, 92.32 32.80, 92.61, 34.67 C 92.32 36.52, 91.98 38.56, 91.54, 40.46 C 90.58 44.61, 89.32 47.62, 88.35, 51.77 C 87.91 53.67, 87.58 55.71, 87.29, 57.56 C 87.00 59.41, 86.67 61.45, 86.23, 63.34 C 85.79 65.24, 85.19 67.21, 84.63, 69.00 C 84.27 67.20, 83.89 65.21, 83.66, 63.31 C 83.15 59.15, 83.31 55.96, 82.81, 51.80 C 82.57 49.91, 82.19 47.92, 81.83, 46.11 C 81.48 44.31, 81.09 42.32, 80.86, 40.43 C 80.63 38.53, 80.52 36.51, 80.44, 34.67 C 80.52 32.82, 80.63 30.77, 80.86, 28.86 C 81.37 24.66, 82.30 21.57, 82.81, 17.37 C 83.04 15.46, 83.15 13.41, 83.23, 11.56 C 83.32 9.70, 83.43 7.66, 83.66, 5.75 C 83.89 3.83, 84.27 1.82, 84.63, 0.00" fill="#799f7b" fill-opacity="0.796078" label="middle" layer="1" fill-hsl="123,17,55" filter="drop-shadow(0px 0px 5px #799f7b)"/>
</svg>