<svg xmlns="http://www.w3.org/2000/svg" height="280" width="930">
  <path d="M 59.90 11.89 C 59.75 14.27, 59.59 16.88, 59.57, 19.36 C 59.53 24.79, 60.05 28.88, 60.02, 34.31 C 60.00 36.78, 59.84 39.40, 59.69, 41.78 C 59.53 44.15, 59.38 46.77, 59.36, 49.25 C 59.34 51.72, 59.46 54.34, 59.58, 56.72 C 61.01 57.50, 62.58 58.34, 64.13, 59.02 C 67.51 60.51, 70.28 61.12, 73.66, 62.61 C 75.20 63.29, 76.78 64.13, 78.21, 64.91 C 79.64 65.68, 81.21 66.53, 82.75, 67.21 C 84.30 67.88, 85.98 68.47, 87.52, 69.00 C 87.66 66.80, 87.80 64.39, 87.81, 62.10 C 87.81 57.09, 87.27 53.31, 87.27, 48.30 C 87.27 46.01, 87.41 43.60, 87.55, 41.40 C 87.69 39.20, 87.84 36.79, 87.84, 34.50 C 87.84 29.49, 87.30 25.71, 87.30, 20.70 C 87.31 18.41, 87.45 16.00, 87.59, 13.80 C 87.73 11.60, 87.87 9.19, 87.87, 6.90 C 87.87 4.61, 87.74 2.20, 87.60, 0.00 C 86.08 0.50, 84.41 1.07, 82.88, 1.73 C 79.52 3.17, 77.22 4.76, 73.86, 6.20 C 72.33 6.85, 70.66 7.42, 69.13, 7.93 C 67.61 8.43, 65.94 9.00, 64.41, 9.65 C 62.88 10.31, 61.32 11.13, 59.90, 11.89" fill="#87b084" fill-opacity="0.427451" label="outline" layer="0" fill-hsl="116,22,60" filter="drop-shadow(0px 0px 5px #87b084)"/>
</svg>