<svg xmlns="http://www.w3.org/2000/svg" height="280" width="930">
  <path d="M 225.00 0.00 C 224.86 2.20, 224.72 4.61, 224.72, 6.90 C 224.72 11.91, 225.28 15.69, 225.28, 20.70 C 225.28 22.99, 225.14 25.40, 225.00, 27.60 C 224.86 29.80, 224.72 32.21, 224.72, 34.50 C 224.72 39.51, 225.28 43.29, 225.28, 48.30 C 225.28 50.59, 225.14 53.00, 225.00, 55.20 C 224.86 57.40, 224.72 59.81, 224.72, 62.10 C 224.72 64.39, 224.86 66.80, 225.00, 69.00 C 225.91 67.69, 226.91 66.24, 227.74, 64.80 C 229.56 61.65, 230.44 59.01, 232.26, 55.86 C 233.09 54.43, 234.09 52.98, 235.00, 51.67 C 235.91 50.36, 236.91 48.91, 237.74, 47.47 C 238.57 46.04, 239.32 44.45, 240.00, 43.00 C 239.33 40.67, 238.59 38.12, 237.76, 35.74 C 235.94 30.53, 234.06 26.80, 232.24, 21.59 C 231.41 19.22, 230.67 16.66, 230.00, 14.33 C 229.33 12.01, 228.59 9.45, 227.76, 7.08 C 226.93 4.70, 225.93 2.24, 225.00, 0.00" fill="#9bab7a" fill-opacity="0.513725" label="middle" layer="1" fill-hsl="80,23,57" filter="drop-shadow(0px 0px 5px #9bab7a)"/>
</svg>