<svg xmlns="http://www.w3.org/2000/svg" height="280" width="930">
  <path d="M 196.74 67.16 C 198.66 66.23, 200.77 65.20, 202.70, 64.11 C 206.94 61.71, 209.85 59.44, 214.08, 57.04 C 216.01 55.95, 218.12 54.92, 220.04, 53.99 C 221.97 53.06, 224.08 52.02, 226.01, 50.93 C 230.24 48.54, 233.15 46.26, 237.39, 43.87 C 239.32 42.78, 241.43 41.74, 243.35, 40.81 C 245.27 39.88, 247.38 38.85, 249.31, 37.76 C 251.24 36.67, 253.21 35.39, 255.00, 34.23 C 253.22 33.02, 251.24 31.70, 249.31, 30.57 C 245.08 28.08, 241.62 26.68, 237.38, 24.19 C 235.45 23.06, 233.48 21.74, 231.70, 20.54 C 229.91 19.33, 227.94 18.01, 226.01, 16.88 C 221.78 14.39, 218.31 12.99, 214.08, 10.50 C 212.15 9.37, 210.18 8.05, 208.39, 6.85 C 206.61 5.64, 204.64 4.32, 202.71, 3.19 C 200.78 2.05, 198.67 0.97, 196.74, 0.00 C 194.83 0.97, 192.73 2.05, 190.81, 3.19 C 186.61 5.67, 183.73 8.02, 179.52, 10.50 C 177.61 11.64, 175.51 12.72, 173.60, 13.69 C 171.68 14.66, 169.59 15.74, 167.67, 16.88 C 163.46 19.36, 160.58 21.71, 156.38, 24.19 C 154.46 25.33, 152.36 26.41, 150.45, 27.38 C 148.54 28.35, 146.44 29.43, 144.52, 30.57 C 142.61 31.70, 140.65 33.02, 138.88, 34.23 C 140.65 35.39, 142.61 36.67, 144.53, 37.76 C 148.73 40.15, 152.17 41.47, 156.37, 43.87 C 158.29 44.96, 160.25 46.23, 162.02, 47.40 C 163.80 48.57, 165.76 49.84, 167.67, 50.93 C 171.88 53.33, 175.31 54.65, 179.52, 57.04 C 181.43 58.13, 183.39 59.41, 185.17, 60.58 C 186.94 61.74, 188.90 63.02, 190.82, 64.11 C 192.74 65.20, 194.83 66.23, 196.74, 67.16" fill="#bfdd8d" fill-opacity="0.549020" label="outline" layer="0" fill-hsl="83,54,71" filter="drop-shadow(0px 0px 5px #bfdd8d)"/>
</svg>