<svg xmlns="http://www.w3.org/2000/svg" height="280" width="930">
  <path d="M 152.11 0.00 C 152.77 2.36, 153.47 4.96, 154.01, 7.45 C 155.20 12.91, 155.56 17.13, 156.74, 22.59 C 157.28 25.08, 157.99 27.68, 158.65, 30.04 C 159.30 32.40, 160.01 35.00, 160.55, 37.49 C 161.09 39.98, 161.53 42.64, 161.91, 45.06 C 160.42 46.13, 158.78 47.30, 157.16, 48.29 C 155.53 49.29, 153.74 50.22, 152.11, 51.06 C 151.45 50.17, 150.74 49.19, 150.18, 48.19 C 149.63 47.20, 149.15 46.08, 148.74, 45.06 C 148.78 42.66, 148.84 40.02, 149.03, 37.53 C 149.43 32.07, 150.29 28.01, 150.70, 22.55 C 150.88 20.06, 150.94 17.42, 150.99, 15.02 C 151.03 12.62, 151.09 9.98, 151.27, 7.49 C 151.46 5.00, 151.79 2.38, 152.11, 0.00" fill="#dcc849" fill-opacity="0.458824" label="middle" layer="1" fill-hsl="52,68,57" filter="drop-shadow(0px 0px 5px #dcc849)"/>
</svg>