<svg xmlns="http://www.w3.org/2000/svg" height="280" width="930">
  <path d="M 58.39 36.65 C 58.89 38.41, 59.46 40.35, 60.11, 42.13 C 61.55 46.05, 63.15 48.81, 64.59, 52.73 C 65.25 54.51, 65.81 56.45, 66.31, 58.22 C 66.81 59.98, 67.38 61.92, 68.03, 63.70 C 68.69 65.49, 69.51 67.33, 70.27, 69.00 C 70.49 67.06, 70.72 64.92, 70.81, 62.90 C 71.00 58.46, 70.59 55.09, 70.78, 50.65 C 70.87 48.62, 71.10 46.49, 71.32, 44.55 C 71.54 42.61, 71.77 40.47, 71.85, 38.45 C 72.04 34.00, 71.63 30.64, 71.82, 26.20 C 71.91 24.17, 72.14 22.04, 72.36, 20.10 C 72.58 18.16, 72.81 16.02, 72.90, 14.00 C 72.98 11.97, 72.94 9.82, 72.88, 7.87 C 70.87 10.23, 68.66 12.84, 66.68, 15.39 C 64.70 17.94, 62.71 20.72, 60.91, 23.25 C 60.38 25.35, 59.80 27.68, 59.38, 29.90 C 58.96 32.12, 58.66 34.49, 58.39, 36.65" fill="#4bb4a8" fill-opacity="0.356863" label="middle" layer="1" fill-hsl="173,41,50" filter="drop-shadow(0px 0px 5px #4bb4a8)"/>
</svg>