<svg xmlns="http://www.w3.org/2000/svg" height="280" width="930">
  <path d="M 70.11 16.36 C 70.16 18.12, 70.22 20.06, 70.41, 21.88 C 70.82 25.87, 71.68 28.81, 72.09, 32.80 C 72.28 34.62, 72.34 36.56, 72.38, 38.32 C 72.43 40.08, 72.49 42.02, 72.68, 43.84 C 72.87 45.66, 73.20 47.57, 73.52, 49.30 C 75.83 49.31, 78.37 49.31, 80.76, 49.18 C 86.01 48.90, 89.93 48.14, 95.18, 47.85 C 97.57 47.72, 100.11 47.72, 102.42, 47.73 C 104.73 47.75, 107.27 47.74, 109.66, 47.62 C 112.05 47.49, 114.58 47.21, 116.87, 46.95 C 118.08 46.39, 119.41 45.76, 120.59, 45.05 C 123.19 43.50, 124.87 41.87, 127.47, 40.32 C 128.66 39.61, 129.99 38.98, 131.20, 38.42 C 132.41 37.86, 133.73 37.24, 134.92, 36.53 C 136.10 35.82, 137.29 34.96, 138.36, 34.16 C 136.22 33.46, 133.86 32.71, 131.60, 32.12 C 126.64 30.82, 122.78 30.38, 117.82, 29.09 C 115.55 28.50, 113.20 27.74, 111.06, 27.04 C 108.92 26.34, 106.56 25.59, 104.30, 25.00 C 99.34 23.70, 95.48 23.26, 90.52, 21.97 C 88.26 21.38, 85.90 20.62, 83.76, 19.92 C 81.62 19.22, 79.27 18.47, 77.01, 17.88 C 74.74 17.29, 72.32 16.80, 70.11, 16.36" fill="#99ae74" fill-opacity="0.886275" label="middle" layer="1" fill-hsl="82,26,57" filter="drop-shadow(0px 0px 5px #99ae74)"/>
</svg>