<svg xmlns="http://www.w3.org/2000/svg" height="280" width="930">
  <path d="M 87.77 12.68 C 89.83 12.78, 92.10 12.91, 94.23, 13.16 C 98.91 13.71, 102.36 14.67, 107.03, 15.21 C 109.16 15.46, 111.43 15.59, 113.50, 15.69 C 115.56 15.80, 117.83 15.92, 119.96, 16.17 C 124.64 16.72, 128.09 17.68, 132.76, 18.23 C 134.89 18.48, 137.16 18.60, 139.23, 18.71 C 141.29 18.81, 143.56 18.94, 145.69, 19.19 C 150.36 19.74, 153.82 20.69, 158.49, 21.24 C 160.62 21.49, 162.89 21.62, 164.95, 21.72 C 167.02 21.82, 169.29 21.95, 171.42, 22.20 C 176.09 22.75, 179.54 23.71, 184.22, 24.25 C 186.35 24.50, 188.62 24.63, 190.68, 24.73 C 192.74 24.84, 195.01 24.97, 197.14, 25.21 C 201.82 25.76, 205.27 26.72, 209.94, 27.27 C 212.08 27.52, 214.35 27.65, 216.41, 27.75 C 218.47 27.85, 220.74 27.98, 222.87, 28.23 C 227.55 28.78, 231.00 29.73, 235.67, 30.28 C 237.80 30.53, 240.07 30.66, 242.14, 30.76 C 244.20 30.87, 246.47 30.99, 248.60, 31.24 C 250.73 31.49, 252.97 31.89, 255.00, 32.27 C 252.98 32.76, 250.75 33.30, 248.62, 33.67 C 243.94 34.49, 240.33 34.57, 235.66, 35.39 C 233.53 35.76, 231.30 36.29, 229.27, 36.79 C 227.25 37.28, 225.02 37.81, 222.89, 38.19 C 218.21 39.01, 214.60 39.09, 209.93, 39.91 C 207.80 40.28, 205.57 40.81, 203.54, 41.31 C 201.52 41.80, 199.29 42.33, 197.16, 42.71 C 192.49 43.53, 188.88 43.60, 184.20, 44.43 C 182.07 44.80, 179.84 45.33, 177.82, 45.83 C 175.79 46.32, 173.56 46.85, 171.43, 47.23 C 166.76 48.05, 163.15 48.12, 158.47, 48.95 C 156.34 49.32, 154.11 49.85, 152.09, 50.35 C 150.07 50.84, 147.84 51.37, 145.71, 51.75 C 141.03 52.57, 137.42 52.64, 132.75, 53.46 C 130.62 53.84, 128.39 54.37, 126.36, 54.87 C 124.34 55.36, 122.11 55.89, 119.98, 56.27 C 115.30 57.09, 111.69 57.16, 107.02, 57.98 C 104.89 58.36, 102.66 58.89, 100.63, 59.38 C 98.61 59.88, 96.38 60.41, 94.25, 60.79 C 92.12 61.16, 89.84 61.42, 87.77, 61.64 C 86.04 60.83, 84.14 59.92, 82.41, 58.95 C 78.62 56.81, 76.04 54.73, 72.24, 52.59 C 70.51 51.62, 68.62 50.71, 66.89, 49.89 C 65.16 49.08, 63.26 48.17, 61.53, 47.20 C 57.74 45.06, 55.15 42.98, 51.36, 40.84 C 49.63 39.87, 47.73 38.96, 46.00, 38.14 C 44.27 37.33, 42.38 36.42, 40.65, 35.45 C 38.92 34.47, 37.16 33.32, 35.56, 32.27 C 37.18 31.52, 38.96 30.70, 40.69, 30.05 C 44.48 28.63, 47.53 28.07, 51.32, 26.65 C 53.05 26.00, 54.83 25.19, 56.45, 24.43 C 58.06 23.68, 59.84 22.87, 61.57, 22.22 C 65.36 20.79, 68.41 20.24, 72.20, 18.81 C 73.93 18.17, 75.72 17.35, 77.33, 16.60 C 78.94 15.85, 80.72 15.03, 82.45, 14.38 C 84.18 13.73, 86.06 13.17, 87.77, 12.68" fill="#9fba7b" fill-opacity="0.764706" label="outline" layer="0" fill-hsl="86,31,61" filter="drop-shadow(0px 0px 5px #9fba7b)"/>
</svg>