<svg xmlns="http://www.w3.org/2000/svg" height="280" width="930">
  <path d="M 227.89 0.00 C 229.93 3.38, 232.16 7.12, 234.15, 10.71 C 236.15 14.30, 238.14 18.16, 239.93, 21.68 C 239.43 24.22, 238.86 27.02, 238.19, 29.63 C 236.73 35.36, 235.10 39.54, 233.65, 45.27 C 232.98 47.88, 232.41 50.68, 231.90, 53.23 C 231.40 55.77, 230.83 58.57, 230.16, 61.18 C 229.50 63.79, 228.66 66.52, 227.89, 69.00 C 227.37 66.51, 226.81 63.77, 226.41, 61.15 C 225.54 55.42, 225.42 51.03, 224.55, 45.30 C 224.15 42.69, 223.59 39.94, 223.07, 37.45 C 222.55 34.96, 221.99 32.22, 221.59, 29.61 C 221.19 26.99, 220.90 24.21, 220.66, 21.68 C 221.68 18.18, 222.81 14.34, 224.01, 10.75 C 225.21 7.16, 226.61 3.41, 227.89, 0.00" fill="#859f72" fill-opacity="0.564706" label="middle" layer="1" fill-hsl="95,19,54" filter="drop-shadow(0px 0px 5px #859f72)"/>
</svg>