<svg xmlns="http://www.w3.org/2000/svg" height="280" width="930">
  <path d="M 187.21 47.23 C 189.57 48.02, 192.17 48.89, 194.67, 49.58 C 200.15 51.09, 204.41 51.70, 209.89, 53.21 C 212.39 53.90, 214.99 54.76, 217.35, 55.56 C 219.71 56.36, 222.32 57.22, 224.82, 57.91 C 227.31 58.60, 229.99 59.20, 232.43, 59.73 C 232.79 57.31, 233.17 54.65, 233.41, 52.12 C 233.93 46.58, 233.77 42.36, 234.28, 36.82 C 234.52 34.29, 234.90 31.63, 235.27, 29.21 C 235.63 26.80, 236.02 24.14, 236.25, 21.61 C 236.49 19.09, 236.60 16.40, 236.69, 13.96 C 234.85 14.04, 232.84 14.15, 230.94, 14.38 C 226.79 14.88, 223.74 15.80, 219.59, 16.30 C 217.70 16.53, 215.68 16.64, 213.85, 16.72 C 212.01 16.81, 210.00 16.91, 208.10, 17.14 C 203.95 17.64, 200.90 18.57, 196.75, 19.07 C 194.86 19.30, 192.84 19.40, 191.01, 19.49 C 189.17 19.57, 187.16 19.68, 185.26, 19.91 C 183.37 20.14, 181.39 20.51, 179.59, 20.87 C 179.86 22.31, 180.17 23.88, 180.59, 25.34 C 181.52 28.53, 182.74 30.78, 183.66, 33.97 C 184.08 35.43, 184.39 37.01, 184.67, 38.44 C 184.94 39.88, 185.25 41.46, 185.67, 42.91 C 186.09 44.37, 186.67 45.87, 187.21, 47.23" fill="#aab56b" fill-opacity="0.729412" label="middle" layer="1" fill-hsl="69,33,56" filter="drop-shadow(0px 0px 5px #aab56b)"/>
</svg>