<svg xmlns="http://www.w3.org/2000/svg" height="280" width="930">
  <path d="M 149.52 55.75 C 149.40 53.47, 149.28 50.95, 149.30, 48.58 C 149.34 43.37, 149.92 39.46, 149.96, 34.25 C 149.98 31.87, 149.87 29.36, 149.75, 27.08 C 149.63 24.80, 149.51 22.28, 149.53, 19.91 C 149.54 17.54, 149.70 15.02, 149.86, 12.74 C 151.89 12.38, 154.14 11.99, 156.27, 11.75 C 160.96 11.22, 164.54 11.37, 169.23, 10.85 C 171.36 10.61, 173.61 10.22, 175.64, 9.85 C 177.68 9.48, 179.92 9.09, 182.06, 8.85 C 186.74 8.33, 190.33 8.48, 195.01, 7.95 C 197.15 7.71, 199.39 7.32, 201.43, 6.96 C 203.46 6.59, 205.71 6.20, 207.84, 5.96 C 212.53 5.43, 216.11 5.59, 220.80, 5.06 C 222.93 4.82, 225.17 4.43, 227.21, 4.06 C 229.25 3.70, 231.49 3.31, 233.63, 3.07 C 235.76 2.83, 238.04 2.71, 240.10, 2.62 C 240.19 4.58, 240.27 6.74, 240.21, 8.78 C 240.10 13.26, 239.46 16.61, 239.34, 21.09 C 239.28 23.13, 239.36 25.29, 239.45, 27.26 C 239.53 29.22, 239.61 31.38, 239.56, 33.42 C 239.44 37.90, 238.80 41.25, 238.68, 45.73 C 238.63 47.77, 238.71 49.93, 238.79, 51.90 C 238.88 53.86, 238.96 56.02, 238.90, 58.07 C 238.85 60.11, 238.65 62.26, 238.46, 64.22 C 236.43 64.16, 234.19 64.09, 232.08, 63.89 C 227.47 63.45, 224.05 62.57, 219.43, 62.13 C 217.33 61.93, 215.09 61.85, 213.05, 61.80 C 211.02 61.74, 208.78 61.67, 206.67, 61.47 C 202.06 61.03, 198.64 60.15, 194.02, 59.71 C 191.91 59.51, 189.68 59.43, 187.64, 59.38 C 185.60 59.32, 183.37 59.25, 181.26, 59.05 C 176.64 58.61, 173.22 57.73, 168.61, 57.29 C 166.50 57.09, 164.26 57.01, 162.23, 56.96 C 160.19 56.90, 157.95 56.83, 155.85, 56.63 C 153.75 56.43, 151.53 56.08, 149.52, 55.75" fill="#8fa86c" fill-opacity="0.600000" label="outline" layer="0" fill-hsl="85,26,54" filter="drop-shadow(0px 0px 5px #8fa86c)"/>
</svg>