<svg xmlns="http://www.w3.org/2000/svg" height="280" width="930">
  <path d="M 168.24 21.37 C 170.15 17.90, 172.26 14.08, 174.36, 10.54 C 176.47 7.01, 178.81 3.33, 180.95, 0.00 C 181.07 1.92, 181.18 4.03, 181.16, 6.02 C 181.11 10.40, 180.53 13.68, 180.48, 18.06 C 180.46 20.05, 180.57 22.16, 180.69, 24.08 C 180.81 26.00, 180.92 28.11, 180.90, 30.10 C 180.85 34.48, 180.27 37.76, 180.22, 42.14 C 180.20 44.13, 180.32 46.24, 180.43, 48.16 C 180.55 50.08, 180.66 52.19, 180.64, 54.18 C 180.62 56.17, 180.46 58.28, 180.30, 60.20 C 176.36 60.56, 172.02 60.94, 167.90, 61.18 C 163.79 61.41, 159.43 61.52, 155.48, 61.61 C 156.02 59.43, 156.64 57.04, 157.34, 54.82 C 158.89 49.95, 160.57 46.45, 162.12, 41.57 C 162.83 39.35, 163.44 36.96, 163.99, 34.78 C 164.53 32.61, 165.15 30.21, 165.85, 27.99 C 166.56 25.77, 167.43 23.46, 168.24, 21.37" fill="#0091bd" fill-opacity="0.286275" label="middle" layer="1" fill-hsl="194,100,37" filter="drop-shadow(0px 0px 5px #0091bd)"/>
</svg>