<svg xmlns="http://www.w3.org/2000/svg" height="280" width="930">
  <path d="M 114.00 0.00 C 113.86 2.20, 113.72 4.61, 113.72, 6.90 C 113.72 11.91, 114.28 15.69, 114.28, 20.70 C 114.28 22.99, 114.14 25.40, 114.00, 27.60 C 113.86 29.80, 113.72 32.21, 113.72, 34.50 C 113.72 39.51, 114.28 43.29, 114.28, 48.30 C 114.28 50.59, 114.14 53.00, 114.00, 55.20 C 113.86 57.40, 113.72 59.81, 113.72, 62.10 C 113.72 64.39, 113.86 66.80, 114.00, 69.00 C 114.72 66.86, 115.49 64.50, 116.10, 62.24 C 117.43 57.27, 117.90 53.39, 119.23, 48.43 C 119.84 46.17, 120.62 43.81, 121.33, 41.67 C 122.05 39.53, 122.83 37.17, 123.43, 34.90 C 124.04 32.64, 124.55 30.21, 125.00, 28.00 C 124.54 26.46, 124.03 24.78, 123.42, 23.23 C 122.09 19.84, 120.58 17.49, 119.24, 14.10 C 118.64 12.55, 118.12 10.87, 117.67, 9.33 C 117.21 7.80, 116.70 6.11, 116.09, 4.57 C 115.48 3.02, 114.71 1.44, 114.00, 0.00" fill="#b8b261" fill-opacity="0.466667" label="middle" layer="1" fill-hsl="56,38,55" filter="drop-shadow(0px 0px 5px #b8b261)"/>
</svg>