<svg xmlns="http://www.w3.org/2000/svg" height="280" preserveAspectRatio="none" version="1.1" width="930">
<rect fill="none" height="280" width="1024" x="0" y="0" />
<g transform="scale(4.0000) translate(-11.13636363636364, 0.5)">
<path d="M 164.86 57.38 C 166.46 56.57, 168.23 55.67, 169.84, 54.74 C 173.39 52.70, 175.86 50.81, 179.41, 48.77 C 181.03 47.84, 182.79 46.94, 184.39, 46.13 C 186.00 45.33, 187.76 44.43, 189.38, 43.50 C 192.93 41.45, 195.40 39.57, 198.95, 37.53 C 200.56 36.60, 202.33 35.70, 203.93, 34.89 C 205.53 34.08, 207.30 33.19, 208.91, 32.25 C 212.46 30.21, 214.93 28.33, 218.48, 26.29 C 220.10 25.36, 221.86 24.46, 223.47, 23.65 C 225.07 22.84, 226.83 21.94, 228.45, 21.01 C 230.07 20.08, 231.73 19.01, 233.23, 18.03 C 231.33 17.94, 229.23 17.85, 227.25, 17.86 C 222.91 17.88, 219.64 18.30, 215.30, 18.32 C 213.31 18.34, 211.22 18.25, 209.31, 18.16 C 207.41 18.07, 205.31 17.98, 203.33, 17.99 C 198.99 18.01, 195.72 18.43, 191.38, 18.45 C 189.40 18.46, 187.30 18.37, 185.40, 18.28 C 183.49 18.19, 181.40 18.11, 179.41, 18.12 C 175.07 18.14, 171.80 18.56, 167.46, 18.58 C 165.48 18.59, 163.38 18.50, 161.48, 18.41 C 159.57 18.32, 157.48 18.23, 155.50, 18.24 C 151.15 18.27, 147.88 18.68, 143.54, 18.71 C 141.56 18.72, 139.46 18.63, 137.56, 18.54 C 135.65 18.45, 133.56 18.36, 131.58, 18.37 C 127.23 18.39, 123.97 18.81, 119.62, 18.83 C 117.64 18.85, 115.54 18.76, 113.64, 18.67 C 111.74 18.58, 109.64 18.49, 107.66, 18.50 C 103.31 18.52, 100.05 18.94, 95.70, 18.96 C 93.72 18.97, 91.62 18.88, 89.72, 18.79 C 87.82 18.70, 85.72 18.62, 83.74, 18.63 C 79.39 18.65, 76.13 19.07, 71.78, 19.09 C 69.80 19.10, 67.71 19.01, 65.80, 18.92 C 63.90 18.83, 61.80 18.74, 59.82, 18.75 C 55.48 18.78, 52.21 19.19, 47.86, 19.22 C 45.88 19.23, 43.79 19.14, 41.88, 19.05 C 39.98 18.96, 37.88 18.87, 35.90, 18.88 C 33.92 18.89, 31.83 19.00, 29.92, 19.11 C 27.39 21.63, 24.61 24.41, 22.05, 27.10 C 19.48 29.79, 16.85 32.71, 14.46, 35.36 C 16.28 35.73, 18.30 36.13, 20.21, 36.41 C 24.42 37.02, 27.63 37.09, 31.84, 37.71 C 33.76 37.99, 35.77 38.38, 37.59, 38.75 C 39.42 39.12, 41.43 39.51, 43.35, 39.79 C 47.55 40.41, 50.77 40.48, 54.98, 41.09 C 56.89 41.37, 58.91 41.77, 60.73, 42.14 C 62.56 42.50, 64.57 42.90, 66.49, 43.18 C 70.69 43.80, 73.91 43.86, 78.12, 44.48 C 80.03 44.76, 82.05 45.15, 83.87, 45.52 C 85.70 45.89, 87.71 46.29, 89.63, 46.57 C 93.83 47.18, 97.05 47.25, 101.26, 47.86 C 103.17 48.15, 105.19 48.54, 107.01, 48.91 C 108.84 49.28, 110.85 49.67, 112.77, 49.95 C 116.97 50.57, 120.19 50.64, 124.40, 51.25 C 126.31 51.53, 128.32 51.93, 130.15, 52.30 C 131.98 52.66, 133.99 53.06, 135.91, 53.34 C 140.11 53.96, 143.33 54.02, 147.53, 54.64 C 149.45 54.92, 151.46 55.31, 153.29, 55.68 C 155.12 56.05, 157.13 56.45, 159.05, 56.73 C 160.96 57.01, 163.00 57.20, 164.86, 57.38" fill="#618faa" fill-opacity="1.5" label="outline" layer="0" /><path d="M 233.84 30.85 C 231.95 30.93, 229.86 31.03, 227.91, 31.22 C 223.61 31.63, 220.42 32.34, 216.13, 32.76 C 214.17 32.95, 212.09 33.05, 210.20, 33.13 C 208.31 33.21, 206.23 33.31, 204.27, 33.50 C 199.98 33.92, 196.79 34.63, 192.49, 35.04 C 190.54 35.23, 188.46 35.33, 186.57, 35.42 C 184.67 35.50, 182.59 35.60, 180.64, 35.79 C 176.34 36.20, 173.15 36.91, 168.86, 37.33 C 166.90 37.52, 164.82 37.62, 162.93, 37.70 C 161.04 37.78, 158.96 37.88, 157.00, 38.07 C 152.71 38.49, 149.52 39.20, 145.22, 39.61 C 143.27 39.80, 141.18 39.90, 139.29, 39.99 C 137.40 40.07, 135.32 40.17, 133.37, 40.36 C 129.07 40.77, 125.88 41.48, 121.59, 41.90 C 119.63 42.09, 117.55 42.19, 115.66, 42.27 C 113.77 42.35, 111.69 42.46, 109.73, 42.64 C 105.44 43.06, 102.25 43.77, 97.95, 44.18 C 95.99 44.37, 93.91 44.47, 92.02, 44.56 C 90.13 44.64, 88.05 44.74, 86.10, 44.93 C 81.80 45.34, 78.61 46.05, 74.32, 46.47 C 72.36 46.66, 70.28 46.76, 68.39, 46.84 C 66.50 46.92, 64.42 47.03, 62.46, 47.21 C 58.17 47.63, 54.98 48.34, 50.68, 48.76 C 48.72 48.94, 46.64 49.05, 44.75, 49.13 C 42.86 49.21, 40.78 49.31, 38.82, 49.50 C 34.53 49.91, 31.34 50.63, 27.05, 51.04 C 25.09 51.23, 23.01 51.33, 21.12, 51.41 C 19.23 51.49, 17.15 51.60, 15.19, 51.78 C 13.23 51.97, 11.17 52.27, 9.30, 52.55 C 10.47 53.24, 11.77 53.98, 13.04, 54.60 C 15.82 55.96, 18.08 56.62, 20.86, 57.98 C 22.13 58.60, 23.42 59.34, 24.60, 60.03 C 25.77 60.71, 27.07 61.46, 28.33, 62.08 C 29.60 62.70, 30.99 63.26, 32.25, 63.77 C 34.14 63.91, 36.22 64.07, 38.19, 64.12 C 42.50 64.23, 45.76 63.92, 50.08, 64.03 C 52.05 64.08, 54.13 64.23, 56.02, 64.38 C 57.91 64.53, 59.99 64.68, 61.96, 64.74 C 66.28 64.85, 69.54 64.53, 73.86, 64.64 C 75.82 64.69, 77.90 64.85, 79.79, 65.00 C 81.68 65.15, 83.76 65.30, 85.73, 65.35 C 90.05 65.46, 93.31 65.15, 97.63, 65.26 C 99.60 65.31, 101.68 65.46, 103.57, 65.61 C 105.46 65.76, 107.54 65.92, 109.50, 65.97 C 113.82 66.08, 117.08 65.76, 121.40, 65.88 C 123.37 65.93, 125.45 66.08, 127.34, 66.23 C 129.23 66.38, 131.31 66.53, 133.28, 66.58 C 137.60 66.69, 140.85 66.38, 145.17, 66.49 C 147.14 66.54, 149.22 66.70, 151.11, 66.84 C 153.00 66.99, 155.08 67.15, 157.05, 67.20 C 161.37 67.31, 164.63 66.99, 168.95, 67.11 C 170.92 67.16, 173.00 67.31, 174.89, 67.46 C 176.77 67.61, 178.85 67.76, 180.82, 67.81 C 185.14 67.93, 188.40 67.61, 192.72, 67.72 C 194.69 67.77, 196.77 67.93, 198.66, 68.08 C 200.55 68.23, 202.63 68.38, 204.60, 68.43 C 208.92 68.54, 212.17 68.23, 216.49, 68.34 C 218.46 68.39, 220.54 68.54, 222.43, 68.69 C 224.32 68.84, 226.40 69.00, 228.37, 69.05 C 230.34 69.10, 232.42 69.05, 234.32, 69.00 C 234.39 66.97, 234.46 64.74, 234.44, 62.64 C 234.38 58.02, 233.94 54.55, 233.88, 49.93 C 233.85 47.82, 233.92 45.59, 234.00, 43.56 C 234.07 41.54, 234.14 39.31, 234.12, 37.20 C 234.09 35.10, 233.96 32.87, 233.84, 30.85" fill="#5f8ca8" fill-opacity="1.394118" label="outline" layer="0" /><path d="M 7.35 20.28 C 9.26 20.47, 11.37 20.66, 13.36, 20.75 C 17.73 20.95, 21.04 20.69, 25.42, 20.89 C 27.41 20.98, 29.52 21.17, 31.43, 21.36 C 33.34 21.54, 35.44 21.74, 37.44, 21.83 C 41.81 22.02, 45.12 21.77, 49.50, 21.96 C 51.49 22.05, 53.60 22.25, 55.51, 22.43 C 57.42 22.62, 59.52 22.81, 61.52, 22.90 C 65.89 23.10, 69.20 22.84, 73.58, 23.04 C 75.57 23.13, 77.67 23.32, 79.59, 23.51 C 81.50 23.69, 83.60 23.89, 85.60, 23.98 C 89.97 24.17, 93.28 23.92, 97.65, 24.11 C 99.65 24.20, 101.75 24.40, 103.67, 24.58 C 105.58 24.77, 107.68 24.96, 109.68, 25.05 C 114.05 25.25, 117.36 24.99, 121.73, 25.19 C 123.73 25.28, 125.83 25.47, 127.74, 25.66 C 129.66 25.84, 131.76 26.04, 133.76, 26.13 C 138.13 26.32, 141.44 26.07, 145.81, 26.26 C 147.81 26.35, 149.91 26.55, 151.82, 26.73 C 153.74 26.92, 155.84 27.11, 157.83, 27.20 C 162.21 27.40, 165.52 27.14, 169.89, 27.34 C 171.89 27.43, 173.99 27.62, 175.90, 27.81 C 177.81 27.99, 179.92 28.19, 181.91, 28.28 C 186.29 28.47, 189.60 28.22, 193.97, 28.41 C 195.97 28.50, 198.07 28.70, 199.98, 28.88 C 201.89 29.07, 204.00 29.26, 205.99, 29.35 C 210.37 29.55, 213.68 29.29, 218.05, 29.49 C 220.04 29.58, 222.15 29.77, 224.06, 29.96 C 225.97 30.14, 228.08 30.34, 230.07, 30.43 C 232.07 30.52, 234.18 30.51, 236.10, 30.50 C 236.31 29.00, 236.53 27.36, 236.64, 25.80 C 236.89 22.37, 236.68 19.76, 236.92, 16.34 C 237.04 14.78, 237.26 13.13, 237.46, 11.64 C 237.67 10.14, 237.89 8.50, 238.01, 6.94 C 238.12 5.38, 238.14 3.72, 238.15, 2.21 C 236.21 2.09, 234.07 1.98, 232.05, 1.96 C 227.61 1.93, 224.28 2.31, 219.84, 2.28 C 217.82 2.26, 215.68 2.15, 213.74, 2.03 C 211.80 1.92, 209.66 1.80, 207.64, 1.79 C 203.21 1.76, 199.87 2.13, 195.43, 2.10 C 193.41 2.09, 191.28 1.97, 189.33, 1.86 C 187.39 1.75, 185.26 1.63, 183.23, 1.62 C 178.80 1.58, 175.46 1.96, 171.03, 1.93 C 169.01 1.91, 166.87 1.80, 164.93, 1.69 C 162.99 1.57, 160.85 1.46, 158.83, 1.44 C 154.39 1.41, 151.06 1.79, 146.62, 1.75 C 144.60 1.74, 142.46 1.63, 140.52, 1.51 C 138.58 1.40, 136.44 1.28, 134.42, 1.27 C 129.99 1.24, 126.65 1.61, 122.22, 1.58 C 120.20 1.57, 118.06 1.45, 116.12, 1.34 C 114.18 1.22, 112.04 1.11, 110.02, 1.09 C 105.58 1.06, 102.25 1.44, 97.81, 1.41 C 95.79 1.39, 93.65 1.28, 91.71, 1.16 C 89.77 1.05, 87.63 0.93, 85.61, 0.92 C 81.18 0.89, 77.84 1.26, 73.40, 1.23 C 71.38 1.22, 69.25 1.10, 67.30, 0.99 C 65.36 0.88, 63.23 0.76, 61.20, 0.75 C 56.77 0.71, 53.43 1.09, 49.00, 1.06 C 46.98 1.04, 44.84 0.93, 42.90, 0.82 C 40.96 0.70, 38.82 0.59, 36.80, 0.57 C 34.78 0.56, 32.64 0.64, 30.70, 0.73 C 29.39 1.69, 27.96 2.75, 26.68, 3.83 C 23.85 6.20, 21.98 8.29, 19.15, 10.66 C 17.86 11.74, 16.43 12.80, 15.13, 13.76 C 13.83 14.73, 12.40 15.79, 11.11, 16.87 C 9.82 17.95, 8.52 19.17, 7.35, 20.28" fill="#5e8ca7" fill-opacity="1.258824" label="outline" layer="0" /><path d="M 11.98 0.00 C 11.88 2.01, 11.78 4.21, 11.78, 6.30 C 11.78 10.88, 12.18 14.32, 12.18, 18.90 C 12.18 20.99, 12.08 23.19, 11.98, 25.20 C 11.88 27.21, 11.78 29.41, 11.78, 31.50 C 11.78 36.08, 12.18 39.52, 12.18, 44.10 C 12.18 46.19, 12.08 48.39, 11.98, 50.40 C 11.88 52.41, 11.78 54.61, 11.78, 56.70 C 11.78 58.79, 11.88 60.99, 11.98, 63.00 C 11.88 63.95, 11.78 65.01, 11.78, 66.00 C 11.78 66.99, 11.88 68.05, 11.98, 69.00 C 14.13 69.01, 16.50 69.02, 18.73, 68.93 C 23.62 68.73, 27.29 68.18, 32.18, 67.98 C 34.41 67.89, 36.78 67.90, 38.92, 67.91 C 41.07 67.92, 43.44 67.93, 45.67, 67.84 C 50.56 67.64, 54.23 67.09, 59.12, 66.89 C 61.35 66.80, 63.72 66.81, 65.87, 66.82 C 68.01 66.83, 70.38 66.84, 72.61, 66.75 C 77.50 66.55, 81.17 66.00, 86.06, 65.80 C 88.29 65.71, 90.66 65.71, 92.81, 65.73 C 94.96 65.74, 97.32 65.74, 99.55, 65.65 C 104.45 65.46, 108.11 64.91, 113.01, 64.71 C 115.24 64.62, 117.60 64.62, 119.75, 64.64 C 121.90 64.65, 124.26 64.65, 126.49, 64.56 C 131.39 64.37, 135.05 63.82, 139.95, 63.62 C 142.18 63.53, 144.54 63.53, 146.69, 63.55 C 148.84 63.56, 151.20 63.56, 153.43, 63.47 C 155.66 63.38, 158.02 63.19, 160.16, 63.00 C 158.39 62.14, 156.43 61.20, 154.54, 60.39 C 150.40 58.63, 147.13 57.68, 142.98, 55.91 C 141.10 55.11, 139.14 54.17, 137.36, 53.31 C 135.59 52.44, 133.63 51.50, 131.74, 50.70 C 127.60 48.94, 124.33 47.98, 120.19, 46.22 C 118.30 45.42, 116.34 44.48, 114.57, 43.62 C 112.79 42.75, 110.83 41.81, 108.95, 41.01 C 104.80 39.25, 101.53 38.29, 97.39, 36.53 C 95.50 35.73, 93.55 34.79, 91.77, 33.92 C 90.00 33.06, 88.04 32.12, 86.15, 31.32 C 82.01 29.55, 78.74 28.60, 74.60, 26.84 C 72.71 26.04, 70.75 25.09, 68.97, 24.23 C 67.20 23.37, 65.24 22.43, 63.35, 21.62 C 59.21 19.86, 55.94 18.91, 51.80, 17.15 C 49.91 16.34, 47.95 15.40, 46.18, 14.54 C 44.40 13.68, 42.44 12.73, 40.56, 11.93 C 36.42 10.17, 33.14 9.21, 29.00, 7.45 C 27.11 6.65, 25.16 5.71, 23.38, 4.85 C 21.61 3.98, 19.65 3.04, 17.76, 2.24 C 15.87 1.44, 13.84 0.68, 11.98, 0.00" fill="#598c9f" fill-opacity="1.3235295" label="outline" layer="0" /><path d="M 204.00 1.00 C 203.90 3.13, 203.80 5.48, 203.80, 7.70 C 203.80 12.57, 204.20 16.23, 204.20, 21.10 C 204.20 23.32, 204.10 25.67, 204.00, 27.80 C 203.90 29.93, 203.80 32.28, 203.80, 34.50 C 203.80 39.37, 204.20 43.03, 204.20, 47.90 C 204.20 50.12, 204.10 52.47, 204.00, 54.60 C 203.90 56.73, 203.80 59.08, 203.80, 61.30 C 203.80 63.52, 203.90 65.87, 204.00, 68.00 C 206.03 66.32, 208.26 64.47, 210.30, 62.65 C 214.78 58.65, 217.89 55.35, 222.37, 51.35 C 224.41 49.53, 226.64 47.68, 228.67, 46.00 C 230.70 44.32, 232.92 42.47, 234.97, 40.65 C 237.01 38.83, 239.10 36.83, 241.00, 35.00 C 239.89 33.84, 238.66 32.58, 237.44, 31.45 C 234.75 28.98, 232.45 27.42, 229.76, 24.95 C 228.54 23.82, 227.31 22.56, 226.20, 21.40 C 225.09 20.24, 223.86 18.98, 222.64, 17.85 C 219.95 15.38, 217.65 13.82, 214.96, 11.35 C 213.74 10.22, 212.51 8.96, 211.40, 7.80 C 210.29 6.64, 209.06 5.38, 207.84, 4.25 C 206.61 3.13, 205.25 2.01, 204.00, 1.00" fill="#6190ac" fill-opacity="1.282353" label="outline" layer="0" /><path d="M 92.06 14.76 C 93.26 16.07, 94.57 17.53, 95.74, 18.96 C 98.31 22.10, 99.93 24.72, 102.49, 27.86 C 103.66 29.29, 104.97 30.75, 106.17, 32.06 C 107.37 33.37, 108.69 34.83, 109.86, 36.26 C 111.03 37.69, 112.18 39.27, 113.23, 40.71 C 114.27 42.16, 115.40 43.76, 116.39, 45.32 C 118.56 48.74, 119.85 51.54, 122.03, 54.96 C 123.02 56.52, 124.15 58.12, 125.18, 59.57 C 126.22 61.02, 127.35 62.62, 128.34, 64.18 C 129.33 65.74, 130.29 67.45, 131.16, 69.00 C 129.56 69.16, 127.79 69.33, 126.12, 69.40 C 122.45 69.55, 119.68 69.25, 116.01, 69.40 C 114.34 69.47, 112.57 69.64, 110.97, 69.80 C 109.37 69.96, 107.60 70.13, 105.93, 70.20 C 102.26 70.35, 99.48 70.05, 95.82, 70.20 C 94.14 70.27, 92.38 70.44, 90.78, 70.60 C 89.17 70.76, 87.41 70.93, 85.74, 71.00 C 84.06 71.07, 82.29 71.04, 80.68, 71.00 C 79.07 71.04, 77.30 71.07, 75.62, 71.00 C 71.96 70.85, 69.21 70.35, 65.54, 70.20 C 63.87 70.13, 62.10 70.16, 60.49, 70.20 C 58.88 70.24, 57.10 70.27, 55.43, 70.20 C 51.76 70.05, 49.02 69.55, 45.35, 69.40 C 43.68 69.33, 41.91 69.36, 40.30, 69.40 C 38.69 69.44, 36.91 69.47, 35.24, 69.40 C 33.57 69.33, 31.80 69.16, 30.20, 69.00 C 29.68 67.21, 29.12 65.24, 28.68, 63.35 C 27.71 59.21, 27.38 56.01, 26.41, 51.87 C 25.97 49.99, 25.41 48.02, 24.89, 46.23 C 24.37 44.44, 23.80 42.46, 23.36, 40.58 C 22.92 38.69, 22.56 36.67, 22.23, 34.84 C 21.92 33.00, 21.58 30.98, 21.36, 29.06 C 20.87 24.84, 20.91 21.62, 20.42, 17.40 C 20.20 15.47, 19.86 13.45, 19.55, 11.61 C 19.24 9.78, 18.90 7.75, 18.68, 5.83 C 18.46 3.91, 18.32 1.86, 18.21, 0.00 C 20.20 0.19, 22.40 0.41, 24.46, 0.71 C 28.98 1.36, 32.32 2.25, 36.84, 2.91 C 38.90 3.21, 41.10 3.42, 43.09, 3.61 C 45.08 3.80, 47.28 4.02, 49.34, 4.32 C 51.40 4.62, 53.56 5.03, 55.53, 5.42 C 57.49 5.82, 59.65 6.27, 61.67, 6.78 C 66.09 7.91, 69.32 9.15, 73.75, 10.28 C 75.76 10.80, 77.92 11.25, 79.88, 11.65 C 81.85 12.05, 84.00 12.49, 86.02, 13.01 C 88.04 13.53, 90.15 14.17, 92.06, 14.76" fill="#5a8fa2" fill-opacity="0.7009799999999999" label="middle" layer="1" /><path d="M 231.41 0.00 C 232.37 2.77, 233.41 5.83, 234.31, 8.75 C 235.21 11.66, 236.06 14.78, 236.83, 17.61 C 237.17 20.52, 237.52 23.73, 237.77, 26.77 C 238.01 29.81, 238.17 33.04, 238.31, 35.97 C 238.17 38.67, 238.01 41.65, 237.76, 44.45 C 237.52 47.26, 237.16 50.21, 236.82, 52.90 C 236.05 55.49, 235.20 58.35, 234.30, 61.01 C 233.41 63.68, 232.37 66.47, 231.41, 69.00 C 230.62 66.44, 229.77 63.62, 229.05, 60.94 C 228.33 58.25, 227.66 55.38, 227.07, 52.77 C 226.91 50.10, 226.74 47.16, 226.68, 44.37 C 226.62 41.59, 226.65 38.65, 226.69, 35.97 C 226.65 33.06, 226.62 29.87, 226.68, 26.85 C 226.74 23.83, 226.91 20.63, 227.07, 17.73 C 227.66 14.88, 228.33 11.75, 229.05, 8.82 C 229.76 5.88, 230.62 2.80, 231.41, 0.00" fill="#5b93a4" fill-opacity="0.92156875" label="middle" layer="1" /><path d="M 13.00 10.00 C 12.58 13.89, 12.13 18.18, 11.80, 22.23 C 11.47 26.29, 11.22 30.59, 11.00, 34.50 C 11.22 38.41, 11.47 42.71, 11.80, 46.77 C 12.13 50.82, 12.58 55.11, 13.00, 59.00 C 14.75 58.59, 16.67 58.14, 18.46, 57.61 C 22.38 56.47, 25.22 55.22, 29.15, 54.07 C 30.93 53.55, 32.86 53.09, 34.60, 52.69 C 36.35 52.28, 38.27 51.82, 40.06, 51.30 C 43.98 50.15, 46.82 48.91, 50.75, 47.76 C 52.54 47.24, 54.46 46.78, 56.21, 46.37 C 57.95 45.96, 59.87 45.51, 61.66, 44.98 C 65.59 43.84, 68.43 42.59, 72.35, 41.44 C 74.14 40.92, 76.06 40.46, 77.81, 40.06 C 79.56 39.65, 81.48 39.19, 83.27, 38.67 C 85.05 38.15, 86.92 37.50, 88.61, 36.90 C 90.33 36.41, 92.23 35.85, 93.99, 35.24 C 97.85 33.89, 100.62 32.51, 104.48, 31.16 C 106.24 30.55, 108.14 29.99, 109.86, 29.50 C 111.59 29.01, 113.48 28.45, 115.24, 27.84 C 119.11 26.49, 121.88 25.11, 125.74, 23.76 C 127.50 23.15, 129.39 22.59, 131.12, 22.10 C 132.84 21.61, 134.74 21.05, 136.50, 20.44 C 140.36 19.09, 143.13 17.71, 146.99, 16.36 C 148.75 15.75, 150.65 15.19, 152.37, 14.70 C 154.10 14.21, 155.99 13.65, 157.75, 13.04 C 159.51 12.43, 161.34 11.68, 163.00, 11.00 C 161.30 10.84, 159.42 10.68, 157.65, 10.62 C 153.76 10.49, 150.82 10.79, 146.92, 10.66 C 145.15 10.61, 143.28 10.44, 141.57, 10.29 C 139.87 10.13, 138.00 9.97, 136.22, 9.91 C 132.33 9.78, 129.39 10.08, 125.50, 9.95 C 123.72 9.89, 121.85 9.73, 120.15, 9.57 C 118.45 9.41, 116.57 9.25, 114.80, 9.19 C 110.91 9.06, 107.97 9.37, 104.07, 9.24 C 102.30 9.18, 100.42 9.01, 98.72, 8.86 C 97.02 8.70, 95.15 8.54, 93.37, 8.48 C 91.60 8.42, 89.72 8.46, 88.01, 8.50 C 86.30 8.43, 84.42 8.37, 82.65, 8.41 C 78.75 8.49, 75.83 8.94, 71.94, 9.02 C 70.17 9.06, 68.29 8.99, 66.58, 8.93 C 64.87 8.86, 62.99 8.80, 61.22, 8.84 C 57.32 8.91, 54.40 9.37, 50.51, 9.45 C 48.73 9.49, 46.85 9.42, 45.15, 9.36 C 43.44 9.29, 41.56 9.23, 39.79, 9.26 C 35.89 9.34, 32.97 9.80, 29.08, 9.88 C 27.30 9.91, 25.42 9.85, 23.72, 9.79 C 22.01 9.72, 20.13 9.66, 18.35, 9.69 C 16.58 9.73, 14.70 9.87, 13.00, 10.00" fill="#6198ac" fill-opacity="0.7401962500000001" label="middle" layer="1" /><path d="M 214.83 69.00 C 213.05 69.21, 211.09 69.42, 209.23, 69.53 C 205.16 69.78, 202.07 69.56, 197.99, 69.80 C 196.14 69.91, 194.18 70.13, 192.40, 70.33 C 190.62 70.54, 188.66 70.76, 186.80, 70.87 C 184.94 70.98, 182.97 70.99, 181.18, 71.00 C 179.39 70.99, 177.42 70.98, 175.56, 70.87 C 171.48 70.62, 168.44 70.04, 164.37, 69.80 C 162.51 69.69, 160.54 69.67, 158.75, 69.67 C 156.96 69.66, 154.98 69.64, 153.13, 69.53 C 151.27 69.42, 149.31 69.21, 147.53, 69.00 C 148.03 67.13, 148.58 65.07, 149.20, 63.15 C 150.55 58.94, 151.94 55.90, 153.30, 51.70 C 153.91 49.78, 154.47 47.72, 154.96, 45.85 C 155.46 43.97, 156.02 41.91, 156.63, 40.00 C 157.25 38.08, 157.99 36.08, 158.68, 34.27 C 159.38 32.46, 160.15 30.48, 160.98, 28.64 C 162.78 24.60, 164.50 21.74, 166.30, 17.70 C 167.12 15.86, 167.90 13.88, 168.59, 12.07 C 169.29 10.26, 170.07 8.28, 170.89, 6.44 C 171.71 4.60, 172.67 2.70, 173.55, 0.97 C 175.15 0.76, 176.92 0.55, 178.59, 0.44 C 182.26 0.19, 185.05 0.41, 188.72, 0.17 C 190.40 0.06, 192.16 -0.16, 193.76, -0.36 C 195.37 -0.57, 197.13 -0.79, 198.80, -0.90 C 200.48 -1.01, 202.25 -1.02, 203.87, -1.03 C 205.49 -1.02, 207.26 -1.01, 208.94, -0.90 C 212.61 -0.65, 215.34 -0.07, 219.02, 0.17 C 220.69 0.28, 222.47 0.30, 224.08, 0.30 C 225.70 0.31, 227.48 0.33, 229.15, 0.44 C 230.82 0.55, 232.59 0.76, 234.19, 0.97 C 233.88 2.83, 233.52 4.87, 233.09, 6.77 C 232.15 10.96, 231.05 14.02, 230.11, 18.21 C 229.69 20.11, 229.33 22.15, 229.02, 24.01 C 228.70 25.87, 228.35 27.91, 227.92, 29.81 C 227.49 31.72, 226.94 33.72, 226.43, 35.53 C 225.91 37.34, 225.33 39.33, 224.69, 41.17 C 223.28 45.23, 221.85 48.15, 220.44, 52.20 C 219.80 54.05, 219.22 56.03, 218.70, 57.84 C 218.18 59.65, 217.59 61.64, 216.95, 63.49 C 216.31 65.33, 215.54 67.26, 214.83, 69.00" fill="#6382a9" fill-opacity="0.45098" label="middle" layer="1" /><path d="M 234.67 62.88 C 235.14 59.19, 235.64 55.13, 236.02, 51.28 C 236.41 47.44, 236.71 43.36, 236.98, 39.65 C 236.81 35.94, 236.61 31.85, 236.33, 28.00 C 236.05 24.14, 235.66 20.07, 235.29, 16.37 C 232.45 15.47, 229.31 14.49, 226.32, 13.65 C 223.34 12.81, 220.15 12.02, 217.25, 11.31 C 214.28 11.03, 211.01 10.74, 207.91, 10.55 C 204.82 10.36, 201.53 10.27, 198.55, 10.19 C 196.74 10.15, 194.75 10.12, 192.87, 10.19 C 188.74 10.33, 185.65 10.84, 181.52, 10.98 C 179.64 11.04, 177.65 11.01, 175.84, 10.98 C 174.03 10.94, 172.03 10.91, 170.15, 10.97 C 166.03 11.12, 162.94 11.62, 158.81, 11.76 C 156.93 11.83, 154.94 11.80, 153.13, 11.76 C 151.32 11.72, 149.32 11.69, 147.44, 11.76 C 143.32 11.90, 140.23 12.41, 136.10, 12.55 C 134.22 12.62, 132.23 12.58, 130.42, 12.55 C 128.60 12.51, 126.61 12.48, 124.73, 12.54 C 122.85 12.61, 120.86 12.78, 119.06, 12.94 C 117.25 12.99, 115.26 13.06, 113.38, 13.22 C 109.27 13.57, 106.21 14.23, 102.09, 14.58 C 100.22 14.74, 98.23 14.81, 96.42, 14.87 C 94.61 14.92, 92.61 14.99, 90.74, 15.15 C 86.63 15.50, 83.57 16.16, 79.45, 16.51 C 77.58 16.67, 75.58 16.74, 73.77, 16.79 C 71.96 16.85, 69.97 16.91, 68.10, 17.07 C 63.98 17.42, 60.92 18.09, 56.81, 18.43 C 54.93 18.59, 52.94 18.66, 51.13, 18.72 C 49.32 18.77, 47.33 18.84, 45.45, 19.00 C 43.58 19.16, 41.60 19.43, 39.81, 19.68 C 41.99 20.31, 44.40 21.00, 46.69, 21.56 C 51.73 22.78, 55.61 23.31, 60.64, 24.53 C 62.94 25.09, 65.34 25.78, 67.52, 26.41 C 69.71 27.04, 72.11 27.73, 74.41, 28.29 C 79.44 29.51, 83.32 30.04, 88.36, 31.26 C 90.65 31.82, 93.06 32.50, 95.24, 33.14 C 97.42 33.77, 99.83 34.46, 102.12, 35.01 C 107.16 36.24, 111.04 36.77, 116.07, 37.99 C 118.37 38.55, 120.77 39.23, 122.95, 39.87 C 125.13 40.50, 127.54 41.19, 129.83, 41.74 C 132.13 42.30, 134.58 42.79, 136.81, 43.23 C 139.02 43.77, 141.45 44.36, 143.76, 44.83 C 148.84 45.85, 152.74 46.22, 157.82, 47.24 C 160.13 47.71, 162.56 48.30, 164.77, 48.84 C 166.98 49.39, 169.41 49.98, 171.72, 50.44 C 176.80 51.46, 180.70 51.84, 185.78, 52.86 C 188.09 53.32, 190.52 53.91, 192.73, 54.46 C 194.94 55.00, 197.37 55.59, 199.68, 56.06 C 204.76 57.08, 208.66 57.45, 213.74, 58.47 C 216.05 58.94, 218.48 59.53, 220.69, 60.07 C 222.90 60.62, 225.33 61.21, 227.64, 61.67 C 229.96 62.14, 232.43 62.53, 234.67, 62.88" fill="#628eab" fill-opacity="0.838235" label="middle" layer="1" /><path d="M 117.51 67.35 C 117.83 65.86, 118.18 64.22, 118.41, 62.65 C 118.93 59.22, 118.91 56.58, 119.43, 53.14 C 119.66 51.57, 120.01 49.93, 120.33, 48.44 C 120.65 46.95, 121.00 45.31, 121.23, 43.75 C 121.47 42.18, 121.61 40.51, 121.74, 38.99 C 121.85 37.47, 121.97 35.80, 121.98, 34.21 C 122.01 30.74, 121.63 28.13, 121.66, 24.65 C 121.67 23.07, 121.79 21.40, 121.90, 19.88 C 122.01 18.36, 122.13 16.68, 122.14, 15.10 C 122.15 13.52, 122.07 11.84, 121.98, 10.32 C 120.96 9.16, 119.84 7.89, 118.71, 6.76 C 117.58 5.63, 116.31 4.51, 115.15, 3.49 C 113.75 2.84, 112.21 2.14, 110.72, 1.56 C 109.23 0.98, 107.61 0.46, 106.14, 0.00 C 105.89 1.82, 105.63 3.82, 105.47, 5.73 C 105.13 9.90, 105.28 13.07, 104.94, 17.24 C 104.78 19.14, 104.52 21.15, 104.27, 22.97 C 104.03 24.79, 103.76 26.79, 103.61, 28.69 C 103.45 30.59, 103.39 32.61, 103.34, 34.45 C 103.30 36.29, 103.27 38.31, 103.34, 40.22 C 103.48 44.40, 103.99 47.53, 104.13, 51.72 C 104.20 53.63, 104.17 55.65, 104.13, 57.48 C 104.10 59.32, 104.07 61.34, 104.13, 63.25 C 104.20 65.16, 104.37 67.17, 104.53, 69.00 C 105.59 69.28, 106.75 69.58, 107.87, 69.78 C 108.98 69.97, 110.18 70.07, 111.27, 70.16 C 112.30 69.80, 113.44 69.40, 114.47, 68.94 C 115.51 68.47, 116.56 67.89, 117.51, 67.35" fill="#6875b2" fill-opacity="0.7058825000000001" label="middle" layer="1" /><path d="M 156.00 1.00 C 155.79 2.77, 155.58 4.72, 155.47, 6.57 C 155.22 10.63, 155.44 13.70, 155.20, 17.76 C 155.09 19.61, 154.87 21.56, 154.67, 23.33 C 154.46 25.10, 154.24 27.06, 154.13, 28.90 C 154.02 30.75, 154.01 32.72, 154.00, 34.50 C 154.01 36.28, 154.02 38.25, 154.13, 40.10 C 154.38 44.15, 154.96 47.18, 155.20, 51.24 C 155.31 53.09, 155.33 55.05, 155.33, 56.83 C 155.34 58.62, 155.36 60.58, 155.47, 62.43 C 155.58 64.28, 155.79 66.23, 156.00, 68.00 C 157.46 67.20, 159.07 66.32, 160.54, 65.40 C 162.00 64.48, 163.50 63.43, 164.86, 62.46 C 165.92 61.17, 167.08 59.75, 168.09, 58.35 C 169.11 56.95, 170.10 55.41, 171.00, 54.00 C 170.80 52.55, 170.57 50.95, 170.27, 49.45 C 169.59 46.18, 168.69 43.80, 168.01, 40.52 C 167.71 39.03, 167.48 37.43, 167.28, 35.97 C 167.08 34.52, 166.85 32.92, 166.55, 31.43 C 166.24 29.93, 165.81 28.37, 165.42, 26.96 C 165.01 25.55, 164.56 24.00, 164.04, 22.57 C 162.90 19.42, 161.66 17.19, 160.52, 14.05 C 160.00 12.62, 159.55 11.06, 159.14, 9.65 C 158.73 8.24, 158.28 6.69, 157.76, 5.26 C 157.24 3.83, 156.59 2.34, 156.00, 1.00" fill="#74899e" fill-opacity="0.62745125" label="middle" layer="1" /><path d="M 33.67 65.51 C 35.89 65.81, 38.34 66.13, 40.67, 66.33 C 45.77 66.79, 49.64 66.73, 54.74, 67.18 C 57.06 67.39, 59.51 67.71, 61.74, 68.00 C 63.96 68.30, 66.41 68.62, 68.74, 68.83 C 71.06 69.03, 73.53 69.15, 75.77, 69.25 C 78.01 69.34, 80.48 69.42, 82.81, 69.41 C 87.93 69.38, 91.78 68.96, 96.90, 68.93 C 99.23 68.91, 101.70 69.00, 103.94, 69.08 C 106.19 69.17, 108.65 69.26, 110.99, 69.24 C 113.32 69.23, 115.79 69.11, 118.03, 69.00 C 116.92 67.56, 115.68 65.99, 114.45, 64.56 C 113.21 63.13, 111.82 61.69, 110.56, 60.38 C 109.02 59.41, 107.32 58.36, 105.66, 57.44 C 104.01 56.53, 102.21 55.65, 100.57, 54.86 C 98.67 54.62, 96.59 54.38, 94.61, 54.24 C 90.26 53.93, 86.97 54.09, 82.62, 53.78 C 80.64 53.64, 78.55 53.40, 76.66, 53.16 C 74.76 52.92, 72.67 52.68, 70.69, 52.54 C 68.71 52.39, 66.61 52.35, 64.70, 52.31 C 62.79 52.29, 60.69 52.27, 58.70, 52.35 C 54.35 52.53, 51.10 53.06, 46.74, 53.23 C 44.76 53.31, 42.66 53.30, 40.75, 53.28 C 38.84 53.25, 36.73 53.24, 34.75, 53.32 C 32.77 53.40, 30.67 53.58, 28.77, 53.76 C 28.77 54.83, 28.77 56.00, 28.87, 57.10 C 28.97 58.20, 29.17 59.35, 29.37, 60.40 C 29.98 61.28, 30.65 62.24, 31.37, 63.08 C 32.08 63.93, 32.91 64.76, 33.67, 65.51" fill="#456c7b" fill-opacity="0.50980375" label="middle" layer="1" /><path d="M 15.00 12.00 C 14.58 15.57, 14.13 19.51, 13.80, 23.23 C 13.47 26.96, 13.22 30.91, 13.00, 34.50 C 13.22 38.09, 13.47 42.04, 13.80, 45.77 C 14.13 49.49, 14.58 53.43, 15.00, 57.00 C 17.07 57.16, 19.34 57.33, 21.49, 57.40 C 26.22 57.55, 29.78 57.25, 34.51, 57.40 C 36.66 57.47, 38.93 57.64, 41.00, 57.80 C 43.07 57.96, 45.34 58.13, 47.49, 58.20 C 52.22 58.35, 55.78 58.05, 60.51, 58.20 C 62.66 58.27, 64.93 58.44, 67.00, 58.60 C 69.07 58.76, 71.34 58.93, 73.49, 59.00 C 75.65 59.07, 77.93 59.04, 80.00, 59.00 C 82.07 59.04, 84.35 59.07, 86.51, 59.00 C 91.23 58.85, 94.77 58.35, 99.49, 58.20 C 101.65 58.13, 103.93 58.16, 106.00, 58.20 C 108.07 58.24, 110.35 58.27, 112.51, 58.20 C 117.23 58.05, 120.77 57.55, 125.49, 57.40 C 127.65 57.33, 129.93 57.36, 132.00, 57.40 C 134.07 57.44, 136.35 57.47, 138.51, 57.40 C 140.66 57.33, 142.93 57.16, 145.00, 57.00 C 142.99 56.13, 140.77 55.18, 138.64, 54.37 C 133.96 52.60, 130.30 51.64, 125.62, 49.87 C 123.49 49.06, 121.27 48.11, 119.26, 47.24 C 117.25 46.37, 115.03 45.43, 112.90, 44.62 C 108.22 42.85, 104.56 41.89, 99.88, 40.11 C 97.75 39.31, 95.53 38.36, 93.52, 37.49 C 91.51 36.62, 89.29 35.67, 87.16, 34.86 C 85.02 34.05, 82.73 33.29, 80.65, 32.61 C 78.59 31.86, 76.32 31.04, 74.14, 30.36 C 69.37 28.86, 65.67 28.12, 60.90, 26.62 C 58.72 25.94, 56.45 25.12, 54.39, 24.37 C 52.33 23.61, 50.06 22.80, 47.88, 22.11 C 43.11 20.62, 39.41 19.87, 34.64, 18.37 C 32.46 17.69, 30.19 16.87, 28.13, 16.12 C 26.07 15.37, 23.80 14.55, 21.62, 13.87 C 19.45 13.19, 17.12 12.56, 15.00, 12.00" fill="#6199aa" fill-opacity="0.59803875" label="middle" layer="1" /><path d="M 220.75 48.95 C 221.32 47.73, 221.93 46.39, 222.42, 45.09 C 223.50 42.23, 223.93 39.94, 225.01, 37.08 C 225.50 35.78, 226.12 34.43, 226.68, 33.22 C 227.25 32.00, 227.86 30.66, 228.35, 29.35 C 228.85 28.05, 229.27 26.64, 229.65, 25.35 C 230.02 24.06, 230.41 22.64, 230.69, 21.27 C 231.30 18.28, 231.37 15.95, 231.98, 12.96 C 232.26 11.60, 232.65 10.17, 233.02, 8.88 C 233.38 7.59, 233.78 6.17, 234.05, 4.81 C 234.33 3.44, 234.53 1.98, 234.70, 0.65 C 233.64 0.19, 232.46 -0.32, 231.32, -0.70 C 230.18 -1.08, 228.95 -1.40, 227.82, -1.67 C 226.67 -1.50, 225.41 -1.31, 224.24, -1.03 C 223.07 -0.75, 221.85 -0.36, 220.75, 0.00 C 220.42 -0.05, 220.05 -0.09, 219.72, -0.04 C 219.39 0.02, 219.05 0.17, 218.75, 0.32 C 219.05 0.47, 219.39 0.63, 219.72, 0.68 C 220.05 0.74, 220.42 0.70, 220.75, 0.65 C 220.33 4.49, 219.88 8.71, 219.55, 12.71 C 219.22 16.71, 218.97 20.95, 218.75, 24.80 C 218.97 28.65, 219.22 32.89, 219.55, 36.89 C 219.88 40.89, 220.33 45.11, 220.75, 48.95" fill="#5ba8b3" fill-opacity="0.3431375" label="middle" layer="1" /><path d="M 182.37 1.93 Q 182.00 1.00, 182.00 2.00 L 182.00 67.00 Q 182.00 68.00, 182.27 67.04 L 192.73 29.96 Q 193.00 29.00, 192.63 28.07 L 182.37 1.93" fill="#6d72ba" fill-opacity="0.407843" label="detail" layer="2" /><path d="M 112.66 66.16 Q 111.66 66.18, 112.55 65.72 L 159.05 41.68 Q 159.94 41.22, 160.18 42.19 L 163.14 53.84 Q 163.38 54.81, 163.35 55.81 L 163.08 64.19 Q 163.05 65.19, 162.05 65.21 L 112.66 66.16" fill="#4e647e" fill-opacity="0.431373" label="detail" layer="2" /><path d="M 125.90 6.90 Q 126.05 5.91, 126.75 6.64 L 172.47 54.39 Q 173.16 55.11, 172.17 55.23 L 127.05 60.98 Q 126.05 61.11, 125.26 60.50 L 118.95 55.71 Q 118.15 55.11, 118.31 54.12 L 125.90 6.90" fill="#6190ac" fill-opacity="0.647059" label="detail" layer="2" /><path d="M 58.52 20.45 Q 59.52 20.55, 58.71 19.96 L 36.31 3.62 Q 35.50 3.03, 34.53 2.79 L 24.05 0.24 Q 23.08 0.00, 22.79 0.96 L 18.38 15.25 Q 18.09 16.20, 19.08 16.31 L 58.52 20.45" fill="#427079" fill-opacity="0.380392" label="detail" layer="2" /><path d="M 81.79 68.36 Q 82.56 69.00, 82.97 68.09 L 106.27 15.64 Q 106.68 14.73, 105.68 14.74 L 25.70 15.34 Q 24.70 15.35, 25.42 16.04 L 66.38 55.50 Q 67.10 56.19, 67.87 56.83 L 81.79 68.36" fill="#5c96a6" fill-opacity="0.592157" label="detail" layer="2" /></g>
<g><text style="font-size: 20px;" x="15" y="20">bpm: 154</text><text style="font-size: 20px;" x="15" y="40">Mood: 8</text><text style="font-size: 20px;" x="15" y="60">Density: 8</text><text style="font-size: 20px;" x="15" y="80">Gravity: 3</text><text style="font-size: 20px;" x="15" y="100">Energy: 6</text><text style="font-size: 20px;" x="15" y="120">Ensemble: 6</text><text style="font-size: 20px;" x="15" y="140">Melody: 8</text><text style="font-size: 20px;" x="15" y="160">Tension: 2</text><text style="font-size: 20px;" x="15" y="180">Rhythm: 8</text><text style="font-size: 20px;" x="15" y="200"># shapes=20</text></g></svg>