<svg xmlns="http://www.w3.org/2000/svg" height="280" preserveAspectRatio="none" version="1.1" width="930">
<rect fill="none" height="280" width="1024" x="0" y="0" />
<g transform="scale(4.0000) translate(-11.13636363636364, 0.5)">
<path d="M 76.84 11.65 Q 78.27 11.20, 79.75 11.43 L 235.85 35.52 Q 237.33 35.75, 235.84 35.92 L 79.76 53.97 Q 78.27 54.14, 76.81 53.80 L 1.46 36.10 Q -0.00 35.75, 1.43 35.30 L 76.84 11.65" fill="#796bab" fill-opacity="0.2058825" label="outline" layer="0" /><path d="M 221.83 18.16 Q 222.85 17.06, 223.97 18.05 L 236.28 28.87 Q 237.41 29.86, 236.70 31.18 L 223.56 55.69 Q 222.85 57.01, 222.25 55.63 L 211.57 31.23 Q 210.97 29.86, 211.99 28.76 L 221.83 18.16" fill="#8d68aa" fill-opacity="0.192157" label="outline" layer="0" /><path d="M 158.08 32.14 Q 158.71 30.78, 157.21 30.78 L 12.93 30.45 Q 11.43 30.45, 12.15 31.77 L 14.30 35.69 Q 15.02 37.00, 16.52 37.03 L 153.03 39.71 Q 154.53 39.74, 155.16 38.38 L 158.08 32.14" fill="#7769a8" fill-opacity="0.254902" label="outline" layer="0" /><path d="M 83.08 16.01 Q 83.32 14.53, 83.79 15.96 L 89.35 32.89 Q 89.82 34.31, 89.48 35.78 L 83.65 61.32 Q 83.32 62.78, 83.15 61.29 L 80.24 35.81 Q 80.07 34.31, 80.31 32.83 L 83.08 16.01" fill="#7e79c1" fill-opacity="0.252941" label="outline" layer="0" /><path d="M 15.47 52.30 Q 13.97 52.30, 13.98 50.80 L 14.20 16.95 Q 14.21 15.45, 15.70 15.27 L 38.60 12.56 Q 40.08 12.38, 40.15 13.88 L 41.68 50.74 Q 41.74 52.24, 40.24 52.24 L 15.47 52.30" fill="#776cad" fill-opacity="0.1156865" label="outline" layer="0" /><path d="M 130.33 1.50 Q 130.33 0.00, 131.83 0.00 L 131.27 0.00 Q 132.77 0.00, 132.79 1.50 L 133.43 59.36 Q 133.45 60.86, 132.87 62.25 L 130.63 67.62 Q 130.06 69.00, 130.06 67.50 L 130.33 1.50" fill="#71609b" fill-opacity="0.42941175" label="middle" layer="1" /><path d="M 199.69 15.04 Q 199.92 13.55, 200.38 14.98 L 205.92 32.49 Q 206.38 33.92, 205.89 35.34 L 200.41 51.27 Q 199.92 52.69, 199.67 51.21 L 197.00 35.40 Q 196.75 33.92, 196.98 32.44 L 199.69 15.04" fill="#9085d4" fill-opacity="0.2441175" label="middle" layer="1" /><path d="M 138.78 1.50 Q 138.87 -0.00, 139.25 1.45 L 147.85 34.82 Q 148.23 36.27, 147.82 37.72 L 139.28 67.56 Q 138.87 69.00, 138.77 67.50 L 136.68 37.77 Q 136.58 36.27, 136.67 34.78 L 138.78 1.50" fill="#6a68a6" fill-opacity="0.22352925" label="middle" layer="1" /><path d="M 72.53 13.40 Q 72.00 12.00, 72.00 13.50 L 72.00 55.50 Q 72.00 57.00, 72.47 55.58 L 79.53 34.42 Q 80.00 33.00, 79.47 31.60 L 72.53 13.40" fill="#8a75bc" fill-opacity="0.34705875" label="middle" layer="1" /><path d="M 122.80 39.39 Q 123.27 37.96, 122.95 36.50 L 116.72 8.36 Q 116.40 6.89, 116.13 8.37 L 114.72 16.07 Q 114.45 17.55, 114.48 19.05 L 115.35 60.03 Q 115.38 61.53, 115.86 60.11 L 122.80 39.39" fill="#7e63a1" fill-opacity="0.27941175" label="middle" layer="1" /></g>
<g><text style="font-size: 20px;" x="15" y="20">bpm: 130</text><text style="font-size: 20px;" x="15" y="40">Mood: 6</text><text style="font-size: 20px;" x="15" y="60">Density: 0</text><text style="font-size: 20px;" x="15" y="80">Gravity: 1</text><text style="font-size: 20px;" x="15" y="100">Energy: 3</text><text style="font-size: 20px;" x="15" y="120">Ensemble: 0</text><text style="font-size: 20px;" x="15" y="140">Melody: 9</text><text style="font-size: 20px;" x="15" y="160">Tension: 5</text><text style="font-size: 20px;" x="15" y="180">Rhythm: 5</text><text style="font-size: 20px;" x="15" y="200"># shapes=10</text></g></svg>