<svg xmlns="http://www.w3.org/2000/svg" height="280" preserveAspectRatio="none" version="1.1" width="930">
<rect fill="none" height="280" width="1024" x="0" y="0" />
<g transform="scale(4.0000) translate(-11.13636363636364, 0.5)">
<path d="M 23.19 47.59 Q 21.69 47.61, 20.93 46.31 L 9.39 26.65 Q 8.63 25.36, 10.13 25.32 L 233.17 19.97 Q 234.67 19.94, 234.99 21.40 L 240.04 44.21 Q 240.37 45.67, 238.87 45.69 L 23.19 47.59" fill="#5c8fa0" fill-opacity="0.847059" label="outline" layer="0" /><path d="M 253.50 55.77 Q 255.00 55.78, 253.56 55.36 L 100.62 11.14 Q 99.18 10.72, 97.71 11.01 L 26.29 24.70 Q 24.82 24.99, 26.15 25.67 L 81.47 54.23 Q 82.80 54.91, 84.30 54.92 L 253.50 55.77" fill="#588697" fill-opacity="0.356863" label="outline" layer="0" /><path d="M 183.10 8.77 Q 181.61 8.66, 181.59 10.16 L 181.13 48.90 Q 181.11 50.40, 182.61 50.43 L 235.91 51.78 Q 237.41 51.82, 237.22 50.33 L 232.64 13.80 Q 232.45 12.31, 230.95 12.20 L 183.10 8.77" fill="#6691b3" fill-opacity="0.368627" label="outline" layer="0" /><path d="M 121.58 50.32 Q 122.87 49.57, 122.83 48.07 L 122.00 15.16 Q 121.96 13.66, 120.47 13.45 L 91.98 9.47 Q 90.49 9.26, 90.46 10.76 L 89.52 67.50 Q 89.49 69.00, 90.79 68.25 L 121.58 50.32" fill="#788fd7" fill-opacity="0.301961" label="outline" layer="0" /><path d="M 108.87 38.00 Q 110.36 37.88, 108.90 37.57 L 18.08 18.31 Q 16.61 18.00, 16.11 19.41 L 10.12 36.29 Q 9.61 37.70, 10.73 38.70 L 16.64 44.05 Q 17.75 45.06, 19.25 44.94 L 108.87 38.00" fill="#63aaa0" fill-opacity="0.443137" label="outline" layer="0" /><path d="M 201.82 8.26 Q 201.00 7.00, 200.89 8.50 L 199.11 33.00 Q 199.00 34.50, 199.11 36.00 L 200.89 60.50 Q 201.00 62.00, 202.50 61.89 L 213.43 61.06 Q 214.93 60.95, 216.33 60.42 L 226.60 56.53 Q 228.00 56.00, 227.37 54.64 L 216.88 31.89 Q 216.25 30.53, 215.43 29.27 L 201.82 8.26" fill="#6e75c0" fill-opacity="0.301961" label="middle" layer="1" /><path d="M 75.45 11.53 Q 75.78 10.07, 76.64 11.30 L 82.60 19.80 Q 83.46 21.03, 83.92 22.46 L 87.09 32.34 Q 87.55 33.77, 87.10 35.20 L 83.91 45.29 Q 83.46 46.72, 82.61 47.96 L 76.63 56.69 Q 75.78 57.93, 75.45 56.47 L 73.44 47.42 Q 73.11 45.96, 73.27 44.47 L 74.28 35.26 Q 74.44 33.77, 74.27 32.28 L 73.28 23.30 Q 73.11 21.81, 73.44 20.35 L 75.45 11.53" fill="#518892" fill-opacity="0.709804" label="middle" layer="1" /><path d="M 112.68 65.99 Q 114.10 65.52, 114.18 64.02 L 115.74 34.24 Q 115.82 32.74, 115.72 31.24 L 113.63 1.50 Q 113.53 0.00, 112.53 -1.12 L 112.75 -0.88 Q 111.75 -2.00, 110.76 -0.88 L 110.97 -1.12 Q 109.98 0.00, 109.82 1.49 L 106.79 30.49 Q 106.63 31.98, 106.66 33.48 L 107.25 62.64 Q 107.28 64.14, 108.41 65.13 L 109.16 65.80 Q 110.29 66.79, 111.71 66.32 L 112.68 65.99" fill="#5d88a9" fill-opacity="0.321569" label="middle" layer="1" /><path d="M 120.13 36.44 Q 118.68 36.83, 120.17 36.99 L 166.16 41.78 Q 167.65 41.94, 169.15 41.97 L 215.38 43.04 Q 216.88 43.07, 218.36 42.85 L 229.43 41.17 Q 230.91 40.95, 232.27 40.32 L 242.43 35.62 Q 243.79 34.99, 242.32 34.67 L 212.68 28.27 Q 211.21 27.95, 209.72 27.81 L 179.52 25.00 Q 178.03 24.86, 176.54 25.06 L 149.45 28.68 Q 147.96 28.88, 146.51 29.27 L 120.13 36.44" fill="#5f96a6" fill-opacity="0.803922" label="middle" layer="1" /><path d="M 186.54 15.35 Q 187.08 13.95, 188.07 15.08 L 192.26 19.88 Q 193.25 21.01, 193.68 22.45 L 195.49 28.56 Q 195.92 30.00, 195.74 31.49 L 193.63 48.45 Q 193.45 49.94, 192.97 51.36 L 187.56 67.58 Q 187.08 69.00, 186.85 67.52 L 184.32 51.08 Q 184.09 49.60, 184.17 48.10 L 185.00 31.50 Q 185.08 30.00, 184.90 28.51 L 184.28 23.22 Q 184.10 21.73, 184.64 20.33 L 186.54 15.35" fill="#5ba6a0" fill-opacity="0.443137" label="middle" layer="1" /><path d="M 42.26 13.45 Q 43.60 12.78, 43.56 14.28 L 43.14 30.46 Q 43.10 31.96, 42.75 33.42 L 38.98 49.17 Q 38.63 50.63, 37.17 50.98 L 29.29 52.88 Q 27.83 53.23, 26.34 53.04 L 18.31 52.03 Q 16.82 51.84, 16.11 50.52 L 12.84 44.44 Q 12.13 43.12, 12.00 41.63 L 11.40 34.75 Q 11.27 33.26, 12.45 32.33 L 25.19 22.26 Q 26.37 21.33, 27.71 20.66 L 42.26 13.45" fill="#507da0" fill-opacity="0.274510" label="middle" layer="1" /><path d="M 220.17 12.93 Q 219.00 12.00, 218.87 13.49 L 217.13 33.01 Q 217.00 34.50, 217.13 35.99 L 218.87 55.51 Q 219.00 57.00, 220.10 55.98 L 229.44 47.30 Q 230.54 46.28, 231.35 45.01 L 238.19 34.27 Q 239.00 33.00, 238.12 31.78 L 231.33 22.34 Q 230.45 21.12, 229.28 20.19 L 220.17 12.93" fill="#6498b3" fill-opacity="0.505882" label="middle" layer="1" /><path d="M 92.64 9.35 Q 92.00 8.00, 91.89 9.50 L 90.11 33.00 Q 90.00 34.50, 90.11 36.00 L 91.89 59.50 Q 92.00 61.00, 92.62 59.64 L 97.30 49.43 Q 97.92 48.07, 98.14 46.59 L 99.78 35.48 Q 100.00 34.00, 99.77 32.52 L 98.14 21.89 Q 97.91 20.41, 97.27 19.06 L 92.64 9.35" fill="#6a8ebd" fill-opacity="0.509804" label="middle" layer="1" /><path d="M 203.64 9.35 Q 203.00 8.00, 202.89 9.50 L 201.11 33.00 Q 201.00 34.50, 201.11 36.00 L 202.89 59.50 Q 203.00 61.00, 203.62 59.64 L 208.30 49.43 Q 208.92 48.07, 209.14 46.59 L 210.78 35.48 Q 211.00 34.00, 210.77 32.52 L 209.14 21.89 Q 208.91 20.41, 208.27 19.06 L 203.64 9.35" fill="#697fb7" fill-opacity="0.533333" label="middle" layer="1" /><path d="M 125.68 31.55 Q 126.86 32.48, 126.11 33.78 L 120.90 42.83 Q 120.15 44.13, 119.05 45.15 L 111.42 52.28 Q 110.32 53.30, 109.56 52.01 L 104.78 43.94 Q 104.02 42.65, 103.71 41.18 L 101.75 32.02 Q 101.44 30.55, 100.96 29.13 L 99.68 25.37 Q 99.20 23.95, 99.58 22.50 L 100.57 18.65 Q 100.95 17.20, 102.33 17.79 L 113.54 22.53 Q 114.92 23.12, 116.10 24.05 L 125.68 31.55" fill="#6187ac" fill-opacity="0.803922" label="middle" layer="1" /><polygon fill="#5a9e9b" fill-opacity="0.431373" label="detail" layer="2" points="38.380994,16.744602,34.307449,40.416920,38.149194,59.972311,42.779537,28.378025" />
<polygon fill="#569e92" fill-opacity="0.592157" label="detail" layer="2" points="168.603536,13.042888,175.884748,41.445263,168.603536,47.445263,165.084521,41.445263" />
<polygon fill="#6386b0" fill-opacity="0.623529" label="detail" layer="2" points="90,17 90,52 108,30" />
<polygon fill="#63a49d" fill-opacity="0.768627" label="detail" layer="2" points="12.315697,31.645053,12.242400,37.412333,85.683624,40.795867,83.890667,27.365683" />
<polygon fill="#55929a" fill-opacity="0.384314" label="detail" layer="2" points="222.707905,49.309953,228.191025,45.188090,221.621480,0.000000,219.001269,21.813948" />
</g>
<g><text style="font-size: 20px;" x="15" y="20">bpm: 134</text><text style="font-size: 20px;" x="15" y="40">Mood: 8</text><text style="font-size: 20px;" x="15" y="60">Density: 5</text><text style="font-size: 20px;" x="15" y="80">Gravity: 1</text><text style="font-size: 20px;" x="15" y="100">Energy: 6</text><text style="font-size: 20px;" x="15" y="120">Ensemble: 7</text><text style="font-size: 20px;" x="15" y="140">Melody: 8</text><text style="font-size: 20px;" x="15" y="160">Tension: 4</text><text style="font-size: 20px;" x="15" y="180">Rhythm: 6</text><text style="font-size: 20px;" x="15" y="200"># shapes=20</text></g></svg>