<svg xmlns="http://www.w3.org/2000/svg" height="280" preserveAspectRatio="none" version="1.1" width="930">
<rect fill="none" height="280" width="1024" x="0" y="0" />
<g transform="scale(4.0000) translate(-11.13636363636364, 0.5)">
<path d="M 121.38 11.64 C 123.34 11.89, 125.48 12.18, 127.49, 12.55 C 131.91 13.35, 135.15 14.35, 139.57, 15.16 C 141.58 15.53, 143.73 15.82, 145.68, 16.07 C 147.63 16.33, 149.78 16.62, 151.79, 16.98 C 156.20 17.79, 159.45 18.79, 163.86, 19.59 C 165.87 19.96, 168.02 20.25, 169.97, 20.51 C 171.92 20.76, 174.07 21.05, 176.08, 21.42 C 180.49 22.22, 183.74 23.22, 188.16, 24.03 C 190.17 24.40, 192.31 24.69, 194.27, 24.94 C 196.22 25.20, 198.36 25.49, 200.37, 25.85 C 204.79 26.66, 208.04 27.66, 212.45, 28.46 C 214.46 28.83, 216.61 29.12, 218.56, 29.38 C 220.51 29.63, 222.66 29.92, 224.67, 30.29 C 229.08 31.09, 232.33 32.09, 236.74, 32.90 C 238.76 33.27, 240.90 33.56, 242.85, 33.81 C 244.80 34.07, 246.95 34.36, 248.96, 34.72 C 250.97 35.09, 253.08 35.58, 255.00, 36.03 C 253.08 36.41, 250.97 36.82, 248.96, 37.11 C 244.54 37.76, 241.16 37.85, 236.75, 38.49 C 234.74 38.79, 232.62 39.20, 230.71, 39.58 C 228.79 39.96, 226.67 40.37, 224.66, 40.66 C 220.25 41.31, 216.87 41.40, 212.46, 42.04 C 210.45 42.34, 208.33 42.75, 206.41, 43.13 C 204.49 43.51, 202.38 43.92, 200.37, 44.21 C 195.95 44.86, 192.58 44.95, 188.16, 45.59 C 186.15 45.89, 184.04 46.30, 182.12, 46.68 C 180.20 47.06, 178.09 47.47, 176.07, 47.76 C 171.66 48.41, 168.28 48.50, 163.87, 49.14 C 161.86 49.44, 159.74 49.85, 157.82, 50.23 C 155.91 50.61, 153.79 51.02, 151.78, 51.31 C 147.37 51.96, 143.99 52.05, 139.58, 52.69 C 137.56 52.98, 135.45 53.39, 133.53, 53.78 C 131.61 54.16, 129.50 54.57, 127.49, 54.86 C 125.47 55.15, 123.33 55.37, 121.38, 55.55 C 119.40 55.30, 117.22 55.02, 115.18, 54.66 C 110.69 53.87, 107.38 52.89, 102.90, 52.10 C 100.85 51.74, 98.67 51.46, 96.69, 51.21 C 94.71 50.97, 92.52 50.68, 90.48, 50.32 C 85.99 49.54, 82.69 48.55, 78.20, 47.76 C 76.16 47.40, 73.97 47.12, 71.99, 46.87 C 70.01 46.63, 67.83 46.35, 65.78, 45.99 C 61.30 45.20, 57.99 44.21, 53.50, 43.42 C 51.46 43.06, 49.28 42.78, 47.30, 42.54 C 45.31 42.29, 43.13 42.01, 41.09, 41.65 C 36.60 40.86, 33.30 39.87, 28.81, 39.09 C 26.76 38.73, 24.58 38.45, 22.60, 38.20 C 20.62 37.95, 18.44 37.67, 16.39, 37.31 C 14.35 36.95, 12.20 36.47, 10.25, 36.03 C 12.20 35.50, 14.34 34.93, 16.38, 34.48 C 20.87 33.49, 24.33 33.14, 28.82, 32.16 C 30.86 31.71, 33.00 31.14, 34.95, 30.61 C 36.89 30.08, 39.03 29.51, 41.08, 29.06 C 45.57 28.07, 49.03 27.72, 53.51, 26.74 C 55.56 26.29, 57.70 25.72, 59.64, 25.19 C 61.59 24.66, 63.73 24.09, 65.77, 23.64 C 70.26 22.65, 73.72 22.30, 78.21, 21.32 C 80.25 20.87, 82.40 20.30, 84.34, 19.77 C 86.28 19.24, 88.43 18.67, 90.47, 18.22 C 94.96 17.23, 98.42 16.88, 102.90, 15.90 C 104.95 15.45, 107.09 14.87, 109.04, 14.35 C 110.98 13.82, 113.12 13.24, 115.17, 12.80 C 117.21 12.35, 119.40 11.97, 121.38, 11.64" fill="#6d6aa8" fill-opacity="0.2960785" label="outline" layer="0" /><path d="M 195.13 6.58 C 197.18 7.97, 199.43 9.52, 201.50, 11.05 C 206.03 14.41, 209.21 17.26, 213.75, 20.62 C 215.82 22.15, 218.07 23.70, 220.11, 25.09 C 222.16 26.48, 224.41 28.02, 226.48, 29.55 C 228.55 31.09, 230.68 32.79, 232.61, 34.34 C 231.24 35.52, 229.73 36.82, 228.24, 37.97 C 224.98 40.48, 222.29 42.06, 219.02, 44.58 C 217.54 45.73, 216.03 47.02, 214.66, 48.20 C 213.29 49.39, 211.78 50.68, 210.30, 51.83 C 207.04 54.35, 204.34 55.93, 201.08, 58.44 C 199.59 59.59, 198.08 60.89, 196.72, 62.07 C 195.35 63.25, 193.84 64.54, 192.35, 65.69 C 190.87 66.84, 189.23 67.98, 187.74, 69.00 C 186.00 67.22, 184.09 65.26, 182.35, 63.34 C 178.54 59.13, 175.97 55.69, 172.16, 51.48 C 170.42 49.56, 168.51 47.60, 166.77, 45.82 C 165.03 44.04, 163.11 42.08, 161.38, 40.16 C 159.64 38.24, 157.88 36.14, 156.28, 34.23 C 158.28 32.68, 160.50 30.98, 162.64, 29.46 C 167.35 26.11, 171.12 23.92, 175.82, 20.57 C 177.97 19.04, 180.18 17.35, 182.18, 15.80 C 184.18 14.25, 186.40 12.55, 188.54, 11.03 C 190.68 9.50, 193.01 7.97, 195.13, 6.58" fill="#7b74b9" fill-opacity="0.252941" label="outline" layer="0" /><path d="M 70.48 26.28 C 72.50 26.47, 74.73 26.69, 76.81, 26.99 C 81.39 27.64, 84.78 28.53, 89.36, 29.19 C 91.45 29.48, 93.67 29.70, 95.69, 29.89 C 97.71 30.08, 99.93 30.29, 102.02, 30.59 C 106.60 31.25, 109.99 32.14, 114.57, 32.79 C 116.66 33.09, 118.88 33.31, 120.90, 33.49 C 122.92 33.68, 125.14 33.90, 127.23, 34.20 C 129.32 34.50, 131.51 34.91, 133.50, 35.30 C 131.51 35.65, 129.31 36.04, 127.23, 36.31 C 122.65 36.90, 119.15 36.95, 114.57, 37.54 C 112.48 37.81, 110.29 38.19, 108.30, 38.55 C 106.30 38.91, 104.11 39.29, 102.02, 39.56 C 97.44 40.15, 93.94 40.20, 89.36, 40.79 C 87.28 41.06, 85.08 41.44, 83.09, 41.80 C 81.09 42.16, 78.90 42.54, 76.81, 42.81 C 74.72 43.08, 72.50 43.26, 70.48, 43.42 C 68.79 43.09, 66.92 42.71, 65.18, 42.26 C 61.37 41.28, 58.60 40.15, 54.78, 39.17 C 53.04 38.72, 51.17 38.34, 49.48, 38.01 C 47.78 37.67, 45.92 37.29, 44.18, 36.84 C 42.44 36.40, 40.62 35.82, 38.97, 35.30 C 40.62 34.72, 42.43 34.10, 44.17, 33.60 C 47.99 32.51, 50.97 32.07, 54.78, 30.98 C 56.52 30.48, 58.34 29.86, 59.98, 29.29 C 61.63 28.71, 63.44 28.09, 65.18, 27.59 C 66.92 27.10, 68.79 26.67, 70.48, 26.28" fill="#7576bb" fill-opacity="0.2607845" label="outline" layer="0" /><path d="M 196.83 5.77 C 197.93 7.26, 199.14 8.89, 200.21, 10.49 C 202.55 14.00, 203.97 16.86, 206.31, 20.37 C 207.38 21.97, 208.59 23.60, 209.70, 25.08 C 210.80 26.56, 212.01 28.20, 213.08, 29.80 C 214.14 31.40, 215.19 33.14, 216.13, 34.74 C 215.19 36.31, 214.14 38.04, 213.08, 39.62 C 210.74 43.08, 208.65 45.46, 206.31, 48.93 C 205.25 50.51, 204.20 52.23, 203.26, 53.81 C 202.32 55.38, 201.27 57.11, 200.21, 58.69 C 199.14 60.27, 197.93 61.88, 196.83, 63.34 C 196.65 61.83, 196.47 60.16, 196.39, 58.58 C 196.22 55.12, 196.50 52.49, 196.33, 49.03 C 196.25 47.45, 196.07 45.78, 195.90, 44.27 C 195.72 42.76, 195.54 41.09, 195.46, 39.51 C 195.39 37.93, 195.41 36.26, 195.43, 34.74 C 195.41 33.20, 195.39 31.50, 195.46, 29.90 C 195.63 26.39, 196.16 23.77, 196.33, 20.27 C 196.40 18.67, 196.39 16.97, 196.36, 15.43 C 196.33 13.89, 196.32 12.19, 196.39, 10.59 C 196.47 8.99, 196.65 7.31, 196.83, 5.77" fill="#6b6faf" fill-opacity="0.3568625" label="outline" layer="0" /><path d="M 137.06 24.79 C 139.58 26.00, 142.36 27.35, 144.94, 28.70 C 147.53 30.06, 150.21 31.58, 152.65, 32.97 C 150.24 35.68, 147.58 38.66, 145.00, 41.41 C 142.42 44.16, 139.61 47.00, 137.06, 49.57 C 136.58 46.94, 136.06 44.05, 135.67, 41.30 C 135.27 38.55, 134.95 35.63, 134.67, 32.97 C 134.95 31.64, 135.28 30.18, 135.67, 28.82 C 136.07 27.47, 136.58 26.06, 137.06, 24.79" fill="#686dab" fill-opacity="0.4411765" label="outline" layer="0" /><path d="M 123.93 1.31 C 124.10 3.21, 124.28 5.30, 124.35, 7.28 C 124.51 11.63, 124.24 14.92, 124.40, 19.27 C 124.47 21.25, 124.65 23.35, 124.82, 25.25 C 125.00 27.15, 125.17 29.24, 125.25, 31.23 C 125.41 35.58, 125.13 38.86, 125.30, 43.21 C 125.37 45.20, 125.55 47.29, 125.72, 49.19 C 125.89 51.09, 126.07 53.19, 126.15, 55.17 C 126.22 57.15, 126.20 59.25, 126.17, 61.16 C 125.27 61.62, 124.28 62.11, 123.31, 62.48 C 122.34 62.86, 121.27 63.16, 120.30, 63.43 C 120.21 61.49, 120.12 59.35, 120.12, 57.33 C 120.14 52.90, 120.55 49.57, 120.57, 45.15 C 120.57 43.13, 120.48 40.99, 120.39, 39.05 C 120.30 37.11, 120.20 34.98, 120.21, 32.96 C 120.23 28.53, 120.64 25.20, 120.66, 20.77 C 120.66 18.75, 120.57 16.62, 120.48, 14.68 C 120.38 12.74, 120.29 10.60, 120.30, 8.58 C 120.31 6.56, 120.41 4.43, 120.52, 2.49 C 121.03 2.21, 121.59 1.91, 122.16, 1.71 C 122.72 1.51, 123.35 1.40, 123.93, 1.31" fill="#6974b6" fill-opacity="0.44999999999999996" label="middle" layer="1" /><path d="M 185.45 0.00 C 185.99 1.97, 186.57 4.15, 187.02, 6.22 C 188.03 10.78, 188.39 14.29, 189.39, 18.84 C 189.85 20.92, 190.43 23.09, 190.96, 25.06 C 191.50 27.04, 192.08 29.21, 192.54, 31.29 C 192.99 33.36, 193.38 35.58, 193.72, 37.60 C 192.49 40.69, 191.14 44.09, 189.77, 47.27 C 188.40 50.45, 186.86 53.77, 185.45, 56.79 C 184.25 53.77, 182.93 50.44, 181.78, 47.26 C 180.62 44.08, 179.49 40.69, 178.48, 37.60 C 178.75 35.58, 179.06 33.37, 179.44, 31.29 C 180.29 26.74, 181.32 23.39, 182.16, 18.83 C 182.55 16.76, 182.86 14.55, 183.13, 12.53 C 183.40 10.52, 183.71 8.31, 184.09, 6.23 C 184.48 4.15, 184.98 1.98, 185.45, 0.00" fill="#7977bc" fill-opacity="0.3794115" label="middle" layer="1" /><path d="M 22.17 26.63 C 23.88 26.76, 25.77 26.92, 27.54, 27.16 C 31.43 27.69, 34.29 28.48, 38.18, 29.01 C 39.95 29.25, 41.84 29.41, 43.55, 29.54 C 45.26 29.67, 47.15 29.83, 48.92, 30.07 C 52.81 30.60, 55.67 31.39, 59.56, 31.92 C 61.33 32.16, 63.21 32.32, 64.93, 32.45 C 66.64 32.58, 68.53 32.74, 70.30, 32.98 C 72.07 33.22, 73.93 33.57, 75.62, 33.90 C 73.93 34.23, 72.07 34.59, 70.30, 34.83 C 66.42 35.36, 63.44 35.36, 59.56, 35.89 C 57.79 36.13, 55.93 36.48, 54.24, 36.81 C 52.55 37.15, 50.69 37.50, 48.92, 37.74 C 45.04 38.27, 42.06 38.27, 38.18, 38.80 C 36.41 39.04, 34.55 39.40, 32.86, 39.73 C 31.17 40.06, 29.31 40.41, 27.54, 40.65 C 25.77 40.89, 23.88 41.05, 22.17, 41.18 C 20.26 40.11, 18.17 38.92, 16.24, 37.71 C 14.30 36.51, 12.31 35.15, 10.51, 33.90 C 12.32 32.66, 14.30 31.30, 16.24, 30.10 C 18.17 28.89, 20.26 27.70, 22.17, 26.63" fill="#817cc5" fill-opacity="0.22647075" label="middle" layer="1" /><path d="M 74.00 10.00 C 73.90 12.60, 73.80 15.46, 73.80, 18.17 C 73.80 24.10, 74.20 28.56, 74.20, 34.50 C 74.20 37.20, 74.10 40.07, 74.00, 42.67 C 73.90 45.27, 73.80 48.13, 73.80, 50.83 C 73.80 53.54, 73.90 56.40, 74.00, 59.00 C 74.52 57.65, 75.08 56.16, 75.52, 54.73 C 76.49 51.58, 76.84 49.09, 77.81, 45.94 C 78.25 44.51, 78.81 43.02, 79.33, 41.67 C 79.85 40.32, 80.42 38.83, 80.86, 37.39 C 81.30 35.96, 81.67 34.41, 82.00, 33.00 C 80.82 29.31, 79.51 25.24, 78.19, 21.43 C 76.86 17.63, 75.37 13.63, 74.00, 10.00" fill="#6d75b9" fill-opacity="0.37647074999999997" label="middle" layer="1" /><path d="M 164.53 6.07 C 164.43 9.84, 164.33 14.00, 164.33, 17.93 C 164.33 21.86, 164.43 26.02, 164.53, 29.79 C 164.43 31.63, 164.33 33.65, 164.33, 35.56 C 164.33 39.74, 164.73 42.89, 164.73, 47.08 C 164.73 48.99, 164.63 51.01, 164.53, 52.84 C 164.43 54.68, 164.33 56.70, 164.33, 58.60 C 164.33 60.51, 164.43 62.53, 164.53, 64.37 C 165.48 62.57, 166.52 60.60, 167.42, 58.69 C 169.39 54.50, 170.51 51.18, 172.48, 47.00 C 173.38 45.09, 174.42 43.11, 175.38, 41.32 C 176.33 39.53, 177.37 37.55, 178.27, 35.64 C 179.17 33.73, 180.03 31.67, 180.80, 29.79 C 180.02 28.48, 179.15 27.04, 178.25, 25.73 C 176.28 22.85, 174.47 20.92, 172.50, 18.04 C 171.60 16.73, 170.73 15.29, 169.95, 13.98 C 169.17 12.66, 168.30 11.22, 167.41, 9.91 C 166.51 8.60, 165.48 7.27, 164.53, 6.07" fill="#5a5182" fill-opacity="0.26764725" label="middle" layer="1" /></g>
<g><text style="font-size: 20px;" x="15" y="20">bpm: 120</text><text style="font-size: 20px;" x="15" y="40">Mood: 7</text><text style="font-size: 20px;" x="15" y="60">Density: 2</text><text style="font-size: 20px;" x="15" y="80">Gravity: 5</text><text style="font-size: 20px;" x="15" y="100">Energy: 2</text><text style="font-size: 20px;" x="15" y="120">Ensemble: 1</text><text style="font-size: 20px;" x="15" y="140">Melody: 6</text><text style="font-size: 20px;" x="15" y="160">Tension: 2</text><text style="font-size: 20px;" x="15" y="180">Rhythm: 2</text><text style="font-size: 20px;" x="15" y="200"># shapes=10</text></g></svg>