<svg xmlns="http://www.w3.org/2000/svg" height="280" preserveAspectRatio="none" version="1.1" width="930">
<rect fill="none" height="280" width="1024" x="0" y="0" />
<g transform="scale(4.0000) translate(-11.13636363636364, 0.5)">
<path d="M 18.35 19.37 Q 17.35 19.34, 17.32 20.34 L 16.83 40.69 Q 16.81 41.69, 17.72 42.11 L 69.37 65.58 Q 70.28 66.00, 71.25 65.75 L 227.22 25.72 Q 228.19 25.47, 227.19 25.44 L 18.35 19.37" fill="#5f87a8" fill-opacity="1.5" label="outline" layer="0" /><path d="M 170.93 0.37 Q 170.00 0.00, 170.00 1.00 L 170.00 68.00 Q 170.00 69.00, 170.92 68.62 L 254.08 34.38 Q 255.00 34.00, 254.07 33.63 L 170.93 0.37" fill="#6189ad" fill-opacity="1.3823535" label="outline" layer="0" /><path d="M 14.89 0.94 Q 15.23 -0.00, 16.23 0.05 L 159.44 7.82 Q 160.44 7.87, 159.52 8.26 L 16.16 68.61 Q 15.23 69.00, 15.19 68.00 L 12.40 8.87 Q 12.35 7.87, 12.69 6.93 L 14.89 0.94" fill="#5d8ea7" fill-opacity="1.2352935" label="outline" layer="0" /><path d="M 156.66 68.98 Q 157.66 69.00, 158.66 68.98 L 254.00 67.33 Q 255.00 67.32, 254.12 66.84 L 158.54 14.60 Q 157.66 14.12, 156.79 14.61 L 63.43 66.83 Q 62.55 67.32, 63.55 67.33 L 156.66 68.98" fill="#5f79a4" fill-opacity="0.8294115" label="outline" layer="0" /><path d="M 212.31 0.17 Q 213.29 -0.00, 214.28 0.17 L 247.56 5.83 Q 248.55 6.00, 248.06 6.87 L 213.78 68.13 Q 213.29 69.00, 212.81 68.12 L 179.47 6.88 Q 178.99 6.00, 179.98 5.83 L 212.31 0.17" fill="#6489b0" fill-opacity="1.064706" label="outline" layer="0" /><path d="M 10.96 68.81 Q 11.94 69.00, 12.94 69.03 L 57.02 70.58 Q 58.02 70.61, 59.02 70.56 L 103.08 68.26 Q 104.08 68.21, 103.19 67.76 L 59.73 45.67 Q 58.84 45.22, 57.92 44.84 L 12.86 26.24 Q 11.94 25.86, 11.85 26.86 L 10.03 46.04 Q 9.94 47.04, 10.03 48.04 L 11.85 67.21 Q 11.94 68.21, 10.96 68.41 L 10.92 68.41 Q 9.94 68.61, 10.92 68.80 L 10.96 68.81" fill="#588e9f" fill-opacity="0.8774512499999999" label="middle" layer="1" /><path d="M 217.30 0.83 Q 217.89 0.02, 218.39 0.89 L 232.60 25.83 Q 233.10 26.70, 233.48 27.63 L 244.31 54.20 Q 244.69 55.13, 243.82 55.62 L 229.93 63.31 Q 229.06 63.80, 228.10 64.08 L 212.84 68.48 Q 211.88 68.76, 211.01 68.27 L 198.79 61.50 Q 197.92 61.01, 197.19 60.32 L 187.05 50.71 Q 186.32 50.02, 186.80 49.14 L 199.93 24.84 Q 200.41 23.96, 201.00 23.15 L 217.30 0.83" fill="#6289ae" fill-opacity="0.8284312500000001" label="middle" layer="1" /><path d="M 98.69 0.26 Q 99.66 0.00, 100.64 0.18 L 141.13 7.42 Q 142.11 7.60, 143.07 7.87 L 182.72 18.82 Q 183.68 19.09, 182.84 19.64 L 143.53 45.22 Q 142.69 45.77, 141.81 46.25 L 100.54 68.52 Q 99.66 69.00, 98.88 68.37 L 71.19 46.17 Q 70.41 45.54, 69.70 44.83 L 44.53 19.80 Q 43.82 19.09, 44.74 18.70 L 70.17 8.04 Q 71.09 7.65, 72.06 7.39 L 98.69 0.26" fill="#6178a7" fill-opacity="0.5196075" label="middle" layer="1" /><path d="M 240.23 1.04 Q 240.54 0.09, 240.72 1.07 L 243.58 16.25 Q 243.76 17.23, 243.72 18.23 L 243.04 33.64 Q 243.00 34.64, 242.87 35.63 L 240.83 51.22 Q 240.70 52.21, 240.35 53.15 L 234.88 67.89 Q 234.53 68.83, 234.39 67.84 L 232.21 52.37 Q 232.07 51.38, 232.16 50.38 L 233.54 34.82 Q 233.63 33.82, 233.72 32.82 L 235.04 17.55 Q 235.13 16.55, 235.44 15.60 L 240.23 1.04" fill="#5e98ad" fill-opacity="0.7941175" label="middle" layer="1" /><path d="M 117.47 69.05 Q 118.47 69.00, 118.57 68.01 L 121.98 35.58 Q 122.08 34.59, 122.07 33.59 L 121.71 1.00 Q 121.70 0.00, 120.70 -0.06 L 86.79 -1.94 Q 85.79 -2.00, 84.79 -1.94 L 50.87 -0.06 Q 49.87 0.00, 49.65 0.97 L 42.28 33.20 Q 42.06 34.17, 41.95 35.16 L 38.30 68.01 Q 38.19 69.00, 39.19 69.05 L 77.33 70.95 Q 78.33 71.00, 79.33 70.95 L 117.47 69.05" fill="#6092af" fill-opacity="0.42646999999999996" label="middle" layer="1" /><path d="M 174.55 66.42 Q 174.58 67.42, 175.30 66.73 L 204.02 39.13 Q 204.74 38.44, 205.39 37.68 L 231.34 7.46 Q 231.99 6.70, 231.02 6.47 L 207.56 0.94 Q 206.59 0.71, 205.59 0.63 L 181.59 -1.24 Q 180.59 -1.32, 179.59 -1.29 L 178.44 -1.25 Q 177.44 -1.22, 177.27 -0.23 L 177.09 0.89 Q 176.92 1.88, 176.82 2.88 L 173.85 33.58 Q 173.75 34.58, 173.78 35.58 L 174.55 66.42" fill="#5f86a9" fill-opacity="0.57353" label="middle" layer="1" /><path d="M 182.54 -0.31 Q 182.01 -1.16, 181.87 -0.17 L 177.15 32.04 Q 177.01 33.03, 176.98 34.03 L 176.02 66.58 Q 175.99 67.58, 176.98 67.73 L 197.82 70.93 Q 198.81 71.08, 199.81 71.06 L 220.90 70.61 Q 221.90 70.59, 221.46 69.69 L 204.15 34.64 Q 203.71 33.74, 203.18 32.89 L 182.54 -0.31" fill="#6389b0" fill-opacity="0.5196075" label="middle" layer="1" /><path d="M 15.04 11.10 Q 15.39 10.16, 16.39 10.22 L 74.74 13.99 Q 75.74 14.05, 76.73 14.18 L 134.72 21.79 Q 135.71 21.92, 134.76 22.24 L 77.09 42.07 Q 76.14 42.39, 75.18 42.65 L 16.35 58.77 Q 15.39 59.03, 15.27 58.04 L 13.36 41.48 Q 13.24 40.49, 13.34 39.49 L 14.98 22.92 Q 15.08 21.92, 14.78 20.96 L 13.54 16.95 Q 13.24 15.99, 13.59 15.05 L 15.04 11.10" fill="#6095ac" fill-opacity="0.84803875" label="middle" layer="1" /><path d="M 158.13 46.83 Q 157.92 47.81, 158.87 48.12 L 191.05 58.64 Q 192.00 58.95, 192.98 59.15 L 226.13 66.02 Q 227.11 66.22, 227.20 65.22 L 229.57 38.61 Q 229.66 37.61, 229.61 36.61 L 228.27 9.93 Q 228.22 8.93, 227.22 8.99 L 199.13 10.71 Q 198.13 10.77, 197.15 10.96 L 169.53 16.38 Q 168.55 16.57, 168.12 17.47 L 161.77 30.65 Q 161.34 31.55, 161.13 32.53 L 158.13 46.83" fill="#618bad" fill-opacity="0.7009799999999999" label="middle" layer="1" /><path d="M 142.73 15.06 Q 141.98 14.39, 141.69 15.35 L 139.43 22.98 Q 139.14 23.94, 139.25 24.93 L 140.17 32.84 Q 140.28 33.83, 140.04 34.80 L 137.44 45.13 Q 137.20 46.10, 137.27 47.10 L 138.04 57.71 Q 138.11 58.71, 138.88 58.07 L 149.58 49.12 Q 150.35 48.48, 150.93 47.67 L 159.11 36.33 Q 159.69 35.52, 159.16 34.67 L 152.89 24.52 Q 152.36 23.67, 151.61 23.00 L 142.73 15.06" fill="#6b68aa" fill-opacity="0.76470625" label="middle" layer="1" /><path d="M 244.17 0.37 L 241.66 5.87 L 232.49 51.19 L 237.92 69.08 " fill="#598ca2" fill-opacity="0.949020" label="detail" layer="2" /><path d="M 15.50 13.23 L 73.07 32.46 L 15.50 57.72 L 10.77 32.46 " fill="#5c9ea4" fill-opacity="0.462745" label="detail" layer="2" /><path d="M 115.29 0.05 L 120.98 59.02 L 109.42 67.11 L 103.11 57.45 " fill="#6088ac" fill-opacity="0.560784" label="detail" layer="2" /><path d="M 170.22 7.41 L 179.12 48.54 L 166.19 53.43 L 166.59 47.44 " fill="#55929c" fill-opacity="0.552941" label="detail" layer="2" /><path d="M 31.27 7.06 L 169.25 33.21 L 31.27 67.68 L 28.99 33.21 " fill="#638daf" fill-opacity="0.345098" label="detail" layer="2" /></g>
<g><text style="font-size: 20px;" x="15" y="20">bpm: None</text><text style="font-size: 20px;" x="15" y="40">Mood: 8</text><text style="font-size: 20px;" x="15" y="60">Density: 8</text><text style="font-size: 20px;" x="15" y="80">Gravity: 2</text><text style="font-size: 20px;" x="15" y="100">Energy: 8</text><text style="font-size: 20px;" x="15" y="120">Ensemble: 5</text><text style="font-size: 20px;" x="15" y="140">Melody: 8</text><text style="font-size: 20px;" x="15" y="160">Tension: 4</text><text style="font-size: 20px;" x="15" y="180">Rhythm: 9</text><text style="font-size: 20px;" x="15" y="200"># shapes=20</text></g></svg>