<svg xmlns="http://www.w3.org/2000/svg" height="280" preserveAspectRatio="none" version="1.1" width="930">
<rect fill="none" height="280" width="1024" x="0" y="0" />
<g transform="scale(4.0000) translate(-11.13636363636364, 0.5)">
<path d="M 22.00 8.00 C 21.90 9.69, 21.80 11.54, 21.80, 13.30 C 21.80 17.15, 22.20 20.05, 22.20, 23.90 C 22.20 25.66, 22.10 27.51, 22.00, 29.20 C 21.90 30.89, 21.80 32.74, 21.80, 34.50 C 21.80 38.35, 22.20 41.25, 22.20, 45.10 C 22.20 46.86, 22.10 48.71, 22.00, 50.40 C 21.90 52.09, 21.80 53.94, 21.80, 55.70 C 21.80 57.46, 21.90 59.31, 22.00, 61.00 C 23.89 60.85, 25.96 60.67, 27.91, 60.40 C 32.18 59.83, 35.35 59.00, 39.62, 58.42 C 41.57 58.16, 43.64 57.98, 45.53, 57.82 C 47.42 57.67, 49.49 57.49, 51.44, 57.23 C 55.71 56.65, 58.87 55.82, 63.15, 55.24 C 65.10 54.98, 67.17 54.80, 69.06, 54.65 C 70.94 54.49, 73.02 54.31, 74.97, 54.05 C 79.24 53.47, 82.40 52.64, 86.68, 52.07 C 88.63 51.80, 90.70 51.62, 92.59, 51.47 C 94.47 51.32, 96.55 51.14, 98.50, 50.87 C 102.77 50.30, 105.93 49.47, 110.21, 48.89 C 112.16 48.63, 114.23 48.45, 116.12, 48.29 C 118.00 48.14, 120.08 47.96, 122.03, 47.70 C 126.30 47.12, 129.46 46.29, 133.74, 45.71 C 135.69 45.45, 137.76 45.27, 139.65, 45.12 C 141.53 44.96, 143.61 44.78, 145.56, 44.52 C 149.83 43.94, 152.99 43.11, 157.27, 42.54 C 159.22 42.27, 161.29 42.09, 163.18, 41.94 C 165.06 41.79, 167.14 41.61, 169.09, 41.35 C 173.36 40.77, 176.52 39.94, 180.80, 39.36 C 182.75 39.10, 184.82 38.92, 186.71, 38.76 C 188.59 38.61, 190.67 38.43, 192.61, 38.17 C 196.89 37.59, 200.05 36.76, 204.33, 36.18 C 206.27 35.92, 208.35 35.74, 210.24, 35.59 C 212.12 35.43, 214.20 35.26, 216.14, 34.99 C 218.09 34.73, 220.14 34.35, 222.00, 34.00 C 220.14 33.66, 218.09 33.29, 216.14, 33.04 C 211.87 32.48, 208.60 32.46, 204.33, 31.90 C 202.38 31.65, 200.33 31.28, 198.47, 30.94 C 196.61 30.60, 194.56 30.23, 192.61, 29.98 C 188.34 29.42, 185.07 29.40, 180.80, 28.85 C 178.85 28.59, 176.80 28.22, 174.94, 27.88 C 173.08 27.54, 171.03 27.17, 169.08, 26.92 C 164.81 26.36, 161.54 26.34, 157.27, 25.79 C 155.32 25.53, 153.27 25.17, 151.41, 24.82 C 149.55 24.48, 147.50 24.11, 145.56, 23.86 C 141.28 23.30, 138.01 23.28, 133.74, 22.73 C 131.79 22.47, 129.74 22.11, 127.88, 21.76 C 126.02 21.42, 123.97 21.05, 122.03, 20.80 C 117.75 20.25, 114.48 20.22, 110.21, 19.67 C 108.26 19.42, 106.21 19.05, 104.35, 18.71 C 102.49 18.36, 100.44 18.00, 98.50, 17.74 C 94.22 17.19, 90.96 17.17, 86.68, 16.61 C 84.73 16.36, 82.68 15.99, 80.82, 15.65 C 78.96 15.30, 76.92 14.94, 74.97, 14.68 C 70.69 14.13, 67.43 14.11, 63.15, 13.55 C 61.20 13.30, 59.15 12.93, 57.29, 12.59 C 55.43 12.25, 53.39 11.88, 51.44, 11.63 C 47.16 11.07, 43.90 11.05, 39.62, 10.49 C 37.67 10.24, 35.62 9.87, 33.76, 9.53 C 31.91 9.19, 29.86 8.82, 27.91, 8.57 C 25.96 8.31, 23.89 8.14, 22.00, 8.00" fill="#bb78c6" fill-opacity="0.768627" label="outline" layer="0" /><path d="M 177.27 0.00 C 179.08 0.72, 181.07 1.52, 182.91, 2.36 C 186.94 4.21, 189.81 5.96, 193.84, 7.81 C 195.68 8.65, 197.67 9.45, 199.48, 10.17 C 201.29 10.89, 203.28 11.69, 205.11, 12.53 C 209.15 14.38, 212.02 16.13, 216.05, 17.98 C 217.89 18.82, 219.88 19.63, 221.69, 20.34 C 223.50 21.06, 225.48 21.86, 227.32, 22.70 C 231.36 24.55, 234.23 26.31, 238.26, 28.15 C 240.10 29.00, 242.09 29.80, 243.90, 30.52 C 245.70 31.23, 247.69 32.03, 249.53, 32.88 C 251.37 33.72, 253.27 34.70, 255.00, 35.60 C 253.27 36.45, 251.37 37.38, 249.53, 38.17 C 245.49 39.90, 242.30 40.84, 238.26, 42.57 C 236.43 43.36, 234.52 44.29, 232.79, 45.14 C 231.06 46.00, 229.16 46.92, 227.32, 47.71 C 223.28 49.45, 220.09 50.38, 216.06, 52.12 C 214.22 52.91, 212.31 53.84, 210.58, 54.69 C 208.86 55.54, 206.95 56.47, 205.11, 57.26 C 201.08 58.99, 197.88 59.93, 193.85, 61.66 C 192.01 62.45, 190.10 63.38, 188.38, 64.23 C 186.65 65.08, 184.74 66.01, 182.90, 66.80 C 181.06 67.59, 179.08 68.33, 177.27, 69.00 C 175.69 68.33, 173.95 67.58, 172.35, 66.79 C 168.84 65.06, 166.38 63.40, 162.86, 61.66 C 161.26 60.87, 159.52 60.13, 157.94, 59.46 C 156.36 58.79, 154.62 58.04, 153.02, 57.25 C 149.51 55.52, 147.05 53.86, 143.53, 52.12 C 141.93 51.33, 140.20 50.58, 138.61, 49.92 C 137.03 49.25, 135.29 48.50, 133.69, 47.71 C 130.18 45.97, 127.72 44.31, 124.21, 42.58 C 122.60 41.79, 120.87 41.04, 119.28, 40.37 C 117.70 39.70, 115.96 38.96, 114.36, 38.17 C 112.76 37.38, 111.11 36.45, 109.62, 35.60 C 111.11 34.70, 112.76 33.72, 114.36, 32.88 C 117.87 31.03, 120.70 30.00, 124.21, 28.15 C 125.81 27.31, 127.46 26.33, 128.95, 25.43 C 130.44 24.53, 132.09 23.55, 133.69, 22.71 C 137.20 20.86, 140.03 19.83, 143.54, 17.98 C 145.14 17.14, 146.79 16.16, 148.28, 15.26 C 149.77 14.36, 151.42 13.38, 153.02, 12.54 C 156.53 10.69, 159.36 9.65, 162.87, 7.81 C 164.47 6.96, 166.12 5.98, 167.61, 5.09 C 169.10 4.19, 170.75 3.21, 172.35, 2.37 C 173.95 1.52, 175.69 0.72, 177.27, 0.00" fill="#91629f" fill-opacity="0.827451" label="outline" layer="0" /><path d="M 12.23 6.86 C 14.09 7.36, 16.13 7.92, 18.03, 8.54 C 22.20 9.90, 25.22 11.30, 29.39, 12.66 C 31.29 13.28, 33.33 13.84, 35.19, 14.34 C 37.05 14.84, 39.09 15.40, 40.99, 16.02 C 45.16 17.38, 48.18 18.79, 52.35, 20.15 C 54.25 20.77, 56.29 21.33, 58.15, 21.83 C 60.01 22.33, 62.05 22.89, 63.95, 23.51 C 68.13 24.87, 71.14 26.27, 75.31, 27.63 C 77.21 28.25, 79.25 28.81, 81.11, 29.31 C 82.97 29.81, 85.01 30.37, 86.91, 30.99 C 91.09 32.35, 94.10 33.76, 98.27, 35.12 C 100.17 35.74, 102.22 36.30, 104.07, 36.80 C 105.93 37.30, 107.97 37.86, 109.88, 38.48 C 114.05 39.84, 117.06 41.24, 121.23, 42.60 C 123.13 43.22, 125.18 43.78, 127.03, 44.29 C 128.89 44.79, 130.93 45.35, 132.84, 45.97 C 137.01 47.33, 140.02 48.73, 144.19, 50.09 C 146.09 50.71, 148.14 51.27, 149.99, 51.77 C 151.85 52.27, 153.90 52.83, 155.80, 53.45 C 159.97 54.81, 162.98 56.22, 167.15, 57.58 C 169.05 58.20, 171.10 58.76, 172.96, 59.26 C 174.81 59.76, 176.86 60.32, 178.76, 60.94 C 180.66 61.56, 182.64 62.31, 184.44, 63.00 C 182.33 63.13, 180.01 63.26, 177.82, 63.28 C 173.00 63.34, 169.38 62.99, 164.56, 63.05 C 162.37 63.08, 160.05 63.20, 157.94, 63.33 C 155.84 63.46, 153.52 63.59, 151.32, 63.61 C 146.51 63.67, 142.88 63.32, 138.07, 63.38 C 135.88 63.41, 133.56 63.54, 131.45, 63.66 C 129.34 63.79, 127.02 63.92, 124.83, 63.94 C 120.02 64.00, 116.39 63.65, 111.58, 63.71 C 109.38 63.74, 107.06 63.87, 104.96, 63.99 C 102.85 64.12, 100.53 64.25, 98.34, 64.28 C 93.52 64.34, 89.90 63.98, 85.08, 64.04 C 82.89 64.07, 80.57 64.20, 78.46, 64.32 C 76.36 64.45, 74.04 64.58, 71.84, 64.61 C 67.03 64.67, 63.40 64.31, 58.59, 64.37 C 56.40 64.40, 54.08 64.53, 51.97, 64.65 C 49.86 64.78, 47.54 64.91, 45.35, 64.94 C 40.54 65.00, 36.91 64.64, 32.10, 64.70 C 29.90 64.73, 27.58 64.86, 25.48, 64.99 C 23.37 65.11, 21.05 65.24, 18.86, 65.27 C 16.66 65.30, 14.34 65.22, 12.23, 65.15 C 12.08 64.82, 11.93 64.46, 11.88, 64.10 C 11.83 63.75, 11.88 63.36, 11.93, 63.00 C 11.84 61.21, 11.75 59.24, 11.76, 57.38 C 11.78 53.30, 12.20 50.24, 12.22, 46.16 C 12.23 44.30, 12.14 42.33, 12.05, 40.54 C 11.96 38.75, 11.87 36.79, 11.88, 34.93 C 11.90 30.85, 12.32 27.78, 12.34, 23.70 C 12.35 21.84, 12.26 19.87, 12.17, 18.08 C 12.08 16.30, 11.99 14.33, 12.00, 12.47 C 12.01 10.61, 12.12 8.64, 12.23, 6.86" fill="#905b96" fill-opacity="0.678431" label="outline" layer="0" /><path d="M 98.44 4.33 C 100.36 4.34, 102.47 4.36, 104.47, 4.47 C 108.85 4.72, 112.11 5.30, 116.49, 5.55 C 118.48 5.66, 120.60 5.68, 122.52, 5.68 C 124.45 5.69, 126.56 5.71, 128.56, 5.82 C 132.93 6.06, 136.20 6.65, 140.58, 6.89 C 142.57 7.00, 144.69 7.02, 146.61, 7.03 C 148.53 7.04, 150.65 7.06, 152.64, 7.17 C 157.02 7.41, 160.29 8.00, 164.66, 8.24 C 166.66 8.35, 168.77 8.37, 170.70, 8.38 C 172.62 8.39, 174.73 8.40, 176.73, 8.52 C 181.11 8.76, 184.37 9.34, 188.75, 9.59 C 190.74 9.70, 192.86 9.72, 194.78, 9.73 C 196.71 9.73, 198.82 9.75, 200.82, 9.86 C 205.19 10.11, 208.46 10.69, 212.84, 10.94 C 214.83 11.05, 216.95 11.07, 218.87, 11.07 C 220.79 11.08, 222.91 11.10, 224.90, 11.21 C 229.28 11.46, 232.55 12.04, 236.92, 12.28 C 238.92 12.40, 241.03 12.41, 242.96, 12.42 C 244.88 12.43, 247.00 12.45, 248.99, 12.56 C 250.98 12.67, 253.09 12.89, 255.00, 13.10 C 253.11 13.63, 251.02 14.21, 249.02, 14.66 C 244.65 15.66, 241.27 16.01, 236.89, 17.01 C 234.90 17.46, 232.81 18.04, 230.91, 18.57 C 229.02 19.11, 226.93 19.68, 224.94, 20.14 C 220.56 21.13, 217.18 21.49, 212.80, 22.49 C 210.81 22.94, 208.72 23.52, 206.83, 24.05 C 204.93 24.58, 202.84 25.16, 200.85, 25.62 C 196.47 26.61, 193.09 26.97, 188.72, 27.96 C 186.72 28.42, 184.63 29.00, 182.74, 29.53 C 180.85 30.06, 178.76 30.64, 176.76, 31.09 C 172.39 32.09, 169.01 32.45, 164.63, 33.44 C 162.64 33.90, 160.55 34.47, 158.65, 35.01 C 156.76 35.54, 154.67 36.12, 152.68, 36.57 C 148.30 37.57, 144.92 37.92, 140.54, 38.92 C 138.55 39.37, 136.46 39.95, 134.57, 40.48 C 132.67 41.02, 130.58 41.59, 128.59, 42.05 C 124.21 43.04, 120.83 43.40, 116.46, 44.40 C 114.46 44.85, 112.37 45.43, 110.48, 45.96 C 108.58 46.49, 106.50 47.07, 104.50, 47.53 C 102.51 47.98, 100.38 48.36, 98.44, 48.70 C 96.45 47.98, 94.27 47.18, 92.25, 46.34 C 87.81 44.49, 84.62 42.73, 80.18, 40.89 C 78.15 40.04, 75.97 39.24, 73.99, 38.53 C 72.00 37.81, 69.82 37.01, 67.80, 36.17 C 63.36 34.32, 60.17 32.56, 55.73, 30.71 C 53.71 29.87, 51.52 29.07, 49.54, 28.35 C 47.56 27.64, 45.38 26.84, 43.35, 26.00 C 38.91 24.15, 35.72 22.39, 31.28, 20.54 C 29.26 19.70, 27.08 18.90, 25.09, 18.18 C 23.11 17.47, 20.93 16.67, 18.90, 15.82 C 16.88 14.98, 14.78 14.00, 12.87, 13.10 C 14.80 12.80, 16.94 12.48, 18.96, 12.27 C 23.40 11.82, 26.78 11.87, 31.23, 11.42 C 33.25 11.21, 35.38 10.89, 37.32, 10.59 C 39.25 10.29, 41.38 9.98, 43.41, 9.77 C 47.85 9.31, 51.23 9.37, 55.67, 8.91 C 57.70 8.71, 59.83 8.39, 61.76, 8.09 C 63.70 7.79, 65.83 7.47, 67.86, 7.26 C 72.30 6.81, 75.68 6.87, 80.12, 6.41 C 82.15 6.20, 84.28 5.89, 86.21, 5.59 C 88.15 5.29, 90.28 4.97, 92.30, 4.76 C 94.33 4.55, 96.48 4.43, 98.44, 4.33" fill="#8d5b96" fill-opacity="0.600000" label="outline" layer="0" /><path d="M 200.23 0.00 C 201.68 1.70, 203.27 3.57, 204.70, 5.40 C 207.83 9.41, 209.87 12.67, 213.00, 16.68 C 214.43 18.51, 216.02 20.39, 217.47, 22.08 C 218.92 23.78, 220.51 25.65, 221.94, 27.48 C 225.08 31.49, 227.12 34.75, 230.25, 38.77 C 231.68 40.60, 233.27 42.47, 234.72, 44.16 C 236.17 45.86, 237.76 47.73, 239.19, 49.56 C 240.62 51.39, 242.05 53.39, 243.35, 55.21 C 241.09 56.03, 238.60 56.93, 236.22, 57.69 C 231.00 59.37, 226.95 60.24, 221.72, 61.91 C 219.34 62.67, 216.86 63.57, 214.60, 64.40 C 212.34 65.23, 209.85 66.13, 207.47, 66.89 C 205.09 67.65, 202.54 68.36, 200.23, 69.00 C 197.26 66.88, 193.99 64.55, 190.97, 62.26 C 187.94 59.98, 184.80 57.48, 181.95, 55.21 C 182.44 53.42, 182.98 51.45, 183.59, 49.62 C 184.91 45.61, 186.29 42.72, 187.62, 38.71 C 188.23 36.88, 188.77 34.91, 189.26, 33.12 C 189.75 31.33, 190.29 29.37, 190.90, 27.54 C 192.23 23.53, 193.60 20.64, 194.93, 16.62 C 195.54 14.80, 196.08 12.83, 196.57, 11.04 C 197.06 9.25, 197.60 7.29, 198.21, 5.46 C 198.81 3.63, 199.55 1.73, 200.23, 0.00" fill="#9d5a92" fill-opacity="0.572549" label="outline" layer="0" /><path d="M 85.14 16.04 C 86.92 15.90, 88.87 15.76, 90.73, 15.72 C 94.79 15.64, 97.85 15.97, 101.91, 15.89 C 103.77 15.85, 105.72 15.71, 107.50, 15.57 C 109.28 15.43, 111.23 15.29, 113.09, 15.25 C 117.15 15.17, 120.21 15.50, 124.27, 15.41 C 126.13 15.38, 128.08 15.23, 129.86, 15.10 C 131.64 14.96, 133.59 14.82, 135.45, 14.78 C 139.51 14.69, 142.57 15.03, 146.63, 14.94 C 148.49 14.90, 150.44 14.76, 152.22, 14.63 C 154.00 14.49, 155.95 14.35, 157.81, 14.31 C 159.66 14.27, 161.62 14.33, 163.40, 14.39 C 165.18 14.34, 167.14 14.30, 168.99, 14.36 C 173.06 14.48, 176.10 14.97, 180.16, 15.10 C 182.01 15.15, 183.97 15.11, 185.75, 15.06 C 187.54 15.02, 189.50 14.98, 191.35, 15.03 C 195.41 15.16, 198.45 15.65, 202.51, 15.77 C 204.36 15.83, 206.33 15.78, 208.11, 15.74 C 209.89 15.69, 211.85 15.65, 213.70, 15.71 C 217.76 15.83, 220.81 16.32, 224.87, 16.44 C 226.72 16.50, 228.68 16.46, 230.46, 16.41 C 232.24 16.37, 234.21 16.33, 236.06, 16.38 C 237.91 16.44, 239.86 16.60, 241.64, 16.75 C 241.13 18.95, 240.56 21.37, 239.92, 23.62 C 239.29 25.88, 238.52 28.25, 237.82, 30.39 C 236.71 32.36, 235.49 34.52, 234.25, 36.51 C 233.01 38.50, 231.62 40.56, 230.34, 42.42 C 228.13 42.89, 225.70 43.40, 223.39, 43.79 C 218.31 44.65, 214.43 44.90, 209.35, 45.75 C 207.03 46.14, 204.60 46.65, 202.40, 47.13 C 200.19 47.60, 197.76 48.11, 195.44, 48.50 C 190.37 49.36, 186.48 49.61, 181.40, 50.46 C 179.09 50.85, 176.66 51.36, 174.45, 51.84 C 172.24 52.31, 169.81 52.82, 167.50, 53.21 C 165.19 53.60, 162.72 53.91, 160.48, 54.19 C 158.25 54.54, 155.79 54.91, 153.46, 55.17 C 148.34 55.74, 144.45 55.77, 139.33, 56.33 C 137.00 56.59, 134.55 56.97, 132.32, 57.31 C 130.09 57.66, 127.63 58.04, 125.30, 58.29 C 120.18 58.86, 116.29 58.89, 111.17, 59.46 C 108.84 59.72, 106.38 60.09, 104.15, 60.44 C 101.92 60.79, 99.47 61.16, 97.13, 61.42 C 94.80 61.68, 92.32 61.85, 90.07, 62.00 C 89.26 58.40, 88.39 54.42, 87.65, 50.65 C 86.91 46.88, 86.23 42.87, 85.62, 39.23 C 85.44 35.54, 85.26 31.48, 85.18, 27.64 C 85.10 23.80, 85.12 19.73, 85.14, 16.04" fill="#9462a0" fill-opacity="0.643137" label="middle" layer="1" /><path d="M 12.43 0.00 C 12.25 1.83, 12.06 3.84, 11.97, 5.75 C 11.78 9.93, 12.04 13.09, 11.85, 17.27 C 11.76 19.18, 11.57 21.19, 11.39, 23.02 C 11.21 24.85, 11.02 26.86, 10.93, 28.77 C 10.84 30.67, 10.85 32.69, 10.87, 34.53 C 10.90 36.37, 10.94 38.39, 11.08, 40.29 C 11.37 44.46, 11.99 47.58, 12.28, 51.75 C 12.42 53.65, 12.46 55.67, 12.49, 57.51 C 12.52 59.35, 12.56 61.37, 12.70, 63.27 C 12.83 65.17, 13.07 67.18, 13.30, 69.00 C 14.92 69.16, 16.71 69.33, 18.41, 69.40 C 22.12 69.55, 24.93 69.25, 28.65, 69.40 C 30.34 69.47, 32.13 69.64, 33.76, 69.80 C 35.38 69.96, 37.17 70.13, 38.86, 70.20 C 42.58 70.35, 45.39 70.05, 49.11, 70.20 C 50.80 70.27, 52.59 70.44, 54.21, 70.60 C 55.84 70.76, 57.62 70.93, 59.32, 71.00 C 61.01 71.07, 62.81 71.04, 64.44, 71.00 C 66.07 71.04, 67.87 71.07, 69.56, 71.00 C 73.28 70.85, 76.06 70.35, 79.77, 70.20 C 81.46 70.13, 83.26 70.16, 84.89, 70.20 C 86.52 70.24, 88.32 70.27, 90.01, 70.20 C 93.73 70.05, 96.51 69.55, 100.22, 69.40 C 101.92 69.33, 103.71 69.36, 105.34, 69.40 C 106.98 69.44, 108.77 69.47, 110.46, 69.40 C 112.16 69.33, 113.95 69.16, 115.57, 69.00 C 114.30 67.11, 112.90 65.03, 111.49, 63.12 C 108.42 58.94, 105.78 56.03, 102.70, 51.84 C 101.30 49.94, 99.89 47.86, 98.62, 45.97 C 97.36 44.07, 95.95 42.00, 94.55, 40.09 C 93.14 38.18, 91.58 36.22, 90.15, 34.45 C 88.71 32.68, 87.12 30.75, 85.54, 28.98 C 82.09 25.10, 79.19 22.45, 75.74, 18.57 C 74.16 16.80, 72.57 14.86, 71.13, 13.10 C 69.69 11.33, 68.10 9.39, 66.52, 7.63 C 64.95 5.86, 63.21 4.05, 61.62, 2.42 C 57.74 1.81, 53.46 1.15, 49.40, 0.62 C 45.35 0.09, 41.04 -0.38, 37.13, -0.79 C 33.20 -0.76, 28.86 -0.73, 24.77, -0.59 C 20.68 -0.46, 16.36 -0.23, 12.43, -0.00" fill="#875388" fill-opacity="0.239216" label="middle" layer="1" /><path d="M 13.54 16.51 C 15.51 16.65, 17.68 16.81, 19.72, 17.06 C 24.19 17.60, 27.50 18.41, 31.97, 18.96 C 34.01 19.20, 36.18 19.37, 38.15, 19.51 C 40.12 19.65, 42.29 19.81, 44.32, 20.06 C 48.80 20.60, 52.11 21.41, 56.58, 21.95 C 58.62 22.20, 60.79 22.36, 62.76, 22.50 C 64.73 22.64, 66.89 22.80, 68.93, 23.05 C 70.97 23.30, 73.11 23.66, 75.06, 24.00 C 77.02 24.27, 79.17 24.57, 81.19, 24.95 C 85.62 25.78, 88.87 26.79, 93.30, 27.63 C 95.32 28.00, 97.47 28.31, 99.43, 28.57 C 101.39 28.84, 103.54 29.14, 105.56, 29.52 C 109.98 30.35, 113.24 31.37, 117.67, 32.20 C 119.68 32.58, 121.84 32.88, 123.80, 33.14 C 125.75 33.41, 127.91 33.71, 129.92, 34.09 C 131.94 34.47, 134.06 34.97, 135.98, 35.43 C 134.06 35.88, 131.94 36.37, 129.92, 36.74 C 125.49 37.54, 122.09 37.75, 117.67, 38.56 C 115.65 38.93, 113.53 39.41, 111.61, 39.87 C 109.69 40.32, 107.57 40.80, 105.55, 41.17 C 101.12 41.98, 97.72 42.19, 93.29, 43.00 C 91.28 43.36, 89.16 43.85, 87.24, 44.30 C 85.31 44.75, 83.20 45.24, 81.18, 45.61 C 79.16 45.98, 77.01 46.27, 75.05, 46.52 C 73.10 46.85, 70.96 47.19, 68.92, 47.43 C 64.45 47.95, 61.04 47.94, 56.57, 48.46 C 54.54 48.69, 52.39 49.04, 50.45, 49.37 C 48.50 49.69, 46.36 50.04, 44.32, 50.28 C 39.85 50.80, 36.44 50.79, 31.97, 51.31 C 29.93 51.54, 27.79 51.89, 25.84, 52.22 C 23.90 52.54, 21.75 52.89, 19.71, 53.13 C 17.68 53.36, 15.51 53.51, 13.54, 53.64 C 12.97 52.26, 12.35 50.73, 11.86, 49.26 C 11.36 47.79, 10.93 46.21, 10.55, 44.76 C 10.61 43.26, 10.68 41.62, 10.85, 40.07 C 11.01 38.53, 11.28 36.90, 11.54, 35.43 C 11.28 33.90, 11.01 32.22, 10.85, 30.62 C 10.68 29.01, 10.61 27.31, 10.55, 25.76 C 10.93 24.26, 11.36 22.61, 11.85, 21.07 C 12.35 19.54, 12.97 17.95, 13.54, 16.51" fill="#9a609f" fill-opacity="0.811765" label="middle" layer="1" /><path d="M 240.15 7.40 C 238.31 6.48, 236.27 5.47, 234.31, 4.61 C 232.35 3.75, 230.23 2.93, 228.31, 2.19 C 226.27 1.88, 224.03 1.54, 221.90, 1.32 C 219.77 1.10, 217.51 0.96, 215.45, 0.85 C 215.16 2.60, 214.86 4.54, 214.67, 6.37 C 214.24 10.40, 214.32 13.48, 213.89, 17.51 C 213.70 19.34, 213.40 21.28, 213.11, 23.03 C 212.82 24.78, 212.52 26.72, 212.33, 28.55 C 212.13 30.39, 212.03 32.34, 211.94, 34.12 C 211.87 35.90, 211.79 37.85, 211.82, 39.70 C 211.88 43.75, 212.33 46.79, 212.38, 50.84 C 212.41 52.68, 212.34 54.64, 212.27, 56.41 C 212.19 58.19, 212.12 60.14, 212.15, 61.99 C 212.18 63.84, 212.30 65.79, 212.43, 67.56 C 213.91 68.19, 215.53 68.87, 217.10, 69.43 C 218.67 69.98, 220.37 70.48, 221.91, 70.92 C 223.51 70.92, 225.27 70.91, 226.93, 70.81 C 228.59 70.71, 230.34 70.50, 231.93, 70.30 C 232.35 68.66, 232.81 66.86, 233.14, 65.14 C 233.88 61.36, 234.04 58.44, 234.78, 54.67 C 235.11 52.94, 235.57 51.14, 235.99, 49.51 C 236.41 47.87, 236.87 46.07, 237.20, 44.35 C 237.54 42.62, 237.80 40.78, 238.02, 39.11 C 238.23 37.43, 238.46 35.59, 238.57, 33.84 C 238.83 30.00, 238.63 27.08, 238.89, 23.24 C 239.00 21.49, 239.23 19.65, 239.44, 17.97 C 239.65 16.29, 239.88 14.45, 239.99, 12.70 C 240.11 10.95, 240.14 9.09, 240.15, 7.40" fill="#af5786" fill-opacity="0.290196" label="middle" layer="1" /><path d="M 69.06 9.42 C 70.49 11.14, 72.08 13.03, 73.65, 14.76 C 77.09 18.54, 79.97 21.11, 83.41, 24.89 C 84.98 26.61, 86.56 28.50, 87.99, 30.23 C 89.43 31.95, 91.01 33.84, 92.58, 35.56 C 94.15 37.29, 95.88 39.04, 97.46, 40.63 C 99.05 42.21, 100.81 43.94, 102.53, 45.51 C 106.32 48.94, 109.43 51.23, 113.21, 54.67 C 114.94 56.23, 116.70 57.96, 118.29, 59.54 C 119.88 61.12, 121.63 62.85, 123.36, 64.42 C 125.08 65.99, 126.98 67.57, 128.70, 69.00 C 129.37 67.71, 130.10 66.28, 130.71, 64.89 C 131.31 63.51, 131.86 62.00, 132.35, 60.63 C 132.41 59.18, 132.46 57.57, 132.41, 56.06 C 132.37 54.55, 132.22 52.96, 132.08, 51.51 C 132.48 48.47, 132.90 45.12, 133.21, 41.95 C 133.52 38.78, 133.74 35.41, 133.94, 32.35 C 133.70 29.29, 133.42 25.93, 133.07, 22.76 C 132.71 19.59, 132.24 16.25, 131.80, 13.22 C 130.15 12.91, 128.34 12.59, 126.62, 12.37 C 122.83 11.90, 119.94 11.94, 116.15, 11.47 C 114.43 11.26, 112.61 10.93, 110.97, 10.63 C 109.32 10.32, 107.51 9.99, 105.78, 9.78 C 104.06 9.57, 102.22 9.44, 100.55, 9.33 C 98.88 9.23, 97.04 9.14, 95.30, 9.15 C 91.49 9.16, 88.62 9.56, 84.81, 9.57 C 83.07 9.58, 81.23 9.49, 79.56, 9.39 C 77.89 9.29, 76.05 9.20, 74.31, 9.21 C 72.57 9.21, 70.73 9.32, 69.06, 9.42" fill="#9f5b98" fill-opacity="0.486275" label="middle" layer="1" /><path d="M 171.61 0.00 C 172.03 1.30, 172.48 2.73, 172.81, 4.11 C 173.55 7.13, 173.71 9.50, 174.45, 12.52 C 174.78 13.89, 175.23 15.33, 175.65, 16.63 C 176.07 17.93, 176.52 19.36, 176.85, 20.74 C 177.19 22.11, 177.45 23.59, 177.67, 24.94 C 177.88 26.29, 178.11 27.77, 178.22, 29.19 C 178.48 32.29, 178.28 34.65, 178.54, 37.75 C 178.65 39.16, 178.88 40.64, 179.09, 41.99 C 179.30 43.34, 179.53 44.83, 179.64, 46.24 C 179.76 47.65, 179.79 49.15, 179.80, 50.52 C 178.69 52.22, 177.46 54.09, 176.22, 55.80 C 174.98 57.51, 173.59 59.26, 172.32, 60.84 C 170.74 62.11, 168.99 63.50, 167.28, 64.74 C 165.57 65.98, 163.70 67.21, 162.00, 68.32 C 161.29 66.75, 160.51 65.03, 159.87, 63.36 C 159.22 61.70, 158.64 59.90, 158.11, 58.26 C 158.02 56.54, 157.92 54.65, 157.93, 52.87 C 157.94 51.08, 158.04 49.20, 158.15, 47.48 C 158.82 43.60, 159.56 39.32, 160.35, 35.30 C 161.15 31.28, 162.09 27.04, 162.95, 23.20 C 164.23 19.47, 165.66 15.37, 167.09, 11.53 C 168.53 7.69, 170.14 3.66, 171.61, 0.00" fill="#6267a4" fill-opacity="0.517647" label="middle" layer="1" /><path d="M 231.20 12.41 C 232.16 13.57, 233.21 14.86, 234.13, 16.13 C 235.04 17.40, 235.93 18.80, 236.73, 20.08 C 237.12 21.54, 237.54 23.14, 237.85, 24.68 C 238.16 26.21, 238.38 27.86, 238.58, 29.35 C 237.76 32.60, 236.85 36.17, 235.89, 39.52 C 234.94 42.88, 233.83 46.40, 232.82, 49.59 C 231.40 52.62, 229.83 55.96, 228.25, 59.07 C 226.68 62.18, 224.93 65.43, 223.33, 68.37 C 223.19 65.11, 223.04 61.51, 223.00, 58.12 C 222.96 54.72, 223.01 51.13, 223.07, 47.86 C 223.56 44.63, 224.11 41.08, 224.73, 37.74 C 225.34 34.40, 226.09 30.88, 226.78, 27.69 C 226.73 26.38, 226.68 24.94, 226.73, 23.58 C 226.77 22.22, 226.92 20.79, 227.07, 19.49 C 227.64 18.31, 228.28 17.02, 228.96, 15.85 C 229.65 14.68, 230.46 13.49, 231.20, 12.41" fill="#9d64a4" fill-opacity="0.462745" label="middle" layer="1" /><path d="M 91.77 68.49 C 92.41 69.00, 93.12 69.54, 93.85, 69.98 C 94.57 70.42, 95.38 70.80, 96.13, 71.13 C 96.94 71.01, 97.82 70.88, 98.63, 70.66 C 99.44 70.44, 100.28 70.11, 101.03, 69.80 C 101.33 67.98, 101.65 65.98, 101.86, 64.07 C 102.32 59.90, 102.27 56.71, 102.73, 52.53 C 102.94 50.63, 103.26 48.63, 103.56, 46.81 C 103.86 44.99, 104.18 42.98, 104.39, 41.08 C 104.60 39.18, 104.72 37.15, 104.82, 35.31 C 104.91 33.47, 104.99 31.44, 104.98, 29.53 C 104.95 25.33, 104.53 22.17, 104.51, 17.97 C 104.49 16.05, 104.58 14.02, 104.67, 12.18 C 104.75 10.34, 104.84 8.32, 104.83, 6.40 C 104.82 4.49, 104.70 2.46, 104.59, 0.62 C 103.09 2.48, 101.46 4.53, 99.98, 6.52 C 98.51 8.52, 97.03 10.68, 95.70, 12.66 C 94.75 14.85, 93.71 17.26, 92.81, 19.57 C 91.92 21.89, 91.07 24.37, 90.30, 26.63 C 90.00 29.97, 89.68 33.64, 89.47, 37.12 C 89.26 40.60, 89.14 44.28, 89.04, 47.63 C 89.38 50.96, 89.75 54.63, 90.21, 58.09 C 90.66 61.54, 91.24 65.18, 91.77, 68.49" fill="#8363a2" fill-opacity="0.498039" label="middle" layer="1" /><path d="M 168.55 16.50 C 168.38 17.93, 168.18 19.50, 167.90, 20.97 C 167.29 24.18, 166.44 26.53, 165.82, 29.75 C 165.54 31.21, 165.35 32.79, 165.18, 34.21 C 165.01 35.64, 164.81 37.21, 164.53, 38.68 C 164.25 40.15, 163.86 41.68, 163.49, 43.07 C 163.11 44.46, 162.68 45.98, 162.19, 47.39 C 161.11 50.49, 159.92 52.68, 158.84, 55.78 C 158.35 57.19, 157.92 58.71, 157.54, 60.10 C 157.16 61.49, 156.74 63.02, 156.25, 64.43 C 155.75 65.84, 155.14 67.30, 154.57, 68.62 C 154.34 68.97, 154.08 69.35, 153.77, 69.65 C 153.46 69.94, 153.07 70.17, 152.70, 70.38 C 152.41 70.08, 152.09 69.74, 151.87, 69.38 C 151.66 69.01, 151.51 68.57, 151.39, 68.17 C 151.45 66.33, 151.52 64.32, 151.69, 62.41 C 152.05 58.24, 152.71 55.14, 153.07, 50.97 C 153.24 49.07, 153.31 47.05, 153.37, 45.22 C 153.43 43.38, 153.50 41.36, 153.67, 39.46 C 153.83 37.56, 154.10 35.56, 154.36, 33.74 C 154.63 31.92, 154.94 29.93, 155.32, 28.06 C 156.16 23.96, 157.18 20.95, 158.02, 16.85 C 158.40 14.98, 158.71 12.98, 158.98, 11.17 C 159.25 9.35, 159.56 7.35, 159.94, 5.48 C 160.32 3.61, 160.82 1.66, 161.29, -0.12 C 162.24 1.02, 163.28 2.27, 164.19, 3.52 C 165.09 4.76, 165.97 6.14, 166.76, 7.39 C 167.14 8.82, 167.55 10.40, 167.85, 11.91 C 168.15 13.42, 168.36 15.03, 168.55, 16.50" fill="#565e96" fill-opacity="0.400000" label="middle" layer="1" /><path d="M 208.41 0.01 C 209.18 2.77, 210.03 5.82, 210.73, 8.72 C 211.43 11.62, 212.08 14.72, 212.66, 17.53 C 212.81 20.40, 212.96 23.56, 213.00, 26.54 C 213.05 29.53, 213.00 32.69, 212.95, 35.56 C 212.21 38.32, 211.39 41.36, 210.52, 44.21 C 209.65 47.05, 208.64 50.03, 207.71, 52.74 C 206.38 55.27, 204.90 58.06, 203.43, 60.64 C 201.95 63.22, 200.30 65.91, 198.80, 68.34 C 198.61 65.58, 198.40 62.55, 198.31, 59.67 C 198.21 56.80, 198.20 53.75, 198.21, 50.99 C 198.65 48.26, 199.15 45.26, 199.71, 42.44 C 200.28 39.62, 200.97 36.66, 201.61, 33.97 C 201.74 31.20, 201.89 28.15, 202.13, 25.27 C 202.37 22.39, 202.72 19.36, 203.05, 16.60 C 203.81 13.93, 204.65 10.99, 205.54, 8.24 C 206.43 5.50, 207.46 2.62, 208.41, 0.01" fill="#995b98" fill-opacity="0.552941" label="middle" layer="1" /><path d="M 32.16 34.76 Q 31.56 35.56, 31.41 34.57 L 30.05 25.24 Q 29.90 24.25, 30.35 23.36 L 41.47 1.48 Q 41.92 0.59, 41.86 1.59 L 40.51 22.80 Q 40.45 23.80, 39.85 24.60 L 32.16 34.76" fill="#834b7d" fill-opacity="0.639216" label="detail" layer="2" /><path d="M 231.13 20.09 Q 231.80 19.34, 232.64 19.89 L 238.03 23.43 Q 238.87 23.98, 238.70 24.97 L 233.42 55.12 Q 233.25 56.11, 232.53 55.41 L 215.64 38.95 Q 214.92 38.25, 215.59 37.50 L 231.13 20.09" fill="#9b5c94" fill-opacity="0.819608" label="detail" layer="2" /><path d="M 79.36 0.31 Q 79.54 -0.67, 79.83 0.29 L 96.00 54.10 Q 96.29 55.06, 95.30 55.16 L 72.34 57.52 Q 71.35 57.62, 71.17 56.64 L 70.38 52.38 Q 70.20 51.40, 70.38 50.42 L 79.36 0.31" fill="#8e6bae" fill-opacity="0.337255" label="detail" layer="2" /><path d="M 122.61 1.76 Q 122.35 0.79, 122.21 1.78 L 113.17 66.15 Q 113.03 67.14, 113.42 66.22 L 129.23 28.99 Q 129.62 28.07, 129.36 27.10 L 122.61 1.76" fill="#a85892" fill-opacity="0.403922" label="detail" layer="2" /><path d="M 146.75 9.97 Q 146.45 9.01, 147.34 9.46 L 181.48 26.64 Q 182.37 27.09, 182.03 28.03 L 167.18 68.66 Q 166.84 69.60, 165.85 69.46 L 166.07 69.49 Q 165.08 69.35, 164.78 68.39 L 146.75 9.97" fill="#786cac" fill-opacity="0.462745" label="detail" layer="2" /></g>
<g><text style="font-size: 20px;" x="15" y="20">bpm: 187</text><text style="font-size: 20px;" x="15" y="40">Mood: 9</text><text style="font-size: 20px;" x="15" y="60">Density: 5</text><text style="font-size: 20px;" x="15" y="80">Gravity: 1</text><text style="font-size: 20px;" x="15" y="100">Energy: 9</text><text style="font-size: 20px;" x="15" y="120">Ensemble: 1</text><text style="font-size: 20px;" x="15" y="140">Melody: 8</text><text style="font-size: 20px;" x="15" y="160">Tension: 2</text><text style="font-size: 20px;" x="15" y="180">Rhythm: 8</text><text style="font-size: 20px;" x="15" y="200"># shapes=20</text></g></svg>