<svg xmlns="http://www.w3.org/2000/svg" height="280" preserveAspectRatio="none" version="1.1" width="930">
<rect fill="none" height="280" width="1024" x="0" y="0" />
<g transform="scale(4.0000) translate(-11.13636363636364, 0.5)">
<path d="M 255.00 28.20 C 253.25 27.86, 251.32 27.50, 249.48, 27.24 C 245.44 26.69, 242.36 26.67, 238.32, 26.12 C 236.49 25.87, 234.56 25.50, 232.80, 25.16 C 231.05 24.82, 229.12 24.46, 227.28, 24.20 C 223.25 23.65, 220.16 23.63, 216.13, 23.08 C 214.29 22.83, 212.36 22.46, 210.61, 22.12 C 208.85 21.78, 206.92 21.42, 205.08, 21.17 C 201.05 20.61, 197.96 20.59, 193.93, 20.04 C 192.09 19.79, 190.16 19.43, 188.41, 19.08 C 186.65 18.74, 184.72 18.38, 182.89, 18.13 C 178.85 17.57, 175.77 17.56, 171.73, 17.00 C 169.89 16.75, 167.96 16.39, 166.21, 16.05 C 164.46 15.70, 162.53 15.34, 160.69, 15.09 C 158.85 14.84, 156.89 14.67, 155.11, 14.53 C 153.00 14.79, 150.68 15.10, 148.50, 15.48 C 143.71 16.31, 140.19 17.34, 135.41, 18.17 C 133.23 18.55, 130.90 18.86, 128.79, 19.13 C 126.68 19.39, 124.36 19.70, 122.18, 20.08 C 117.39 20.91, 113.87 21.94, 109.09, 22.77 C 106.91 23.15, 104.58 23.46, 102.47, 23.73 C 100.36 23.99, 98.04 24.30, 95.86, 24.68 C 91.07 25.51, 87.55 26.54, 82.76, 27.37 C 80.59 27.75, 78.26 28.06, 76.15, 28.33 C 74.04 28.59, 71.71 28.90, 69.54, 29.28 C 64.75 30.11, 61.23 31.14, 56.44, 31.97 C 54.26 32.35, 51.94 32.66, 49.83, 32.93 C 47.72 33.19, 45.39 33.50, 43.21, 33.88 C 38.43 34.71, 34.91 35.74, 30.12, 36.57 C 27.94 36.95, 25.62 37.26, 23.51, 37.53 C 21.40 37.79, 19.07 38.10, 16.89, 38.48 C 14.72 38.86, 12.43 39.36, 10.35, 39.83 C 12.29 40.10, 14.43 40.40, 16.45, 40.58 C 20.90 40.99, 24.29 40.90, 28.74, 41.30 C 30.77 41.49, 32.90 41.78, 34.84, 42.06 C 36.78 42.34, 38.92 42.63, 40.95, 42.82 C 45.40 43.22, 48.78 43.13, 53.23, 43.53 C 55.26 43.72, 57.40 44.01, 59.34, 44.29 C 61.28 44.57, 63.41 44.86, 65.44, 45.05 C 69.89 45.45, 73.27 45.36, 77.72, 45.77 C 79.75 45.95, 81.89 46.25, 83.83, 46.52 C 85.77 46.80, 87.91 47.10, 89.94, 47.28 C 94.39 47.69, 97.77 47.59, 102.22, 48.00 C 104.25 48.18, 106.38 48.48, 108.32, 48.76 C 110.26 49.03, 112.40 49.33, 114.43, 49.51 C 118.88 49.92, 122.26 49.83, 126.71, 50.23 C 128.74 50.42, 130.88 50.71, 132.82, 50.99 C 134.76 51.27, 136.90 51.56, 138.92, 51.75 C 143.37 52.15, 146.76 52.06, 151.21, 52.47 C 153.23 52.65, 155.37 52.95, 157.31, 53.22 C 159.25 53.50, 161.39 53.80, 163.42, 53.98 C 167.87 54.39, 171.25 54.29, 175.70, 54.70 C 177.73 54.88, 179.87 55.18, 181.81, 55.46 C 183.75 55.73, 185.88 56.03, 187.91, 56.21 C 189.94 56.40, 192.09 56.49, 194.05, 56.57 C 196.03 55.76, 198.21 54.86, 200.23, 53.92 C 204.66 51.85, 207.82 49.94, 212.25, 47.88 C 214.27 46.94, 216.45 46.04, 218.43, 45.22 C 220.41 44.41, 222.59 43.51, 224.61, 42.57 C 229.04 40.51, 232.20 38.59, 236.63, 36.53 C 238.65 35.59, 240.83 34.69, 242.81, 33.88 C 244.79 33.06, 246.97 32.16, 248.99, 31.22 C 251.01 30.28, 253.10 29.20, 255.00, 28.20" fill="#6e73ae" fill-opacity="0.945098" label="outline" layer="0" /><path d="M 78.10 3.46 C 79.94 4.02, 81.97 4.65, 83.85, 5.33 C 87.98 6.83, 90.96 8.33, 95.09, 9.82 C 96.97 10.50, 99.00 11.13, 100.84, 11.69 C 102.69 12.25, 104.71 12.88, 106.60, 13.56 C 110.73 15.05, 113.70 16.55, 117.83, 18.05 C 119.71 18.73, 121.74 19.35, 123.59, 19.91 C 125.43 20.47, 127.46 21.10, 129.34, 21.78 C 133.47 23.28, 136.44 24.78, 140.57, 26.27 C 142.46 26.95, 144.48 27.58, 146.33, 28.14 C 148.17 28.70, 150.20 29.32, 152.08, 30.01 C 153.97 30.69, 155.92 31.50, 157.70, 32.25 C 155.93 33.18, 153.98 34.19, 152.10, 35.06 C 147.97 36.96, 144.69 38.04, 140.56, 39.94 C 138.68 40.81, 136.72 41.82, 134.96, 42.75 C 133.19 43.68, 131.24 44.69, 129.35, 45.56 C 125.22 47.46, 121.95 48.54, 117.82, 50.44 C 115.93 51.31, 113.98 52.32, 112.21, 53.25 C 110.45 54.18, 108.49 55.19, 106.61, 56.06 C 102.48 57.96, 99.20 59.04, 95.07, 60.94 C 93.19 61.81, 91.24 62.82, 89.47, 63.75 C 87.70 64.68, 85.75 65.69, 83.87, 66.56 C 81.98 67.43, 79.95 68.26, 78.10, 69.00 C 76.28 68.25, 74.28 67.43, 72.43, 66.56 C 68.38 64.65, 65.50 62.85, 61.45, 60.94 C 59.60 60.07, 57.60 59.24, 55.78, 58.50 C 53.97 57.75, 51.97 56.93, 50.12, 56.06 C 46.07 54.15, 43.19 52.35, 39.13, 50.44 C 37.29 49.57, 35.29 48.74, 33.47, 48.00 C 31.65 47.25, 29.65 46.43, 27.81, 45.56 C 23.75 43.65, 20.87 41.85, 16.82, 39.94 C 14.97 39.07, 12.98 38.24, 11.16, 37.50 C 9.34 36.75, 7.34 35.93, 5.49, 35.06 C 3.65 34.19, 1.73 33.18, 0.00, 32.25 C 1.74 31.50, 3.66 30.69, 5.51, 30.01 C 9.56 28.51, 12.75 27.76, 16.80, 26.27 C 18.65 25.59, 20.57 24.77, 22.31, 24.03 C 24.05 23.28, 25.98 22.46, 27.82, 21.78 C 31.88 20.29, 35.06 19.54, 39.12, 18.04 C 40.97 17.36, 42.89 16.55, 44.63, 15.80 C 46.37 15.05, 48.29 14.24, 50.14, 13.56 C 54.19 12.06, 57.38 11.31, 61.43, 9.82 C 63.28 9.14, 65.20 8.32, 66.94, 7.58 C 68.68 6.83, 70.60 6.01, 72.45, 5.33 C 74.30 4.65, 76.29 4.03, 78.10, 3.46" fill="#686da7" fill-opacity="0.745098" label="outline" layer="0" /><path d="M 132.50 2.04 C 134.28 2.10, 136.24 2.17, 138.09, 2.34 C 142.13 2.71, 145.14 3.38, 149.19, 3.75 C 151.03 3.91, 152.99 3.99, 154.78, 4.05 C 156.56 4.11, 158.52 4.19, 160.36, 4.36 C 164.41 4.72, 167.42 5.40, 171.46, 5.76 C 173.31 5.93, 175.27 6.01, 177.05, 6.07 C 178.83 6.13, 180.79 6.21, 182.64, 6.37 C 186.69 6.74, 189.69 7.41, 193.74, 7.78 C 195.58 7.95, 197.54 8.02, 199.33, 8.08 C 201.11 8.14, 203.07 8.22, 204.91, 8.39 C 206.76 8.56, 208.70 8.83, 210.46, 9.09 C 211.74 10.25, 213.15 11.53, 214.40, 12.81 C 217.16 15.61, 218.95 18.00, 221.71, 20.80 C 222.97 22.08, 224.37 23.36, 225.65, 24.52 C 226.93 25.67, 228.33 26.96, 229.59, 28.23 C 232.35 31.04, 234.14 33.42, 236.90, 36.23 C 238.15 37.50, 239.56 38.78, 240.83, 39.94 C 242.11 41.10, 243.52 42.38, 244.77, 43.66 C 246.03 44.94, 247.29 46.36, 248.43, 47.66 C 246.36 48.13, 244.08 48.64, 241.91, 49.04 C 237.14 49.90, 233.49 50.15, 228.72, 51.02 C 226.55 51.41, 224.27 51.92, 222.20, 52.40 C 220.13 52.87, 217.85 53.39, 215.68, 53.78 C 210.92 54.64, 207.26 54.90, 202.50, 55.76 C 200.33 56.15, 198.05 56.67, 195.98, 57.14 C 193.91 57.62, 191.63 58.13, 189.46, 58.52 C 184.70 59.39, 181.04 59.64, 176.28, 60.50 C 174.11 60.90, 171.83 61.41, 169.76, 61.89 C 167.69 62.36, 165.41 62.87, 163.24, 63.27 C 158.47 64.13, 154.82 64.38, 150.05, 65.25 C 147.88 65.64, 145.60 66.15, 143.53, 66.63 C 141.46 67.10, 139.18 67.62, 137.01, 68.01 C 134.84 68.40, 132.53 68.72, 130.42, 69.00 C 130.39 66.87, 130.36 64.52, 130.43, 62.30 C 130.58 57.43, 131.09 53.78, 131.24, 48.92 C 131.31 46.70, 131.29 44.35, 131.25, 42.21 C 131.22 40.08, 131.19 37.73, 131.26, 35.51 C 131.41 30.65, 131.92 27.00, 132.08, 22.13 C 132.14 19.91, 132.12 17.56, 132.08, 15.43 C 132.05 13.29, 132.02 10.94, 132.09, 8.73 C 132.16 6.51, 132.33 4.17, 132.50, 2.04" fill="#6e73ad" fill-opacity="0.580392" label="outline" layer="0" /><path d="M 101.60 55.71 C 101.60 54.06, 101.59 52.25, 101.49, 50.54 C 101.26 46.78, 100.69 43.99, 100.47, 40.23 C 100.36 38.52, 100.35 36.71, 100.35, 35.06 C 100.35 33.41, 100.34 31.59, 100.24, 29.88 C 100.01 26.13, 99.45 23.33, 99.22, 19.58 C 99.12 17.87, 99.11 16.05, 99.11, 14.40 C 99.11 12.75, 99.10 10.93, 98.99, 9.22 C 98.89 7.51, 98.68 5.71, 98.48, 4.07 C 96.47 4.76, 94.25 5.52, 92.20, 6.33 C 87.68 8.11, 84.43 9.82, 79.91, 11.60 C 77.86 12.41, 75.64 13.17, 73.63, 13.86 C 71.61 14.54, 69.40 15.31, 67.34, 16.12 C 62.82 17.90, 59.57 19.61, 55.06, 21.38 C 53.00 22.19, 50.79 22.96, 48.77, 23.64 C 46.76 24.33, 44.54 25.09, 42.48, 25.90 C 37.97 27.68, 34.72 29.39, 30.20, 31.17 C 28.14 31.98, 25.93 32.75, 23.91, 33.43 C 21.90 34.12, 19.68 34.88, 17.63, 35.69 C 15.57 36.50, 13.43 37.45, 11.49, 38.32 C 11.12 39.62, 10.73 41.06, 10.46, 42.43 C 10.18 43.80, 9.99 45.27, 9.82, 46.61 C 11.90 46.92, 14.19 47.24, 16.36, 47.46 C 21.12 47.93, 24.75 47.89, 29.51, 48.36 C 31.68 48.58, 33.97 48.90, 36.05, 49.21 C 38.12 49.52, 40.41 49.84, 42.58, 50.06 C 47.35 50.53, 50.97 50.49, 55.73, 50.96 C 57.90 51.18, 60.19 51.51, 62.27, 51.81 C 64.34 52.12, 66.63 52.45, 68.80, 52.66 C 73.57 53.13, 77.19 53.09, 81.95, 53.56 C 84.12 53.78, 86.41 54.11, 88.49, 54.41 C 90.57 54.72, 92.85 55.05, 95.03, 55.26 C 97.20 55.48, 99.50 55.61, 101.60, 55.71" fill="#7777b7" fill-opacity="0.541176" label="outline" layer="0" /><path d="M 217.99 62.71 C 218.05 60.36, 218.09 57.78, 218.04, 55.34 C 217.93 49.98, 217.45 45.96, 217.34, 40.61 C 217.29 38.17, 217.33 35.58, 217.38, 33.23 C 217.43 30.89, 217.48 28.30, 217.43, 25.86 C 217.38 23.42, 217.23 20.84, 217.08, 18.49 C 215.07 18.08, 212.85 17.64, 210.74, 17.31 C 206.12 16.60, 202.58 16.45, 197.95, 15.74 C 195.84 15.41, 193.63 14.97, 191.61, 14.56 C 189.60 14.14, 187.39 13.70, 185.28, 13.37 C 180.65 12.66, 177.11 12.51, 172.49, 11.80 C 170.38 11.47, 168.16 11.03, 166.15, 10.62 C 164.14 10.20, 161.92 9.76, 159.82, 9.43 C 155.19 8.72, 151.65 8.58, 147.02, 7.86 C 144.91 7.53, 142.70 7.09, 140.69, 6.68 C 138.68 6.26, 136.46 5.82, 134.35, 5.49 C 132.24 5.17, 130.00 4.92, 127.96, 4.71 C 127.95 6.49, 127.95 8.46, 128.05, 10.31 C 128.27 14.38, 128.83 17.42, 129.04, 21.48 C 129.14 23.34, 129.15 25.30, 129.14, 27.09 C 129.13 28.88, 129.14 30.84, 129.24, 32.70 C 129.45 36.76, 130.01 39.80, 130.23, 43.87 C 130.33 45.72, 130.33 47.69, 130.32, 49.47 C 130.32 51.26, 130.32 53.23, 130.42, 55.08 C 130.52 56.93, 130.72 58.89, 130.92, 60.67 C 132.89 60.81, 135.07 60.96, 137.13, 61.01 C 141.65 61.12, 145.06 60.80, 149.58, 60.90 C 151.64 60.95, 153.82 61.10, 155.80, 61.25 C 157.77 61.40, 159.95 61.55, 162.01, 61.60 C 166.53 61.70, 169.94 61.38, 174.46, 61.49 C 176.52 61.54, 178.70 61.69, 180.68, 61.83 C 182.65 61.98, 184.83 62.13, 186.89, 62.18 C 191.41 62.29, 194.82 61.97, 199.34, 62.07 C 201.40 62.12, 203.58 62.27, 205.55, 62.42 C 207.53 62.56, 209.71 62.72, 211.77, 62.76 C 213.83 62.81, 216.01 62.76, 217.99, 62.71" fill="#7375b0" fill-opacity="0.349020" label="outline" layer="0" /><path d="M 42.00 7.00 C 41.79 8.45, 41.58 10.05, 41.47, 11.57 C 41.22 14.90, 41.44 17.43, 41.20, 20.76 C 41.09 22.28, 40.87 23.88, 40.67, 25.33 C 40.46 26.79, 40.24 28.38, 40.13, 29.90 C 40.02 31.42, 40.01 33.03, 40.00, 34.50 C 40.01 35.97, 40.02 37.58, 40.13, 39.10 C 40.38 42.43, 40.96 44.90, 41.20, 48.24 C 41.31 49.75, 41.33 51.37, 41.33, 52.83 C 41.34 54.30, 41.36 55.91, 41.47, 57.43 C 41.58 58.95, 41.79 60.55, 42.00, 62.00 C 43.52 61.16, 45.19 60.23, 46.72, 59.27 C 50.07 57.17, 52.38 55.25, 55.73, 53.15 C 57.26 52.19, 58.93 51.26, 60.45, 50.42 C 61.97 49.58, 63.64 48.65, 65.16, 47.69 C 66.69 46.74, 68.26 45.64, 69.67, 44.63 C 71.08 43.61, 72.62 42.49, 74.02, 41.35 C 77.09 38.85, 79.14 36.66, 82.21, 34.16 C 83.61 33.02, 85.15 31.89, 86.56, 30.88 C 87.96 29.86, 89.51 28.73, 90.90, 27.59 C 92.30 26.45, 93.72 25.17, 95.00, 24.00 C 93.66 23.36, 92.19 22.66, 90.76, 22.08 C 87.62 20.82, 85.12 20.25, 81.98, 18.99 C 80.55 18.41, 79.08 17.71, 77.74, 17.07 C 76.40 16.42, 74.93 15.72, 73.50, 15.15 C 72.07 14.57, 70.52 14.06, 69.11, 13.60 C 67.70 13.15, 66.14 12.67, 64.64, 12.31 C 61.36 11.51, 58.79 11.29, 55.51, 10.49 C 54.01 10.13, 52.45 9.65, 51.04, 9.20 C 49.62 8.75, 48.06 8.27, 46.57, 7.91 C 45.07 7.54, 43.46 7.25, 42.00, 7.00" fill="#7173b6" fill-opacity="0.494118" label="middle" layer="1" /><path d="M 230.85 21.35 C 232.21 22.23, 233.71 23.21, 235.06, 24.21 C 236.42 25.22, 237.80 26.36, 239.04, 27.40 C 239.96 28.74, 240.96 30.22, 241.83, 31.66 C 242.69 33.11, 243.52 34.69, 244.27, 36.13 C 243.40 36.98, 242.43 37.90, 241.45, 38.70 C 240.48 39.50, 239.38 40.27, 238.38, 40.96 C 237.20 41.25, 235.89 41.55, 234.65, 41.74 C 233.40 41.94, 232.06 42.04, 230.85, 42.13 C 230.05 41.99, 229.17 41.83, 228.37, 41.59 C 227.57 41.34, 226.75 40.99, 226.01, 40.66 C 225.56 39.98, 225.08 39.23, 224.70, 38.48 C 224.33 37.73, 224.02 36.90, 223.75, 36.13 C 223.93 34.79, 224.14 33.33, 224.43, 31.96 C 224.72 30.59, 225.12 29.16, 225.50, 27.87 C 226.27 26.77, 227.13 25.56, 228.02, 24.48 C 228.91 23.40, 229.92 22.32, 230.85, 21.35" fill="#557099" fill-opacity="0.756863" label="middle" layer="1" /><path d="M 180.00 0.00 C 179.79 1.82, 179.58 3.83, 179.47, 5.74 C 179.22 9.92, 179.44 13.08, 179.20, 17.26 C 179.09 19.17, 178.87 21.18, 178.67, 23.00 C 178.46 24.82, 178.24 26.83, 178.13, 28.74 C 178.02 30.64, 178.01 32.66, 178.00, 34.50 C 178.01 36.34, 178.02 38.36, 178.13, 40.26 C 178.38 44.44, 178.96 47.56, 179.20, 51.74 C 179.31 53.64, 179.33 55.66, 179.33, 57.50 C 179.34 59.34, 179.36 61.36, 179.47, 63.26 C 179.58 65.17, 179.79 67.18, 180.00, 69.00 C 181.99 67.12, 184.18 65.04, 186.18, 63.01 C 188.18 60.97, 190.23 58.75, 192.08, 56.73 C 193.59 54.44, 195.23 51.91, 196.71, 49.47 C 198.19 47.03, 199.67 44.40, 201.00, 42.00 C 199.71 38.48, 198.27 34.61, 196.83, 30.98 C 195.39 27.36, 193.77 23.56, 192.29, 20.11 C 190.42 16.86, 188.35 13.28, 186.32, 9.95 C 184.28 6.62, 182.04 3.15, 180.00, 0.00" fill="#7767aa" fill-opacity="0.411765" label="middle" layer="1" /><path d="M 12.34 42.49 C 14.64 42.36, 17.17 42.20, 19.55, 41.96 C 21.93 41.72, 24.44 41.37, 26.72, 41.04 C 28.89 40.28, 31.28 39.44, 33.51, 38.56 C 35.73 37.68, 38.05 36.65, 40.15, 35.71 C 38.15 34.14, 35.94 32.42, 33.79, 30.88 C 31.65 29.33, 29.32 27.78, 27.20, 26.37 C 24.87 25.35, 22.30 24.23, 19.84, 23.26 C 17.38 22.30, 14.74 21.37, 12.34, 20.53 C 11.92 21.71, 11.48 23.02, 11.15, 24.27 C 10.82 25.53, 10.56 26.89, 10.34, 28.12 C 10.56 29.35, 10.82 30.71, 11.15, 31.97 C 11.48 33.22, 11.92 34.53, 12.34, 35.71 C 11.94 36.20, 11.50 36.74, 11.17, 37.30 C 10.84 37.86, 10.57 38.51, 10.34, 39.10 C 10.57 39.69, 10.84 40.34, 11.17, 40.90 C 11.50 41.46, 11.94 42.00, 12.34, 42.49" fill="#5c86ad" fill-opacity="0.474510" label="middle" layer="1" /><path d="M 130.55 9.92 C 132.27 10.92, 134.16 12.03, 135.90, 13.16 C 139.70 15.64, 142.35 17.84, 146.16, 20.32 C 147.89 21.45, 149.78 22.56, 151.50, 23.56 C 153.23 24.56, 155.12 25.67, 156.85, 26.80 C 158.59 27.93, 160.37 29.21, 161.98, 30.38 C 163.58 31.56, 165.35 32.87, 166.95, 34.18 C 170.47 37.05, 172.86 39.51, 176.38, 42.38 C 177.99 43.69, 179.75 45.00, 181.35, 46.18 C 182.96 47.36, 184.72 48.67, 186.32, 49.98 C 187.93 51.28, 189.56 52.75, 191.04, 54.08 C 189.46 54.41, 187.71 54.76, 186.05, 54.99 C 182.41 55.51, 179.61 55.51, 175.97, 56.03 C 174.31 56.26, 172.56 56.61, 170.98, 56.94 C 169.40 57.27, 167.65 57.62, 165.99, 57.85 C 164.33 58.09, 162.56 58.24, 160.95, 58.37 C 159.34 58.49, 157.56 58.60, 155.89, 58.62 C 152.20 58.66, 149.43 58.28, 145.75, 58.32 C 144.07 58.34, 142.30 58.45, 140.68, 58.57 C 139.07 58.69, 137.30 58.80, 135.62, 58.82 C 133.94 58.84, 132.16 58.75, 130.55, 58.67 C 130.15 58.38, 129.72 58.04, 129.39, 57.67 C 129.05 57.29, 128.77 56.83, 128.52, 56.40 C 128.76 55.97, 129.03 55.49, 129.36, 55.11 C 129.69 54.73, 130.11 54.38, 130.50, 54.08 C 130.09 50.57, 129.64 46.71, 129.31, 43.06 C 128.98 39.40, 128.74 35.52, 128.52, 32.00 C 128.74 28.48, 129.00 24.60, 129.34, 20.94 C 129.67 17.29, 130.13 13.42, 130.55, 9.92" fill="#657bb3" fill-opacity="0.580392" label="middle" layer="1" /><path d="M 214.87 0.00 C 215.96 3.04, 217.14 6.39, 218.17, 9.58 C 219.20 12.78, 220.20 16.19, 221.09, 19.29 C 221.56 22.48, 222.06 26.00, 222.44, 29.34 C 222.83 32.67, 223.13 36.21, 223.40, 39.43 C 223.05 40.44, 222.66 41.56, 222.20, 42.57 C 221.74 43.58, 221.16 44.61, 220.63, 45.54 C 219.76 46.17, 218.81 46.87, 217.85, 47.44 C 216.90 48.01, 215.84 48.53, 214.87, 48.99 C 214.32 48.35, 213.71 47.64, 213.22, 46.92 C 212.73 46.19, 212.30 45.37, 211.91, 44.62 C 211.96 43.78, 212.03 42.85, 212.19, 41.99 C 212.35 41.13, 212.62 40.24, 212.87, 39.43 C 212.61 36.28, 212.34 32.81, 212.17, 29.53 C 212.00 26.25, 211.93 22.77, 211.87, 19.61 C 212.25 16.47, 212.68 13.02, 213.17, 9.77 C 213.67 6.53, 214.29 3.11, 214.87, 0.00" fill="#6c5d94" fill-opacity="0.501961" label="middle" layer="1" /><path d="M 96.39 0.00 C 97.48 3.06, 98.66 6.42, 99.70, 9.63 C 100.73 12.84, 101.72 16.27, 102.62, 19.39 C 103.09 22.60, 103.60 26.13, 103.98, 29.48 C 104.37 32.83, 104.68 36.39, 104.95, 39.62 C 104.67 42.06, 104.36 44.75, 103.97, 47.28 C 103.58 49.80, 103.06 52.46, 102.59, 54.87 C 101.69 57.16, 100.70 59.68, 99.67, 62.02 C 98.65 64.36, 97.47 66.79, 96.39, 69.00 C 95.82 66.70, 95.19 64.17, 94.70, 61.77 C 94.20 59.36, 93.78 56.79, 93.40, 54.45 C 93.46 52.08, 93.53 49.48, 93.70, 47.02 C 93.86 44.57, 94.13 41.97, 94.39, 39.62 C 94.13 36.46, 93.86 32.97, 93.69, 29.68 C 93.52 26.38, 93.45 22.88, 93.39, 19.71 C 93.77 16.56, 94.20 13.09, 94.69, 9.82 C 95.19 6.56, 95.81 3.12, 96.39, 0.00" fill="#676ba5" fill-opacity="0.576471" label="middle" layer="1" /><path d="M 125.39 12.02 C 126.66 13.26, 128.04 14.64, 129.28, 16.01 C 130.52 17.37, 131.76 18.88, 132.88, 20.26 C 133.62 21.87, 134.43 23.65, 135.11, 25.36 C 135.79 27.08, 136.41 28.93, 136.97, 30.61 C 136.44 33.06, 135.85 35.75, 135.20, 38.27 C 134.55 40.79, 133.76 43.43, 133.04, 45.83 C 131.91 48.06, 130.66 50.52, 129.39, 52.79 C 128.12 55.07, 126.69 57.42, 125.39, 59.56 C 124.64 57.33, 123.83 54.87, 123.15, 52.52 C 122.48 50.17, 121.85 47.66, 121.30, 45.37 C 121.18 43.02, 121.06 40.44, 121.04, 37.99 C 121.01 35.55, 121.09 32.96, 121.17, 30.61 C 121.10 29.06, 121.02 27.35, 121.05, 25.74 C 121.08 24.12, 121.20 22.42, 121.33, 20.87 C 121.89 19.42, 122.51 17.83, 123.18, 16.36 C 123.85 14.90, 124.65 13.39, 125.39, 12.02" fill="#4d5c84" fill-opacity="0.458824" label="middle" layer="1" /><path d="M 51.11 0.00 C 53.06 1.70, 55.21 3.57, 57.17, 5.41 C 59.13 7.26, 61.13 9.28, 62.95, 11.12 C 64.43 13.24, 66.04 15.59, 67.49, 17.85 C 68.94 20.12, 70.39 22.57, 71.70, 24.80 C 70.44 28.49, 69.05 32.54, 67.65, 36.34 C 66.24 40.15, 64.66 44.13, 63.22, 47.75 C 61.38 51.18, 59.34 54.95, 57.34, 58.47 C 55.33 61.99, 53.12 65.67, 51.11, 69.00 C 50.02 65.57, 48.84 61.79, 47.81, 58.20 C 46.78 54.60, 45.78 50.76, 44.89, 47.28 C 44.43 43.71, 43.93 39.78, 43.55, 36.06 C 43.17 32.34, 42.86 28.39, 42.60, 24.80 C 42.88 22.71, 43.19 20.40, 43.58, 18.24 C 43.97 16.08, 44.49 13.81, 44.96, 11.75 C 45.85 9.83, 46.84 7.73, 47.86, 5.78 C 48.88 3.84, 50.04 1.82, 51.11, 0.00" fill="#58669c" fill-opacity="0.243137" label="middle" layer="1" /><path d="M 165.73 8.31 C 167.94 8.94, 170.36 9.64, 172.63, 10.39 C 177.59 12.04, 181.20 13.66, 186.17, 15.31 C 188.43 16.07, 190.86 16.77, 193.06, 17.40 C 195.27 18.02, 197.70 18.73, 199.96, 19.48 C 202.22 20.23, 204.59 21.12, 206.73, 21.94 C 208.87 22.77, 211.22 23.69, 213.41, 24.65 C 218.20 26.75, 221.65 28.70, 226.44, 30.80 C 228.62 31.76, 230.98 32.68, 233.12, 33.51 C 235.26 34.34, 237.61 35.27, 239.79, 36.22 C 241.98 37.18, 244.25 38.29, 246.31, 39.30 C 244.20 39.72, 241.87 40.18, 239.66, 40.52 C 234.80 41.26, 231.09 41.42, 226.23, 42.16 C 224.02 42.49, 221.70 42.95, 219.58, 43.37 C 217.47 43.80, 215.14 44.25, 212.93, 44.59 C 210.72 44.93, 208.36 45.18, 206.22, 45.41 C 204.08 45.62, 201.72 45.85, 199.48, 45.96 C 194.58 46.22, 190.87 46.02, 185.96, 46.28 C 183.73 46.39, 181.37 46.62, 179.23, 46.83 C 177.08 47.04, 174.72 47.27, 172.49, 47.38 C 170.25 47.50, 167.88 47.53, 165.73, 47.54 C 162.50 47.30, 158.95 47.02, 155.61, 46.66 C 152.26 46.30, 148.73 45.82, 145.53, 45.38 C 142.42 44.51, 138.99 43.54, 135.78, 42.53 C 132.57 41.52, 129.20 40.36, 126.15, 39.30 C 127.07 38.32, 128.08 37.25, 129.11, 36.31 C 131.36 34.24, 133.32 32.98, 135.57, 30.91 C 136.59 29.97, 137.61 28.90, 138.52, 27.92 C 139.44 26.94, 140.46 25.87, 141.48, 24.93 C 142.51 23.99, 143.66 23.06, 144.71, 22.23 C 145.77 21.41, 146.94 20.51, 148.10, 19.74 C 150.65 18.06, 152.78 17.12, 155.33, 15.44 C 156.49 14.67, 157.66 13.77, 158.72, 12.95 C 159.78 12.13, 160.96 11.23, 162.12, 10.46 C 163.28 9.69, 164.56 8.97, 165.73, 8.31" fill="#7275b2" fill-opacity="0.431373" label="middle" layer="1" /><path d="M 93.32 1.95 Q 93.00 1.00, 93.00 2.00 L 93.00 67.00 Q 93.00 68.00, 93.35 67.06 L 104.65 36.94 Q 105.00 36.00, 104.68 35.05 L 93.32 1.95" fill="#756ea9" fill-opacity="0.439216" label="detail" layer="2" /><path d="M 76.74 63.46 Q 76.08 64.21, 75.96 63.21 L 73.87 46.18 Q 73.74 45.19, 74.11 44.26 L 91.01 0.93 Q 91.37 0.00, 91.32 1.00 L 88.59 49.08 Q 88.54 50.08, 87.87 50.83 L 76.74 63.46" fill="#7a66a7" fill-opacity="0.611765" label="detail" layer="2" /><path d="M 153.41 69.00 Q 152.41 69.00, 152.42 68.00 L 153.04 1.00 Q 153.04 0.00, 153.35 0.95 L 162.32 29.09 Q 162.63 30.05, 162.46 31.03 L 156.24 68.01 Q 156.08 69.00, 155.08 69.00 L 153.41 69.00" fill="#5880a8" fill-opacity="0.431373" label="detail" layer="2" /><path d="M 42.81 12.58 Q 42.00 12.00, 42.00 13.00 L 42.00 56.00 Q 42.00 57.00, 42.82 56.43 L 73.18 35.57 Q 74.00 35.00, 73.19 34.42 L 42.81 12.58" fill="#7277ba" fill-opacity="0.447059" label="detail" layer="2" /><path d="M 193.45 49.68 Q 193.31 50.67, 193.92 51.47 L 200.27 59.84 Q 200.88 60.64, 201.03 59.65 L 204.60 35.71 Q 204.75 34.72, 204.63 33.73 L 200.55 0.99 Q 200.43 0.00, 200.29 0.99 L 193.45 49.68" fill="#8a5388" fill-opacity="0.411765" label="detail" layer="2" /></g>
<g><text style="font-size: 20px;" x="15" y="20">bpm: 86</text><text style="font-size: 20px;" x="15" y="40">Mood: 8</text><text style="font-size: 20px;" x="15" y="60">Density: 6</text><text style="font-size: 20px;" x="15" y="80">Gravity: 2</text><text style="font-size: 20px;" x="15" y="100">Energy: 7</text><text style="font-size: 20px;" x="15" y="120">Ensemble: 2</text><text style="font-size: 20px;" x="15" y="140">Melody: 7</text><text style="font-size: 20px;" x="15" y="160">Tension: 2</text><text style="font-size: 20px;" x="15" y="180">Rhythm: 7</text><text style="font-size: 20px;" x="15" y="200"># shapes=20</text></g></svg>