<svg xmlns="http://www.w3.org/2000/svg" height="280" preserveAspectRatio="none" version="1.1" width="930">
<rect fill="none" height="280" width="1024" x="0" y="0" />
<g transform="scale(4.0000) translate(-11.13636363636364, 0.5)">
<path d="M 102.70 0.59 Q 103.51 -0.00, 104.46 0.29 L 241.21 42.23 Q 242.17 42.52, 241.17 42.61 L 104.50 54.45 Q 103.51 54.54, 102.53 54.34 L 46.23 42.73 Q 45.25 42.52, 46.06 41.93 L 102.70 0.59" fill="#9d5c95" fill-opacity="1.3999994999999998" label="outline" layer="0" /><path d="M 198.62 68.93 Q 199.62 69.00, 198.68 68.65 L 18.49 0.35 Q 17.55 0.00, 17.42 0.99 L 11.01 48.29 Q 10.87 49.28, 11.74 49.79 L 24.17 57.05 Q 25.04 57.56, 26.03 57.62 L 198.62 68.93" fill="#975c94" fill-opacity="1.1235300000000001" label="outline" layer="0" /><path d="M 159.95 0.31 Q 159.00 0.00, 159.00 1.00 L 159.00 68.00 Q 159.00 69.00, 159.92 68.61 L 249.08 30.39 Q 250.00 30.00, 249.05 29.69 L 159.95 0.31" fill="#a35991" fill-opacity="1.1764709999999998" label="outline" layer="0" /><path d="M 233.76 54.16 Q 234.05 55.12, 233.07 55.32 L 167.28 68.80 Q 166.31 69.00, 165.73 68.18 L 119.73 2.03 Q 119.16 1.21, 120.16 1.20 L 216.37 0.01 Q 217.37 0.00, 217.66 0.96 L 233.76 54.16" fill="#99558c" fill-opacity="0.705882" label="outline" layer="0" /><path d="M 113.86 68.97 Q 114.86 69.00, 114.31 68.16 L 70.44 0.84 Q 69.90 0.00, 68.90 0.06 L 12.41 3.52 Q 11.41 3.58, 11.39 4.58 L 10.33 64.97 Q 10.32 65.97, 11.32 66.00 L 113.86 68.97" fill="#865489" fill-opacity="0.5352945" label="outline" layer="0" /><path d="M 89.17 68.01 Q 89.29 69.00, 90.29 69.03 L 147.70 70.97 Q 148.70 71.00, 149.70 70.97 L 207.11 69.03 Q 208.11 69.00, 207.31 68.40 L 161.27 33.47 Q 160.47 32.87, 159.63 32.32 L 111.36 0.55 Q 110.52 0.00, 109.53 -0.15 L 98.57 -1.85 Q 97.58 -2.00, 96.59 -1.85 L 85.62 -0.15 Q 84.63 0.00, 84.64 1.00 L 84.95 33.63 Q 84.96 34.63, 85.08 35.62 L 89.17 68.01" fill="#905282" fill-opacity="0.49019625" label="middle" layer="1" /><path d="M 7.22 29.65 Q 6.63 28.85, 7.62 28.68 L 100.24 12.62 Q 101.23 12.45, 102.22 12.32 L 195.45 0.13 Q 196.44 0.00, 196.42 1.00 L 196.15 18.69 Q 196.13 19.69, 195.91 20.67 L 192.06 37.93 Q 191.84 38.91, 190.84 38.98 L 109.37 44.73 Q 108.37 44.80, 107.37 44.82 L 25.73 46.68 Q 24.73 46.70, 23.92 46.12 L 15.08 39.78 Q 14.27 39.20, 13.68 38.40 L 7.22 29.65" fill="#9c629f" fill-opacity="0.58333375" label="middle" layer="1" /><path d="M 216.43 67.46 Q 216.39 68.46, 217.11 67.76 L 223.04 62.03 Q 223.76 61.33, 224.16 60.41 L 227.45 52.85 Q 227.85 51.93, 228.08 50.96 L 231.70 35.53 Q 231.93 34.56, 231.94 33.56 L 232.03 17.70 Q 232.04 16.70, 231.75 15.74 L 229.49 8.24 Q 229.20 7.28, 228.56 6.52 L 223.50 0.52 Q 222.86 -0.24, 222.71 0.75 L 217.78 32.93 Q 217.63 33.92, 217.59 34.92 L 216.43 67.46" fill="#a73f5a" fill-opacity="0.52941125" label="middle" layer="1" /><path d="M 57.48 7.74 Q 57.69 6.76, 58.57 7.23 L 79.62 18.56 Q 80.50 19.03, 81.30 19.63 L 100.36 34.07 Q 101.16 34.67, 100.19 34.90 L 80.67 39.42 Q 79.70 39.65, 78.70 39.70 L 58.69 40.62 Q 57.69 40.67, 56.92 40.04 L 55.56 38.93 Q 54.79 38.30, 55.03 37.33 L 55.45 35.64 Q 55.69 34.67, 55.62 33.67 L 54.76 21.57 Q 54.69 20.57, 54.90 19.59 L 57.48 7.74" fill="#8960a0" fill-opacity="0.5882350000000001" label="middle" layer="1" /><path d="M 15.82 63.05 Q 15.56 62.08, 15.39 61.09 L 12.00 41.09 Q 11.83 40.10, 11.84 39.10 L 12.07 18.82 Q 12.08 17.82, 13.08 17.89 L 21.97 18.56 Q 22.97 18.63, 23.87 19.06 L 31.93 22.88 Q 32.83 23.31, 32.54 24.27 L 27.00 42.53 Q 26.71 43.49, 26.24 44.37 L 17.35 61.26 Q 16.88 62.14, 16.52 63.07 L 16.47 63.18 Q 16.11 64.11, 15.85 63.14 L 15.82 63.05" fill="#cf4969" fill-opacity="0.50980375" label="middle" layer="1" /><path d="M 201.21 26.30 Q 201.37 25.31, 200.72 24.55 L 197.80 21.17 Q 197.15 20.41, 196.18 20.18 L 191.83 19.17 Q 190.86 18.94, 189.86 19.00 L 129.07 22.41 Q 128.07 22.47, 127.08 22.59 L 66.63 29.88 Q 65.64 30.00, 66.60 30.29 L 126.89 48.68 Q 127.85 48.97, 128.82 49.20 L 190.15 63.86 Q 191.12 64.09, 191.47 63.15 L 197.83 46.15 Q 198.18 45.21, 198.34 44.22 L 201.21 26.30" fill="#a05e9a" fill-opacity="0.8676475" label="middle" layer="1" /><path d="M 85.66 30.78 Q 84.67 30.92, 84.54 29.93 L 83.23 19.60 Q 83.10 18.61, 83.30 17.63 L 85.33 7.41 Q 85.53 6.43, 85.78 5.46 L 86.44 2.90 Q 86.69 1.93, 87.60 1.51 L 90.00 0.42 Q 90.91 0.00, 91.88 0.25 L 118.09 6.88 Q 119.06 7.13, 119.99 7.51 L 145.02 17.68 Q 145.95 18.06, 144.99 18.33 L 116.68 26.18 Q 115.72 26.45, 114.73 26.59 L 85.66 30.78" fill="#7d466c" fill-opacity="0.62254875" label="middle" layer="1" /><path d="M 36.42 23.25 Q 37.29 22.76, 38.28 22.90 L 66.21 26.99 Q 67.20 27.13, 68.16 27.40 L 95.31 35.15 Q 96.27 35.42, 95.30 35.65 L 68.08 42.04 Q 67.11 42.27, 66.11 42.37 L 38.29 45.07 Q 37.29 45.17, 36.36 44.81 L 29.87 42.31 Q 28.94 41.95, 28.26 41.22 L 23.50 36.15 Q 22.82 35.42, 23.42 34.62 L 28.14 28.38 Q 28.74 27.58, 29.61 27.09 L 36.42 23.25" fill="#9168aa" fill-opacity="0.8088237500000001" label="middle" layer="1" /><path d="M 80.74 7.46 Q 81.03 6.50, 81.40 7.43 L 86.30 19.71 Q 86.67 20.64, 86.78 21.63 L 88.31 34.78 Q 88.42 35.77, 87.72 36.48 L 84.81 39.41 Q 84.11 40.12, 83.12 40.24 L 79.01 40.76 Q 78.02 40.88, 77.30 40.18 L 76.06 38.97 Q 75.34 38.27, 75.66 37.32 L 76.23 35.68 Q 76.55 34.73, 76.57 33.73 L 76.80 21.30 Q 76.82 20.30, 77.11 19.34 L 80.74 7.46" fill="#77558d" fill-opacity="0.6813724999999999" label="middle" layer="1" /><path d="M 213.08 27.51 Q 213.90 26.94, 214.75 27.46 L 217.83 29.32 Q 218.68 29.84, 218.97 30.80 L 220.01 34.22 Q 220.30 35.18, 220.12 36.16 L 217.36 51.58 Q 217.18 52.56, 216.79 53.48 L 210.63 67.89 Q 210.24 68.81, 210.11 67.82 L 208.10 52.55 Q 207.97 51.56, 208.07 50.57 L 209.61 35.24 Q 209.71 34.25, 209.79 33.25 L 210.00 30.60 Q 210.08 29.60, 210.90 29.03 L 213.08 27.51" fill="#aa3e60" fill-opacity="0.45588249999999997" label="middle" layer="1" /><path d="M 34.98 -0.28 L 28.97 68.46 L 46.05 33.82 " fill="#7b619f" fill-opacity="0.482353" label="detail" layer="2" /><path d="M 174.65 -0.51 L 173.21 5.39 L 168.63 68.23 L 195.65 7.35 " fill="#a7517e" fill-opacity="0.419608" label="detail" layer="2" /><path d="M 13.81 11.85 L 9.89 56.67 L 20.30 29.48 " fill="#ba4f69" fill-opacity="0.494118" label="detail" layer="2" /><path d="M 103.83 15.43 L 120.56 22.92 L 99.16 68.85 L 86.71 19.95 " fill="#b45c8f" fill-opacity="0.407843" label="detail" layer="2" /><path d="M 151.10 5.50 L 171.41 17.72 L 146.40 59.18 L 148.20 15.69 " fill="#9261a4" fill-opacity="0.486275" label="detail" layer="2" /></g>
<g><text style="font-size: 20px;" x="15" y="20">bpm: 143</text><text style="font-size: 20px;" x="15" y="40">Mood: 9</text><text style="font-size: 20px;" x="15" y="60">Density: 8</text><text style="font-size: 20px;" x="15" y="80">Gravity: 2</text><text style="font-size: 20px;" x="15" y="100">Energy: 8</text><text style="font-size: 20px;" x="15" y="120">Ensemble: 2</text><text style="font-size: 20px;" x="15" y="140">Melody: 8</text><text style="font-size: 20px;" x="15" y="160">Tension: 3</text><text style="font-size: 20px;" x="15" y="180">Rhythm: 7</text><text style="font-size: 20px;" x="15" y="200"># shapes=20</text></g></svg>