<svg xmlns="http://www.w3.org/2000/svg" height="280" preserveAspectRatio="none" version="1.1" width="930">
<rect fill="none" height="280" width="1024" x="0" y="0" />
<g transform="scale(4.0000) translate(-11.13636363636364, 0.5)">
<path d="M 94.99 34.14 L 39.55 14.24 L 37.54 46.63 L 46.18 51.71 " fill="#5f93ad" fill-opacity="0.486275" label="detail" layer="2" /><path d="M 123.52 57.19 L 122.89 11.80 L 84.84 4.03 L 88.29 51.70 " fill="#7270b2" fill-opacity="0.513725" label="detail" layer="2" /><path d="M 154.00 21.00 L 154.00 48.00 L 183.00 35.00 " fill="#6b84ba" fill-opacity="0.686275" label="detail" layer="2" /><path d="M 234.94 20.68 L 233.61 10.53 L 209.71 35.57 L 234.38 58.08 " fill="#6f71b3" fill-opacity="0.956863" label="detail" layer="2" /><path d="M 121.46 19.45 L 149.51 42.71 L 160.21 51.32 L 180.83 20.66 " fill="#4d618b" fill-opacity="0.588235" label="detail" layer="2" /><path d="M 33.09 0.00 L 41.34 6.18 L 77.24 69.00 L 33.63 66.97 " fill="#3b8c80" fill-opacity="0.168627" label="middle" layer="1" /><path d="M 195.00 12.00 L 195.00 57.00 L 238.00 34.00 " fill="#6587b4" fill-opacity="0.494118" label="middle" layer="1" /><path d="M 200.76 69.00 L 212.01 0.00 L 234.33 25.30 L 234.90 69.00 " fill="#6e75bd" fill-opacity="0.219608" label="middle" layer="1" /><path d="M 76.23 40.87 L 74.87 0.00 L 47.62 25.86 L 67.68 69.00 " fill="#5a91a7" fill-opacity="0.435294" label="middle" layer="1" /><path d="M 13.00 26.00 L 13.00 43.00 L 47.00 30.00 " fill="#6e79b9" fill-opacity="0.737255" label="middle" layer="1" /><path d="M 180.00 5.00 L 180.00 64.00 L 204.00 22.00 " fill="#866eb0" fill-opacity="0.623529" label="middle" layer="1" /><path d="M 100.29 69.00 L 84.30 14.36 L 113.08 0.00 L 113.84 68.71 " fill="#7470b2" fill-opacity="0.658824" label="middle" layer="1" /><path d="M 91.00 0.00 L 91.00 69.00 L 150.00 33.00 " fill="#716eb2" fill-opacity="0.725490" label="middle" layer="1" /><path d="M 60.00 0.00 L 60.00 69.00 L 78.00 2.00 " fill="#6597b9" fill-opacity="0.415686" label="middle" layer="1" /><path d="M 12.00 9.00 L 12.00 60.00 L 138.00 48.00 " fill="#648db4" fill-opacity="0.376471" label="middle" layer="1" /><path d="M 207.07 61.48 L 236.85 47.76 L 234.51 3.45 L 139.21 31.91 " fill="#6d76ae" fill-opacity="0.831373" label="outline" layer="0" /><path d="M 88.00 0.00 L 88.00 69.00 L 126.00 1.00 " fill="#8379c9" fill-opacity="0.580392" label="outline" layer="0" /><path d="M 222.78 20.41 L 243.29 0.00 L 13.30 11.54 L 13.53 39.89 " fill="#6272a3" fill-opacity="0.619608" label="outline" layer="0" /><path d="M 237.66 65.21 L 89.29 69.00 L 5.67 47.97 L 234.76 34.30 " fill="#6a78ae" fill-opacity="0.639216" label="outline" layer="0" /><path d="M 48.13 20.24 L 7.06 47.09 L 230.00 43.03 L 232.27 16.43 " fill="#6979ad" fill-opacity="0.960784" label="outline" layer="0" /></g>
<g><text style="font-size: 20px;" x="15" y="20">bpm: 110</text><text style="font-size: 20px;" x="15" y="40">Mood: 5</text><text style="font-size: 20px;" x="15" y="60">Density: 5</text><text style="font-size: 20px;" x="15" y="80">Gravity: 8</text><text style="font-size: 20px;" x="15" y="100">Energy: 7</text><text style="font-size: 20px;" x="15" y="120">Ensemble: 3</text><text style="font-size: 20px;" x="15" y="140">Melody: 1</text><text style="font-size: 20px;" x="15" y="160">Tension: 6</text><text style="font-size: 20px;" x="15" y="180">Rhythm: 7</text><text style="font-size: 20px;" x="15" y="200"># shapes=20</text></g></svg>