<svg xmlns="http://www.w3.org/2000/svg" height="280" preserveAspectRatio="none" version="1.1" width="930">
<rect fill="none" height="280" width="1024" x="0" y="0" />
<g transform="scale(4.0000) translate(-11.13636363636364, 0.5)">
<polygon fill="#609d9c" fill-opacity="0.988235" label="outline" layer="0" points="230.835174,45.877063,55.084751,54.790304,23.900382,30.562587,139.587392,9.366145" />
<polygon fill="#5c999e" fill-opacity="0.784314" label="outline" layer="0" points="225.020360,0.000000,70.998622,59.870766,225.819804,63.676245,233.611223,34.599480" />
<polygon fill="#609b97" fill-opacity="0.674510" label="outline" layer="0" points="16.075725,4.428543,176.985037,10.428543,16.075725,69.000000,10.756910,10.428543" />
<polygon fill="#558f9e" fill-opacity="0.454902" label="outline" layer="0" points="48.316779,64.887682,155.804162,69.000000,187.032397,11.308398,139.305770,0.000000" />
<polygon fill="#6aac9e" fill-opacity="0.423529" label="outline" layer="0" points="42.646121,11.508799,170.925078,38.348186,42.646121,61.680186,6.490950,38.348186" />
<path d="M 216.18 -0.08 L 234.96 37.95 L 210.17 68.65 L 198.51 34.76 " fill="#63acad" fill-opacity="0.560784" label="middle" layer="1" /><path d="M 15.95 68.88 L 25.78 32.21 L 23.19 0.25 L 11.14 35.32 " fill="#5b8ca1" fill-opacity="0.956863" label="middle" layer="1" /><path d="M 81.15 -0.52 L 75.13 68.22 L 101.72 5.30 " fill="#66aba0" fill-opacity="0.384314" label="middle" layer="1" /><path d="M 196.48 66.55 L 211.92 -0.51 L 235.56 33.30 L 224.07 69.81 " fill="#5a999b" fill-opacity="0.356863" label="middle" layer="1" /><path d="M 173.72 0.04 L 177.28 37.09 L 167.70 68.77 L 167.15 36.20 " fill="#559194" fill-opacity="0.796078" label="middle" layer="1" /><path d="M 30.00 15.00 L 30.00 54.00 L 108.00 30.00 " fill="#68a895" fill-opacity="0.788235" label="middle" layer="1" /><path d="M 186.43 5.76 L 181.46 62.54 L 196.11 32.70 " fill="#77b39e" fill-opacity="0.556863" label="middle" layer="1" /><path d="M 181.02 10.98 L 204.62 39.27 L 177.33 53.23 L 171.34 36.35 " fill="#67a697" fill-opacity="0.600000" label="middle" layer="1" /><path d="M 87.71 11.61 L 135.40 18.52 L 87.71 69.00 L 63.86 18.52 " fill="#5e9b9a" fill-opacity="0.462745" label="middle" layer="1" /><path d="M 148.38 2.03 L 157.77 1.19 L 148.47 69.64 L 121.09 67.24 " fill="#5b8ead" fill-opacity="0.333333" label="middle" layer="1" /><path d="M 44.54 9.84 L 54.84 30.38 L 39.40 68.59 L 40.63 29.14 " fill="#55a095" fill-opacity="0.643137" label="detail" layer="2" /><path d="M 201.75 13.67 L 231.83 22.32 L 197.67 60.28 L 200.53 19.58 " fill="#5ea0a2" fill-opacity="0.729412" label="detail" layer="2" /><path d="M 51.13 68.71 L 55.41 25.01 L 60.38 23.36 L 54.42 69.00 " fill="#75a67d" fill-opacity="0.494118" label="detail" layer="2" /><path d="M 232.05 17.06 L 222.30 68.77 L 221.43 68.69 L 226.28 11.25 " fill="#5a95a1" fill-opacity="0.901961" label="detail" layer="2" /><path d="M 166.53 11.42 L 175.34 41.23 L 163.13 50.25 L 162.02 40.06 " fill="#5d96aa" fill-opacity="0.701961" label="detail" layer="2" /></g>
<g><text style="font-size: 20px;" x="15" y="20">bpm: 112</text><text style="font-size: 20px;" x="15" y="40">Mood: 7</text><text style="font-size: 20px;" x="15" y="60">Density: 7</text><text style="font-size: 20px;" x="15" y="80">Gravity: 6</text><text style="font-size: 20px;" x="15" y="100">Energy: 8</text><text style="font-size: 20px;" x="15" y="120">Ensemble: 6</text><text style="font-size: 20px;" x="15" y="140">Melody: 6</text><text style="font-size: 20px;" x="15" y="160">Tension: 5</text><text style="font-size: 20px;" x="15" y="180">Rhythm: 5</text><text style="font-size: 20px;" x="15" y="200"># shapes=20</text></g></svg>