<svg xmlns="http://www.w3.org/2000/svg" height="280" preserveAspectRatio="none" version="1.1" width="930">
<rect fill="none" height="280" width="1024" x="0" y="0" />
<g transform="scale(4.0000) translate(-11.13636363636364, 0.5)">
<path d="M 48.00 8.00 L 47.54 25.51 L 47.82 26.05 L 48.35 29.44 L 47.82 36.77 L 48.17 48.89 L 48.00 61.00 L 48.00 61.00 L 50.43 60.99 L 67.36 58.11 L 67.47 58.85 L 68.51 58.63 L 83.28 56.72 L 84.27 55.89 L 94.60 54.28 L 101.35 54.32 L 110.82 52.16 L 113.24 52.24 L 119.05 51.76 L 127.16 50.08 L 138.38 49.25 L 143.77 48.52 L 145.09 47.67 L 147.15 47.79 L 154.86 46.70 L 165.20 45.11 L 169.83 44.21 L 181.90 42.87 L 187.37 42.13 L 200.07 40.63 L 202.75 39.74 L 216.79 38.01 L 219.15 37.94 L 236.12 35.23 L 249.00 34.00 L 249.00 34.00 L 240.62 32.65 L 234.01 32.16 L 224.57 30.78 L 223.13 30.97 L 208.32 28.55 L 203.75 27.65 L 192.30 26.59 L 184.77 25.41 L 177.10 24.38 L 167.06 22.98 L 162.11 22.62 L 157.54 22.65 L 152.46 21.35 L 149.61 21.29 L 132.74 19.18 L 131.02 18.82 L 120.34 17.61 L 115.97 16.51 L 105.15 15.88 L 103.48 15.64 L 96.61 13.84 L 89.30 13.40 L 87.06 13.38 L 76.06 11.61 L 72.90 11.27 L 61.72 9.47 L 48.00 8.00 " fill="#7972af" fill-opacity="0.741176" label="outline" layer="0" /><path d="M 156.00 0.00 L 155.56 15.17 L 156.13 18.29 L 155.73 33.93 L 155.84 35.18 L 156.18 39.13 L 155.86 50.66 L 156.00 69.00 L 156.00 69.00 L 159.36 67.78 L 165.90 65.92 L 167.96 64.85 L 170.41 63.37 L 171.22 63.38 L 178.82 60.89 L 179.13 60.39 L 185.12 58.15 L 191.79 55.47 L 192.67 55.15 L 209.02 50.17 L 209.61 49.89 L 219.36 46.27 L 219.89 45.66 L 237.17 40.01 L 255.00 33.00 L 255.00 33.00 L 249.93 31.17 L 241.12 28.74 L 232.51 25.11 L 227.00 23.30 L 226.05 23.01 L 210.10 18.10 L 208.25 16.95 L 203.85 16.28 L 191.95 12.02 L 186.59 10.19 L 179.01 7.20 L 176.74 7.37 L 163.76 2.39 L 156.00 0.00 " fill="#7c77b7" fill-opacity="0.639216" label="outline" layer="0" /><path d="M 10.76 46.16 L 11.53 37.89 L 12.09 19.15 L 12.09 19.15 L 21.69 19.86 L 26.88 19.86 L 37.55 20.60 L 45.84 21.99 L 53.97 22.38 L 57.07 22.83 L 58.12 22.10 L 74.94 23.51 L 77.20 23.41 L 82.59 23.83 L 84.43 23.97 L 98.99 25.34 L 102.14 25.52 L 111.73 26.29 L 120.71 27.32 L 120.75 27.08 L 137.97 28.51 L 139.41 28.65 L 155.30 29.46 L 157.57 29.98 L 173.08 30.39 L 175.03 30.59 L 185.01 31.39 L 190.55 31.97 L 198.06 32.89 L 207.74 33.10 L 212.62 33.13 L 218.91 34.48 L 222.30 34.21 L 231.79 34.62 L 246.03 35.94 L 246.03 35.94 L 239.47 42.53 L 229.23 52.92 L 229.23 52.92 L 222.48 52.51 L 214.89 52.20 L 211.51 52.16 L 195.18 51.67 L 194.24 52.19 L 191.63 51.38 L 174.40 51.12 L 173.66 51.48 L 171.12 51.03 L 155.95 50.16 L 155.78 50.53 L 142.18 50.48 L 139.80 49.68 L 133.55 49.69 L 133.53 49.75 L 130.01 50.23 L 123.81 49.70 L 111.02 48.96 L 104.10 48.91 L 101.13 49.00 L 91.33 48.27 L 81.50 48.32 L 80.03 48.05 L 73.16 48.28 L 66.04 48.31 L 58.47 47.39 L 48.18 46.87 L 45.51 46.83 L 42.31 46.70 L 34.19 47.27 L 32.07 46.90 L 26.64 46.24 L 10.76 46.16 " fill="#6f6ea5" fill-opacity="0.831373" label="outline" layer="0" /><path d="M 235.10 57.51 L 224.49 58.09 L 220.33 58.56 L 216.95 58.55 L 208.51 59.11 L 199.61 60.58 L 188.22 61.16 L 188.22 61.16 L 188.49 61.13 L 188.95 58.47 L 191.25 48.92 L 193.21 41.59 L 195.15 35.36 L 197.70 24.40 L 199.13 20.79 L 203.62 4.28 L 203.62 4.28 L 208.72 6.46 L 211.40 8.01 L 215.87 9.07 L 220.77 11.55 L 239.03 19.26 L 239.03 19.26 L 237.84 26.63 L 237.73 28.60 L 236.99 38.44 L 235.10 57.51 " fill="#6c7abc" fill-opacity="0.494118" label="outline" layer="0" /><path d="M 111.33 61.79 L 128.82 58.87 L 130.68 58.71 L 144.25 56.32 L 144.73 55.76 L 161.52 52.38 L 163.50 52.33 L 175.87 49.92 L 179.38 49.49 L 186.71 48.20 L 193.84 47.10 L 198.03 46.49 L 199.80 45.45 L 207.42 44.70 L 214.47 43.22 L 229.61 40.51 L 229.61 40.51 L 244.35 27.71 L 250.49 22.26 L 250.49 22.26 L 242.39 21.04 L 230.70 20.05 L 230.01 19.98 L 226.49 20.13 L 215.14 18.85 L 209.63 18.56 L 203.25 17.40 L 194.93 16.68 L 186.05 16.00 L 176.09 14.97 L 168.91 13.93 L 159.48 12.69 L 159.37 13.31 L 157.41 12.50 L 155.58 12.92 L 142.09 11.25 L 135.88 10.99 L 124.62 10.09 L 110.97 8.32 L 110.97 8.32 L 110.77 25.00 L 111.49 26.72 L 110.97 30.99 L 110.91 40.39 L 110.84 41.27 L 111.72 56.74 L 111.33 61.79 " fill="#7275ab" fill-opacity="0.258824" label="outline" layer="0" /><path d="M 7.80 51.54 L 17.55 54.83 L 26.89 57.60 L 26.89 57.60 L 44.64 59.91 L 46.82 59.75 L 46.82 59.75 L 47.64 58.06 L 49.56 45.50 L 51.41 35.63 L 51.41 35.63 L 51.94 30.85 L 52.02 11.10 L 52.02 11.10 L 42.39 15.66 L 32.23 20.82 L 32.23 20.82 L 32.02 20.87 L 29.87 22.55 L 14.53 33.96 L 14.53 33.96 L 9.30 42.03 L 9.30 42.03 L 7.80 51.54 " fill="#7682b1" fill-opacity="0.290196" label="middle" layer="1" /><path d="M 229.98 6.52 L 227.49 16.52 L 224.17 33.47 L 224.17 33.47 L 223.53 37.78 L 223.44 47.94 L 222.32 60.98 L 222.32 60.98 L 233.96 51.12 L 233.96 51.12 L 242.64 38.59 L 242.64 38.59 L 238.17 21.82 L 238.17 21.82 L 229.98 6.52 " fill="#7e74b9" fill-opacity="0.411765" label="middle" layer="1" /><path d="M 152.00 20.00 L 150.00 34.50 L 150.00 34.50 L 152.00 49.00 L 152.00 49.00 L 170.57 43.69 L 170.53 43.31 L 184.82 38.78 L 192.17 36.89 L 192.17 36.89 L 210.59 29.43 L 210.51 29.20 L 213.54 28.34 L 231.00 21.00 L 231.00 21.00 L 214.28 19.70 L 213.46 20.23 L 204.68 19.48 L 191.53 18.50 L 191.53 18.50 L 187.26 18.61 L 173.49 18.69 L 172.86 18.78 L 170.04 19.66 L 152.00 20.00 " fill="#8774b4" fill-opacity="0.498039" label="middle" layer="1" /><path d="M 11.32 40.87 L 21.69 41.48 L 24.17 41.18 L 31.16 41.86 L 41.11 41.86 L 50.08 42.86 L 55.52 42.32 L 67.23 43.24 L 74.20 43.35 L 81.10 43.53 L 90.24 43.85 L 103.11 44.51 L 103.11 44.51 L 106.02 44.51 L 112.01 44.80 L 119.30 44.35 L 121.53 44.24 L 122.50 44.42 L 133.75 44.60 L 136.78 44.32 L 152.39 44.50 L 155.60 44.18 L 161.94 44.47 L 167.08 44.37 L 180.13 44.66 L 194.97 44.15 L 194.97 44.15 L 180.22 38.05 L 168.22 33.10 L 168.22 33.10 L 155.98 29.51 L 140.21 25.84 L 140.21 25.84 L 139.64 25.56 L 129.43 25.94 L 127.76 25.98 L 125.28 25.49 L 111.20 25.38 L 108.07 25.10 L 93.88 25.41 L 76.55 25.03 L 76.55 25.03 L 65.57 25.33 L 59.36 25.52 L 52.88 26.13 L 39.69 26.97 L 37.30 27.16 L 36.73 27.53 L 28.00 27.93 L 12.96 28.22 L 12.96 28.22 L 10.16 34.29 L 10.16 34.29 L 11.32 40.87 " fill="#7775af" fill-opacity="0.752941" label="middle" layer="1" /><path d="M 26.83 6.92 L 23.99 18.07 L 21.03 33.88 L 21.03 33.88 L 20.43 37.62 L 20.25 50.56 L 19.18 61.39 L 19.18 61.39 L 26.91 48.89 L 26.91 48.89 L 31.00 34.78 L 31.00 34.78 L 30.90 20.55 L 30.90 20.55 L 26.83 6.92 " fill="#4d8e9e" fill-opacity="0.454902" label="middle" layer="1" /><path d="M 242.30 32.36 L 240.32 33.15 L 238.35 35.32 L 232.31 39.01 L 221.09 45.64 L 221.09 45.64 L 203.86 52.71 L 198.04 55.38 L 198.04 55.38 L 199.65 37.79 L 199.40 34.59 L 199.40 34.59 L 202.26 23.77 L 204.71 14.43 L 204.71 14.43 L 217.41 14.84 L 217.41 14.84 L 229.37 19.19 L 229.37 19.19 L 237.26 24.38 L 237.26 24.38 L 242.30 32.36 " fill="#6977b6" fill-opacity="0.564706" label="middle" layer="1" /><path d="M 120.21 36.22 L 122.02 21.62 L 122.02 21.62 L 127.70 8.05 L 127.70 8.05 L 132.57 10.07 L 132.57 10.07 L 134.64 14.92 L 134.64 14.92 L 134.34 15.47 L 132.64 25.45 L 129.66 42.27 L 129.66 42.27 L 128.60 44.89 L 124.75 57.12 L 120.81 68.64 L 120.81 68.64 L 118.51 52.46 L 118.51 52.46 L 120.21 36.22 " fill="#4879a1" fill-opacity="0.349020" label="middle" layer="1" /><path d="M 152.18 37.74 L 148.82 52.84 L 148.82 52.84 L 149.43 68.32 L 149.43 68.32 L 153.24 65.91 L 153.24 65.91 L 153.64 61.41 L 153.64 61.41 L 161.58 47.34 L 161.58 47.34 L 165.81 31.74 L 165.81 31.74 L 158.19 32.91 L 158.19 32.91 L 152.18 37.74 " fill="#6e6087" fill-opacity="0.313725" label="middle" layer="1" /><path d="M 47.28 10.84 L 43.99 23.49 L 42.03 33.83 L 42.03 33.83 L 41.00 45.51 L 40.74 57.38 L 40.74 57.38 L 48.62 47.08 L 48.62 47.08 L 52.99 34.87 L 52.99 34.87 L 52.08 22.39 L 52.08 22.39 L 47.28 10.84 " fill="#805b9f" fill-opacity="0.439216" label="middle" layer="1" /><path d="M 175.23 50.00 L 175.34 49.90 L 175.86 44.80 L 176.40 32.10 L 177.35 24.60 L 177.35 24.60 L 177.96 23.76 L 180.46 9.95 L 183.41 -0.16 L 183.41 -0.16 L 187.66 14.26 L 187.66 14.26 L 187.96 29.30 L 187.96 29.30 L 188.42 40.97 L 188.42 40.97 L 184.92 52.10 L 184.92 52.10 L 179.65 53.00 L 179.65 53.00 L 175.23 50.00 " fill="#d40000" fill-opacity="0.156863" label="middle" layer="1" /><path d="M 207.83 6.89 L 200.18 61.36 L 211.99 34.75 " fill="#6782b4" fill-opacity="0.427451" label="detail" layer="2" /><path d="M 192.75 20.03 L 187.37 44.72 L 241.88 43.83 L 236.56 21.98 " fill="#7075b4" fill-opacity="0.694118" label="detail" layer="2" /><path d="M 15.32 9.86 L 8.50 58.38 L 20.18 32.76 " fill="#427f92" fill-opacity="0.454902" label="detail" layer="2" /><path d="M 158.78 6.89 L 151.13 61.36 L 163.09 33.75 " fill="#8c65a8" fill-opacity="0.384314" label="detail" layer="2" /><path d="M 113.98 24.84 L 109.67 32.08 L 129.89 47.76 L 141.60 22.96 " fill="#6a7eb4" fill-opacity="0.654902" label="detail" layer="2" /></g>
<g><text style="font-size: 20px;" x="15" y="20">bpm: 0</text><text style="font-size: 20px;" x="15" y="40">Mood: 9</text><text style="font-size: 20px;" x="15" y="60">Density: 6</text><text style="font-size: 20px;" x="15" y="80">Gravity: 8</text><text style="font-size: 20px;" x="15" y="100">Energy: 9</text><text style="font-size: 20px;" x="15" y="120">Ensemble: 4</text><text style="font-size: 20px;" x="15" y="140">Melody: 8</text><text style="font-size: 20px;" x="15" y="160">Tension: 8</text><text style="font-size: 20px;" x="15" y="180">Rhythm: 9</text><text style="font-size: 20px;" x="15" y="200"># shapes=20</text></g></svg>