<svg xmlns="http://www.w3.org/2000/svg" height="280" preserveAspectRatio="none" version="1.1" width="930">
<rect fill="none" height="280" width="1024" x="0" y="0" />
<g transform="scale(4.0000) translate(-11.13636363636364, 0.5)">
<path d="M 61.00 7.00 L 60.58 14.93 L 61.08 18.98 L 60.34 30.18 L 61.18 36.18 L 61.67 42.17 L 61.00 62.00 L 61.00 62.00 L 77.61 59.59 L 78.07 59.12 L 82.95 59.05 L 95.41 56.69 L 102.20 55.12 L 112.93 54.50 L 116.04 53.87 L 131.06 50.97 L 133.92 51.38 L 145.21 48.53 L 149.04 47.79 L 153.80 47.24 L 166.95 45.78 L 172.48 44.70 L 174.19 44.66 L 187.68 41.84 L 191.25 41.79 L 205.09 39.14 L 208.55 38.82 L 218.46 37.57 L 221.90 36.54 L 228.53 36.30 L 235.99 35.35 L 255.00 32.00 L 255.00 32.00 L 236.69 29.45 L 236.19 29.42 L 221.31 27.34 L 218.51 27.58 L 216.87 26.51 L 198.95 24.77 L 197.30 23.94 L 191.85 24.38 L 180.16 22.35 L 177.81 22.18 L 161.54 20.54 L 159.05 19.75 L 156.69 18.89 L 143.94 17.68 L 139.47 16.79 L 124.39 15.40 L 121.94 15.17 L 117.46 13.77 L 106.83 12.56 L 103.26 11.83 L 87.42 10.52 L 86.62 10.29 L 78.79 9.47 L 61.00 7.00 " fill="#b5d48d" fill-opacity="0.666667" label="outline" layer="0" /><path d="M 238.41 61.95 L 238.67 58.17 L 237.97 53.13 L 238.44 46.32 L 239.05 33.21 L 239.18 27.89 L 239.09 22.19 L 239.35 5.30 L 239.35 5.30 L 230.02 6.33 L 228.32 7.32 L 228.23 6.60 L 225.20 7.41 L 212.64 8.20 L 207.26 9.16 L 198.92 10.13 L 196.23 10.42 L 188.34 11.47 L 184.31 11.79 L 182.57 11.57 L 170.32 13.82 L 150.92 15.95 L 150.92 15.95 L 150.32 29.05 L 150.71 32.38 L 150.80 42.97 L 150.72 57.01 L 150.72 57.01 L 168.72 58.02 L 169.21 58.18 L 180.21 58.71 L 181.64 59.13 L 183.12 59.25 L 193.18 58.76 L 201.61 59.43 L 211.11 60.09 L 216.21 60.68 L 229.41 61.27 L 238.41 61.95 " fill="#98b373" fill-opacity="0.796078" label="outline" layer="0" /><path d="M 12.00 25.00 L 12.00 44.00 L 12.00 44.00 L 21.34 43.22 L 29.21 42.30 L 32.29 41.92 L 46.73 38.96 L 48.26 38.82 L 50.90 39.54 L 63.68 37.62 L 83.00 35.00 L 83.00 35.00 L 75.63 33.42 L 69.90 32.89 L 69.37 33.48 L 58.47 31.61 L 50.73 31.12 L 49.04 30.45 L 44.25 29.35 L 43.91 28.87 L 27.58 27.25 L 12.00 25.00 " fill="#c0dc87" fill-opacity="0.627451" label="outline" layer="0" /><path d="M 58.00 16.00 L 57.72 28.21 L 57.80 28.90 L 58.70 47.13 L 58.00 53.00 L 58.00 53.00 L 58.92 52.84 L 65.96 52.00 L 69.07 50.19 L 76.48 49.90 L 84.29 47.40 L 95.23 45.11 L 99.78 44.85 L 113.72 41.47 L 117.39 40.32 L 127.08 38.92 L 131.04 38.05 L 134.85 36.77 L 152.00 34.00 L 152.00 34.00 L 143.05 31.70 L 137.83 31.15 L 130.51 29.34 L 127.21 29.80 L 113.25 26.52 L 108.61 26.23 L 101.24 24.42 L 94.81 23.15 L 92.48 22.43 L 84.63 21.75 L 81.86 20.21 L 74.41 18.76 L 58.00 16.00 " fill="#90af7c" fill-opacity="0.807843" label="outline" layer="0" /><path d="M 80.33 3.17 L 80.17 15.29 L 80.59 21.40 L 80.41 24.91 L 79.80 28.43 L 79.33 44.01 L 80.31 45.14 L 79.38 63.37 L 79.63 69.00 L 79.63 69.00 L 86.23 69.66 L 89.62 69.56 L 93.79 68.71 L 97.70 69.39 L 104.08 68.39 L 120.20 69.00 L 120.20 69.00 L 120.24 55.90 L 119.45 50.24 L 119.58 42.80 L 120.55 38.67 L 119.64 26.92 L 119.82 23.80 L 120.31 23.21 L 119.49 3.70 L 119.49 3.70 L 113.30 3.30 L 105.55 3.35 L 100.14 3.11 L 80.33 3.17 " fill="#829c6d" fill-opacity="0.345098" label="outline" layer="0" /><path d="M 187.20 5.30 L 198.93 15.07 L 200.20 16.70 L 214.47 27.00 L 215.79 29.18 L 221.06 33.84 L 230.84 41.22 L 238.89 47.84 L 238.89 47.84 L 237.11 47.83 L 221.90 50.16 L 221.72 49.63 L 214.58 51.34 L 206.85 52.09 L 187.20 53.84 L 187.20 53.84 L 185.20 47.84 L 185.20 47.84 L 186.18 41.65 L 185.09 40.69 L 186.59 24.01 L 187.20 5.30 " fill="#c0bb63" fill-opacity="0.600000" label="middle" layer="1" /><path d="M 146.34 58.31 L 147.47 51.35 L 147.85 43.44 L 147.67 37.51 L 148.94 24.41 L 150.15 10.49 L 150.15 10.49 L 161.29 9.66 L 167.48 8.69 L 170.47 7.55 L 184.81 6.69 L 185.37 6.11 L 190.94 5.17 L 194.55 4.62 L 197.48 4.97 L 210.04 3.16 L 216.92 2.02 L 235.43 0.00 L 235.43 0.00 L 234.76 3.11 L 234.63 18.71 L 233.92 22.45 L 233.70 22.84 L 232.94 33.14 L 233.87 40.98 L 232.40 45.30 L 232.61 47.89 L 232.11 55.39 L 231.65 69.00 L 231.65 69.00 L 227.59 67.94 L 213.25 67.22 L 210.07 65.75 L 208.82 66.47 L 198.00 64.88 L 189.72 63.65 L 179.65 62.27 L 176.30 62.65 L 162.77 59.71 L 146.34 58.31 " fill="#819a67" fill-opacity="0.250980" label="middle" layer="1" /><path d="M 56.95 38.47 L 45.14 27.28 L 45.14 27.28 L 35.01 28.34 L 30.75 29.08 L 12.59 32.05 L 12.59 32.05 L 13.75 40.81 L 13.75 40.81 L 16.91 41.34 L 25.69 39.82 L 28.89 40.39 L 37.27 39.65 L 56.95 38.47 " fill="#9ead65" fill-opacity="0.792157" label="middle" layer="1" /><path d="M 114.00 0.00 L 113.45 6.37 L 114.30 16.06 L 114.06 18.61 L 114.07 20.17 L 114.34 23.78 L 114.68 39.44 L 114.57 41.00 L 113.65 58.35 L 114.00 69.00 L 114.00 69.00 L 116.80 63.14 L 116.27 62.52 L 117.54 59.40 L 118.57 55.84 L 120.61 51.46 L 127.00 36.00 L 127.00 36.00 L 121.16 18.00 L 114.00 0.00 " fill="#b6ae5e" fill-opacity="0.545098" label="middle" layer="1" /><path d="M 227.40 0.00 L 232.54 17.19 L 233.69 17.13 L 238.59 33.16 L 239.82 37.80 L 239.82 37.80 L 237.43 42.07 L 236.38 45.92 L 234.43 49.52 L 231.25 60.21 L 227.40 69.00 L 227.40 69.00 L 224.60 53.41 L 221.19 37.80 L 221.19 37.80 L 223.67 24.80 L 224.37 20.67 L 223.68 20.19 L 225.60 12.87 L 227.40 0.00 " fill="#97ae7e" fill-opacity="0.564706" label="middle" layer="1" /><path d="M 169.12 12.77 L 183.40 23.84 L 183.40 23.84 L 181.89 27.27 L 177.62 39.81 L 176.50 44.72 L 174.12 54.61 L 169.12 69.00 L 169.12 69.00 L 168.51 50.07 L 168.22 49.30 L 167.80 34.41 L 167.12 23.84 L 167.12 23.84 L 169.12 12.77 " fill="#169cbc" fill-opacity="0.388235" label="middle" layer="1" /><path d="M 152.06 0.00 L 153.14 5.39 L 155.81 14.10 L 157.66 22.49 L 162.13 40.85 L 162.13 40.85 L 152.06 56.35 L 152.06 56.35 L 147.96 40.85 L 147.96 40.85 L 150.35 22.41 L 149.47 21.93 L 151.57 5.22 L 152.06 0.00 " fill="#e1c542" fill-opacity="0.400000" label="middle" layer="1" /><path d="M 84.00 0.00 L 83.90 16.76 L 83.51 16.76 L 83.67 26.99 L 83.37 32.05 L 83.79 44.31 L 84.24 51.72 L 84.00 69.00 L 84.00 69.00 L 84.80 67.62 L 85.97 63.53 L 86.61 59.61 L 87.90 55.23 L 90.85 43.35 L 94.00 35.00 L 94.00 35.00 L 92.33 29.12 L 89.87 22.66 L 88.79 16.62 L 84.00 0.00 " fill="#8fa777" fill-opacity="0.709804" label="middle" layer="1" /><path d="M 102.65 3.59 L 100.93 14.61 L 100.19 27.01 L 100.19 27.01 L 99.69 40.22 L 99.80 40.48 L 99.23 43.16 L 100.07 45.82 L 99.93 51.76 L 98.89 68.75 L 98.89 68.75 L 104.79 51.91 L 104.50 51.11 L 104.81 49.40 L 109.56 37.25 L 113.01 27.64 L 113.01 27.64 L 112.20 24.25 L 107.45 14.78 L 102.65 3.59 " fill="#adb263" fill-opacity="0.513725" label="middle" layer="1" /><path d="M 179.97 17.39 L 179.34 20.95 L 180.61 37.34 L 180.34 51.04 L 180.34 51.04 L 181.87 51.46 L 189.30 50.56 L 200.03 51.09 L 201.67 51.16 L 216.54 50.40 L 227.18 50.05 L 227.18 50.05 L 230.37 37.03 L 233.71 18.43 L 233.71 18.43 L 216.92 17.68 L 214.61 17.73 L 214.17 17.95 L 196.50 17.06 L 179.97 17.39 " fill="#b7bf6b" fill-opacity="0.478431" label="middle" layer="1" /><polygon fill="#0b7c8a" fill-opacity="0.278431" label="detail" layer="2" points="59.198761,59.919880,67.128582,50.282844,77.333123,0.000000,59.438282,17.506251" />
<polygon fill="#59b09d" fill-opacity="0.341176" label="detail" layer="2" points="177.805495,-0.000000,190.386861,35.413082,177.805495,54.120037,171.514812,35.413082" />
<polygon fill="#44aeac" fill-opacity="0.529412" label="detail" layer="2" points="96.440124,15.528043,102.777818,21.528043,96.440124,54.774155,93.586990,21.528043" />
<polygon fill="#c5a849" fill-opacity="0.482353" label="detail" layer="2" points="195.335946,-0.000000,202.942932,34.853308,195.335946,69.000000,193.335946,34.853308" />
<polygon fill="#b7ac54" fill-opacity="0.478431" label="detail" layer="2" points="72.063099,2.172907,82.609585,47.929072,72.063099,53.929072,70.063099,47.929072" />
</g>
<g><text style="font-size: 20px;" x="15" y="20">bpm: 126</text><text style="font-size: 20px;" x="15" y="40">Mood: 4</text><text style="font-size: 20px;" x="15" y="60">Density: 7</text><text style="font-size: 20px;" x="15" y="80">Gravity: 7</text><text style="font-size: 20px;" x="15" y="100">Energy: 7</text><text style="font-size: 20px;" x="15" y="120">Ensemble: 9</text><text style="font-size: 20px;" x="15" y="140">Melody: 3</text><text style="font-size: 20px;" x="15" y="160">Tension: 9</text><text style="font-size: 20px;" x="15" y="180">Rhythm: 8</text><text style="font-size: 20px;" x="15" y="200"># shapes=20</text></g></svg>