<svg xmlns="http://www.w3.org/2000/svg" height="280" preserveAspectRatio="none" version="1.1" width="930">
<rect fill="none" height="280" width="1024" x="0" y="0" />
<g transform="scale(4.0000) translate(-11.13636363636364, 0.5)">
<path d="M 61.00 7.00 L 61.00 62.00 L 255.00 32.00 " fill="#b5d48d" fill-opacity="0.666667" label="outline" layer="0" /><path d="M 169.00 0.00 L 169.00 69.00 L 255.00 34.00 " fill="#98b475" fill-opacity="0.729412" label="outline" layer="0" /><path d="M 237.48 32.77 L 239.11 62.57 L 3.81 38.30 L 18.54 28.90 " fill="#8ea369" fill-opacity="0.760784" label="outline" layer="0" /><path d="M 233.31 5.52 L 144.44 14.38 L 229.53 69.00 L 240.19 19.09 " fill="#9bb06f" fill-opacity="0.623529" label="outline" layer="0" /><path d="M 57.22 20.20 L 119.60 0.00 L 119.82 67.54 L 58.06 49.12 " fill="#83a678" fill-opacity="0.482353" label="outline" layer="0" /><path d="M 84.00 0.00 L 84.00 69.00 L 96.00 27.00 " fill="#8aa272" fill-opacity="0.796078" label="middle" layer="1" /><path d="M 13.98 43.66 L 49.53 40.26 L 46.75 27.14 L 11.38 27.78 " fill="#c6d779" fill-opacity="0.380392" label="middle" layer="1" /><path d="M 225.00 0.00 L 225.00 69.00 L 239.00 18.00 " fill="#a2ad74" fill-opacity="0.666667" label="middle" layer="1" /><path d="M 150.00 9.00 L 150.00 60.00 L 164.00 28.00 " fill="#d4d159" fill-opacity="0.541176" label="middle" layer="1" /><path d="M 161.00 6.00 L 161.00 63.00 L 187.00 33.00 " fill="#12b0d3" fill-opacity="0.286275" label="middle" layer="1" /><path d="M 58.00 15.00 L 58.00 54.00 L 125.00 27.00 " fill="#88bb8c" fill-opacity="0.482353" label="middle" layer="1" /><path d="M 196.04 0.00 L 221.68 69.00 L 189.19 67.25 L 186.20 3.12 " fill="#f2a11b" fill-opacity="0.188235" label="middle" layer="1" /><path d="M 87.93 0.00 L 82.03 0.00 L 79.73 69.00 L 87.49 69.00 " fill="#758e73" fill-opacity="0.407843" label="middle" layer="1" /><path d="M 114.00 0.00 L 114.00 69.00 L 125.00 28.00 " fill="#b6ae5d" fill-opacity="0.517647" label="middle" layer="1" /><path d="M 213.36 69.00 L 208.15 40.10 L 216.11 0.00 L 225.73 37.00 " fill="#91b673" fill-opacity="0.552941" label="middle" layer="1" /><path d="M 74.06 59.20 L 82.02 43.62 L 75.45 3.16 L 71.36 3.97 " fill="#c69932" fill-opacity="0.388235" label="detail" layer="2" /><path d="M 226.62 0.00 L 236.20 54.04 L 238.97 50.52 L 239.03 9.00 " fill="#409891" fill-opacity="0.427451" label="detail" layer="2" /><path d="M 101.49 9.91 L 102.42 42.66 L 108.08 52.66 L 110.04 19.31 " fill="#d0b44e" fill-opacity="0.639216" label="detail" layer="2" /><path d="M 26.00 29.00 L 26.00 40.00 L 66.00 34.00 " fill="#b9cb76" fill-opacity="0.525490" label="detail" layer="2" /><path d="M 151.73 45.70 L 151.63 0.00 L 167.04 42.21 L 158.07 63.74 " fill="#bdbb56" fill-opacity="0.262745" label="detail" layer="2" /></g>
<g><text style="font-size: 20px;" x="15" y="20">bpm: 126</text><text style="font-size: 20px;" x="15" y="40">Mood: 4</text><text style="font-size: 20px;" x="15" y="60">Density: 7</text><text style="font-size: 20px;" x="15" y="80">Gravity: 9</text><text style="font-size: 20px;" x="15" y="100">Energy: 7</text><text style="font-size: 20px;" x="15" y="120">Ensemble: 9</text><text style="font-size: 20px;" x="15" y="140">Melody: 3</text><text style="font-size: 20px;" x="15" y="160">Tension: 7</text><text style="font-size: 20px;" x="15" y="180">Rhythm: 8</text><text style="font-size: 20px;" x="15" y="200"># shapes=20</text></g></svg>