<svg xmlns="http://www.w3.org/2000/svg" height="280" preserveAspectRatio="none" version="1.1" width="930">
<rect fill="none" height="280" width="1024" x="0" y="0" />
<g transform="scale(4.0000) translate(-11.13636363636364, 0.5)">
<polygon fill="#9fba7b" fill-opacity="0.764706" label="outline" layer="0" points="87.770684,12.680190,255.000000,32.268771,87.770684,61.643991,35.562083,32.268771" />
<polygon fill="#bfdd8d" fill-opacity="0.549020" label="outline" layer="0" points="196.741467,67.162846,255.000000,34.225277,196.741467,-0.000000,138.875841,34.225277" />
<polygon fill="#8fa86c" fill-opacity="0.600000" label="outline" layer="0" points="149.522673,55.748639,149.856934,12.744606,240.103297,2.615943,238.463394,64.218161" />
<polygon fill="#89a773" fill-opacity="0.490196" label="outline" layer="0" points="117.821936,0.000000,12.131144,29.953461,11.403106,39.488924,117.695730,69.000000" />
<polygon fill="#87b084" fill-opacity="0.427451" label="outline" layer="0" points="59.900522,11.888799,59.580966,56.720064,87.522258,69.000000,87.603173,0.000000" />
<path d="M 20.91 28.94 L 65.98 35.93 L 20.91 41.93 L 9.61 35.93 " fill="#b1c26f" fill-opacity="0.729412" label="middle" layer="1" /><path d="M 187.21 47.23 L 232.43 59.73 L 236.69 13.96 L 179.59 20.87 " fill="#aab56b" fill-opacity="0.729412" label="middle" layer="1" /><path d="M 232.40 0.09 L 237.88 44.21 L 222.79 68.42 L 220.69 41.80 " fill="#90a575" fill-opacity="0.698039" label="middle" layer="1" /><path d="M 161.21 32.07 L 184.22 1.32 L 176.82 64.94 L 159.84 51.30 " fill="#0093c2" fill-opacity="0.305882" label="middle" layer="1" /><path d="M 101.52 11.10 L 135.73 36.62 L 101.52 51.42 L 83.74 36.62 " fill="#a2b97b" fill-opacity="0.584314" label="middle" layer="1" /><path d="M 156.51 -0.20 L 164.58 54.67 L 149.55 50.30 L 146.01 44.84 " fill="#f6d340" fill-opacity="0.286275" label="middle" layer="1" /><path d="M 118.69 10.23 L 56.76 29.63 L 71.21 60.39 L 123.67 17.99 " fill="#85a979" fill-opacity="0.486275" label="middle" layer="1" /><path d="M 234.19 0.62 L 229.64 1.10 L 220.56 68.39 L 224.85 68.99 " fill="#d2a34c" fill-opacity="0.517647" label="middle" layer="1" /><path d="M 210.06 52.00 L 185.56 53.84 L 189.80 11.58 L 209.92 23.74 " fill="#ccb553" fill-opacity="0.564706" label="middle" layer="1" /><path d="M 75.43 2.18 L 71.29 31.64 L 66.85 63.26 L 81.30 33.04 " fill="#e9b93f" fill-opacity="0.321569" label="middle" layer="1" /><path d="M 88.76 -0.13 L 79.16 68.20 L 94.07 33.94 " fill="#90a575" fill-opacity="0.662745" label="detail" layer="2" /><path d="M 36.88 28.76 L 62.42 34.76 L 36.88 42.02 L 21.04 34.76 " fill="#b1bd6a" fill-opacity="0.521569" label="detail" layer="2" /><path d="M 221.37 0.48 L 204.50 67.78 L 214.60 67.18 L 224.43 4.38 " fill="#81b06e" fill-opacity="0.317647" label="detail" layer="2" /><path d="M 108.30 6.15 L 110.60 38.12 L 101.30 55.98 L 100.61 36.71 " fill="#e4b53e" fill-opacity="0.407843" label="detail" layer="2" /><path d="M 96.49 18.83 L 92.54 59.16 L 98.45 58.04 L 104.41 14.05 " fill="#018cb0" fill-opacity="0.337255" label="detail" layer="2" /></g>
<g><text style="font-size: 20px;" x="15" y="20">bpm: 126</text><text style="font-size: 20px;" x="15" y="40">Mood: 4</text><text style="font-size: 20px;" x="15" y="60">Density: 7</text><text style="font-size: 20px;" x="15" y="80">Gravity: 7</text><text style="font-size: 20px;" x="15" y="100">Energy: 9</text><text style="font-size: 20px;" x="15" y="120">Ensemble: 9</text><text style="font-size: 20px;" x="15" y="140">Melody: 3</text><text style="font-size: 20px;" x="15" y="160">Tension: 7</text><text style="font-size: 20px;" x="15" y="180">Rhythm: 8</text><text style="font-size: 20px;" x="15" y="200"># shapes=20</text></g></svg>