<svg xmlns="http://www.w3.org/2000/svg" height="280" preserveAspectRatio="none" version="1.1" width="930">
<rect fill="none" height="280" width="1024" x="0" y="0" />
<g transform="scale(4.0000) translate(-11.13636363636364, 0.5)">
<polygon fill="#9fba7b" fill-opacity="0.764706" label="outline" layer="0" points="87.770684,12.680190,255.000000,32.268771,87.770684,61.643991,35.562083,32.268771" />
<polygon fill="#bfdd8d" fill-opacity="0.549020" label="outline" layer="0" points="196.741467,67.162846,255.000000,34.225277,196.741467,-0.000000,138.875841,34.225277" />
<polygon fill="#8fa86c" fill-opacity="0.600000" label="outline" layer="0" points="149.522673,55.748639,149.856934,12.744606,240.103297,2.615943,238.463394,64.218161" />
<polygon fill="#89a773" fill-opacity="0.490196" label="outline" layer="0" points="117.821936,0.000000,12.131144,29.953461,11.403106,39.488924,117.695730,69.000000" />
<polygon fill="#87b084" fill-opacity="0.427451" label="outline" layer="0" points="59.900522,11.888799,59.580966,56.720064,87.522258,69.000000,87.603173,0.000000" />
<path d="M 44.56 29.24 L 27.94 28.34 L 11.59 31.43 L 10.21 35.91 L 12.78 39.83 L 32.81 42.13 L 52.90 40.44 L 50.33 33.64 " fill="#9cad67" fill-opacity="0.929412" label="middle" layer="1" /><path d="M 227.67 0.25 L 235.43 21.09 L 239.33 43.00 L 235.32 56.82 L 227.67 69.00 L 222.01 56.55 L 220.19 43.00 L 221.96 21.28 " fill="#99ae7a" fill-opacity="0.674510" label="middle" layer="1" /><path d="M 187.00 14.00 L 185.00 34.50 L 187.00 55.00 L 211.60 49.41 L 235.00 40.00 L 211.95 25.24 " fill="#c2bb61" fill-opacity="0.698039" label="middle" layer="1" /><path d="M 101.45 13.01 L 119.54 22.62 L 135.43 35.57 L 119.45 47.21 L 101.45 55.41 L 98.46 45.69 L 99.45 35.57 L 98.46 24.11 " fill="#b2b76d" fill-opacity="0.654902" label="middle" layer="1" /><path d="M 169.00 3.00 L 167.00 34.50 L 169.00 66.00 L 176.86 51.74 L 181.00 36.00 L 176.88 18.82 " fill="#059fce" fill-opacity="0.352941" label="middle" layer="1" /><path d="M 201.79 22.66 L 205.99 46.34 L 214.05 69.00 L 228.35 45.65 L 239.10 20.47 L 240.10 15.95 L 237.21 12.34 L 218.95 15.58 " fill="#95b475" fill-opacity="0.474510" label="middle" layer="1" /><path d="M 114.00 0.00 L 112.00 34.50 L 114.00 69.00 L 123.33 52.81 L 129.00 35.00 L 123.34 16.71 " fill="#b4a759" fill-opacity="0.415686" label="middle" layer="1" /><path d="M 152.09 0.00 L 159.17 20.72 L 162.36 42.39 L 158.82 50.39 L 152.09 55.98 L 148.40 49.68 L 148.57 42.39 L 148.34 21.03 " fill="#f9d741" fill-opacity="0.325490" label="middle" layer="1" /><path d="M 104.65 24.88 L 84.00 18.30 L 62.49 15.63 L 58.09 31.79 L 57.65 48.54 L 78.45 49.64 L 99.08 46.75 L 103.80 36.31 " fill="#80af84" fill-opacity="0.709804" label="middle" layer="1" /><path d="M 71.23 3.36 L 69.23 18.79 L 71.23 34.22 L 69.23 48.52 L 71.23 62.81 L 77.61 49.11 L 80.17 34.22 L 77.62 18.23 " fill="#bfad50" fill-opacity="0.564706" label="middle" layer="1" /><polygon fill="#5ba990" fill-opacity="0.454902" label="detail" layer="2" points="161.028000,2.918738,174.435383,48.167292,161.028000,54.167292,160.689409,48.167292" />
<polygon fill="#8aa172" fill-opacity="0.933333" label="detail" layer="2" points="84.106771,-0.000000,84.106771,37.227286,84.106771,69.000000,94.458541,37.227286" />
<polygon fill="#d1a553" fill-opacity="0.509804" label="detail" layer="2" points="225.489494,69.000000,229.527365,69.000000,228.440887,0.000000,224.611171,0.000000" />
<polygon fill="#6fb38c" fill-opacity="0.447059" label="detail" layer="2" points="178,3 178,66 189,30" />
<polygon fill="#c2b55a" fill-opacity="0.580392" label="detail" layer="2" points="195.341683,16.060504,218.285517,22.060504,195.341683,60.392142,186.184982,22.060504" />
</g>
<g><text style="font-size: 20px;" x="15" y="20">bpm: 126</text><text style="font-size: 20px;" x="15" y="40">Mood: 9</text><text style="font-size: 20px;" x="15" y="60">Density: 7</text><text style="font-size: 20px;" x="15" y="80">Gravity: 7</text><text style="font-size: 20px;" x="15" y="100">Energy: 7</text><text style="font-size: 20px;" x="15" y="120">Ensemble: 9</text><text style="font-size: 20px;" x="15" y="140">Melody: 3</text><text style="font-size: 20px;" x="15" y="160">Tension: 7</text><text style="font-size: 20px;" x="15" y="180">Rhythm: 8</text><text style="font-size: 20px;" x="15" y="200"># shapes=20</text></g></svg>