<svg xmlns="http://www.w3.org/2000/svg" height="280" preserveAspectRatio="none" version="1.1" width="930">
<rect fill="none" height="280" width="1024" x="0" y="0" />
<g transform="scale(4.0000) translate(-11.13636363636364, 0.5)">
<path d="M 245.11 49.71 Q 246.09 50.84, 244.59 50.87 L 105.74 53.72 Q 104.24 53.75, 102.78 53.40 L 19.61 33.44 Q 18.15 33.09, 19.64 32.96 L 214.39 16.05 Q 215.88 15.92, 216.86 17.05 L 245.11 49.71" fill="#96ad70" fill-opacity="0.890196" label="outline" layer="0" /><path d="M 113.90 0.45 Q 115.33 0.00, 115.91 1.38 L 125.80 24.77 Q 126.39 26.16, 126.04 27.61 L 116.48 67.54 Q 116.13 69.00, 114.69 68.58 L 2.57 36.10 Q 1.13 35.69, 2.56 35.24 L 113.90 0.45" fill="#90ad75" fill-opacity="0.596078" label="outline" layer="0" /><path d="M 238.35 4.85 Q 239.85 4.71, 239.80 6.21 L 238.08 62.94 Q 238.04 64.44, 236.55 64.28 L 151.68 55.04 Q 150.19 54.88, 150.15 53.38 L 149.08 14.55 Q 149.04 13.06, 150.53 12.92 L 238.35 4.85" fill="#9bb775" fill-opacity="0.639216" label="outline" layer="0" /><path d="M 66.99 8.75 Q 68.08 7.71, 69.55 7.97 L 122.80 17.42 Q 124.28 17.68, 123.16 18.68 L 69.19 66.92 Q 68.08 67.92, 67.77 66.45 L 57.96 19.15 Q 57.66 17.68, 58.74 16.65 L 66.99 8.75" fill="#8eb886" fill-opacity="0.490196" label="outline" layer="0" /><path d="M 225.61 1.37 Q 225.00 0.00, 225.00 1.50 L 225.00 67.50 Q 225.00 69.00, 225.59 67.62 L 239.41 35.38 Q 240.00 34.00, 239.39 32.63 L 225.61 1.37" fill="#a3b178" fill-opacity="0.701961" label="outline" layer="0" /><path d="M 84.45 1.47 Q 84.75 -0.00, 85.30 1.39 L 95.16 26.07 Q 95.72 27.46, 95.34 28.91 L 85.13 67.55 Q 84.75 69.00, 84.55 67.51 L 79.46 28.95 Q 79.26 27.46, 79.55 25.99 L 84.45 1.47" fill="#7d9d75" fill-opacity="0.772549" label="middle" layer="1" /><path d="M 14.16 28.94 Q 15.04 27.72, 16.53 27.88 L 67.94 33.55 Q 69.43 33.72, 67.95 33.96 L 16.52 42.41 Q 15.04 42.66, 14.39 41.30 L 11.40 35.07 Q 10.76 33.72, 11.63 32.49 L 14.16 28.94" fill="#b4c670" fill-opacity="0.498039" label="middle" layer="1" /><path d="M 169.45 1.48 Q 169.70 -0.00, 170.18 1.42 L 186.58 49.58 Q 187.07 51.00, 186.03 52.08 L 170.74 67.92 Q 169.70 69.00, 169.05 67.65 L 161.66 52.35 Q 161.01 51.00, 161.26 49.52 L 169.45 1.48" fill="#0084ae" fill-opacity="0.278431" label="middle" layer="1" /><path d="M 186.23 64.60 Q 186.49 66.08, 187.98 66.18 L 230.19 68.90 Q 231.68 69.00, 231.63 67.50 L 229.45 1.50 Q 229.40 0.00, 227.91 0.17 L 177.82 6.03 Q 176.33 6.20, 176.58 7.68 L 186.23 64.60" fill="#daa93a" fill-opacity="0.160784" label="middle" layer="1" /><path d="M 117.19 18.86 Q 118.69 18.77, 118.31 20.22 L 110.92 48.40 Q 110.54 49.85, 109.04 49.84 L 62.10 49.30 Q 60.60 49.28, 60.48 47.79 L 58.59 23.96 Q 58.48 22.46, 59.97 22.37 L 117.19 18.86" fill="#89ae7c" fill-opacity="0.858824" label="middle" layer="1" /><path d="M 212.63 22.50 Q 213.21 21.11, 211.74 20.84 L 186.06 16.12 Q 184.59 15.85, 184.88 17.32 L 188.75 36.79 Q 189.04 38.26, 189.40 39.72 L 194.92 62.25 Q 195.27 63.71, 195.86 62.32 L 212.63 22.50" fill="#c1b45b" fill-opacity="0.690196" label="middle" layer="1" /><path d="M 152.26 1.49 Q 152.43 -0.00, 152.75 1.47 L 160.18 35.83 Q 160.49 37.29, 159.97 38.70 L 152.95 57.54 Q 152.43 58.94, 152.14 57.47 L 148.47 38.77 Q 148.18 37.29, 148.35 35.80 L 152.26 1.49" fill="#cdb844" fill-opacity="0.474510" label="middle" layer="1" /><path d="M 102.27 14.81 Q 101.00 14.00, 101.00 15.50 L 101.00 53.50 Q 101.00 55.00, 102.28 54.22 L 132.72 35.78 Q 134.00 35.00, 132.73 34.19 L 102.27 14.81" fill="#bfb460" fill-opacity="0.533333" label="middle" layer="1" /><path d="M 234.13 4.67 Q 234.39 3.20, 234.69 4.67 L 240.48 33.30 Q 240.78 34.77, 240.30 36.19 L 234.87 52.30 Q 234.39 53.72, 233.97 52.28 L 229.16 36.21 Q 228.73 34.77, 229.00 33.29 L 234.13 4.67" fill="#49a399" fill-opacity="0.458824" label="middle" layer="1" /><path d="M 85.57 0.00 Q 87.07 0.00, 87.09 1.50 L 87.67 67.50 Q 87.68 69.00, 86.18 69.00 L 80.95 69.00 Q 79.45 69.00, 79.51 67.50 L 82.03 1.50 Q 82.09 0.00, 83.59 0.00 L 85.57 0.00" fill="#809575" fill-opacity="0.400000" label="middle" layer="1" /><polygon fill="#2198a7" fill-opacity="0.317647" label="detail" layer="2" points="60.864581,7.032984,72.130875,33.940142,60.864581,64.942831,58.864581,33.940142" />
<polygon fill="#cea337" fill-opacity="0.301961" label="detail" layer="2" points="81.357111,25.843550,75.841784,65.878065,68.381097,24.723486,74.078279,0.000000" />
<polygon fill="#68af8d" fill-opacity="0.431373" label="detail" layer="2" points="178.834548,2.792625,188.203249,29.565578,178.834548,69.000000,176.834548,29.565578" />
<polygon fill="#92a26c" fill-opacity="0.498039" label="detail" layer="2" points="114.516599,-0.000000,122.081210,33.733837,114.516599,69.000000,112.516599,33.733837" />
<polygon fill="#7cba8b" fill-opacity="0.396078" label="detail" layer="2" points="216,3 216,66 227,28" />
</g>
<g><text style="font-size: 20px;" x="15" y="20">bpm: 126</text><text style="font-size: 20px;" x="15" y="40">Mood: 4</text><text style="font-size: 20px;" x="15" y="60">Density: 7</text><text style="font-size: 20px;" x="15" y="80">Gravity: 1</text><text style="font-size: 20px;" x="15" y="100">Energy: 7</text><text style="font-size: 20px;" x="15" y="120">Ensemble: 9</text><text style="font-size: 20px;" x="15" y="140">Melody: 3</text><text style="font-size: 20px;" x="15" y="160">Tension: 7</text><text style="font-size: 20px;" x="15" y="180">Rhythm: 8</text><text style="font-size: 20px;" x="15" y="200"># shapes=20</text></g></svg>