<svg xmlns="http://www.w3.org/2000/svg" height="280" preserveAspectRatio="none" version="1.1" width="930">
<rect fill="none" height="280" width="1024" x="0" y="0" />
<g transform="scale(4.0000) translate(-11.13636363636364, 0.5)">
<path d="M 87.77 12.68 C 89.83 12.78, 92.10 12.91, 94.23, 13.16 C 98.91 13.71, 102.36 14.67, 107.03, 15.21 C 109.16 15.46, 111.43 15.59, 113.50, 15.69 C 115.56 15.80, 117.83 15.92, 119.96, 16.17 C 124.64 16.72, 128.09 17.68, 132.76, 18.23 C 134.89 18.48, 137.16 18.60, 139.23, 18.71 C 141.29 18.81, 143.56 18.94, 145.69, 19.19 C 150.36 19.74, 153.82 20.69, 158.49, 21.24 C 160.62 21.49, 162.89 21.62, 164.95, 21.72 C 167.02 21.82, 169.29 21.95, 171.42, 22.20 C 176.09 22.75, 179.54 23.71, 184.22, 24.25 C 186.35 24.50, 188.62 24.63, 190.68, 24.73 C 192.74 24.84, 195.01 24.97, 197.14, 25.21 C 201.82 25.76, 205.27 26.72, 209.94, 27.27 C 212.08 27.52, 214.35 27.65, 216.41, 27.75 C 218.47 27.85, 220.74 27.98, 222.87, 28.23 C 227.55 28.78, 231.00 29.73, 235.67, 30.28 C 237.80 30.53, 240.07 30.66, 242.14, 30.76 C 244.20 30.87, 246.47 30.99, 248.60, 31.24 C 250.73 31.49, 252.97 31.89, 255.00, 32.27 C 252.98 32.76, 250.75 33.30, 248.62, 33.67 C 243.94 34.49, 240.33 34.57, 235.66, 35.39 C 233.53 35.76, 231.30 36.29, 229.27, 36.79 C 227.25 37.28, 225.02 37.81, 222.89, 38.19 C 218.21 39.01, 214.60 39.09, 209.93, 39.91 C 207.80 40.28, 205.57 40.81, 203.54, 41.31 C 201.52 41.80, 199.29 42.33, 197.16, 42.71 C 192.49 43.53, 188.88 43.60, 184.20, 44.43 C 182.07 44.80, 179.84 45.33, 177.82, 45.83 C 175.79 46.32, 173.56 46.85, 171.43, 47.23 C 166.76 48.05, 163.15 48.12, 158.47, 48.95 C 156.34 49.32, 154.11 49.85, 152.09, 50.35 C 150.07 50.84, 147.84 51.37, 145.71, 51.75 C 141.03 52.57, 137.42 52.64, 132.75, 53.46 C 130.62 53.84, 128.39 54.37, 126.36, 54.87 C 124.34 55.36, 122.11 55.89, 119.98, 56.27 C 115.30 57.09, 111.69 57.16, 107.02, 57.98 C 104.89 58.36, 102.66 58.89, 100.63, 59.38 C 98.61 59.88, 96.38 60.41, 94.25, 60.79 C 92.12 61.16, 89.84 61.42, 87.77, 61.64 C 86.04 60.83, 84.14 59.92, 82.41, 58.95 C 78.62 56.81, 76.04 54.73, 72.24, 52.59 C 70.51 51.62, 68.62 50.71, 66.89, 49.89 C 65.16 49.08, 63.26 48.17, 61.53, 47.20 C 57.74 45.06, 55.15 42.98, 51.36, 40.84 C 49.63 39.87, 47.73 38.96, 46.00, 38.14 C 44.27 37.33, 42.38 36.42, 40.65, 35.45 C 38.92 34.47, 37.16 33.32, 35.56, 32.27 C 37.18 31.52, 38.96 30.70, 40.69, 30.05 C 44.48 28.63, 47.53 28.07, 51.32, 26.65 C 53.05 26.00, 54.83 25.19, 56.45, 24.43 C 58.06 23.68, 59.84 22.87, 61.57, 22.22 C 65.36 20.79, 68.41 20.24, 72.20, 18.81 C 73.93 18.17, 75.72 17.35, 77.33, 16.60 C 78.94 15.85, 80.72 15.03, 82.45, 14.38 C 84.18 13.73, 86.06 13.17, 87.77, 12.68" fill="#9fba7b" fill-opacity="0.764706" label="outline" layer="0" /><path d="M 196.74 67.16 C 198.66 66.23, 200.77 65.20, 202.70, 64.11 C 206.94 61.71, 209.85 59.44, 214.08, 57.04 C 216.01 55.95, 218.12 54.92, 220.04, 53.99 C 221.97 53.06, 224.08 52.02, 226.01, 50.93 C 230.24 48.54, 233.15 46.26, 237.39, 43.87 C 239.32 42.78, 241.43 41.74, 243.35, 40.81 C 245.27 39.88, 247.38 38.85, 249.31, 37.76 C 251.24 36.67, 253.21 35.39, 255.00, 34.23 C 253.22 33.02, 251.24 31.70, 249.31, 30.57 C 245.08 28.08, 241.62 26.68, 237.38, 24.19 C 235.45 23.06, 233.48 21.74, 231.70, 20.54 C 229.91 19.33, 227.94 18.01, 226.01, 16.88 C 221.78 14.39, 218.31 12.99, 214.08, 10.50 C 212.15 9.37, 210.18 8.05, 208.39, 6.85 C 206.61 5.64, 204.64 4.32, 202.71, 3.19 C 200.78 2.05, 198.67 0.97, 196.74, 0.00 C 194.83 0.97, 192.73 2.05, 190.81, 3.19 C 186.61 5.67, 183.73 8.02, 179.52, 10.50 C 177.61 11.64, 175.51 12.72, 173.60, 13.69 C 171.68 14.66, 169.59 15.74, 167.67, 16.88 C 163.46 19.36, 160.58 21.71, 156.38, 24.19 C 154.46 25.33, 152.36 26.41, 150.45, 27.38 C 148.54 28.35, 146.44 29.43, 144.52, 30.57 C 142.61 31.70, 140.65 33.02, 138.88, 34.23 C 140.65 35.39, 142.61 36.67, 144.53, 37.76 C 148.73 40.15, 152.17 41.47, 156.37, 43.87 C 158.29 44.96, 160.25 46.23, 162.02, 47.40 C 163.80 48.57, 165.76 49.84, 167.67, 50.93 C 171.88 53.33, 175.31 54.65, 179.52, 57.04 C 181.43 58.13, 183.39 59.41, 185.17, 60.58 C 186.94 61.74, 188.90 63.02, 190.82, 64.11 C 192.74 65.20, 194.83 66.23, 196.74, 67.16" fill="#bfdd8d" fill-opacity="0.549020" label="outline" layer="0" /><path d="M 149.52 55.75 C 149.40 53.47, 149.28 50.95, 149.30, 48.58 C 149.34 43.37, 149.92 39.46, 149.96, 34.25 C 149.98 31.87, 149.87 29.36, 149.75, 27.08 C 149.63 24.80, 149.51 22.28, 149.53, 19.91 C 149.54 17.54, 149.70 15.02, 149.86, 12.74 C 151.89 12.38, 154.14 11.99, 156.27, 11.75 C 160.96 11.22, 164.54 11.37, 169.23, 10.85 C 171.36 10.61, 173.61 10.22, 175.64, 9.85 C 177.68 9.48, 179.92 9.09, 182.06, 8.85 C 186.74 8.33, 190.33 8.48, 195.01, 7.95 C 197.15 7.71, 199.39 7.32, 201.43, 6.96 C 203.46 6.59, 205.71 6.20, 207.84, 5.96 C 212.53 5.43, 216.11 5.59, 220.80, 5.06 C 222.93 4.82, 225.17 4.43, 227.21, 4.06 C 229.25 3.70, 231.49 3.31, 233.63, 3.07 C 235.76 2.83, 238.04 2.71, 240.10, 2.62 C 240.19 4.58, 240.27 6.74, 240.21, 8.78 C 240.10 13.26, 239.46 16.61, 239.34, 21.09 C 239.28 23.13, 239.36 25.29, 239.45, 27.26 C 239.53 29.22, 239.61 31.38, 239.56, 33.42 C 239.44 37.90, 238.80 41.25, 238.68, 45.73 C 238.63 47.77, 238.71 49.93, 238.79, 51.90 C 238.88 53.86, 238.96 56.02, 238.90, 58.07 C 238.85 60.11, 238.65 62.26, 238.46, 64.22 C 236.43 64.16, 234.19 64.09, 232.08, 63.89 C 227.47 63.45, 224.05 62.57, 219.43, 62.13 C 217.33 61.93, 215.09 61.85, 213.05, 61.80 C 211.02 61.74, 208.78 61.67, 206.67, 61.47 C 202.06 61.03, 198.64 60.15, 194.02, 59.71 C 191.91 59.51, 189.68 59.43, 187.64, 59.38 C 185.60 59.32, 183.37 59.25, 181.26, 59.05 C 176.64 58.61, 173.22 57.73, 168.61, 57.29 C 166.50 57.09, 164.26 57.01, 162.23, 56.96 C 160.19 56.90, 157.95 56.83, 155.85, 56.63 C 153.75 56.43, 151.53 56.08, 149.52, 55.75" fill="#8fa86c" fill-opacity="0.600000" label="outline" layer="0" /><path d="M 117.82 0.00 C 115.92 0.40, 113.82 0.85, 111.88, 1.40 C 107.61 2.61, 104.55 4.05, 100.28, 5.26 C 98.34 5.81, 96.24 6.26, 94.34, 6.66 C 92.43 7.05, 90.33 7.50, 88.39, 8.06 C 84.12 9.27, 81.06 10.70, 76.79, 11.91 C 74.85 12.46, 72.75 12.92, 70.85, 13.31 C 68.94 13.71, 66.85 14.16, 64.90, 14.71 C 60.63 15.92, 57.58 17.36, 53.31, 18.57 C 51.36 19.12, 49.27 19.57, 47.36, 19.97 C 45.45 20.37, 43.36 20.82, 41.41, 21.37 C 37.15 22.58, 34.09 24.02, 29.82, 25.23 C 27.88 25.78, 25.78 26.23, 23.87, 26.63 C 21.97 27.02, 19.87 27.47, 17.93, 28.02 C 15.98 28.58, 13.96 29.29, 12.13, 29.95 C 11.88 31.46, 11.61 33.12, 11.49, 34.70 C 11.37 36.28, 11.38 37.96, 11.40, 39.49 C 13.25 40.14, 15.28 40.85, 17.23, 41.39 C 21.53 42.58, 24.90 42.95, 29.19, 44.14 C 31.15 44.69, 33.18 45.39, 35.02, 46.05 C 36.87 46.70, 38.90 47.41, 40.86, 47.95 C 45.15 49.14, 48.52 49.51, 52.81, 50.70 C 54.77 51.24, 56.80 51.95, 58.64, 52.60 C 60.49 53.26, 62.52 53.97, 64.48, 54.51 C 68.77 55.70, 72.14 56.07, 76.43, 57.26 C 78.39 57.80, 80.42 58.51, 82.26, 59.16 C 84.11 59.82, 86.14 60.52, 88.10, 61.07 C 92.39 62.26, 95.76 62.62, 100.05, 63.82 C 102.01 64.36, 104.04 65.07, 105.89, 65.72 C 107.73 66.38, 109.76 67.08, 111.72, 67.63 C 113.67 68.17, 115.78 68.61, 117.70, 69.00 C 117.84 66.80, 117.98 64.39, 117.98, 62.10 C 117.99 57.09, 117.45 53.31, 117.46, 48.30 C 117.46 46.01, 117.60 43.60, 117.75, 41.40 C 117.89 39.20, 118.03 36.79, 118.03, 34.50 C 118.04 29.49, 117.50 25.71, 117.51, 20.70 C 117.51 18.41, 117.66 16.00, 117.80, 13.80 C 117.94 11.60, 118.08 9.19, 118.08, 6.90 C 118.09 4.62, 117.96 2.20, 117.82, 0.00" fill="#89a773" fill-opacity="0.490196" label="outline" layer="0" /><path d="M 59.90 11.89 C 59.75 14.27, 59.59 16.88, 59.57, 19.36 C 59.53 24.79, 60.05 28.88, 60.02, 34.31 C 60.00 36.78, 59.84 39.40, 59.69, 41.78 C 59.53 44.15, 59.38 46.77, 59.36, 49.25 C 59.34 51.72, 59.46 54.34, 59.58, 56.72 C 61.01 57.50, 62.58 58.34, 64.13, 59.02 C 67.51 60.51, 70.28 61.12, 73.66, 62.61 C 75.20 63.29, 76.78 64.13, 78.21, 64.91 C 79.64 65.68, 81.21 66.53, 82.75, 67.21 C 84.30 67.88, 85.98 68.47, 87.52, 69.00 C 87.66 66.80, 87.80 64.39, 87.81, 62.10 C 87.81 57.09, 87.27 53.31, 87.27, 48.30 C 87.27 46.01, 87.41 43.60, 87.55, 41.40 C 87.69 39.20, 87.84 36.79, 87.84, 34.50 C 87.84 29.49, 87.30 25.71, 87.30, 20.70 C 87.31 18.41, 87.45 16.00, 87.59, 13.80 C 87.73 11.60, 87.87 9.19, 87.87, 6.90 C 87.87 4.61, 87.74 2.20, 87.60, 0.00 C 86.08 0.50, 84.41 1.07, 82.88, 1.73 C 79.52 3.17, 77.22 4.76, 73.86, 6.20 C 72.33 6.85, 70.66 7.42, 69.13, 7.93 C 67.61 8.43, 65.94 9.00, 64.41, 9.65 C 62.88 10.31, 61.32 11.13, 59.90, 11.89" fill="#87b084" fill-opacity="0.427451" label="outline" layer="0" /><path d="M 20.91 28.94 C 23.32 29.18, 25.98 29.45, 28.46, 29.84 C 33.92 30.68, 37.94 31.86, 43.40, 32.71 C 45.89 33.09, 48.54 33.36, 50.95, 33.60 C 53.37 33.83, 56.02 34.11, 58.51, 34.49 C 60.99 34.88, 63.61 35.42, 65.98, 35.93 C 63.60 36.38, 60.99 36.87, 58.50, 37.20 C 53.04 37.93, 48.87 37.93, 43.41, 38.65 C 40.92 38.99, 38.30 39.47, 35.93, 39.93 C 33.56 40.38, 30.95 40.87, 28.46, 41.20 C 25.97 41.53, 23.32 41.74, 20.91, 41.93 C 19.05 41.09, 17.00 40.16, 15.13, 39.17 C 13.26 38.18, 11.35 37.00, 9.61, 35.93 C 11.34 34.70, 13.25 33.36, 15.12, 32.20 C 16.99 31.05, 19.04 29.94, 20.91, 28.94" fill="#b1c26f" fill-opacity="0.729412" label="middle" layer="1" /><path d="M 187.21 47.23 C 189.57 48.02, 192.17 48.89, 194.67, 49.58 C 200.15 51.09, 204.41 51.70, 209.89, 53.21 C 212.39 53.90, 214.99 54.76, 217.35, 55.56 C 219.71 56.36, 222.32 57.22, 224.82, 57.91 C 227.31 58.60, 229.99 59.20, 232.43, 59.73 C 232.79 57.31, 233.17 54.65, 233.41, 52.12 C 233.93 46.58, 233.77 42.36, 234.28, 36.82 C 234.52 34.29, 234.90 31.63, 235.27, 29.21 C 235.63 26.80, 236.02 24.14, 236.25, 21.61 C 236.49 19.09, 236.60 16.40, 236.69, 13.96 C 234.85 14.04, 232.84 14.15, 230.94, 14.38 C 226.79 14.88, 223.74 15.80, 219.59, 16.30 C 217.70 16.53, 215.68 16.64, 213.85, 16.72 C 212.01 16.81, 210.00 16.91, 208.10, 17.14 C 203.95 17.64, 200.90 18.57, 196.75, 19.07 C 194.86 19.30, 192.84 19.40, 191.01, 19.49 C 189.17 19.57, 187.16 19.68, 185.26, 19.91 C 183.37 20.14, 181.39 20.51, 179.59, 20.87 C 179.86 22.31, 180.17 23.88, 180.59, 25.34 C 181.52 28.53, 182.74 30.78, 183.66, 33.97 C 184.08 35.43, 184.39 37.01, 184.67, 38.44 C 184.94 39.88, 185.25 41.46, 185.67, 42.91 C 186.09 44.37, 186.67 45.87, 187.21, 47.23" fill="#aab56b" fill-opacity="0.729412" label="middle" layer="1" /><path d="M 168.24 21.37 C 170.15 17.90, 172.26 14.08, 174.36, 10.54 C 176.47 7.01, 178.81 3.33, 180.95, 0.00 C 181.07 1.92, 181.18 4.03, 181.16, 6.02 C 181.11 10.40, 180.53 13.68, 180.48, 18.06 C 180.46 20.05, 180.57 22.16, 180.69, 24.08 C 180.81 26.00, 180.92 28.11, 180.90, 30.10 C 180.85 34.48, 180.27 37.76, 180.22, 42.14 C 180.20 44.13, 180.32 46.24, 180.43, 48.16 C 180.55 50.08, 180.66 52.19, 180.64, 54.18 C 180.62 56.17, 180.46 58.28, 180.30, 60.20 C 176.36 60.56, 172.02 60.94, 167.90, 61.18 C 163.79 61.41, 159.43 61.52, 155.48, 61.61 C 156.02 59.43, 156.64 57.04, 157.34, 54.82 C 158.89 49.95, 160.57 46.45, 162.12, 41.57 C 162.83 39.35, 163.44 36.96, 163.99, 34.78 C 164.53 32.61, 165.15 30.21, 165.85, 27.99 C 166.56 25.77, 167.43 23.46, 168.24, 21.37" fill="#0091bd" fill-opacity="0.286275" label="middle" layer="1" /><path d="M 70.11 16.36 C 70.16 18.12, 70.22 20.06, 70.41, 21.88 C 70.82 25.87, 71.68 28.81, 72.09, 32.80 C 72.28 34.62, 72.34 36.56, 72.38, 38.32 C 72.43 40.08, 72.49 42.02, 72.68, 43.84 C 72.87 45.66, 73.20 47.57, 73.52, 49.30 C 75.83 49.31, 78.37 49.31, 80.76, 49.18 C 86.01 48.90, 89.93 48.14, 95.18, 47.85 C 97.57 47.72, 100.11 47.72, 102.42, 47.73 C 104.73 47.75, 107.27 47.74, 109.66, 47.62 C 112.05 47.49, 114.58 47.21, 116.87, 46.95 C 118.08 46.39, 119.41 45.76, 120.59, 45.05 C 123.19 43.50, 124.87 41.87, 127.47, 40.32 C 128.66 39.61, 129.99 38.98, 131.20, 38.42 C 132.41 37.86, 133.73 37.24, 134.92, 36.53 C 136.10 35.82, 137.29 34.96, 138.36, 34.16 C 136.22 33.46, 133.86 32.71, 131.60, 32.12 C 126.64 30.82, 122.78 30.38, 117.82, 29.09 C 115.55 28.50, 113.20 27.74, 111.06, 27.04 C 108.92 26.34, 106.56 25.59, 104.30, 25.00 C 99.34 23.70, 95.48 23.26, 90.52, 21.97 C 88.26 21.38, 85.90 20.62, 83.76, 19.92 C 81.62 19.22, 79.27 18.47, 77.01, 17.88 C 74.74 17.29, 72.32 16.80, 70.11, 16.36" fill="#99ae74" fill-opacity="0.886275" label="middle" layer="1" /><path d="M 225.00 0.00 C 224.86 2.20, 224.72 4.61, 224.72, 6.90 C 224.72 11.91, 225.28 15.69, 225.28, 20.70 C 225.28 22.99, 225.14 25.40, 225.00, 27.60 C 224.86 29.80, 224.72 32.21, 224.72, 34.50 C 224.72 39.51, 225.28 43.29, 225.28, 48.30 C 225.28 50.59, 225.14 53.00, 225.00, 55.20 C 224.86 57.40, 224.72 59.81, 224.72, 62.10 C 224.72 64.39, 224.86 66.80, 225.00, 69.00 C 225.91 67.69, 226.91 66.24, 227.74, 64.80 C 229.56 61.65, 230.44 59.01, 232.26, 55.86 C 233.09 54.43, 234.09 52.98, 235.00, 51.67 C 235.91 50.36, 236.91 48.91, 237.74, 47.47 C 238.57 46.04, 239.32 44.45, 240.00, 43.00 C 239.33 40.67, 238.59 38.12, 237.76, 35.74 C 235.94 30.53, 234.06 26.80, 232.24, 21.59 C 231.41 19.22, 230.67 16.66, 230.00, 14.33 C 229.33 12.01, 228.59 9.45, 227.76, 7.08 C 226.93 4.70, 225.93 2.24, 225.00, 0.00" fill="#9bab7a" fill-opacity="0.513725" label="middle" layer="1" /><path d="M 152.11 0.00 C 152.77 2.36, 153.47 4.96, 154.01, 7.45 C 155.20 12.91, 155.56 17.13, 156.74, 22.59 C 157.28 25.08, 157.99 27.68, 158.65, 30.04 C 159.30 32.40, 160.01 35.00, 160.55, 37.49 C 161.09 39.98, 161.53 42.64, 161.91, 45.06 C 160.42 46.13, 158.78 47.30, 157.16, 48.29 C 155.53 49.29, 153.74 50.22, 152.11, 51.06 C 151.45 50.17, 150.74 49.19, 150.18, 48.19 C 149.63 47.20, 149.15 46.08, 148.74, 45.06 C 148.78 42.66, 148.84 40.02, 149.03, 37.53 C 149.43 32.07, 150.29 28.01, 150.70, 22.55 C 150.88 20.06, 150.94 17.42, 150.99, 15.02 C 151.03 12.62, 151.09 9.98, 151.27, 7.49 C 151.46 5.00, 151.79 2.38, 152.11, 0.00" fill="#dcc849" fill-opacity="0.458824" label="middle" layer="1" /><path d="M 114.00 0.00 C 113.86 2.20, 113.72 4.61, 113.72, 6.90 C 113.72 11.91, 114.28 15.69, 114.28, 20.70 C 114.28 22.99, 114.14 25.40, 114.00, 27.60 C 113.86 29.80, 113.72 32.21, 113.72, 34.50 C 113.72 39.51, 114.28 43.29, 114.28, 48.30 C 114.28 50.59, 114.14 53.00, 114.00, 55.20 C 113.86 57.40, 113.72 59.81, 113.72, 62.10 C 113.72 64.39, 113.86 66.80, 114.00, 69.00 C 114.72 66.86, 115.49 64.50, 116.10, 62.24 C 117.43 57.27, 117.90 53.39, 119.23, 48.43 C 119.84 46.17, 120.62 43.81, 121.33, 41.67 C 122.05 39.53, 122.83 37.17, 123.43, 34.90 C 124.04 32.64, 124.55 30.21, 125.00, 28.00 C 124.54 26.46, 124.03 24.78, 123.42, 23.23 C 122.09 19.84, 120.58 17.49, 119.24, 14.10 C 118.64 12.55, 118.12 10.87, 117.67, 9.33 C 117.21 7.80, 116.70 6.11, 116.09, 4.57 C 115.48 3.02, 114.71 1.44, 114.00, 0.00" fill="#b8b261" fill-opacity="0.466667" label="middle" layer="1" /><path d="M 227.89 0.00 C 229.93 3.38, 232.16 7.12, 234.15, 10.71 C 236.15 14.30, 238.14 18.16, 239.93, 21.68 C 239.43 24.22, 238.86 27.02, 238.19, 29.63 C 236.73 35.36, 235.10 39.54, 233.65, 45.27 C 232.98 47.88, 232.41 50.68, 231.90, 53.23 C 231.40 55.77, 230.83 58.57, 230.16, 61.18 C 229.50 63.79, 228.66 66.52, 227.89, 69.00 C 227.37 66.51, 226.81 63.77, 226.41, 61.15 C 225.54 55.42, 225.42 51.03, 224.55, 45.30 C 224.15 42.69, 223.59 39.94, 223.07, 37.45 C 222.55 34.96, 221.99 32.22, 221.59, 29.61 C 221.19 26.99, 220.90 24.21, 220.66, 21.68 C 221.68 18.18, 222.81 14.34, 224.01, 10.75 C 225.21 7.16, 226.61 3.41, 227.89, 0.00" fill="#859f72" fill-opacity="0.564706" label="middle" layer="1" /><path d="M 84.63 0.00 C 85.19 1.81, 85.79 3.80, 86.23, 5.72 C 87.19 9.92, 87.38 13.20, 88.35, 17.40 C 88.79 19.31, 89.39 21.31, 89.95, 23.11 C 90.50 24.92, 91.10 26.92, 91.54, 28.83 C 91.98 30.75, 92.32 32.80, 92.61, 34.67 C 92.32 36.52, 91.98 38.56, 91.54, 40.46 C 90.58 44.61, 89.32 47.62, 88.35, 51.77 C 87.91 53.67, 87.58 55.71, 87.29, 57.56 C 87.00 59.41, 86.67 61.45, 86.23, 63.34 C 85.79 65.24, 85.19 67.21, 84.63, 69.00 C 84.27 67.20, 83.89 65.21, 83.66, 63.31 C 83.15 59.15, 83.31 55.96, 82.81, 51.80 C 82.57 49.91, 82.19 47.92, 81.83, 46.11 C 81.48 44.31, 81.09 42.32, 80.86, 40.43 C 80.63 38.53, 80.52 36.51, 80.44, 34.67 C 80.52 32.82, 80.63 30.77, 80.86, 28.86 C 81.37 24.66, 82.30 21.57, 82.81, 17.37 C 83.04 15.46, 83.15 13.41, 83.23, 11.56 C 83.32 9.70, 83.43 7.66, 83.66, 5.75 C 83.89 3.83, 84.27 1.82, 84.63, 0.00" fill="#799f7b" fill-opacity="0.796078" label="middle" layer="1" /><path d="M 58.39 36.65 C 58.89 38.41, 59.46 40.35, 60.11, 42.13 C 61.55 46.05, 63.15 48.81, 64.59, 52.73 C 65.25 54.51, 65.81 56.45, 66.31, 58.22 C 66.81 59.98, 67.38 61.92, 68.03, 63.70 C 68.69 65.49, 69.51 67.33, 70.27, 69.00 C 70.49 67.06, 70.72 64.92, 70.81, 62.90 C 71.00 58.46, 70.59 55.09, 70.78, 50.65 C 70.87 48.62, 71.10 46.49, 71.32, 44.55 C 71.54 42.61, 71.77 40.47, 71.85, 38.45 C 72.04 34.00, 71.63 30.64, 71.82, 26.20 C 71.91 24.17, 72.14 22.04, 72.36, 20.10 C 72.58 18.16, 72.81 16.02, 72.90, 14.00 C 72.98 11.97, 72.94 9.82, 72.88, 7.87 C 70.87 10.23, 68.66 12.84, 66.68, 15.39 C 64.70 17.94, 62.71 20.72, 60.91, 23.25 C 60.38 25.35, 59.80 27.68, 59.38, 29.90 C 58.96 32.12, 58.66 34.49, 58.39, 36.65" fill="#4bb4a8" fill-opacity="0.356863" label="middle" layer="1" /><path d="M 194.49 15.48 Q 195.30 14.22, 196.48 15.14 L 211.60 26.93 Q 212.79 27.86, 212.10 29.19 L 195.98 60.43 Q 195.30 61.76, 194.92 60.31 L 186.93 29.31 Q 186.55 27.86, 187.36 26.59 L 194.49 15.48" fill="#d5b750" fill-opacity="0.482353" label="detail" layer="2" /><path d="M 37.62 29.14 Q 39.07 28.76, 40.52 29.14 L 63.63 35.14 Q 65.09 35.52, 63.62 35.86 L 40.53 41.18 Q 39.07 41.52, 37.61 41.18 L 14.69 35.86 Q 13.22 35.52, 14.68 35.14 L 37.62 29.14" fill="#acb869" fill-opacity="0.564706" label="detail" layer="2" /><path d="M 103.88 8.92 Q 104.10 7.43, 104.63 8.84 L 110.51 24.73 Q 111.04 26.14, 110.73 27.60 L 104.42 57.45 Q 104.10 58.92, 103.97 57.43 L 101.36 27.63 Q 101.23 26.14, 101.45 24.65 L 103.88 8.92" fill="#ceb34d" fill-opacity="0.545098" label="detail" layer="2" /><path d="M 97.77 9.45 Q 98.07 7.98, 98.41 9.44 L 102.33 26.66 Q 102.66 28.13, 102.45 29.61 L 98.28 59.08 Q 98.07 60.57, 97.88 59.08 L 94.11 29.61 Q 93.92 28.13, 94.23 26.66 L 97.77 9.45" fill="#0a96b5" fill-opacity="0.364706" label="detail" layer="2" /><path d="M 215.90 1.47 Q 216.18 -0.00, 216.54 1.46 L 224.79 35.22 Q 225.15 36.68, 224.74 38.13 L 216.58 67.55 Q 216.18 69.00, 215.87 67.53 L 209.56 38.15 Q 209.25 36.68, 209.53 35.21 L 215.90 1.47" fill="#87b272" fill-opacity="0.478431" label="detail" layer="2" /></g>
<g><text style="font-size: 20px;" x="15" y="20">bpm: 126</text><text style="font-size: 20px;" x="15" y="40">Mood: 4</text><text style="font-size: 20px;" x="15" y="60">Density: 7</text><text style="font-size: 20px;" x="15" y="80">Gravity: 7</text><text style="font-size: 20px;" x="15" y="100">Energy: 7</text><text style="font-size: 20px;" x="15" y="120">Ensemble: 9</text><text style="font-size: 20px;" x="15" y="140">Melody: 3</text><text style="font-size: 20px;" x="15" y="160">Tension: 1</text><text style="font-size: 20px;" x="15" y="180">Rhythm: 8</text><text style="font-size: 20px;" x="15" y="200"># shapes=20</text></g></svg>