<svg xmlns="http://www.w3.org/2000/svg" height="280" preserveAspectRatio="none" version="1.1" width="930">
<rect fill="none" height="280" width="1024" x="0" y="0" />
<g transform="scale(4.0000) translate(-11.13636363636364, 0.5)">
<polygon fill="#96ad70" fill-opacity="0.890196" label="outline" layer="0" points="246.091979,50.842640,104.242429,53.750021,18.147004,33.094759,215.880421,15.917940" />
<polygon fill="#90ad75" fill-opacity="0.596078" label="outline" layer="0" points="115.329989,0.000000,126.389120,26.155554,116.128599,69.000000,1.131929,35.685752" />
<polygon fill="#a4bf79" fill-opacity="0.517647" label="outline" layer="0" points="201.143675,-0.000000,255.000000,18.453041,201.143675,69.000000,149.729961,18.453041" />
<polygon fill="#9bb67d" fill-opacity="0.556863" label="outline" layer="0" points="227.532977,-0.000000,243.378999,52.285585,227.532977,69.000000,212.009807,52.285585" />
<polygon fill="#8bb484" fill-opacity="0.513725" label="outline" layer="0" points="66.604140,7.472717,121.365988,16.670050,66.604140,69.000000,58.387556,16.670050" />
<path d="M 150.48 9.54 L 194.08 34.86 L 239.54 56.64 L 194.88 57.65 L 150.48 62.64 L 151.38 59.01 L 148.48 56.64 L 151.48 33.17 " fill="#97b775" fill-opacity="0.407843" label="middle" layer="1" /><path d="M 187.14 28.55 L 202.56 46.67 L 214.72 67.12 L 225.87 51.04 L 240.05 37.56 L 234.67 19.14 L 233.22 0.00 L 211.23 15.97 " fill="#abb367" fill-opacity="0.447059" label="middle" layer="1" /><path d="M 84.89 0.00 L 89.08 12.95 L 96.86 24.13 L 88.94 46.05 L 84.89 69.00 L 82.74 46.20 L 76.65 24.13 L 82.66 12.71 " fill="#809c72" fill-opacity="0.694118" label="middle" layer="1" /><path d="M 15.31 27.13 L 41.24 33.13 L 67.77 35.18 L 41.31 36.19 L 15.31 41.18 L 14.49 36.93 L 10.54 35.18 L 14.65 32.17 " fill="#b6c871" fill-opacity="0.533333" label="middle" layer="1" /><path d="M 180.89 10.28 L 170.97 17.04 L 159.38 20.16 L 164.74 35.79 L 166.18 52.24 L 174.86 53.90 L 181.91 59.22 L 179.40 34.79 " fill="#46a39f" fill-opacity="0.560784" label="middle" layer="1" /><path d="M 187.00 10.00 L 189.00 34.50 L 187.00 59.00 L 200.52 41.15 L 217.00 26.00 L 201.06 19.76 " fill="#d4b851" fill-opacity="0.513725" label="middle" layer="1" /><path d="M 61.00 17.00 L 63.00 34.50 L 61.00 52.00 L 91.69 36.17 L 124.00 24.00 L 92.28 22.49 " fill="#89b381" fill-opacity="0.650980" label="middle" layer="1" /><path d="M 234.47 3.23 L 235.14 30.80 L 231.81 58.17 L 233.95 49.50 L 239.66 42.63 L 237.07 31.50 L 238.48 20.16 L 234.52 12.16 " fill="#50a193" fill-opacity="0.635294" label="middle" layer="1" /><path d="M 152.33 0.00 L 154.92 22.02 L 161.42 43.22 L 155.59 45.48 L 152.33 50.81 L 151.77 45.99 L 147.78 43.22 L 152.04 21.82 " fill="#f9d545" fill-opacity="0.356863" label="middle" layer="1" /><path d="M 104.84 8.79 L 105.52 22.10 L 110.13 34.60 L 105.53 46.38 L 104.84 59.01 L 104.34 46.41 L 99.93 34.60 L 104.35 22.07 " fill="#d8b84d" fill-opacity="0.513725" label="middle" layer="1" /><polygon fill="#ae9e50" fill-opacity="0.349020" label="detail" layer="2" points="81.452929,69.000000,67.749052,18.298182,74.766733,0.478281,88.657568,69.000000" />
<polygon fill="#b9b566" fill-opacity="0.541176" label="detail" layer="2" points="114,4 114,65 123,32" />
<polygon fill="#c0af6a" fill-opacity="0.458824" label="detail" layer="2" points="225,0 225,69 236,38" />
<polygon fill="#008eb7" fill-opacity="0.223529" label="detail" layer="2" points="62.506494,-0.000000,68.244973,36.465423,62.506494,69.000000,58.056364,36.465423" />
<polygon fill="#60a992" fill-opacity="0.835294" label="detail" layer="2" points="96.002126,48.900301,93.015168,22.932207,101.346372,13.956394,101.669173,60.385486" />
</g>
<g><text style="font-size: 20px;" x="15" y="20">bpm: 126</text><text style="font-size: 20px;" x="15" y="40">Mood: 1</text><text style="font-size: 20px;" x="15" y="60">Density: 7</text><text style="font-size: 20px;" x="15" y="80">Gravity: 7</text><text style="font-size: 20px;" x="15" y="100">Energy: 7</text><text style="font-size: 20px;" x="15" y="120">Ensemble: 9</text><text style="font-size: 20px;" x="15" y="140">Melody: 3</text><text style="font-size: 20px;" x="15" y="160">Tension: 7</text><text style="font-size: 20px;" x="15" y="180">Rhythm: 8</text><text style="font-size: 20px;" x="15" y="200"># shapes=20</text></g></svg>